%TF.GenerationSoftware,KiCad,Pcbnew,9.0.3*%
%TF.CreationDate,2026-01-22T07:10:48-05:00*%
%TF.ProjectId,PicoTop Board,5069636f-546f-4702-9042-6f6172642e6b,rev?*%
%TF.SameCoordinates,Original*%
%TF.FileFunction,Paste,Top*%
%TF.FilePolarity,Positive*%
%FSLAX46Y46*%
G04 Gerber Fmt 4.6, Leading zero omitted, Abs format (unit mm)*
G04 Created by KiCad (PCBNEW 9.0.3) date 2026-01-22 07:10:48*
%MOMM*%
%LPD*%
G01*
G04 APERTURE LIST*
G04 Aperture macros list*
%AMRoundRect*
0 Rectangle with rounded corners*
0 $1 Rounding radius*
0 $2 $3 $4 $5 $6 $7 $8 $9 X,Y pos of 4 corners*
0 Add a 4 corners polygon primitive as box body*
4,1,4,$2,$3,$4,$5,$6,$7,$8,$9,$2,$3,0*
0 Add four circle primitives for the rounded corners*
1,1,$1+$1,$2,$3*
1,1,$1+$1,$4,$5*
1,1,$1+$1,$6,$7*
1,1,$1+$1,$8,$9*
0 Add four rect primitives between the rounded corners*
20,1,$1+$1,$2,$3,$4,$5,0*
20,1,$1+$1,$4,$5,$6,$7,0*
20,1,$1+$1,$6,$7,$8,$9,0*
20,1,$1+$1,$8,$9,$2,$3,0*%
%AMFreePoly0*
4,1,11,0.760000,0.825000,0.380000,0.510000,0.380000,-0.510000,0.760000,-0.825000,0.760000,-1.525000,-0.125000,-1.525000,-0.380000,-1.270000,-0.380000,1.270000,-0.125000,1.525000,0.760000,1.525000,0.760000,0.825000,0.760000,0.825000,$1*%
G04 Aperture macros list end*
%ADD10C,0.010000*%
%ADD11RoundRect,0.160000X-0.160000X-0.160000X0.160000X-0.160000X0.160000X0.160000X-0.160000X0.160000X0*%
%ADD12RoundRect,0.087500X-0.325000X-0.087500X0.325000X-0.087500X0.325000X0.087500X-0.325000X0.087500X0*%
%ADD13RoundRect,0.087500X-0.087500X-0.325000X0.087500X-0.325000X0.087500X0.325000X-0.087500X0.325000X0*%
%ADD14R,0.100000X0.100000*%
%ADD15R,0.200000X0.875000*%
%ADD16R,0.875000X0.200000*%
%ADD17RoundRect,0.135000X-0.135000X-0.185000X0.135000X-0.185000X0.135000X0.185000X-0.135000X0.185000X0*%
%ADD18RoundRect,0.218750X0.218750X0.256250X-0.218750X0.256250X-0.218750X-0.256250X0.218750X-0.256250X0*%
%ADD19RoundRect,0.135000X0.185000X-0.135000X0.185000X0.135000X-0.185000X0.135000X-0.185000X-0.135000X0*%
%ADD20RoundRect,0.135000X0.135000X0.185000X-0.135000X0.185000X-0.135000X-0.185000X0.135000X-0.185000X0*%
%ADD21RoundRect,0.140000X-0.140000X-0.170000X0.140000X-0.170000X0.140000X0.170000X-0.140000X0.170000X0*%
%ADD22RoundRect,0.250000X0.255000X0.255000X-0.255000X0.255000X-0.255000X-0.255000X0.255000X-0.255000X0*%
%ADD23RoundRect,0.062500X0.350000X0.062500X-0.350000X0.062500X-0.350000X-0.062500X0.350000X-0.062500X0*%
%ADD24RoundRect,0.062500X0.062500X0.350000X-0.062500X0.350000X-0.062500X-0.350000X0.062500X-0.350000X0*%
%ADD25R,0.750000X1.700000*%
%ADD26R,1.700000X1.500000*%
%ADD27R,1.500000X1.700000*%
%ADD28R,1.600000X1.500000*%
%ADD29R,1.300000X1.300000*%
%ADD30R,1.300000X1.000000*%
%ADD31RoundRect,0.162500X0.650000X0.162500X-0.650000X0.162500X-0.650000X-0.162500X0.650000X-0.162500X0*%
%ADD32R,0.900000X0.400000*%
%ADD33RoundRect,0.225000X-0.225000X-0.250000X0.225000X-0.250000X0.225000X0.250000X-0.225000X0.250000X0*%
%ADD34R,0.850000X0.300000*%
%ADD35RoundRect,0.140000X0.170000X-0.140000X0.170000X0.140000X-0.170000X0.140000X-0.170000X-0.140000X0*%
%ADD36RoundRect,0.135000X-0.185000X0.135000X-0.185000X-0.135000X0.185000X-0.135000X0.185000X0.135000X0*%
%ADD37RoundRect,0.150000X-0.587500X-0.150000X0.587500X-0.150000X0.587500X0.150000X-0.587500X0.150000X0*%
%ADD38RoundRect,0.250000X0.550000X-0.250000X0.550000X0.250000X-0.550000X0.250000X-0.550000X-0.250000X0*%
%ADD39RoundRect,0.225000X-0.250000X0.225000X-0.250000X-0.225000X0.250000X-0.225000X0.250000X0.225000X0*%
%ADD40RoundRect,0.225000X0.225000X0.250000X-0.225000X0.250000X-0.225000X-0.250000X0.225000X-0.250000X0*%
%ADD41RoundRect,0.150000X0.512500X0.150000X-0.512500X0.150000X-0.512500X-0.150000X0.512500X-0.150000X0*%
%ADD42RoundRect,0.225000X0.250000X-0.225000X0.250000X0.225000X-0.250000X0.225000X-0.250000X-0.225000X0*%
%ADD43RoundRect,0.175000X-0.175000X-0.425000X0.175000X-0.425000X0.175000X0.425000X-0.175000X0.425000X0*%
%ADD44RoundRect,0.190000X0.190000X0.410000X-0.190000X0.410000X-0.190000X-0.410000X0.190000X-0.410000X0*%
%ADD45RoundRect,0.200000X0.200000X0.400000X-0.200000X0.400000X-0.200000X-0.400000X0.200000X-0.400000X0*%
%ADD46RoundRect,0.175000X0.175000X0.425000X-0.175000X0.425000X-0.175000X-0.425000X0.175000X-0.425000X0*%
%ADD47RoundRect,0.190000X-0.190000X-0.410000X0.190000X-0.410000X0.190000X0.410000X-0.190000X0.410000X0*%
%ADD48RoundRect,0.200000X-0.200000X-0.400000X0.200000X-0.400000X0.200000X0.400000X-0.200000X0.400000X0*%
%ADD49O,1.100000X1.700000*%
%ADD50RoundRect,0.140000X0.140000X0.170000X-0.140000X0.170000X-0.140000X-0.170000X0.140000X-0.170000X0*%
%ADD51FreePoly0,270.000000*%
%ADD52FreePoly0,90.000000*%
%ADD53R,2.100000X1.700000*%
%ADD54RoundRect,0.150000X-0.150000X-0.200000X0.150000X-0.200000X0.150000X0.200000X-0.150000X0.200000X0*%
%ADD55R,2.700000X3.600000*%
%ADD56R,1.400000X1.200000*%
%ADD57R,1.000000X0.900000*%
%ADD58RoundRect,0.250000X-0.320000X-0.295000X0.320000X-0.295000X0.320000X0.295000X-0.320000X0.295000X0*%
%ADD59RoundRect,0.150000X0.587500X0.150000X-0.587500X0.150000X-0.587500X-0.150000X0.587500X-0.150000X0*%
%ADD60RoundRect,0.140000X-0.170000X0.140000X-0.170000X-0.140000X0.170000X-0.140000X0.170000X0.140000X0*%
G04 APERTURE END LIST*
D10*
%TO.C,U4*%
X69654472Y-169132456D02*
X68895528Y-169132456D01*
X68895528Y-167867544D01*
X69654472Y-167867544D01*
X69654472Y-169132456D01*
G36*
X69654472Y-169132456D02*
G01*
X68895528Y-169132456D01*
X68895528Y-167867544D01*
X69654472Y-167867544D01*
X69654472Y-169132456D01*
G37*
%TD*%
D11*
%TO.C,U3*%
X70912500Y-156025000D03*
X70912500Y-156925000D03*
X70912500Y-157825000D03*
X71812500Y-156025000D03*
X71812500Y-156925000D03*
X71812500Y-157825000D03*
X72712500Y-156025000D03*
X72712500Y-156925000D03*
X72712500Y-157825000D03*
D12*
X69850000Y-155950000D03*
X69850000Y-156600000D03*
X69850000Y-157250000D03*
X69850000Y-157900000D03*
D13*
X70837500Y-158887500D03*
X71487500Y-158887500D03*
X72137500Y-158887500D03*
X72787500Y-158887500D03*
D12*
X73775000Y-157900000D03*
X73775000Y-157250000D03*
X73775000Y-156600000D03*
X73775000Y-155950000D03*
D13*
X72787500Y-154962500D03*
X72137500Y-154962500D03*
X71487500Y-154962500D03*
X70837500Y-154962500D03*
%TD*%
D14*
%TO.C,U1*%
X83125000Y-177275000D03*
X83975000Y-177275000D03*
X84825000Y-177275000D03*
X85675000Y-177275000D03*
X83125000Y-176425000D03*
X83975000Y-176425000D03*
X84825000Y-176425000D03*
X85675000Y-176425000D03*
X83125000Y-175575000D03*
X83975000Y-175575000D03*
X84825000Y-175575000D03*
X85675000Y-175575000D03*
X83125000Y-174725000D03*
X83975000Y-174725000D03*
X84825000Y-174725000D03*
X85675000Y-174725000D03*
D15*
X81600000Y-179437500D03*
X82000000Y-179437500D03*
X82400000Y-179437500D03*
X82800000Y-179437500D03*
X83200000Y-179437500D03*
X83600000Y-179437500D03*
X84000000Y-179437500D03*
X84400000Y-179437500D03*
X84800000Y-179437500D03*
X85200000Y-179437500D03*
X85600000Y-179437500D03*
X86000000Y-179437500D03*
X86400000Y-179437500D03*
X86800000Y-179437500D03*
X87200000Y-179437500D03*
D16*
X87837500Y-178800000D03*
X87837500Y-178400000D03*
X87837500Y-178000000D03*
X87837500Y-177600000D03*
X87837500Y-177200000D03*
X87837500Y-176800000D03*
X87837500Y-176400000D03*
X87837500Y-176000000D03*
X87837500Y-175600000D03*
X87837500Y-175200000D03*
X87837500Y-174800000D03*
X87837500Y-174400000D03*
X87837500Y-174000000D03*
X87837500Y-173600000D03*
X87837500Y-173200000D03*
D15*
X87200000Y-172562500D03*
X86800000Y-172562500D03*
X86400000Y-172562500D03*
X86000000Y-172562500D03*
X85600000Y-172562500D03*
X85200000Y-172562500D03*
X84800000Y-172562500D03*
X84400000Y-172562500D03*
X84000000Y-172562500D03*
X83600000Y-172562500D03*
X83200000Y-172562500D03*
X82800000Y-172562500D03*
X82400000Y-172562500D03*
X82000000Y-172562500D03*
X81600000Y-172562500D03*
D16*
X80962500Y-173200000D03*
X80962500Y-173600000D03*
X80962500Y-174000000D03*
X80962500Y-174400000D03*
X80962500Y-174800000D03*
X80962500Y-175200000D03*
X80962500Y-175600000D03*
X80962500Y-176000000D03*
X80962500Y-176400000D03*
X80962500Y-176800000D03*
X80962500Y-177200000D03*
X80962500Y-177600000D03*
X80962500Y-178000000D03*
X80962500Y-178400000D03*
X80962500Y-178800000D03*
%TD*%
D17*
%TO.C,R8*%
X55615000Y-169812500D03*
X56635000Y-169812500D03*
%TD*%
D18*
%TO.C,D1*%
X53912500Y-169812500D03*
X52337500Y-169812500D03*
%TD*%
D19*
%TO.C,R12*%
X79025000Y-154410000D03*
X79025000Y-153390000D03*
%TD*%
D20*
%TO.C,R21*%
X90110000Y-182000000D03*
X89090000Y-182000000D03*
%TD*%
D21*
%TO.C,C24*%
X91020000Y-177200000D03*
X91980000Y-177200000D03*
%TD*%
D22*
%TO.C,U2*%
X58750000Y-173750000D03*
X58750000Y-172500000D03*
X57500000Y-173750000D03*
X57500000Y-172500000D03*
D23*
X60062500Y-174125000D03*
X60062500Y-173625000D03*
X60062500Y-173125000D03*
X60062500Y-172625000D03*
X60062500Y-172125000D03*
D24*
X59125000Y-171187500D03*
X58625000Y-171187500D03*
X58125000Y-171187500D03*
X57625000Y-171187500D03*
X57125000Y-171187500D03*
D23*
X56187500Y-172125000D03*
X56187500Y-172625000D03*
X56187500Y-173125000D03*
X56187500Y-173625000D03*
X56187500Y-174125000D03*
D24*
X57125000Y-175062500D03*
X57625000Y-175062500D03*
X58125000Y-175062500D03*
X58625000Y-175062500D03*
X59125000Y-175062500D03*
%TD*%
D21*
%TO.C,C17*%
X78357500Y-171250000D03*
X79317500Y-171250000D03*
%TD*%
D25*
%TO.C,J3*%
X91400000Y-166200000D03*
X90300000Y-166200000D03*
X89200000Y-166200000D03*
X88100000Y-166200000D03*
X87000000Y-166200000D03*
X85900000Y-166200000D03*
X84800000Y-166200000D03*
X83700000Y-166200000D03*
D26*
X94950000Y-166300000D03*
D27*
X95250000Y-151450000D03*
X81750000Y-151450000D03*
D28*
X82300000Y-166300000D03*
D29*
X81650000Y-164650000D03*
D30*
X81650000Y-157250000D03*
%TD*%
D31*
%TO.C,U5*%
X71087500Y-182655000D03*
X71087500Y-181385000D03*
X71087500Y-180115000D03*
X71087500Y-178845000D03*
X63912500Y-178845000D03*
X63912500Y-180115000D03*
X63912500Y-181385000D03*
X63912500Y-182655000D03*
%TD*%
D20*
%TO.C,R20*%
X100510000Y-186000000D03*
X99490000Y-186000000D03*
%TD*%
%TO.C,R16*%
X97260000Y-177250000D03*
X96240000Y-177250000D03*
%TD*%
D21*
%TO.C,C14*%
X96140000Y-175950000D03*
X97100000Y-175950000D03*
%TD*%
D32*
%TO.C,RN2*%
X100150000Y-166300000D03*
X100150000Y-167100000D03*
X100150000Y-167900000D03*
X100150000Y-168700000D03*
X101850000Y-168700000D03*
X101850000Y-167900000D03*
X101850000Y-167100000D03*
X101850000Y-166300000D03*
%TD*%
D33*
%TO.C,C5*%
X61100000Y-175312500D03*
X62650000Y-175312500D03*
%TD*%
D34*
%TO.C,U4*%
X70500000Y-169500000D03*
X70500000Y-169000000D03*
X70500000Y-168500000D03*
X70500000Y-168000000D03*
X70500000Y-167500000D03*
X68050000Y-167500000D03*
X68050000Y-168000000D03*
X68050000Y-168500000D03*
X68050000Y-169000000D03*
X68050000Y-169500000D03*
%TD*%
D35*
%TO.C,C16*%
X79337500Y-174400000D03*
X79337500Y-173200000D03*
%TD*%
D36*
%TO.C,R5*%
X60875000Y-170052500D03*
X60875000Y-171072500D03*
%TD*%
D21*
%TO.C,C19*%
X92120000Y-175600000D03*
X93080000Y-175600000D03*
%TD*%
D37*
%TO.C,Q2*%
X75525000Y-156000000D03*
X75525000Y-157900000D03*
X77400000Y-156950000D03*
%TD*%
D38*
%TO.C,L1*%
X76800000Y-174500000D03*
X76800000Y-172500000D03*
%TD*%
D39*
%TO.C,C6*%
X55125000Y-175287500D03*
X55125000Y-176837500D03*
%TD*%
D40*
%TO.C,C3*%
X56875000Y-151600000D03*
X55325000Y-151600000D03*
%TD*%
D19*
%TO.C,R11*%
X80025000Y-154410000D03*
X80025000Y-153390000D03*
%TD*%
D39*
%TO.C,C29*%
X97250000Y-164787500D03*
X97250000Y-166337500D03*
%TD*%
D41*
%TO.C,Q3*%
X93837500Y-183050000D03*
X93837500Y-181150000D03*
X91562500Y-182100000D03*
%TD*%
D33*
%TO.C,C11*%
X70700000Y-171250000D03*
X72250000Y-171250000D03*
%TD*%
D21*
%TO.C,C13*%
X92870000Y-172450000D03*
X93830000Y-172450000D03*
%TD*%
D42*
%TO.C,C12*%
X61837500Y-182370000D03*
X61837500Y-180820000D03*
%TD*%
D43*
%TO.C,J2*%
X46500000Y-183670000D03*
D44*
X48520000Y-183670000D03*
D45*
X49750000Y-183670000D03*
D46*
X47500000Y-183670000D03*
D47*
X45480000Y-183670000D03*
D48*
X44250000Y-183670000D03*
D49*
X42680000Y-183750000D03*
X42680000Y-187550000D03*
X51320000Y-183750000D03*
X51320000Y-187550000D03*
%TD*%
D50*
%TO.C,C21*%
X78580000Y-176500000D03*
X77620000Y-176500000D03*
%TD*%
D19*
%TO.C,R23*%
X52300000Y-173110000D03*
X52300000Y-172090000D03*
%TD*%
D17*
%TO.C,R6*%
X53365000Y-172062500D03*
X54385000Y-172062500D03*
%TD*%
D35*
%TO.C,C26*%
X84250000Y-170730000D03*
X84250000Y-169770000D03*
%TD*%
D17*
%TO.C,R7*%
X53365000Y-173062500D03*
X54385000Y-173062500D03*
%TD*%
D35*
%TO.C,C25*%
X89500000Y-171880000D03*
X89500000Y-170920000D03*
%TD*%
D17*
%TO.C,R3*%
X72980000Y-174750000D03*
X74000000Y-174750000D03*
%TD*%
D32*
%TO.C,RN1*%
X100650000Y-181300000D03*
X100650000Y-182100000D03*
X100650000Y-182900000D03*
X100650000Y-183700000D03*
X102350000Y-183700000D03*
X102350000Y-182900000D03*
X102350000Y-182100000D03*
X102350000Y-181300000D03*
%TD*%
D51*
%TO.C,L3*%
X73050000Y-167230000D03*
D52*
X73050000Y-169770000D03*
%TD*%
D36*
%TO.C,R1*%
X41000000Y-187000000D03*
X41000000Y-188020000D03*
%TD*%
D35*
%TO.C,C18*%
X83250000Y-170730000D03*
X83250000Y-169770000D03*
%TD*%
%TO.C,C15*%
X78337500Y-174400000D03*
X78337500Y-173200000D03*
%TD*%
D50*
%TO.C,C22*%
X79250000Y-180250000D03*
X78290000Y-180250000D03*
%TD*%
D20*
%TO.C,R19*%
X77347500Y-171250000D03*
X76327500Y-171250000D03*
%TD*%
D53*
%TO.C,LS1*%
X92750000Y-185050000D03*
X88950000Y-185050000D03*
X92750000Y-188550000D03*
%TD*%
D39*
%TO.C,C10*%
X66250000Y-168475000D03*
X66250000Y-170025000D03*
%TD*%
D33*
%TO.C,C4*%
X53250000Y-183250000D03*
X54800000Y-183250000D03*
%TD*%
D36*
%TO.C,R2*%
X41000000Y-184740000D03*
X41000000Y-185760000D03*
%TD*%
D17*
%TO.C,R4*%
X72980000Y-175750000D03*
X74000000Y-175750000D03*
%TD*%
D54*
%TO.C,D2*%
X90000000Y-183200000D03*
X88600000Y-183200000D03*
%TD*%
D20*
%TO.C,R13*%
X79035000Y-158150000D03*
X78015000Y-158150000D03*
%TD*%
D17*
%TO.C,R18*%
X92840000Y-174450000D03*
X93860000Y-174450000D03*
%TD*%
D36*
%TO.C,R25*%
X97250000Y-162052500D03*
X97250000Y-163072500D03*
%TD*%
D55*
%TO.C,L2*%
X57150000Y-157900000D03*
X65450000Y-157900000D03*
%TD*%
D56*
%TO.C,X1*%
X97700000Y-172650000D03*
X95500000Y-172650000D03*
X95500000Y-174250000D03*
X97700000Y-174250000D03*
%TD*%
D35*
%TO.C,C28*%
X80000000Y-162980000D03*
X80000000Y-162020000D03*
%TD*%
D40*
%TO.C,C7*%
X72550000Y-160650000D03*
X71000000Y-160650000D03*
%TD*%
D17*
%TO.C,R22*%
X90090000Y-180900000D03*
X91110000Y-180900000D03*
%TD*%
D35*
%TO.C,C27*%
X81500000Y-170730000D03*
X81500000Y-169770000D03*
%TD*%
D39*
%TO.C,C8*%
X68025000Y-154650000D03*
X68025000Y-156200000D03*
%TD*%
D36*
%TO.C,R15*%
X67200000Y-184290000D03*
X67200000Y-185310000D03*
%TD*%
D19*
%TO.C,R10*%
X79025000Y-157170000D03*
X79025000Y-156150000D03*
%TD*%
D57*
%TO.C,SW4*%
X100000000Y-178800000D03*
X100000000Y-174700000D03*
X101600000Y-178800000D03*
X101600000Y-174700000D03*
%TD*%
D39*
%TO.C,C31*%
X67000000Y-186725000D03*
X67000000Y-188275000D03*
%TD*%
D58*
%TO.C,C9*%
X71635000Y-152900000D03*
X73415000Y-152900000D03*
%TD*%
D20*
%TO.C,R14*%
X69760000Y-166250000D03*
X68740000Y-166250000D03*
%TD*%
D33*
%TO.C,C1*%
X53250000Y-184750000D03*
X54800000Y-184750000D03*
%TD*%
D17*
%TO.C,R24*%
X47490000Y-168200000D03*
X48510000Y-168200000D03*
%TD*%
D59*
%TO.C,Q1*%
X77462500Y-154350000D03*
X77462500Y-152450000D03*
X75587500Y-153400000D03*
%TD*%
D18*
%TO.C,D3*%
X53912500Y-168062500D03*
X52337500Y-168062500D03*
%TD*%
D60*
%TO.C,C23*%
X85500000Y-181020000D03*
X85500000Y-181980000D03*
%TD*%
%TO.C,C20*%
X83500000Y-181020000D03*
X83500000Y-181980000D03*
%TD*%
D17*
%TO.C,R9*%
X55615000Y-168812500D03*
X56635000Y-168812500D03*
%TD*%
M02*
