%TF.GenerationSoftware,KiCad,Pcbnew,9.0.3*%
%TF.CreationDate,2026-01-22T07:10:48-05:00*%
%TF.ProjectId,PicoTop Board,5069636f-546f-4702-9042-6f6172642e6b,rev?*%
%TF.SameCoordinates,Original*%
%TF.FileFunction,Legend,Top*%
%TF.FilePolarity,Positive*%
%FSLAX46Y46*%
G04 Gerber Fmt 4.6, Leading zero omitted, Abs format (unit mm)*
G04 Created by KiCad (PCBNEW 9.0.3) date 2026-01-22 07:10:48*
%MOMM*%
%LPD*%
G01*
G04 APERTURE LIST*
%ADD10C,0.300000*%
%ADD11C,0.150000*%
%ADD12C,0.200000*%
%ADD13C,0.120000*%
%ADD14C,0.528353*%
%ADD15C,0.127000*%
%ADD16C,0.208114*%
%ADD17C,0.152400*%
G04 APERTURE END LIST*
D10*
X98547368Y-152319750D02*
X99714034Y-152319750D01*
X99714034Y-152319750D02*
X98964034Y-154319750D01*
X100214035Y-152319750D02*
X100630701Y-154319750D01*
X100630701Y-154319750D02*
X100964035Y-152891178D01*
X100964035Y-152891178D02*
X101297368Y-154319750D01*
X101297368Y-154319750D02*
X101714035Y-152319750D01*
X103047368Y-154224512D02*
X102880701Y-154319750D01*
X102880701Y-154319750D02*
X102547368Y-154319750D01*
X102547368Y-154319750D02*
X102380701Y-154224512D01*
X102380701Y-154224512D02*
X102297368Y-154034035D01*
X102297368Y-154034035D02*
X102297368Y-153272131D01*
X102297368Y-153272131D02*
X102380701Y-153081654D01*
X102380701Y-153081654D02*
X102547368Y-152986416D01*
X102547368Y-152986416D02*
X102880701Y-152986416D01*
X102880701Y-152986416D02*
X103047368Y-153081654D01*
X103047368Y-153081654D02*
X103130701Y-153272131D01*
X103130701Y-153272131D02*
X103130701Y-153462607D01*
X103130701Y-153462607D02*
X102297368Y-153653083D01*
X103797368Y-154224512D02*
X103964035Y-154319750D01*
X103964035Y-154319750D02*
X104297368Y-154319750D01*
X104297368Y-154319750D02*
X104464035Y-154224512D01*
X104464035Y-154224512D02*
X104547368Y-154034035D01*
X104547368Y-154034035D02*
X104547368Y-153938797D01*
X104547368Y-153938797D02*
X104464035Y-153748321D01*
X104464035Y-153748321D02*
X104297368Y-153653083D01*
X104297368Y-153653083D02*
X104047368Y-153653083D01*
X104047368Y-153653083D02*
X103880701Y-153557845D01*
X103880701Y-153557845D02*
X103797368Y-153367369D01*
X103797368Y-153367369D02*
X103797368Y-153272131D01*
X103797368Y-153272131D02*
X103880701Y-153081654D01*
X103880701Y-153081654D02*
X104047368Y-152986416D01*
X104047368Y-152986416D02*
X104297368Y-152986416D01*
X104297368Y-152986416D02*
X104464035Y-153081654D01*
X105047368Y-152986416D02*
X105714035Y-152986416D01*
X105297368Y-152319750D02*
X105297368Y-154034035D01*
X105297368Y-154034035D02*
X105380702Y-154224512D01*
X105380702Y-154224512D02*
X105547368Y-154319750D01*
X105547368Y-154319750D02*
X105714035Y-154319750D01*
X98714034Y-157539638D02*
X98714034Y-155539638D01*
X98714034Y-155539638D02*
X99380701Y-155539638D01*
X99380701Y-155539638D02*
X99547368Y-155634876D01*
X99547368Y-155634876D02*
X99630701Y-155730114D01*
X99630701Y-155730114D02*
X99714034Y-155920590D01*
X99714034Y-155920590D02*
X99714034Y-156206304D01*
X99714034Y-156206304D02*
X99630701Y-156396780D01*
X99630701Y-156396780D02*
X99547368Y-156492019D01*
X99547368Y-156492019D02*
X99380701Y-156587257D01*
X99380701Y-156587257D02*
X98714034Y-156587257D01*
X100464034Y-157539638D02*
X100464034Y-156206304D01*
X100464034Y-155539638D02*
X100380701Y-155634876D01*
X100380701Y-155634876D02*
X100464034Y-155730114D01*
X100464034Y-155730114D02*
X100547368Y-155634876D01*
X100547368Y-155634876D02*
X100464034Y-155539638D01*
X100464034Y-155539638D02*
X100464034Y-155730114D01*
X102047367Y-157444400D02*
X101880701Y-157539638D01*
X101880701Y-157539638D02*
X101547367Y-157539638D01*
X101547367Y-157539638D02*
X101380701Y-157444400D01*
X101380701Y-157444400D02*
X101297367Y-157349161D01*
X101297367Y-157349161D02*
X101214034Y-157158685D01*
X101214034Y-157158685D02*
X101214034Y-156587257D01*
X101214034Y-156587257D02*
X101297367Y-156396780D01*
X101297367Y-156396780D02*
X101380701Y-156301542D01*
X101380701Y-156301542D02*
X101547367Y-156206304D01*
X101547367Y-156206304D02*
X101880701Y-156206304D01*
X101880701Y-156206304D02*
X102047367Y-156301542D01*
X103047367Y-157539638D02*
X102880701Y-157444400D01*
X102880701Y-157444400D02*
X102797367Y-157349161D01*
X102797367Y-157349161D02*
X102714034Y-157158685D01*
X102714034Y-157158685D02*
X102714034Y-156587257D01*
X102714034Y-156587257D02*
X102797367Y-156396780D01*
X102797367Y-156396780D02*
X102880701Y-156301542D01*
X102880701Y-156301542D02*
X103047367Y-156206304D01*
X103047367Y-156206304D02*
X103297367Y-156206304D01*
X103297367Y-156206304D02*
X103464034Y-156301542D01*
X103464034Y-156301542D02*
X103547367Y-156396780D01*
X103547367Y-156396780D02*
X103630701Y-156587257D01*
X103630701Y-156587257D02*
X103630701Y-157158685D01*
X103630701Y-157158685D02*
X103547367Y-157349161D01*
X103547367Y-157349161D02*
X103464034Y-157444400D01*
X103464034Y-157444400D02*
X103297367Y-157539638D01*
X103297367Y-157539638D02*
X103047367Y-157539638D01*
X104130700Y-155539638D02*
X105130700Y-155539638D01*
X104630700Y-157539638D02*
X104630700Y-155539638D01*
X105964033Y-157539638D02*
X105797367Y-157444400D01*
X105797367Y-157444400D02*
X105714033Y-157349161D01*
X105714033Y-157349161D02*
X105630700Y-157158685D01*
X105630700Y-157158685D02*
X105630700Y-156587257D01*
X105630700Y-156587257D02*
X105714033Y-156396780D01*
X105714033Y-156396780D02*
X105797367Y-156301542D01*
X105797367Y-156301542D02*
X105964033Y-156206304D01*
X105964033Y-156206304D02*
X106214033Y-156206304D01*
X106214033Y-156206304D02*
X106380700Y-156301542D01*
X106380700Y-156301542D02*
X106464033Y-156396780D01*
X106464033Y-156396780D02*
X106547367Y-156587257D01*
X106547367Y-156587257D02*
X106547367Y-157158685D01*
X106547367Y-157158685D02*
X106464033Y-157349161D01*
X106464033Y-157349161D02*
X106380700Y-157444400D01*
X106380700Y-157444400D02*
X106214033Y-157539638D01*
X106214033Y-157539638D02*
X105964033Y-157539638D01*
X107297366Y-156206304D02*
X107297366Y-158206304D01*
X107297366Y-156301542D02*
X107464033Y-156206304D01*
X107464033Y-156206304D02*
X107797366Y-156206304D01*
X107797366Y-156206304D02*
X107964033Y-156301542D01*
X107964033Y-156301542D02*
X108047366Y-156396780D01*
X108047366Y-156396780D02*
X108130700Y-156587257D01*
X108130700Y-156587257D02*
X108130700Y-157158685D01*
X108130700Y-157158685D02*
X108047366Y-157349161D01*
X108047366Y-157349161D02*
X107964033Y-157444400D01*
X107964033Y-157444400D02*
X107797366Y-157539638D01*
X107797366Y-157539638D02*
X107464033Y-157539638D01*
X107464033Y-157539638D02*
X107297366Y-157444400D01*
D11*
X52489160Y-188922200D02*
X52632017Y-188969819D01*
X52632017Y-188969819D02*
X52870112Y-188969819D01*
X52870112Y-188969819D02*
X52965350Y-188922200D01*
X52965350Y-188922200D02*
X53012969Y-188874580D01*
X53012969Y-188874580D02*
X53060588Y-188779342D01*
X53060588Y-188779342D02*
X53060588Y-188684104D01*
X53060588Y-188684104D02*
X53012969Y-188588866D01*
X53012969Y-188588866D02*
X52965350Y-188541247D01*
X52965350Y-188541247D02*
X52870112Y-188493628D01*
X52870112Y-188493628D02*
X52679636Y-188446009D01*
X52679636Y-188446009D02*
X52584398Y-188398390D01*
X52584398Y-188398390D02*
X52536779Y-188350771D01*
X52536779Y-188350771D02*
X52489160Y-188255533D01*
X52489160Y-188255533D02*
X52489160Y-188160295D01*
X52489160Y-188160295D02*
X52536779Y-188065057D01*
X52536779Y-188065057D02*
X52584398Y-188017438D01*
X52584398Y-188017438D02*
X52679636Y-187969819D01*
X52679636Y-187969819D02*
X52917731Y-187969819D01*
X52917731Y-187969819D02*
X53060588Y-188017438D01*
X53489160Y-188969819D02*
X53489160Y-187969819D01*
X53489160Y-187969819D02*
X53727255Y-187969819D01*
X53727255Y-187969819D02*
X53870112Y-188017438D01*
X53870112Y-188017438D02*
X53965350Y-188112676D01*
X53965350Y-188112676D02*
X54012969Y-188207914D01*
X54012969Y-188207914D02*
X54060588Y-188398390D01*
X54060588Y-188398390D02*
X54060588Y-188541247D01*
X54060588Y-188541247D02*
X54012969Y-188731723D01*
X54012969Y-188731723D02*
X53965350Y-188826961D01*
X53965350Y-188826961D02*
X53870112Y-188922200D01*
X53870112Y-188922200D02*
X53727255Y-188969819D01*
X53727255Y-188969819D02*
X53489160Y-188969819D01*
X54536779Y-188922200D02*
X54536779Y-188969819D01*
X54536779Y-188969819D02*
X54489160Y-189065057D01*
X54489160Y-189065057D02*
X54441541Y-189112676D01*
X55489159Y-188017438D02*
X55393921Y-187969819D01*
X55393921Y-187969819D02*
X55251064Y-187969819D01*
X55251064Y-187969819D02*
X55108207Y-188017438D01*
X55108207Y-188017438D02*
X55012969Y-188112676D01*
X55012969Y-188112676D02*
X54965350Y-188207914D01*
X54965350Y-188207914D02*
X54917731Y-188398390D01*
X54917731Y-188398390D02*
X54917731Y-188541247D01*
X54917731Y-188541247D02*
X54965350Y-188731723D01*
X54965350Y-188731723D02*
X55012969Y-188826961D01*
X55012969Y-188826961D02*
X55108207Y-188922200D01*
X55108207Y-188922200D02*
X55251064Y-188969819D01*
X55251064Y-188969819D02*
X55346302Y-188969819D01*
X55346302Y-188969819D02*
X55489159Y-188922200D01*
X55489159Y-188922200D02*
X55536778Y-188874580D01*
X55536778Y-188874580D02*
X55536778Y-188541247D01*
X55536778Y-188541247D02*
X55346302Y-188541247D01*
X55965350Y-188969819D02*
X55965350Y-187969819D01*
X55965350Y-187969819D02*
X56203445Y-187969819D01*
X56203445Y-187969819D02*
X56346302Y-188017438D01*
X56346302Y-188017438D02*
X56441540Y-188112676D01*
X56441540Y-188112676D02*
X56489159Y-188207914D01*
X56489159Y-188207914D02*
X56536778Y-188398390D01*
X56536778Y-188398390D02*
X56536778Y-188541247D01*
X56536778Y-188541247D02*
X56489159Y-188731723D01*
X56489159Y-188731723D02*
X56441540Y-188826961D01*
X56441540Y-188826961D02*
X56346302Y-188922200D01*
X56346302Y-188922200D02*
X56203445Y-188969819D01*
X56203445Y-188969819D02*
X55965350Y-188969819D01*
X57012969Y-188922200D02*
X57012969Y-188969819D01*
X57012969Y-188969819D02*
X56965350Y-189065057D01*
X56965350Y-189065057D02*
X56917731Y-189112676D01*
X58012968Y-188969819D02*
X57679635Y-188493628D01*
X57441540Y-188969819D02*
X57441540Y-187969819D01*
X57441540Y-187969819D02*
X57822492Y-187969819D01*
X57822492Y-187969819D02*
X57917730Y-188017438D01*
X57917730Y-188017438D02*
X57965349Y-188065057D01*
X57965349Y-188065057D02*
X58012968Y-188160295D01*
X58012968Y-188160295D02*
X58012968Y-188303152D01*
X58012968Y-188303152D02*
X57965349Y-188398390D01*
X57965349Y-188398390D02*
X57917730Y-188446009D01*
X57917730Y-188446009D02*
X57822492Y-188493628D01*
X57822492Y-188493628D02*
X57441540Y-188493628D01*
X58346302Y-187969819D02*
X59012968Y-188969819D01*
X59012968Y-187969819D02*
X58346302Y-188969819D01*
X59441540Y-188922200D02*
X59441540Y-188969819D01*
X59441540Y-188969819D02*
X59393921Y-189065057D01*
X59393921Y-189065057D02*
X59346302Y-189112676D01*
X59870111Y-188969819D02*
X59870111Y-187969819D01*
X60917729Y-188874580D02*
X60870110Y-188922200D01*
X60870110Y-188922200D02*
X60727253Y-188969819D01*
X60727253Y-188969819D02*
X60632015Y-188969819D01*
X60632015Y-188969819D02*
X60489158Y-188922200D01*
X60489158Y-188922200D02*
X60393920Y-188826961D01*
X60393920Y-188826961D02*
X60346301Y-188731723D01*
X60346301Y-188731723D02*
X60298682Y-188541247D01*
X60298682Y-188541247D02*
X60298682Y-188398390D01*
X60298682Y-188398390D02*
X60346301Y-188207914D01*
X60346301Y-188207914D02*
X60393920Y-188112676D01*
X60393920Y-188112676D02*
X60489158Y-188017438D01*
X60489158Y-188017438D02*
X60632015Y-187969819D01*
X60632015Y-187969819D02*
X60727253Y-187969819D01*
X60727253Y-187969819D02*
X60870110Y-188017438D01*
X60870110Y-188017438D02*
X60917729Y-188065057D01*
X61393920Y-188922200D02*
X61393920Y-188969819D01*
X61393920Y-188969819D02*
X61346301Y-189065057D01*
X61346301Y-189065057D02*
X61298682Y-189112676D01*
X62346300Y-188017438D02*
X62251062Y-187969819D01*
X62251062Y-187969819D02*
X62108205Y-187969819D01*
X62108205Y-187969819D02*
X61965348Y-188017438D01*
X61965348Y-188017438D02*
X61870110Y-188112676D01*
X61870110Y-188112676D02*
X61822491Y-188207914D01*
X61822491Y-188207914D02*
X61774872Y-188398390D01*
X61774872Y-188398390D02*
X61774872Y-188541247D01*
X61774872Y-188541247D02*
X61822491Y-188731723D01*
X61822491Y-188731723D02*
X61870110Y-188826961D01*
X61870110Y-188826961D02*
X61965348Y-188922200D01*
X61965348Y-188922200D02*
X62108205Y-188969819D01*
X62108205Y-188969819D02*
X62203443Y-188969819D01*
X62203443Y-188969819D02*
X62346300Y-188922200D01*
X62346300Y-188922200D02*
X62393919Y-188874580D01*
X62393919Y-188874580D02*
X62393919Y-188541247D01*
X62393919Y-188541247D02*
X62203443Y-188541247D01*
X62822491Y-188969819D02*
X62822491Y-187969819D01*
X62822491Y-187969819D02*
X63060586Y-187969819D01*
X63060586Y-187969819D02*
X63203443Y-188017438D01*
X63203443Y-188017438D02*
X63298681Y-188112676D01*
X63298681Y-188112676D02*
X63346300Y-188207914D01*
X63346300Y-188207914D02*
X63393919Y-188398390D01*
X63393919Y-188398390D02*
X63393919Y-188541247D01*
X63393919Y-188541247D02*
X63346300Y-188731723D01*
X63346300Y-188731723D02*
X63298681Y-188826961D01*
X63298681Y-188826961D02*
X63203443Y-188922200D01*
X63203443Y-188922200D02*
X63060586Y-188969819D01*
X63060586Y-188969819D02*
X62822491Y-188969819D01*
X63870110Y-188922200D02*
X63870110Y-188969819D01*
X63870110Y-188969819D02*
X63822491Y-189065057D01*
X63822491Y-189065057D02*
X63774872Y-189112676D01*
X64822490Y-188017438D02*
X64727252Y-187969819D01*
X64727252Y-187969819D02*
X64584395Y-187969819D01*
X64584395Y-187969819D02*
X64441538Y-188017438D01*
X64441538Y-188017438D02*
X64346300Y-188112676D01*
X64346300Y-188112676D02*
X64298681Y-188207914D01*
X64298681Y-188207914D02*
X64251062Y-188398390D01*
X64251062Y-188398390D02*
X64251062Y-188541247D01*
X64251062Y-188541247D02*
X64298681Y-188731723D01*
X64298681Y-188731723D02*
X64346300Y-188826961D01*
X64346300Y-188826961D02*
X64441538Y-188922200D01*
X64441538Y-188922200D02*
X64584395Y-188969819D01*
X64584395Y-188969819D02*
X64679633Y-188969819D01*
X64679633Y-188969819D02*
X64822490Y-188922200D01*
X64822490Y-188922200D02*
X64870109Y-188874580D01*
X64870109Y-188874580D02*
X64870109Y-188541247D01*
X64870109Y-188541247D02*
X64679633Y-188541247D01*
X65346300Y-188969819D02*
X65536776Y-188969819D01*
X65536776Y-188969819D02*
X65632014Y-188922200D01*
X65632014Y-188922200D02*
X65679633Y-188874580D01*
X65679633Y-188874580D02*
X65774871Y-188731723D01*
X65774871Y-188731723D02*
X65822490Y-188541247D01*
X65822490Y-188541247D02*
X65822490Y-188160295D01*
X65822490Y-188160295D02*
X65774871Y-188065057D01*
X65774871Y-188065057D02*
X65727252Y-188017438D01*
X65727252Y-188017438D02*
X65632014Y-187969819D01*
X65632014Y-187969819D02*
X65441538Y-187969819D01*
X65441538Y-187969819D02*
X65346300Y-188017438D01*
X65346300Y-188017438D02*
X65298681Y-188065057D01*
X65298681Y-188065057D02*
X65251062Y-188160295D01*
X65251062Y-188160295D02*
X65251062Y-188398390D01*
X65251062Y-188398390D02*
X65298681Y-188493628D01*
X65298681Y-188493628D02*
X65346300Y-188541247D01*
X65346300Y-188541247D02*
X65441538Y-188588866D01*
X65441538Y-188588866D02*
X65632014Y-188588866D01*
X65632014Y-188588866D02*
X65727252Y-188541247D01*
X65727252Y-188541247D02*
X65774871Y-188493628D01*
X65774871Y-188493628D02*
X65822490Y-188398390D01*
X52489160Y-187522200D02*
X52632017Y-187569819D01*
X52632017Y-187569819D02*
X52870112Y-187569819D01*
X52870112Y-187569819D02*
X52965350Y-187522200D01*
X52965350Y-187522200D02*
X53012969Y-187474580D01*
X53012969Y-187474580D02*
X53060588Y-187379342D01*
X53060588Y-187379342D02*
X53060588Y-187284104D01*
X53060588Y-187284104D02*
X53012969Y-187188866D01*
X53012969Y-187188866D02*
X52965350Y-187141247D01*
X52965350Y-187141247D02*
X52870112Y-187093628D01*
X52870112Y-187093628D02*
X52679636Y-187046009D01*
X52679636Y-187046009D02*
X52584398Y-186998390D01*
X52584398Y-186998390D02*
X52536779Y-186950771D01*
X52536779Y-186950771D02*
X52489160Y-186855533D01*
X52489160Y-186855533D02*
X52489160Y-186760295D01*
X52489160Y-186760295D02*
X52536779Y-186665057D01*
X52536779Y-186665057D02*
X52584398Y-186617438D01*
X52584398Y-186617438D02*
X52679636Y-186569819D01*
X52679636Y-186569819D02*
X52917731Y-186569819D01*
X52917731Y-186569819D02*
X53060588Y-186617438D01*
X54060588Y-187474580D02*
X54012969Y-187522200D01*
X54012969Y-187522200D02*
X53870112Y-187569819D01*
X53870112Y-187569819D02*
X53774874Y-187569819D01*
X53774874Y-187569819D02*
X53632017Y-187522200D01*
X53632017Y-187522200D02*
X53536779Y-187426961D01*
X53536779Y-187426961D02*
X53489160Y-187331723D01*
X53489160Y-187331723D02*
X53441541Y-187141247D01*
X53441541Y-187141247D02*
X53441541Y-186998390D01*
X53441541Y-186998390D02*
X53489160Y-186807914D01*
X53489160Y-186807914D02*
X53536779Y-186712676D01*
X53536779Y-186712676D02*
X53632017Y-186617438D01*
X53632017Y-186617438D02*
X53774874Y-186569819D01*
X53774874Y-186569819D02*
X53870112Y-186569819D01*
X53870112Y-186569819D02*
X54012969Y-186617438D01*
X54012969Y-186617438D02*
X54060588Y-186665057D01*
X54536779Y-187522200D02*
X54536779Y-187569819D01*
X54536779Y-187569819D02*
X54489160Y-187665057D01*
X54489160Y-187665057D02*
X54441541Y-187712676D01*
X54870112Y-186569819D02*
X55489159Y-186569819D01*
X55489159Y-186569819D02*
X55155826Y-186950771D01*
X55155826Y-186950771D02*
X55298683Y-186950771D01*
X55298683Y-186950771D02*
X55393921Y-186998390D01*
X55393921Y-186998390D02*
X55441540Y-187046009D01*
X55441540Y-187046009D02*
X55489159Y-187141247D01*
X55489159Y-187141247D02*
X55489159Y-187379342D01*
X55489159Y-187379342D02*
X55441540Y-187474580D01*
X55441540Y-187474580D02*
X55393921Y-187522200D01*
X55393921Y-187522200D02*
X55298683Y-187569819D01*
X55298683Y-187569819D02*
X55012969Y-187569819D01*
X55012969Y-187569819D02*
X54917731Y-187522200D01*
X54917731Y-187522200D02*
X54870112Y-187474580D01*
X55774874Y-186569819D02*
X56108207Y-187569819D01*
X56108207Y-187569819D02*
X56441540Y-186569819D01*
X56822493Y-187522200D02*
X56822493Y-187569819D01*
X56822493Y-187569819D02*
X56774874Y-187665057D01*
X56774874Y-187665057D02*
X56727255Y-187712676D01*
X57108207Y-186569819D02*
X57679635Y-186569819D01*
X57393921Y-187569819D02*
X57393921Y-186569819D01*
X57917731Y-186569819D02*
X58584397Y-187569819D01*
X58584397Y-186569819D02*
X57917731Y-187569819D01*
X59012969Y-187522200D02*
X59012969Y-187569819D01*
X59012969Y-187569819D02*
X58965350Y-187665057D01*
X58965350Y-187665057D02*
X58917731Y-187712676D01*
X59441540Y-187569819D02*
X59441540Y-186569819D01*
X59917730Y-187569819D02*
X59917730Y-186569819D01*
X59917730Y-186569819D02*
X60155825Y-186569819D01*
X60155825Y-186569819D02*
X60298682Y-186617438D01*
X60298682Y-186617438D02*
X60393920Y-186712676D01*
X60393920Y-186712676D02*
X60441539Y-186807914D01*
X60441539Y-186807914D02*
X60489158Y-186998390D01*
X60489158Y-186998390D02*
X60489158Y-187141247D01*
X60489158Y-187141247D02*
X60441539Y-187331723D01*
X60441539Y-187331723D02*
X60393920Y-187426961D01*
X60393920Y-187426961D02*
X60298682Y-187522200D01*
X60298682Y-187522200D02*
X60155825Y-187569819D01*
X60155825Y-187569819D02*
X59917730Y-187569819D01*
X60965349Y-187522200D02*
X60965349Y-187569819D01*
X60965349Y-187569819D02*
X60917730Y-187665057D01*
X60917730Y-187665057D02*
X60870111Y-187712676D01*
X61298682Y-186569819D02*
X61917729Y-186569819D01*
X61917729Y-186569819D02*
X61584396Y-186950771D01*
X61584396Y-186950771D02*
X61727253Y-186950771D01*
X61727253Y-186950771D02*
X61822491Y-186998390D01*
X61822491Y-186998390D02*
X61870110Y-187046009D01*
X61870110Y-187046009D02*
X61917729Y-187141247D01*
X61917729Y-187141247D02*
X61917729Y-187379342D01*
X61917729Y-187379342D02*
X61870110Y-187474580D01*
X61870110Y-187474580D02*
X61822491Y-187522200D01*
X61822491Y-187522200D02*
X61727253Y-187569819D01*
X61727253Y-187569819D02*
X61441539Y-187569819D01*
X61441539Y-187569819D02*
X61346301Y-187522200D01*
X61346301Y-187522200D02*
X61298682Y-187474580D01*
X62203444Y-186569819D02*
X62536777Y-187569819D01*
X62536777Y-187569819D02*
X62870110Y-186569819D01*
X63251063Y-187522200D02*
X63251063Y-187569819D01*
X63251063Y-187569819D02*
X63203444Y-187665057D01*
X63203444Y-187665057D02*
X63155825Y-187712676D01*
X64203443Y-186617438D02*
X64108205Y-186569819D01*
X64108205Y-186569819D02*
X63965348Y-186569819D01*
X63965348Y-186569819D02*
X63822491Y-186617438D01*
X63822491Y-186617438D02*
X63727253Y-186712676D01*
X63727253Y-186712676D02*
X63679634Y-186807914D01*
X63679634Y-186807914D02*
X63632015Y-186998390D01*
X63632015Y-186998390D02*
X63632015Y-187141247D01*
X63632015Y-187141247D02*
X63679634Y-187331723D01*
X63679634Y-187331723D02*
X63727253Y-187426961D01*
X63727253Y-187426961D02*
X63822491Y-187522200D01*
X63822491Y-187522200D02*
X63965348Y-187569819D01*
X63965348Y-187569819D02*
X64060586Y-187569819D01*
X64060586Y-187569819D02*
X64203443Y-187522200D01*
X64203443Y-187522200D02*
X64251062Y-187474580D01*
X64251062Y-187474580D02*
X64251062Y-187141247D01*
X64251062Y-187141247D02*
X64060586Y-187141247D01*
X64822491Y-186998390D02*
X64727253Y-186950771D01*
X64727253Y-186950771D02*
X64679634Y-186903152D01*
X64679634Y-186903152D02*
X64632015Y-186807914D01*
X64632015Y-186807914D02*
X64632015Y-186760295D01*
X64632015Y-186760295D02*
X64679634Y-186665057D01*
X64679634Y-186665057D02*
X64727253Y-186617438D01*
X64727253Y-186617438D02*
X64822491Y-186569819D01*
X64822491Y-186569819D02*
X65012967Y-186569819D01*
X65012967Y-186569819D02*
X65108205Y-186617438D01*
X65108205Y-186617438D02*
X65155824Y-186665057D01*
X65155824Y-186665057D02*
X65203443Y-186760295D01*
X65203443Y-186760295D02*
X65203443Y-186807914D01*
X65203443Y-186807914D02*
X65155824Y-186903152D01*
X65155824Y-186903152D02*
X65108205Y-186950771D01*
X65108205Y-186950771D02*
X65012967Y-186998390D01*
X65012967Y-186998390D02*
X64822491Y-186998390D01*
X64822491Y-186998390D02*
X64727253Y-187046009D01*
X64727253Y-187046009D02*
X64679634Y-187093628D01*
X64679634Y-187093628D02*
X64632015Y-187188866D01*
X64632015Y-187188866D02*
X64632015Y-187379342D01*
X64632015Y-187379342D02*
X64679634Y-187474580D01*
X64679634Y-187474580D02*
X64727253Y-187522200D01*
X64727253Y-187522200D02*
X64822491Y-187569819D01*
X64822491Y-187569819D02*
X65012967Y-187569819D01*
X65012967Y-187569819D02*
X65108205Y-187522200D01*
X65108205Y-187522200D02*
X65155824Y-187474580D01*
X65155824Y-187474580D02*
X65203443Y-187379342D01*
X65203443Y-187379342D02*
X65203443Y-187188866D01*
X65203443Y-187188866D02*
X65155824Y-187093628D01*
X65155824Y-187093628D02*
X65108205Y-187046009D01*
X65108205Y-187046009D02*
X65012967Y-186998390D01*
X99908207Y-173669819D02*
X99574874Y-173193628D01*
X99336779Y-173669819D02*
X99336779Y-172669819D01*
X99336779Y-172669819D02*
X99717731Y-172669819D01*
X99717731Y-172669819D02*
X99812969Y-172717438D01*
X99812969Y-172717438D02*
X99860588Y-172765057D01*
X99860588Y-172765057D02*
X99908207Y-172860295D01*
X99908207Y-172860295D02*
X99908207Y-173003152D01*
X99908207Y-173003152D02*
X99860588Y-173098390D01*
X99860588Y-173098390D02*
X99812969Y-173146009D01*
X99812969Y-173146009D02*
X99717731Y-173193628D01*
X99717731Y-173193628D02*
X99336779Y-173193628D01*
X100289160Y-173622200D02*
X100432017Y-173669819D01*
X100432017Y-173669819D02*
X100670112Y-173669819D01*
X100670112Y-173669819D02*
X100765350Y-173622200D01*
X100765350Y-173622200D02*
X100812969Y-173574580D01*
X100812969Y-173574580D02*
X100860588Y-173479342D01*
X100860588Y-173479342D02*
X100860588Y-173384104D01*
X100860588Y-173384104D02*
X100812969Y-173288866D01*
X100812969Y-173288866D02*
X100765350Y-173241247D01*
X100765350Y-173241247D02*
X100670112Y-173193628D01*
X100670112Y-173193628D02*
X100479636Y-173146009D01*
X100479636Y-173146009D02*
X100384398Y-173098390D01*
X100384398Y-173098390D02*
X100336779Y-173050771D01*
X100336779Y-173050771D02*
X100289160Y-172955533D01*
X100289160Y-172955533D02*
X100289160Y-172860295D01*
X100289160Y-172860295D02*
X100336779Y-172765057D01*
X100336779Y-172765057D02*
X100384398Y-172717438D01*
X100384398Y-172717438D02*
X100479636Y-172669819D01*
X100479636Y-172669819D02*
X100717731Y-172669819D01*
X100717731Y-172669819D02*
X100860588Y-172717438D01*
X101146303Y-172669819D02*
X101717731Y-172669819D01*
X101432017Y-173669819D02*
X101432017Y-172669819D01*
D12*
X103464911Y-166135314D02*
X103548244Y-166040076D01*
X103548244Y-166040076D02*
X103714911Y-165944838D01*
X103714911Y-165944838D02*
X104131578Y-165944838D01*
X104131578Y-165944838D02*
X104298244Y-166040076D01*
X104298244Y-166040076D02*
X104381578Y-166135314D01*
X104381578Y-166135314D02*
X104464911Y-166325790D01*
X104464911Y-166325790D02*
X104464911Y-166516266D01*
X104464911Y-166516266D02*
X104381578Y-166801980D01*
X104381578Y-166801980D02*
X103381578Y-167944838D01*
X103381578Y-167944838D02*
X104464911Y-167944838D01*
X105214911Y-166801980D02*
X106548245Y-166801980D01*
X105881578Y-167563885D02*
X105881578Y-166040076D01*
X106548245Y-167944838D02*
X105214911Y-167944838D01*
X103681578Y-176144838D02*
X103848244Y-176144838D01*
X103848244Y-176144838D02*
X104014911Y-176240076D01*
X104014911Y-176240076D02*
X104098244Y-176335314D01*
X104098244Y-176335314D02*
X104181578Y-176525790D01*
X104181578Y-176525790D02*
X104264911Y-176906742D01*
X104264911Y-176906742D02*
X104264911Y-177382933D01*
X104264911Y-177382933D02*
X104181578Y-177763885D01*
X104181578Y-177763885D02*
X104098244Y-177954361D01*
X104098244Y-177954361D02*
X104014911Y-178049600D01*
X104014911Y-178049600D02*
X103848244Y-178144838D01*
X103848244Y-178144838D02*
X103681578Y-178144838D01*
X103681578Y-178144838D02*
X103514911Y-178049600D01*
X103514911Y-178049600D02*
X103431578Y-177954361D01*
X103431578Y-177954361D02*
X103348244Y-177763885D01*
X103348244Y-177763885D02*
X103264911Y-177382933D01*
X103264911Y-177382933D02*
X103264911Y-176906742D01*
X103264911Y-176906742D02*
X103348244Y-176525790D01*
X103348244Y-176525790D02*
X103431578Y-176335314D01*
X103431578Y-176335314D02*
X103514911Y-176240076D01*
X103514911Y-176240076D02*
X103681578Y-176144838D01*
X105014911Y-177001980D02*
X106348245Y-177001980D01*
X105681578Y-177763885D02*
X105681578Y-176240076D01*
X106348245Y-178144838D02*
X105014911Y-178144838D01*
X104448244Y-182854361D02*
X104364911Y-182949600D01*
X104364911Y-182949600D02*
X104114911Y-183044838D01*
X104114911Y-183044838D02*
X103948244Y-183044838D01*
X103948244Y-183044838D02*
X103698244Y-182949600D01*
X103698244Y-182949600D02*
X103531578Y-182759123D01*
X103531578Y-182759123D02*
X103448244Y-182568647D01*
X103448244Y-182568647D02*
X103364911Y-182187695D01*
X103364911Y-182187695D02*
X103364911Y-181901980D01*
X103364911Y-181901980D02*
X103448244Y-181521028D01*
X103448244Y-181521028D02*
X103531578Y-181330552D01*
X103531578Y-181330552D02*
X103698244Y-181140076D01*
X103698244Y-181140076D02*
X103948244Y-181044838D01*
X103948244Y-181044838D02*
X104114911Y-181044838D01*
X104114911Y-181044838D02*
X104364911Y-181140076D01*
X104364911Y-181140076D02*
X104448244Y-181235314D01*
X105198244Y-181901980D02*
X106531578Y-181901980D01*
X105864911Y-182663885D02*
X105864911Y-181140076D01*
X106531578Y-183044838D02*
X105198244Y-183044838D01*
X104464911Y-173044838D02*
X103464911Y-173044838D01*
X103964911Y-173044838D02*
X103964911Y-171044838D01*
X103964911Y-171044838D02*
X103798244Y-171330552D01*
X103798244Y-171330552D02*
X103631578Y-171521028D01*
X103631578Y-171521028D02*
X103464911Y-171616266D01*
X105214911Y-171901980D02*
X106548245Y-171901980D01*
X105881578Y-172663885D02*
X105881578Y-171140076D01*
X106548245Y-173044838D02*
X105214911Y-173044838D01*
D11*
X68238095Y-159654819D02*
X68238095Y-160464342D01*
X68238095Y-160464342D02*
X68285714Y-160559580D01*
X68285714Y-160559580D02*
X68333333Y-160607200D01*
X68333333Y-160607200D02*
X68428571Y-160654819D01*
X68428571Y-160654819D02*
X68619047Y-160654819D01*
X68619047Y-160654819D02*
X68714285Y-160607200D01*
X68714285Y-160607200D02*
X68761904Y-160559580D01*
X68761904Y-160559580D02*
X68809523Y-160464342D01*
X68809523Y-160464342D02*
X68809523Y-159654819D01*
X69190476Y-159654819D02*
X69809523Y-159654819D01*
X69809523Y-159654819D02*
X69476190Y-160035771D01*
X69476190Y-160035771D02*
X69619047Y-160035771D01*
X69619047Y-160035771D02*
X69714285Y-160083390D01*
X69714285Y-160083390D02*
X69761904Y-160131009D01*
X69761904Y-160131009D02*
X69809523Y-160226247D01*
X69809523Y-160226247D02*
X69809523Y-160464342D01*
X69809523Y-160464342D02*
X69761904Y-160559580D01*
X69761904Y-160559580D02*
X69714285Y-160607200D01*
X69714285Y-160607200D02*
X69619047Y-160654819D01*
X69619047Y-160654819D02*
X69333333Y-160654819D01*
X69333333Y-160654819D02*
X69238095Y-160607200D01*
X69238095Y-160607200D02*
X69190476Y-160559580D01*
X77938095Y-178554819D02*
X77938095Y-179364342D01*
X77938095Y-179364342D02*
X77985714Y-179459580D01*
X77985714Y-179459580D02*
X78033333Y-179507200D01*
X78033333Y-179507200D02*
X78128571Y-179554819D01*
X78128571Y-179554819D02*
X78319047Y-179554819D01*
X78319047Y-179554819D02*
X78414285Y-179507200D01*
X78414285Y-179507200D02*
X78461904Y-179459580D01*
X78461904Y-179459580D02*
X78509523Y-179364342D01*
X78509523Y-179364342D02*
X78509523Y-178554819D01*
X79509523Y-179554819D02*
X78938095Y-179554819D01*
X79223809Y-179554819D02*
X79223809Y-178554819D01*
X79223809Y-178554819D02*
X79128571Y-178697676D01*
X79128571Y-178697676D02*
X79033333Y-178792914D01*
X79033333Y-178792914D02*
X78938095Y-178840533D01*
X55933333Y-168154819D02*
X55600000Y-167678628D01*
X55361905Y-168154819D02*
X55361905Y-167154819D01*
X55361905Y-167154819D02*
X55742857Y-167154819D01*
X55742857Y-167154819D02*
X55838095Y-167202438D01*
X55838095Y-167202438D02*
X55885714Y-167250057D01*
X55885714Y-167250057D02*
X55933333Y-167345295D01*
X55933333Y-167345295D02*
X55933333Y-167488152D01*
X55933333Y-167488152D02*
X55885714Y-167583390D01*
X55885714Y-167583390D02*
X55838095Y-167631009D01*
X55838095Y-167631009D02*
X55742857Y-167678628D01*
X55742857Y-167678628D02*
X55361905Y-167678628D01*
X56504762Y-167583390D02*
X56409524Y-167535771D01*
X56409524Y-167535771D02*
X56361905Y-167488152D01*
X56361905Y-167488152D02*
X56314286Y-167392914D01*
X56314286Y-167392914D02*
X56314286Y-167345295D01*
X56314286Y-167345295D02*
X56361905Y-167250057D01*
X56361905Y-167250057D02*
X56409524Y-167202438D01*
X56409524Y-167202438D02*
X56504762Y-167154819D01*
X56504762Y-167154819D02*
X56695238Y-167154819D01*
X56695238Y-167154819D02*
X56790476Y-167202438D01*
X56790476Y-167202438D02*
X56838095Y-167250057D01*
X56838095Y-167250057D02*
X56885714Y-167345295D01*
X56885714Y-167345295D02*
X56885714Y-167392914D01*
X56885714Y-167392914D02*
X56838095Y-167488152D01*
X56838095Y-167488152D02*
X56790476Y-167535771D01*
X56790476Y-167535771D02*
X56695238Y-167583390D01*
X56695238Y-167583390D02*
X56504762Y-167583390D01*
X56504762Y-167583390D02*
X56409524Y-167631009D01*
X56409524Y-167631009D02*
X56361905Y-167678628D01*
X56361905Y-167678628D02*
X56314286Y-167773866D01*
X56314286Y-167773866D02*
X56314286Y-167964342D01*
X56314286Y-167964342D02*
X56361905Y-168059580D01*
X56361905Y-168059580D02*
X56409524Y-168107200D01*
X56409524Y-168107200D02*
X56504762Y-168154819D01*
X56504762Y-168154819D02*
X56695238Y-168154819D01*
X56695238Y-168154819D02*
X56790476Y-168107200D01*
X56790476Y-168107200D02*
X56838095Y-168059580D01*
X56838095Y-168059580D02*
X56885714Y-167964342D01*
X56885714Y-167964342D02*
X56885714Y-167773866D01*
X56885714Y-167773866D02*
X56838095Y-167678628D01*
X56838095Y-167678628D02*
X56790476Y-167631009D01*
X56790476Y-167631009D02*
X56695238Y-167583390D01*
X49744819Y-158833333D02*
X50459104Y-158833333D01*
X50459104Y-158833333D02*
X50601961Y-158880952D01*
X50601961Y-158880952D02*
X50697200Y-158976190D01*
X50697200Y-158976190D02*
X50744819Y-159119047D01*
X50744819Y-159119047D02*
X50744819Y-159214285D01*
X50078152Y-157928571D02*
X50744819Y-157928571D01*
X49697200Y-158166666D02*
X50411485Y-158404761D01*
X50411485Y-158404761D02*
X50411485Y-157785714D01*
X49961905Y-169854819D02*
X49961905Y-168854819D01*
X49961905Y-168854819D02*
X50200000Y-168854819D01*
X50200000Y-168854819D02*
X50342857Y-168902438D01*
X50342857Y-168902438D02*
X50438095Y-168997676D01*
X50438095Y-168997676D02*
X50485714Y-169092914D01*
X50485714Y-169092914D02*
X50533333Y-169283390D01*
X50533333Y-169283390D02*
X50533333Y-169426247D01*
X50533333Y-169426247D02*
X50485714Y-169616723D01*
X50485714Y-169616723D02*
X50438095Y-169711961D01*
X50438095Y-169711961D02*
X50342857Y-169807200D01*
X50342857Y-169807200D02*
X50200000Y-169854819D01*
X50200000Y-169854819D02*
X49961905Y-169854819D01*
X51485714Y-169854819D02*
X50914286Y-169854819D01*
X51200000Y-169854819D02*
X51200000Y-168854819D01*
X51200000Y-168854819D02*
X51104762Y-168997676D01*
X51104762Y-168997676D02*
X51009524Y-169092914D01*
X51009524Y-169092914D02*
X50914286Y-169140533D01*
X78557142Y-152754819D02*
X78223809Y-152278628D01*
X77985714Y-152754819D02*
X77985714Y-151754819D01*
X77985714Y-151754819D02*
X78366666Y-151754819D01*
X78366666Y-151754819D02*
X78461904Y-151802438D01*
X78461904Y-151802438D02*
X78509523Y-151850057D01*
X78509523Y-151850057D02*
X78557142Y-151945295D01*
X78557142Y-151945295D02*
X78557142Y-152088152D01*
X78557142Y-152088152D02*
X78509523Y-152183390D01*
X78509523Y-152183390D02*
X78461904Y-152231009D01*
X78461904Y-152231009D02*
X78366666Y-152278628D01*
X78366666Y-152278628D02*
X77985714Y-152278628D01*
X79509523Y-152754819D02*
X78938095Y-152754819D01*
X79223809Y-152754819D02*
X79223809Y-151754819D01*
X79223809Y-151754819D02*
X79128571Y-151897676D01*
X79128571Y-151897676D02*
X79033333Y-151992914D01*
X79033333Y-151992914D02*
X78938095Y-152040533D01*
X79890476Y-151850057D02*
X79938095Y-151802438D01*
X79938095Y-151802438D02*
X80033333Y-151754819D01*
X80033333Y-151754819D02*
X80271428Y-151754819D01*
X80271428Y-151754819D02*
X80366666Y-151802438D01*
X80366666Y-151802438D02*
X80414285Y-151850057D01*
X80414285Y-151850057D02*
X80461904Y-151945295D01*
X80461904Y-151945295D02*
X80461904Y-152040533D01*
X80461904Y-152040533D02*
X80414285Y-152183390D01*
X80414285Y-152183390D02*
X79842857Y-152754819D01*
X79842857Y-152754819D02*
X80461904Y-152754819D01*
X87757142Y-181354819D02*
X87423809Y-180878628D01*
X87185714Y-181354819D02*
X87185714Y-180354819D01*
X87185714Y-180354819D02*
X87566666Y-180354819D01*
X87566666Y-180354819D02*
X87661904Y-180402438D01*
X87661904Y-180402438D02*
X87709523Y-180450057D01*
X87709523Y-180450057D02*
X87757142Y-180545295D01*
X87757142Y-180545295D02*
X87757142Y-180688152D01*
X87757142Y-180688152D02*
X87709523Y-180783390D01*
X87709523Y-180783390D02*
X87661904Y-180831009D01*
X87661904Y-180831009D02*
X87566666Y-180878628D01*
X87566666Y-180878628D02*
X87185714Y-180878628D01*
X88138095Y-180450057D02*
X88185714Y-180402438D01*
X88185714Y-180402438D02*
X88280952Y-180354819D01*
X88280952Y-180354819D02*
X88519047Y-180354819D01*
X88519047Y-180354819D02*
X88614285Y-180402438D01*
X88614285Y-180402438D02*
X88661904Y-180450057D01*
X88661904Y-180450057D02*
X88709523Y-180545295D01*
X88709523Y-180545295D02*
X88709523Y-180640533D01*
X88709523Y-180640533D02*
X88661904Y-180783390D01*
X88661904Y-180783390D02*
X88090476Y-181354819D01*
X88090476Y-181354819D02*
X88709523Y-181354819D01*
X89661904Y-181354819D02*
X89090476Y-181354819D01*
X89376190Y-181354819D02*
X89376190Y-180354819D01*
X89376190Y-180354819D02*
X89280952Y-180497676D01*
X89280952Y-180497676D02*
X89185714Y-180592914D01*
X89185714Y-180592914D02*
X89090476Y-180640533D01*
X90957142Y-178759580D02*
X90909523Y-178807200D01*
X90909523Y-178807200D02*
X90766666Y-178854819D01*
X90766666Y-178854819D02*
X90671428Y-178854819D01*
X90671428Y-178854819D02*
X90528571Y-178807200D01*
X90528571Y-178807200D02*
X90433333Y-178711961D01*
X90433333Y-178711961D02*
X90385714Y-178616723D01*
X90385714Y-178616723D02*
X90338095Y-178426247D01*
X90338095Y-178426247D02*
X90338095Y-178283390D01*
X90338095Y-178283390D02*
X90385714Y-178092914D01*
X90385714Y-178092914D02*
X90433333Y-177997676D01*
X90433333Y-177997676D02*
X90528571Y-177902438D01*
X90528571Y-177902438D02*
X90671428Y-177854819D01*
X90671428Y-177854819D02*
X90766666Y-177854819D01*
X90766666Y-177854819D02*
X90909523Y-177902438D01*
X90909523Y-177902438D02*
X90957142Y-177950057D01*
X91338095Y-177950057D02*
X91385714Y-177902438D01*
X91385714Y-177902438D02*
X91480952Y-177854819D01*
X91480952Y-177854819D02*
X91719047Y-177854819D01*
X91719047Y-177854819D02*
X91814285Y-177902438D01*
X91814285Y-177902438D02*
X91861904Y-177950057D01*
X91861904Y-177950057D02*
X91909523Y-178045295D01*
X91909523Y-178045295D02*
X91909523Y-178140533D01*
X91909523Y-178140533D02*
X91861904Y-178283390D01*
X91861904Y-178283390D02*
X91290476Y-178854819D01*
X91290476Y-178854819D02*
X91909523Y-178854819D01*
X92766666Y-178188152D02*
X92766666Y-178854819D01*
X92528571Y-177807200D02*
X92290476Y-178521485D01*
X92290476Y-178521485D02*
X92909523Y-178521485D01*
X58038095Y-176454819D02*
X58038095Y-177264342D01*
X58038095Y-177264342D02*
X58085714Y-177359580D01*
X58085714Y-177359580D02*
X58133333Y-177407200D01*
X58133333Y-177407200D02*
X58228571Y-177454819D01*
X58228571Y-177454819D02*
X58419047Y-177454819D01*
X58419047Y-177454819D02*
X58514285Y-177407200D01*
X58514285Y-177407200D02*
X58561904Y-177359580D01*
X58561904Y-177359580D02*
X58609523Y-177264342D01*
X58609523Y-177264342D02*
X58609523Y-176454819D01*
X59038095Y-176550057D02*
X59085714Y-176502438D01*
X59085714Y-176502438D02*
X59180952Y-176454819D01*
X59180952Y-176454819D02*
X59419047Y-176454819D01*
X59419047Y-176454819D02*
X59514285Y-176502438D01*
X59514285Y-176502438D02*
X59561904Y-176550057D01*
X59561904Y-176550057D02*
X59609523Y-176645295D01*
X59609523Y-176645295D02*
X59609523Y-176740533D01*
X59609523Y-176740533D02*
X59561904Y-176883390D01*
X59561904Y-176883390D02*
X58990476Y-177454819D01*
X58990476Y-177454819D02*
X59609523Y-177454819D01*
X77757142Y-170449580D02*
X77709523Y-170497200D01*
X77709523Y-170497200D02*
X77566666Y-170544819D01*
X77566666Y-170544819D02*
X77471428Y-170544819D01*
X77471428Y-170544819D02*
X77328571Y-170497200D01*
X77328571Y-170497200D02*
X77233333Y-170401961D01*
X77233333Y-170401961D02*
X77185714Y-170306723D01*
X77185714Y-170306723D02*
X77138095Y-170116247D01*
X77138095Y-170116247D02*
X77138095Y-169973390D01*
X77138095Y-169973390D02*
X77185714Y-169782914D01*
X77185714Y-169782914D02*
X77233333Y-169687676D01*
X77233333Y-169687676D02*
X77328571Y-169592438D01*
X77328571Y-169592438D02*
X77471428Y-169544819D01*
X77471428Y-169544819D02*
X77566666Y-169544819D01*
X77566666Y-169544819D02*
X77709523Y-169592438D01*
X77709523Y-169592438D02*
X77757142Y-169640057D01*
X78709523Y-170544819D02*
X78138095Y-170544819D01*
X78423809Y-170544819D02*
X78423809Y-169544819D01*
X78423809Y-169544819D02*
X78328571Y-169687676D01*
X78328571Y-169687676D02*
X78233333Y-169782914D01*
X78233333Y-169782914D02*
X78138095Y-169830533D01*
X79042857Y-169544819D02*
X79709523Y-169544819D01*
X79709523Y-169544819D02*
X79280952Y-170544819D01*
X66738095Y-176704819D02*
X66738095Y-177514342D01*
X66738095Y-177514342D02*
X66785714Y-177609580D01*
X66785714Y-177609580D02*
X66833333Y-177657200D01*
X66833333Y-177657200D02*
X66928571Y-177704819D01*
X66928571Y-177704819D02*
X67119047Y-177704819D01*
X67119047Y-177704819D02*
X67214285Y-177657200D01*
X67214285Y-177657200D02*
X67261904Y-177609580D01*
X67261904Y-177609580D02*
X67309523Y-177514342D01*
X67309523Y-177514342D02*
X67309523Y-176704819D01*
X68261904Y-176704819D02*
X67785714Y-176704819D01*
X67785714Y-176704819D02*
X67738095Y-177181009D01*
X67738095Y-177181009D02*
X67785714Y-177133390D01*
X67785714Y-177133390D02*
X67880952Y-177085771D01*
X67880952Y-177085771D02*
X68119047Y-177085771D01*
X68119047Y-177085771D02*
X68214285Y-177133390D01*
X68214285Y-177133390D02*
X68261904Y-177181009D01*
X68261904Y-177181009D02*
X68309523Y-177276247D01*
X68309523Y-177276247D02*
X68309523Y-177514342D01*
X68309523Y-177514342D02*
X68261904Y-177609580D01*
X68261904Y-177609580D02*
X68214285Y-177657200D01*
X68214285Y-177657200D02*
X68119047Y-177704819D01*
X68119047Y-177704819D02*
X67880952Y-177704819D01*
X67880952Y-177704819D02*
X67785714Y-177657200D01*
X67785714Y-177657200D02*
X67738095Y-177609580D01*
X96757142Y-186354819D02*
X96423809Y-185878628D01*
X96185714Y-186354819D02*
X96185714Y-185354819D01*
X96185714Y-185354819D02*
X96566666Y-185354819D01*
X96566666Y-185354819D02*
X96661904Y-185402438D01*
X96661904Y-185402438D02*
X96709523Y-185450057D01*
X96709523Y-185450057D02*
X96757142Y-185545295D01*
X96757142Y-185545295D02*
X96757142Y-185688152D01*
X96757142Y-185688152D02*
X96709523Y-185783390D01*
X96709523Y-185783390D02*
X96661904Y-185831009D01*
X96661904Y-185831009D02*
X96566666Y-185878628D01*
X96566666Y-185878628D02*
X96185714Y-185878628D01*
X97138095Y-185450057D02*
X97185714Y-185402438D01*
X97185714Y-185402438D02*
X97280952Y-185354819D01*
X97280952Y-185354819D02*
X97519047Y-185354819D01*
X97519047Y-185354819D02*
X97614285Y-185402438D01*
X97614285Y-185402438D02*
X97661904Y-185450057D01*
X97661904Y-185450057D02*
X97709523Y-185545295D01*
X97709523Y-185545295D02*
X97709523Y-185640533D01*
X97709523Y-185640533D02*
X97661904Y-185783390D01*
X97661904Y-185783390D02*
X97090476Y-186354819D01*
X97090476Y-186354819D02*
X97709523Y-186354819D01*
X98328571Y-185354819D02*
X98423809Y-185354819D01*
X98423809Y-185354819D02*
X98519047Y-185402438D01*
X98519047Y-185402438D02*
X98566666Y-185450057D01*
X98566666Y-185450057D02*
X98614285Y-185545295D01*
X98614285Y-185545295D02*
X98661904Y-185735771D01*
X98661904Y-185735771D02*
X98661904Y-185973866D01*
X98661904Y-185973866D02*
X98614285Y-186164342D01*
X98614285Y-186164342D02*
X98566666Y-186259580D01*
X98566666Y-186259580D02*
X98519047Y-186307200D01*
X98519047Y-186307200D02*
X98423809Y-186354819D01*
X98423809Y-186354819D02*
X98328571Y-186354819D01*
X98328571Y-186354819D02*
X98233333Y-186307200D01*
X98233333Y-186307200D02*
X98185714Y-186259580D01*
X98185714Y-186259580D02*
X98138095Y-186164342D01*
X98138095Y-186164342D02*
X98090476Y-185973866D01*
X98090476Y-185973866D02*
X98090476Y-185735771D01*
X98090476Y-185735771D02*
X98138095Y-185545295D01*
X98138095Y-185545295D02*
X98185714Y-185450057D01*
X98185714Y-185450057D02*
X98233333Y-185402438D01*
X98233333Y-185402438D02*
X98328571Y-185354819D01*
X96107142Y-178874819D02*
X95773809Y-178398628D01*
X95535714Y-178874819D02*
X95535714Y-177874819D01*
X95535714Y-177874819D02*
X95916666Y-177874819D01*
X95916666Y-177874819D02*
X96011904Y-177922438D01*
X96011904Y-177922438D02*
X96059523Y-177970057D01*
X96059523Y-177970057D02*
X96107142Y-178065295D01*
X96107142Y-178065295D02*
X96107142Y-178208152D01*
X96107142Y-178208152D02*
X96059523Y-178303390D01*
X96059523Y-178303390D02*
X96011904Y-178351009D01*
X96011904Y-178351009D02*
X95916666Y-178398628D01*
X95916666Y-178398628D02*
X95535714Y-178398628D01*
X97059523Y-178874819D02*
X96488095Y-178874819D01*
X96773809Y-178874819D02*
X96773809Y-177874819D01*
X96773809Y-177874819D02*
X96678571Y-178017676D01*
X96678571Y-178017676D02*
X96583333Y-178112914D01*
X96583333Y-178112914D02*
X96488095Y-178160533D01*
X97916666Y-177874819D02*
X97726190Y-177874819D01*
X97726190Y-177874819D02*
X97630952Y-177922438D01*
X97630952Y-177922438D02*
X97583333Y-177970057D01*
X97583333Y-177970057D02*
X97488095Y-178112914D01*
X97488095Y-178112914D02*
X97440476Y-178303390D01*
X97440476Y-178303390D02*
X97440476Y-178684342D01*
X97440476Y-178684342D02*
X97488095Y-178779580D01*
X97488095Y-178779580D02*
X97535714Y-178827200D01*
X97535714Y-178827200D02*
X97630952Y-178874819D01*
X97630952Y-178874819D02*
X97821428Y-178874819D01*
X97821428Y-178874819D02*
X97916666Y-178827200D01*
X97916666Y-178827200D02*
X97964285Y-178779580D01*
X97964285Y-178779580D02*
X98011904Y-178684342D01*
X98011904Y-178684342D02*
X98011904Y-178446247D01*
X98011904Y-178446247D02*
X97964285Y-178351009D01*
X97964285Y-178351009D02*
X97916666Y-178303390D01*
X97916666Y-178303390D02*
X97821428Y-178255771D01*
X97821428Y-178255771D02*
X97630952Y-178255771D01*
X97630952Y-178255771D02*
X97535714Y-178303390D01*
X97535714Y-178303390D02*
X97488095Y-178351009D01*
X97488095Y-178351009D02*
X97440476Y-178446247D01*
X105033333Y-164354819D02*
X104557143Y-164354819D01*
X104557143Y-164354819D02*
X104509524Y-164831009D01*
X104509524Y-164831009D02*
X104557143Y-164783390D01*
X104557143Y-164783390D02*
X104652381Y-164735771D01*
X104652381Y-164735771D02*
X104890476Y-164735771D01*
X104890476Y-164735771D02*
X104985714Y-164783390D01*
X104985714Y-164783390D02*
X105033333Y-164831009D01*
X105033333Y-164831009D02*
X105080952Y-164926247D01*
X105080952Y-164926247D02*
X105080952Y-165164342D01*
X105080952Y-165164342D02*
X105033333Y-165259580D01*
X105033333Y-165259580D02*
X104985714Y-165307200D01*
X104985714Y-165307200D02*
X104890476Y-165354819D01*
X104890476Y-165354819D02*
X104652381Y-165354819D01*
X104652381Y-165354819D02*
X104557143Y-165307200D01*
X104557143Y-165307200D02*
X104509524Y-165259580D01*
X105366667Y-164354819D02*
X105700000Y-165354819D01*
X105700000Y-165354819D02*
X106033333Y-164354819D01*
X106890476Y-165354819D02*
X106319048Y-165354819D01*
X106604762Y-165354819D02*
X106604762Y-164354819D01*
X106604762Y-164354819D02*
X106509524Y-164497676D01*
X106509524Y-164497676D02*
X106414286Y-164592914D01*
X106414286Y-164592914D02*
X106319048Y-164640533D01*
X95259580Y-177342857D02*
X95307200Y-177390476D01*
X95307200Y-177390476D02*
X95354819Y-177533333D01*
X95354819Y-177533333D02*
X95354819Y-177628571D01*
X95354819Y-177628571D02*
X95307200Y-177771428D01*
X95307200Y-177771428D02*
X95211961Y-177866666D01*
X95211961Y-177866666D02*
X95116723Y-177914285D01*
X95116723Y-177914285D02*
X94926247Y-177961904D01*
X94926247Y-177961904D02*
X94783390Y-177961904D01*
X94783390Y-177961904D02*
X94592914Y-177914285D01*
X94592914Y-177914285D02*
X94497676Y-177866666D01*
X94497676Y-177866666D02*
X94402438Y-177771428D01*
X94402438Y-177771428D02*
X94354819Y-177628571D01*
X94354819Y-177628571D02*
X94354819Y-177533333D01*
X94354819Y-177533333D02*
X94402438Y-177390476D01*
X94402438Y-177390476D02*
X94450057Y-177342857D01*
X95354819Y-176390476D02*
X95354819Y-176961904D01*
X95354819Y-176676190D02*
X94354819Y-176676190D01*
X94354819Y-176676190D02*
X94497676Y-176771428D01*
X94497676Y-176771428D02*
X94592914Y-176866666D01*
X94592914Y-176866666D02*
X94640533Y-176961904D01*
X94688152Y-175533333D02*
X95354819Y-175533333D01*
X94307200Y-175771428D02*
X95021485Y-176009523D01*
X95021485Y-176009523D02*
X95021485Y-175390476D01*
X99154819Y-169490476D02*
X98678628Y-169823809D01*
X99154819Y-170061904D02*
X98154819Y-170061904D01*
X98154819Y-170061904D02*
X98154819Y-169680952D01*
X98154819Y-169680952D02*
X98202438Y-169585714D01*
X98202438Y-169585714D02*
X98250057Y-169538095D01*
X98250057Y-169538095D02*
X98345295Y-169490476D01*
X98345295Y-169490476D02*
X98488152Y-169490476D01*
X98488152Y-169490476D02*
X98583390Y-169538095D01*
X98583390Y-169538095D02*
X98631009Y-169585714D01*
X98631009Y-169585714D02*
X98678628Y-169680952D01*
X98678628Y-169680952D02*
X98678628Y-170061904D01*
X99154819Y-169061904D02*
X98154819Y-169061904D01*
X98154819Y-169061904D02*
X99154819Y-168490476D01*
X99154819Y-168490476D02*
X98154819Y-168490476D01*
X98250057Y-168061904D02*
X98202438Y-168014285D01*
X98202438Y-168014285D02*
X98154819Y-167919047D01*
X98154819Y-167919047D02*
X98154819Y-167680952D01*
X98154819Y-167680952D02*
X98202438Y-167585714D01*
X98202438Y-167585714D02*
X98250057Y-167538095D01*
X98250057Y-167538095D02*
X98345295Y-167490476D01*
X98345295Y-167490476D02*
X98440533Y-167490476D01*
X98440533Y-167490476D02*
X98583390Y-167538095D01*
X98583390Y-167538095D02*
X99154819Y-168109523D01*
X99154819Y-168109523D02*
X99154819Y-167490476D01*
X61708333Y-174242080D02*
X61660714Y-174289700D01*
X61660714Y-174289700D02*
X61517857Y-174337319D01*
X61517857Y-174337319D02*
X61422619Y-174337319D01*
X61422619Y-174337319D02*
X61279762Y-174289700D01*
X61279762Y-174289700D02*
X61184524Y-174194461D01*
X61184524Y-174194461D02*
X61136905Y-174099223D01*
X61136905Y-174099223D02*
X61089286Y-173908747D01*
X61089286Y-173908747D02*
X61089286Y-173765890D01*
X61089286Y-173765890D02*
X61136905Y-173575414D01*
X61136905Y-173575414D02*
X61184524Y-173480176D01*
X61184524Y-173480176D02*
X61279762Y-173384938D01*
X61279762Y-173384938D02*
X61422619Y-173337319D01*
X61422619Y-173337319D02*
X61517857Y-173337319D01*
X61517857Y-173337319D02*
X61660714Y-173384938D01*
X61660714Y-173384938D02*
X61708333Y-173432557D01*
X62613095Y-173337319D02*
X62136905Y-173337319D01*
X62136905Y-173337319D02*
X62089286Y-173813509D01*
X62089286Y-173813509D02*
X62136905Y-173765890D01*
X62136905Y-173765890D02*
X62232143Y-173718271D01*
X62232143Y-173718271D02*
X62470238Y-173718271D01*
X62470238Y-173718271D02*
X62565476Y-173765890D01*
X62565476Y-173765890D02*
X62613095Y-173813509D01*
X62613095Y-173813509D02*
X62660714Y-173908747D01*
X62660714Y-173908747D02*
X62660714Y-174146842D01*
X62660714Y-174146842D02*
X62613095Y-174242080D01*
X62613095Y-174242080D02*
X62565476Y-174289700D01*
X62565476Y-174289700D02*
X62470238Y-174337319D01*
X62470238Y-174337319D02*
X62232143Y-174337319D01*
X62232143Y-174337319D02*
X62136905Y-174289700D01*
X62136905Y-174289700D02*
X62089286Y-174242080D01*
X67238095Y-170289819D02*
X67238095Y-171099342D01*
X67238095Y-171099342D02*
X67285714Y-171194580D01*
X67285714Y-171194580D02*
X67333333Y-171242200D01*
X67333333Y-171242200D02*
X67428571Y-171289819D01*
X67428571Y-171289819D02*
X67619047Y-171289819D01*
X67619047Y-171289819D02*
X67714285Y-171242200D01*
X67714285Y-171242200D02*
X67761904Y-171194580D01*
X67761904Y-171194580D02*
X67809523Y-171099342D01*
X67809523Y-171099342D02*
X67809523Y-170289819D01*
X68714285Y-170623152D02*
X68714285Y-171289819D01*
X68476190Y-170242200D02*
X68238095Y-170956485D01*
X68238095Y-170956485D02*
X68857142Y-170956485D01*
X75759580Y-174042857D02*
X75807200Y-174090476D01*
X75807200Y-174090476D02*
X75854819Y-174233333D01*
X75854819Y-174233333D02*
X75854819Y-174328571D01*
X75854819Y-174328571D02*
X75807200Y-174471428D01*
X75807200Y-174471428D02*
X75711961Y-174566666D01*
X75711961Y-174566666D02*
X75616723Y-174614285D01*
X75616723Y-174614285D02*
X75426247Y-174661904D01*
X75426247Y-174661904D02*
X75283390Y-174661904D01*
X75283390Y-174661904D02*
X75092914Y-174614285D01*
X75092914Y-174614285D02*
X74997676Y-174566666D01*
X74997676Y-174566666D02*
X74902438Y-174471428D01*
X74902438Y-174471428D02*
X74854819Y-174328571D01*
X74854819Y-174328571D02*
X74854819Y-174233333D01*
X74854819Y-174233333D02*
X74902438Y-174090476D01*
X74902438Y-174090476D02*
X74950057Y-174042857D01*
X75854819Y-173090476D02*
X75854819Y-173661904D01*
X75854819Y-173376190D02*
X74854819Y-173376190D01*
X74854819Y-173376190D02*
X74997676Y-173471428D01*
X74997676Y-173471428D02*
X75092914Y-173566666D01*
X75092914Y-173566666D02*
X75140533Y-173661904D01*
X74854819Y-172233333D02*
X74854819Y-172423809D01*
X74854819Y-172423809D02*
X74902438Y-172519047D01*
X74902438Y-172519047D02*
X74950057Y-172566666D01*
X74950057Y-172566666D02*
X75092914Y-172661904D01*
X75092914Y-172661904D02*
X75283390Y-172709523D01*
X75283390Y-172709523D02*
X75664342Y-172709523D01*
X75664342Y-172709523D02*
X75759580Y-172661904D01*
X75759580Y-172661904D02*
X75807200Y-172614285D01*
X75807200Y-172614285D02*
X75854819Y-172519047D01*
X75854819Y-172519047D02*
X75854819Y-172328571D01*
X75854819Y-172328571D02*
X75807200Y-172233333D01*
X75807200Y-172233333D02*
X75759580Y-172185714D01*
X75759580Y-172185714D02*
X75664342Y-172138095D01*
X75664342Y-172138095D02*
X75426247Y-172138095D01*
X75426247Y-172138095D02*
X75331009Y-172185714D01*
X75331009Y-172185714D02*
X75283390Y-172233333D01*
X75283390Y-172233333D02*
X75235771Y-172328571D01*
X75235771Y-172328571D02*
X75235771Y-172519047D01*
X75235771Y-172519047D02*
X75283390Y-172614285D01*
X75283390Y-172614285D02*
X75331009Y-172661904D01*
X75331009Y-172661904D02*
X75426247Y-172709523D01*
X62499819Y-170729166D02*
X62023628Y-171062499D01*
X62499819Y-171300594D02*
X61499819Y-171300594D01*
X61499819Y-171300594D02*
X61499819Y-170919642D01*
X61499819Y-170919642D02*
X61547438Y-170824404D01*
X61547438Y-170824404D02*
X61595057Y-170776785D01*
X61595057Y-170776785D02*
X61690295Y-170729166D01*
X61690295Y-170729166D02*
X61833152Y-170729166D01*
X61833152Y-170729166D02*
X61928390Y-170776785D01*
X61928390Y-170776785D02*
X61976009Y-170824404D01*
X61976009Y-170824404D02*
X62023628Y-170919642D01*
X62023628Y-170919642D02*
X62023628Y-171300594D01*
X61499819Y-169824404D02*
X61499819Y-170300594D01*
X61499819Y-170300594D02*
X61976009Y-170348213D01*
X61976009Y-170348213D02*
X61928390Y-170300594D01*
X61928390Y-170300594D02*
X61880771Y-170205356D01*
X61880771Y-170205356D02*
X61880771Y-169967261D01*
X61880771Y-169967261D02*
X61928390Y-169872023D01*
X61928390Y-169872023D02*
X61976009Y-169824404D01*
X61976009Y-169824404D02*
X62071247Y-169776785D01*
X62071247Y-169776785D02*
X62309342Y-169776785D01*
X62309342Y-169776785D02*
X62404580Y-169824404D01*
X62404580Y-169824404D02*
X62452200Y-169872023D01*
X62452200Y-169872023D02*
X62499819Y-169967261D01*
X62499819Y-169967261D02*
X62499819Y-170205356D01*
X62499819Y-170205356D02*
X62452200Y-170300594D01*
X62452200Y-170300594D02*
X62404580Y-170348213D01*
X89557142Y-176459580D02*
X89509523Y-176507200D01*
X89509523Y-176507200D02*
X89366666Y-176554819D01*
X89366666Y-176554819D02*
X89271428Y-176554819D01*
X89271428Y-176554819D02*
X89128571Y-176507200D01*
X89128571Y-176507200D02*
X89033333Y-176411961D01*
X89033333Y-176411961D02*
X88985714Y-176316723D01*
X88985714Y-176316723D02*
X88938095Y-176126247D01*
X88938095Y-176126247D02*
X88938095Y-175983390D01*
X88938095Y-175983390D02*
X88985714Y-175792914D01*
X88985714Y-175792914D02*
X89033333Y-175697676D01*
X89033333Y-175697676D02*
X89128571Y-175602438D01*
X89128571Y-175602438D02*
X89271428Y-175554819D01*
X89271428Y-175554819D02*
X89366666Y-175554819D01*
X89366666Y-175554819D02*
X89509523Y-175602438D01*
X89509523Y-175602438D02*
X89557142Y-175650057D01*
X90509523Y-176554819D02*
X89938095Y-176554819D01*
X90223809Y-176554819D02*
X90223809Y-175554819D01*
X90223809Y-175554819D02*
X90128571Y-175697676D01*
X90128571Y-175697676D02*
X90033333Y-175792914D01*
X90033333Y-175792914D02*
X89938095Y-175840533D01*
X90985714Y-176554819D02*
X91176190Y-176554819D01*
X91176190Y-176554819D02*
X91271428Y-176507200D01*
X91271428Y-176507200D02*
X91319047Y-176459580D01*
X91319047Y-176459580D02*
X91414285Y-176316723D01*
X91414285Y-176316723D02*
X91461904Y-176126247D01*
X91461904Y-176126247D02*
X91461904Y-175745295D01*
X91461904Y-175745295D02*
X91414285Y-175650057D01*
X91414285Y-175650057D02*
X91366666Y-175602438D01*
X91366666Y-175602438D02*
X91271428Y-175554819D01*
X91271428Y-175554819D02*
X91080952Y-175554819D01*
X91080952Y-175554819D02*
X90985714Y-175602438D01*
X90985714Y-175602438D02*
X90938095Y-175650057D01*
X90938095Y-175650057D02*
X90890476Y-175745295D01*
X90890476Y-175745295D02*
X90890476Y-175983390D01*
X90890476Y-175983390D02*
X90938095Y-176078628D01*
X90938095Y-176078628D02*
X90985714Y-176126247D01*
X90985714Y-176126247D02*
X91080952Y-176173866D01*
X91080952Y-176173866D02*
X91271428Y-176173866D01*
X91271428Y-176173866D02*
X91366666Y-176126247D01*
X91366666Y-176126247D02*
X91414285Y-176078628D01*
X91414285Y-176078628D02*
X91461904Y-175983390D01*
X75404761Y-159850057D02*
X75309523Y-159802438D01*
X75309523Y-159802438D02*
X75214285Y-159707200D01*
X75214285Y-159707200D02*
X75071428Y-159564342D01*
X75071428Y-159564342D02*
X74976190Y-159516723D01*
X74976190Y-159516723D02*
X74880952Y-159516723D01*
X74928571Y-159754819D02*
X74833333Y-159707200D01*
X74833333Y-159707200D02*
X74738095Y-159611961D01*
X74738095Y-159611961D02*
X74690476Y-159421485D01*
X74690476Y-159421485D02*
X74690476Y-159088152D01*
X74690476Y-159088152D02*
X74738095Y-158897676D01*
X74738095Y-158897676D02*
X74833333Y-158802438D01*
X74833333Y-158802438D02*
X74928571Y-158754819D01*
X74928571Y-158754819D02*
X75119047Y-158754819D01*
X75119047Y-158754819D02*
X75214285Y-158802438D01*
X75214285Y-158802438D02*
X75309523Y-158897676D01*
X75309523Y-158897676D02*
X75357142Y-159088152D01*
X75357142Y-159088152D02*
X75357142Y-159421485D01*
X75357142Y-159421485D02*
X75309523Y-159611961D01*
X75309523Y-159611961D02*
X75214285Y-159707200D01*
X75214285Y-159707200D02*
X75119047Y-159754819D01*
X75119047Y-159754819D02*
X74928571Y-159754819D01*
X75738095Y-158850057D02*
X75785714Y-158802438D01*
X75785714Y-158802438D02*
X75880952Y-158754819D01*
X75880952Y-158754819D02*
X76119047Y-158754819D01*
X76119047Y-158754819D02*
X76214285Y-158802438D01*
X76214285Y-158802438D02*
X76261904Y-158850057D01*
X76261904Y-158850057D02*
X76309523Y-158945295D01*
X76309523Y-158945295D02*
X76309523Y-159040533D01*
X76309523Y-159040533D02*
X76261904Y-159183390D01*
X76261904Y-159183390D02*
X75690476Y-159754819D01*
X75690476Y-159754819D02*
X76309523Y-159754819D01*
X73117319Y-173166666D02*
X73117319Y-173642856D01*
X73117319Y-173642856D02*
X72117319Y-173642856D01*
X73117319Y-172309523D02*
X73117319Y-172880951D01*
X73117319Y-172595237D02*
X72117319Y-172595237D01*
X72117319Y-172595237D02*
X72260176Y-172690475D01*
X72260176Y-172690475D02*
X72355414Y-172785713D01*
X72355414Y-172785713D02*
X72403033Y-172880951D01*
X56914580Y-177166666D02*
X56962200Y-177214285D01*
X56962200Y-177214285D02*
X57009819Y-177357142D01*
X57009819Y-177357142D02*
X57009819Y-177452380D01*
X57009819Y-177452380D02*
X56962200Y-177595237D01*
X56962200Y-177595237D02*
X56866961Y-177690475D01*
X56866961Y-177690475D02*
X56771723Y-177738094D01*
X56771723Y-177738094D02*
X56581247Y-177785713D01*
X56581247Y-177785713D02*
X56438390Y-177785713D01*
X56438390Y-177785713D02*
X56247914Y-177738094D01*
X56247914Y-177738094D02*
X56152676Y-177690475D01*
X56152676Y-177690475D02*
X56057438Y-177595237D01*
X56057438Y-177595237D02*
X56009819Y-177452380D01*
X56009819Y-177452380D02*
X56009819Y-177357142D01*
X56009819Y-177357142D02*
X56057438Y-177214285D01*
X56057438Y-177214285D02*
X56105057Y-177166666D01*
X56009819Y-176309523D02*
X56009819Y-176499999D01*
X56009819Y-176499999D02*
X56057438Y-176595237D01*
X56057438Y-176595237D02*
X56105057Y-176642856D01*
X56105057Y-176642856D02*
X56247914Y-176738094D01*
X56247914Y-176738094D02*
X56438390Y-176785713D01*
X56438390Y-176785713D02*
X56819342Y-176785713D01*
X56819342Y-176785713D02*
X56914580Y-176738094D01*
X56914580Y-176738094D02*
X56962200Y-176690475D01*
X56962200Y-176690475D02*
X57009819Y-176595237D01*
X57009819Y-176595237D02*
X57009819Y-176404761D01*
X57009819Y-176404761D02*
X56962200Y-176309523D01*
X56962200Y-176309523D02*
X56914580Y-176261904D01*
X56914580Y-176261904D02*
X56819342Y-176214285D01*
X56819342Y-176214285D02*
X56581247Y-176214285D01*
X56581247Y-176214285D02*
X56486009Y-176261904D01*
X56486009Y-176261904D02*
X56438390Y-176309523D01*
X56438390Y-176309523D02*
X56390771Y-176404761D01*
X56390771Y-176404761D02*
X56390771Y-176595237D01*
X56390771Y-176595237D02*
X56438390Y-176690475D01*
X56438390Y-176690475D02*
X56486009Y-176738094D01*
X56486009Y-176738094D02*
X56581247Y-176785713D01*
X58433333Y-151959580D02*
X58385714Y-152007200D01*
X58385714Y-152007200D02*
X58242857Y-152054819D01*
X58242857Y-152054819D02*
X58147619Y-152054819D01*
X58147619Y-152054819D02*
X58004762Y-152007200D01*
X58004762Y-152007200D02*
X57909524Y-151911961D01*
X57909524Y-151911961D02*
X57861905Y-151816723D01*
X57861905Y-151816723D02*
X57814286Y-151626247D01*
X57814286Y-151626247D02*
X57814286Y-151483390D01*
X57814286Y-151483390D02*
X57861905Y-151292914D01*
X57861905Y-151292914D02*
X57909524Y-151197676D01*
X57909524Y-151197676D02*
X58004762Y-151102438D01*
X58004762Y-151102438D02*
X58147619Y-151054819D01*
X58147619Y-151054819D02*
X58242857Y-151054819D01*
X58242857Y-151054819D02*
X58385714Y-151102438D01*
X58385714Y-151102438D02*
X58433333Y-151150057D01*
X58766667Y-151054819D02*
X59385714Y-151054819D01*
X59385714Y-151054819D02*
X59052381Y-151435771D01*
X59052381Y-151435771D02*
X59195238Y-151435771D01*
X59195238Y-151435771D02*
X59290476Y-151483390D01*
X59290476Y-151483390D02*
X59338095Y-151531009D01*
X59338095Y-151531009D02*
X59385714Y-151626247D01*
X59385714Y-151626247D02*
X59385714Y-151864342D01*
X59385714Y-151864342D02*
X59338095Y-151959580D01*
X59338095Y-151959580D02*
X59290476Y-152007200D01*
X59290476Y-152007200D02*
X59195238Y-152054819D01*
X59195238Y-152054819D02*
X58909524Y-152054819D01*
X58909524Y-152054819D02*
X58814286Y-152007200D01*
X58814286Y-152007200D02*
X58766667Y-151959580D01*
X81754819Y-154742857D02*
X81278628Y-155076190D01*
X81754819Y-155314285D02*
X80754819Y-155314285D01*
X80754819Y-155314285D02*
X80754819Y-154933333D01*
X80754819Y-154933333D02*
X80802438Y-154838095D01*
X80802438Y-154838095D02*
X80850057Y-154790476D01*
X80850057Y-154790476D02*
X80945295Y-154742857D01*
X80945295Y-154742857D02*
X81088152Y-154742857D01*
X81088152Y-154742857D02*
X81183390Y-154790476D01*
X81183390Y-154790476D02*
X81231009Y-154838095D01*
X81231009Y-154838095D02*
X81278628Y-154933333D01*
X81278628Y-154933333D02*
X81278628Y-155314285D01*
X81754819Y-153790476D02*
X81754819Y-154361904D01*
X81754819Y-154076190D02*
X80754819Y-154076190D01*
X80754819Y-154076190D02*
X80897676Y-154171428D01*
X80897676Y-154171428D02*
X80992914Y-154266666D01*
X80992914Y-154266666D02*
X81040533Y-154361904D01*
X81754819Y-152838095D02*
X81754819Y-153409523D01*
X81754819Y-153123809D02*
X80754819Y-153123809D01*
X80754819Y-153123809D02*
X80897676Y-153219047D01*
X80897676Y-153219047D02*
X80992914Y-153314285D01*
X80992914Y-153314285D02*
X81040533Y-153409523D01*
X99039580Y-166205357D02*
X99087200Y-166252976D01*
X99087200Y-166252976D02*
X99134819Y-166395833D01*
X99134819Y-166395833D02*
X99134819Y-166491071D01*
X99134819Y-166491071D02*
X99087200Y-166633928D01*
X99087200Y-166633928D02*
X98991961Y-166729166D01*
X98991961Y-166729166D02*
X98896723Y-166776785D01*
X98896723Y-166776785D02*
X98706247Y-166824404D01*
X98706247Y-166824404D02*
X98563390Y-166824404D01*
X98563390Y-166824404D02*
X98372914Y-166776785D01*
X98372914Y-166776785D02*
X98277676Y-166729166D01*
X98277676Y-166729166D02*
X98182438Y-166633928D01*
X98182438Y-166633928D02*
X98134819Y-166491071D01*
X98134819Y-166491071D02*
X98134819Y-166395833D01*
X98134819Y-166395833D02*
X98182438Y-166252976D01*
X98182438Y-166252976D02*
X98230057Y-166205357D01*
X98230057Y-165824404D02*
X98182438Y-165776785D01*
X98182438Y-165776785D02*
X98134819Y-165681547D01*
X98134819Y-165681547D02*
X98134819Y-165443452D01*
X98134819Y-165443452D02*
X98182438Y-165348214D01*
X98182438Y-165348214D02*
X98230057Y-165300595D01*
X98230057Y-165300595D02*
X98325295Y-165252976D01*
X98325295Y-165252976D02*
X98420533Y-165252976D01*
X98420533Y-165252976D02*
X98563390Y-165300595D01*
X98563390Y-165300595D02*
X99134819Y-165872023D01*
X99134819Y-165872023D02*
X99134819Y-165252976D01*
X99134819Y-164776785D02*
X99134819Y-164586309D01*
X99134819Y-164586309D02*
X99087200Y-164491071D01*
X99087200Y-164491071D02*
X99039580Y-164443452D01*
X99039580Y-164443452D02*
X98896723Y-164348214D01*
X98896723Y-164348214D02*
X98706247Y-164300595D01*
X98706247Y-164300595D02*
X98325295Y-164300595D01*
X98325295Y-164300595D02*
X98230057Y-164348214D01*
X98230057Y-164348214D02*
X98182438Y-164395833D01*
X98182438Y-164395833D02*
X98134819Y-164491071D01*
X98134819Y-164491071D02*
X98134819Y-164681547D01*
X98134819Y-164681547D02*
X98182438Y-164776785D01*
X98182438Y-164776785D02*
X98230057Y-164824404D01*
X98230057Y-164824404D02*
X98325295Y-164872023D01*
X98325295Y-164872023D02*
X98563390Y-164872023D01*
X98563390Y-164872023D02*
X98658628Y-164824404D01*
X98658628Y-164824404D02*
X98706247Y-164776785D01*
X98706247Y-164776785D02*
X98753866Y-164681547D01*
X98753866Y-164681547D02*
X98753866Y-164491071D01*
X98753866Y-164491071D02*
X98706247Y-164395833D01*
X98706247Y-164395833D02*
X98658628Y-164348214D01*
X98658628Y-164348214D02*
X98563390Y-164300595D01*
X95704761Y-182650057D02*
X95609523Y-182602438D01*
X95609523Y-182602438D02*
X95514285Y-182507200D01*
X95514285Y-182507200D02*
X95371428Y-182364342D01*
X95371428Y-182364342D02*
X95276190Y-182316723D01*
X95276190Y-182316723D02*
X95180952Y-182316723D01*
X95228571Y-182554819D02*
X95133333Y-182507200D01*
X95133333Y-182507200D02*
X95038095Y-182411961D01*
X95038095Y-182411961D02*
X94990476Y-182221485D01*
X94990476Y-182221485D02*
X94990476Y-181888152D01*
X94990476Y-181888152D02*
X95038095Y-181697676D01*
X95038095Y-181697676D02*
X95133333Y-181602438D01*
X95133333Y-181602438D02*
X95228571Y-181554819D01*
X95228571Y-181554819D02*
X95419047Y-181554819D01*
X95419047Y-181554819D02*
X95514285Y-181602438D01*
X95514285Y-181602438D02*
X95609523Y-181697676D01*
X95609523Y-181697676D02*
X95657142Y-181888152D01*
X95657142Y-181888152D02*
X95657142Y-182221485D01*
X95657142Y-182221485D02*
X95609523Y-182411961D01*
X95609523Y-182411961D02*
X95514285Y-182507200D01*
X95514285Y-182507200D02*
X95419047Y-182554819D01*
X95419047Y-182554819D02*
X95228571Y-182554819D01*
X95990476Y-181554819D02*
X96609523Y-181554819D01*
X96609523Y-181554819D02*
X96276190Y-181935771D01*
X96276190Y-181935771D02*
X96419047Y-181935771D01*
X96419047Y-181935771D02*
X96514285Y-181983390D01*
X96514285Y-181983390D02*
X96561904Y-182031009D01*
X96561904Y-182031009D02*
X96609523Y-182126247D01*
X96609523Y-182126247D02*
X96609523Y-182364342D01*
X96609523Y-182364342D02*
X96561904Y-182459580D01*
X96561904Y-182459580D02*
X96514285Y-182507200D01*
X96514285Y-182507200D02*
X96419047Y-182554819D01*
X96419047Y-182554819D02*
X96133333Y-182554819D01*
X96133333Y-182554819D02*
X96038095Y-182507200D01*
X96038095Y-182507200D02*
X95990476Y-182459580D01*
X68157142Y-172359580D02*
X68109523Y-172407200D01*
X68109523Y-172407200D02*
X67966666Y-172454819D01*
X67966666Y-172454819D02*
X67871428Y-172454819D01*
X67871428Y-172454819D02*
X67728571Y-172407200D01*
X67728571Y-172407200D02*
X67633333Y-172311961D01*
X67633333Y-172311961D02*
X67585714Y-172216723D01*
X67585714Y-172216723D02*
X67538095Y-172026247D01*
X67538095Y-172026247D02*
X67538095Y-171883390D01*
X67538095Y-171883390D02*
X67585714Y-171692914D01*
X67585714Y-171692914D02*
X67633333Y-171597676D01*
X67633333Y-171597676D02*
X67728571Y-171502438D01*
X67728571Y-171502438D02*
X67871428Y-171454819D01*
X67871428Y-171454819D02*
X67966666Y-171454819D01*
X67966666Y-171454819D02*
X68109523Y-171502438D01*
X68109523Y-171502438D02*
X68157142Y-171550057D01*
X69109523Y-172454819D02*
X68538095Y-172454819D01*
X68823809Y-172454819D02*
X68823809Y-171454819D01*
X68823809Y-171454819D02*
X68728571Y-171597676D01*
X68728571Y-171597676D02*
X68633333Y-171692914D01*
X68633333Y-171692914D02*
X68538095Y-171740533D01*
X70061904Y-172454819D02*
X69490476Y-172454819D01*
X69776190Y-172454819D02*
X69776190Y-171454819D01*
X69776190Y-171454819D02*
X69680952Y-171597676D01*
X69680952Y-171597676D02*
X69585714Y-171692914D01*
X69585714Y-171692914D02*
X69490476Y-171740533D01*
X92257142Y-171649580D02*
X92209523Y-171697200D01*
X92209523Y-171697200D02*
X92066666Y-171744819D01*
X92066666Y-171744819D02*
X91971428Y-171744819D01*
X91971428Y-171744819D02*
X91828571Y-171697200D01*
X91828571Y-171697200D02*
X91733333Y-171601961D01*
X91733333Y-171601961D02*
X91685714Y-171506723D01*
X91685714Y-171506723D02*
X91638095Y-171316247D01*
X91638095Y-171316247D02*
X91638095Y-171173390D01*
X91638095Y-171173390D02*
X91685714Y-170982914D01*
X91685714Y-170982914D02*
X91733333Y-170887676D01*
X91733333Y-170887676D02*
X91828571Y-170792438D01*
X91828571Y-170792438D02*
X91971428Y-170744819D01*
X91971428Y-170744819D02*
X92066666Y-170744819D01*
X92066666Y-170744819D02*
X92209523Y-170792438D01*
X92209523Y-170792438D02*
X92257142Y-170840057D01*
X93209523Y-171744819D02*
X92638095Y-171744819D01*
X92923809Y-171744819D02*
X92923809Y-170744819D01*
X92923809Y-170744819D02*
X92828571Y-170887676D01*
X92828571Y-170887676D02*
X92733333Y-170982914D01*
X92733333Y-170982914D02*
X92638095Y-171030533D01*
X93542857Y-170744819D02*
X94161904Y-170744819D01*
X94161904Y-170744819D02*
X93828571Y-171125771D01*
X93828571Y-171125771D02*
X93971428Y-171125771D01*
X93971428Y-171125771D02*
X94066666Y-171173390D01*
X94066666Y-171173390D02*
X94114285Y-171221009D01*
X94114285Y-171221009D02*
X94161904Y-171316247D01*
X94161904Y-171316247D02*
X94161904Y-171554342D01*
X94161904Y-171554342D02*
X94114285Y-171649580D01*
X94114285Y-171649580D02*
X94066666Y-171697200D01*
X94066666Y-171697200D02*
X93971428Y-171744819D01*
X93971428Y-171744819D02*
X93685714Y-171744819D01*
X93685714Y-171744819D02*
X93590476Y-171697200D01*
X93590476Y-171697200D02*
X93542857Y-171649580D01*
X60767080Y-182237857D02*
X60814700Y-182285476D01*
X60814700Y-182285476D02*
X60862319Y-182428333D01*
X60862319Y-182428333D02*
X60862319Y-182523571D01*
X60862319Y-182523571D02*
X60814700Y-182666428D01*
X60814700Y-182666428D02*
X60719461Y-182761666D01*
X60719461Y-182761666D02*
X60624223Y-182809285D01*
X60624223Y-182809285D02*
X60433747Y-182856904D01*
X60433747Y-182856904D02*
X60290890Y-182856904D01*
X60290890Y-182856904D02*
X60100414Y-182809285D01*
X60100414Y-182809285D02*
X60005176Y-182761666D01*
X60005176Y-182761666D02*
X59909938Y-182666428D01*
X59909938Y-182666428D02*
X59862319Y-182523571D01*
X59862319Y-182523571D02*
X59862319Y-182428333D01*
X59862319Y-182428333D02*
X59909938Y-182285476D01*
X59909938Y-182285476D02*
X59957557Y-182237857D01*
X60862319Y-181285476D02*
X60862319Y-181856904D01*
X60862319Y-181571190D02*
X59862319Y-181571190D01*
X59862319Y-181571190D02*
X60005176Y-181666428D01*
X60005176Y-181666428D02*
X60100414Y-181761666D01*
X60100414Y-181761666D02*
X60148033Y-181856904D01*
X59957557Y-180904523D02*
X59909938Y-180856904D01*
X59909938Y-180856904D02*
X59862319Y-180761666D01*
X59862319Y-180761666D02*
X59862319Y-180523571D01*
X59862319Y-180523571D02*
X59909938Y-180428333D01*
X59909938Y-180428333D02*
X59957557Y-180380714D01*
X59957557Y-180380714D02*
X60052795Y-180333095D01*
X60052795Y-180333095D02*
X60148033Y-180333095D01*
X60148033Y-180333095D02*
X60290890Y-180380714D01*
X60290890Y-180380714D02*
X60862319Y-180952142D01*
X60862319Y-180952142D02*
X60862319Y-180333095D01*
X46666666Y-186103687D02*
X46666666Y-186817972D01*
X46666666Y-186817972D02*
X46619047Y-186960829D01*
X46619047Y-186960829D02*
X46523809Y-187056068D01*
X46523809Y-187056068D02*
X46380952Y-187103687D01*
X46380952Y-187103687D02*
X46285714Y-187103687D01*
X47095238Y-186198925D02*
X47142857Y-186151306D01*
X47142857Y-186151306D02*
X47238095Y-186103687D01*
X47238095Y-186103687D02*
X47476190Y-186103687D01*
X47476190Y-186103687D02*
X47571428Y-186151306D01*
X47571428Y-186151306D02*
X47619047Y-186198925D01*
X47619047Y-186198925D02*
X47666666Y-186294163D01*
X47666666Y-186294163D02*
X47666666Y-186389401D01*
X47666666Y-186389401D02*
X47619047Y-186532258D01*
X47619047Y-186532258D02*
X47047619Y-187103687D01*
X47047619Y-187103687D02*
X47666666Y-187103687D01*
X77457142Y-178019580D02*
X77409523Y-178067200D01*
X77409523Y-178067200D02*
X77266666Y-178114819D01*
X77266666Y-178114819D02*
X77171428Y-178114819D01*
X77171428Y-178114819D02*
X77028571Y-178067200D01*
X77028571Y-178067200D02*
X76933333Y-177971961D01*
X76933333Y-177971961D02*
X76885714Y-177876723D01*
X76885714Y-177876723D02*
X76838095Y-177686247D01*
X76838095Y-177686247D02*
X76838095Y-177543390D01*
X76838095Y-177543390D02*
X76885714Y-177352914D01*
X76885714Y-177352914D02*
X76933333Y-177257676D01*
X76933333Y-177257676D02*
X77028571Y-177162438D01*
X77028571Y-177162438D02*
X77171428Y-177114819D01*
X77171428Y-177114819D02*
X77266666Y-177114819D01*
X77266666Y-177114819D02*
X77409523Y-177162438D01*
X77409523Y-177162438D02*
X77457142Y-177210057D01*
X77838095Y-177210057D02*
X77885714Y-177162438D01*
X77885714Y-177162438D02*
X77980952Y-177114819D01*
X77980952Y-177114819D02*
X78219047Y-177114819D01*
X78219047Y-177114819D02*
X78314285Y-177162438D01*
X78314285Y-177162438D02*
X78361904Y-177210057D01*
X78361904Y-177210057D02*
X78409523Y-177305295D01*
X78409523Y-177305295D02*
X78409523Y-177400533D01*
X78409523Y-177400533D02*
X78361904Y-177543390D01*
X78361904Y-177543390D02*
X77790476Y-178114819D01*
X77790476Y-178114819D02*
X78409523Y-178114819D01*
X79361904Y-178114819D02*
X78790476Y-178114819D01*
X79076190Y-178114819D02*
X79076190Y-177114819D01*
X79076190Y-177114819D02*
X78980952Y-177257676D01*
X78980952Y-177257676D02*
X78885714Y-177352914D01*
X78885714Y-177352914D02*
X78790476Y-177400533D01*
X52754819Y-175742857D02*
X52278628Y-176076190D01*
X52754819Y-176314285D02*
X51754819Y-176314285D01*
X51754819Y-176314285D02*
X51754819Y-175933333D01*
X51754819Y-175933333D02*
X51802438Y-175838095D01*
X51802438Y-175838095D02*
X51850057Y-175790476D01*
X51850057Y-175790476D02*
X51945295Y-175742857D01*
X51945295Y-175742857D02*
X52088152Y-175742857D01*
X52088152Y-175742857D02*
X52183390Y-175790476D01*
X52183390Y-175790476D02*
X52231009Y-175838095D01*
X52231009Y-175838095D02*
X52278628Y-175933333D01*
X52278628Y-175933333D02*
X52278628Y-176314285D01*
X51850057Y-175361904D02*
X51802438Y-175314285D01*
X51802438Y-175314285D02*
X51754819Y-175219047D01*
X51754819Y-175219047D02*
X51754819Y-174980952D01*
X51754819Y-174980952D02*
X51802438Y-174885714D01*
X51802438Y-174885714D02*
X51850057Y-174838095D01*
X51850057Y-174838095D02*
X51945295Y-174790476D01*
X51945295Y-174790476D02*
X52040533Y-174790476D01*
X52040533Y-174790476D02*
X52183390Y-174838095D01*
X52183390Y-174838095D02*
X52754819Y-175409523D01*
X52754819Y-175409523D02*
X52754819Y-174790476D01*
X51754819Y-174457142D02*
X51754819Y-173838095D01*
X51754819Y-173838095D02*
X52135771Y-174171428D01*
X52135771Y-174171428D02*
X52135771Y-174028571D01*
X52135771Y-174028571D02*
X52183390Y-173933333D01*
X52183390Y-173933333D02*
X52231009Y-173885714D01*
X52231009Y-173885714D02*
X52326247Y-173838095D01*
X52326247Y-173838095D02*
X52564342Y-173838095D01*
X52564342Y-173838095D02*
X52659580Y-173885714D01*
X52659580Y-173885714D02*
X52707200Y-173933333D01*
X52707200Y-173933333D02*
X52754819Y-174028571D01*
X52754819Y-174028571D02*
X52754819Y-174314285D01*
X52754819Y-174314285D02*
X52707200Y-174409523D01*
X52707200Y-174409523D02*
X52659580Y-174457142D01*
X54533333Y-171654819D02*
X54200000Y-171178628D01*
X53961905Y-171654819D02*
X53961905Y-170654819D01*
X53961905Y-170654819D02*
X54342857Y-170654819D01*
X54342857Y-170654819D02*
X54438095Y-170702438D01*
X54438095Y-170702438D02*
X54485714Y-170750057D01*
X54485714Y-170750057D02*
X54533333Y-170845295D01*
X54533333Y-170845295D02*
X54533333Y-170988152D01*
X54533333Y-170988152D02*
X54485714Y-171083390D01*
X54485714Y-171083390D02*
X54438095Y-171131009D01*
X54438095Y-171131009D02*
X54342857Y-171178628D01*
X54342857Y-171178628D02*
X53961905Y-171178628D01*
X55390476Y-170654819D02*
X55200000Y-170654819D01*
X55200000Y-170654819D02*
X55104762Y-170702438D01*
X55104762Y-170702438D02*
X55057143Y-170750057D01*
X55057143Y-170750057D02*
X54961905Y-170892914D01*
X54961905Y-170892914D02*
X54914286Y-171083390D01*
X54914286Y-171083390D02*
X54914286Y-171464342D01*
X54914286Y-171464342D02*
X54961905Y-171559580D01*
X54961905Y-171559580D02*
X55009524Y-171607200D01*
X55009524Y-171607200D02*
X55104762Y-171654819D01*
X55104762Y-171654819D02*
X55295238Y-171654819D01*
X55295238Y-171654819D02*
X55390476Y-171607200D01*
X55390476Y-171607200D02*
X55438095Y-171559580D01*
X55438095Y-171559580D02*
X55485714Y-171464342D01*
X55485714Y-171464342D02*
X55485714Y-171226247D01*
X55485714Y-171226247D02*
X55438095Y-171131009D01*
X55438095Y-171131009D02*
X55390476Y-171083390D01*
X55390476Y-171083390D02*
X55295238Y-171035771D01*
X55295238Y-171035771D02*
X55104762Y-171035771D01*
X55104762Y-171035771D02*
X55009524Y-171083390D01*
X55009524Y-171083390D02*
X54961905Y-171131009D01*
X54961905Y-171131009D02*
X54914286Y-171226247D01*
X85759580Y-170642857D02*
X85807200Y-170690476D01*
X85807200Y-170690476D02*
X85854819Y-170833333D01*
X85854819Y-170833333D02*
X85854819Y-170928571D01*
X85854819Y-170928571D02*
X85807200Y-171071428D01*
X85807200Y-171071428D02*
X85711961Y-171166666D01*
X85711961Y-171166666D02*
X85616723Y-171214285D01*
X85616723Y-171214285D02*
X85426247Y-171261904D01*
X85426247Y-171261904D02*
X85283390Y-171261904D01*
X85283390Y-171261904D02*
X85092914Y-171214285D01*
X85092914Y-171214285D02*
X84997676Y-171166666D01*
X84997676Y-171166666D02*
X84902438Y-171071428D01*
X84902438Y-171071428D02*
X84854819Y-170928571D01*
X84854819Y-170928571D02*
X84854819Y-170833333D01*
X84854819Y-170833333D02*
X84902438Y-170690476D01*
X84902438Y-170690476D02*
X84950057Y-170642857D01*
X84950057Y-170261904D02*
X84902438Y-170214285D01*
X84902438Y-170214285D02*
X84854819Y-170119047D01*
X84854819Y-170119047D02*
X84854819Y-169880952D01*
X84854819Y-169880952D02*
X84902438Y-169785714D01*
X84902438Y-169785714D02*
X84950057Y-169738095D01*
X84950057Y-169738095D02*
X85045295Y-169690476D01*
X85045295Y-169690476D02*
X85140533Y-169690476D01*
X85140533Y-169690476D02*
X85283390Y-169738095D01*
X85283390Y-169738095D02*
X85854819Y-170309523D01*
X85854819Y-170309523D02*
X85854819Y-169690476D01*
X84854819Y-168833333D02*
X84854819Y-169023809D01*
X84854819Y-169023809D02*
X84902438Y-169119047D01*
X84902438Y-169119047D02*
X84950057Y-169166666D01*
X84950057Y-169166666D02*
X85092914Y-169261904D01*
X85092914Y-169261904D02*
X85283390Y-169309523D01*
X85283390Y-169309523D02*
X85664342Y-169309523D01*
X85664342Y-169309523D02*
X85759580Y-169261904D01*
X85759580Y-169261904D02*
X85807200Y-169214285D01*
X85807200Y-169214285D02*
X85854819Y-169119047D01*
X85854819Y-169119047D02*
X85854819Y-168928571D01*
X85854819Y-168928571D02*
X85807200Y-168833333D01*
X85807200Y-168833333D02*
X85759580Y-168785714D01*
X85759580Y-168785714D02*
X85664342Y-168738095D01*
X85664342Y-168738095D02*
X85426247Y-168738095D01*
X85426247Y-168738095D02*
X85331009Y-168785714D01*
X85331009Y-168785714D02*
X85283390Y-168833333D01*
X85283390Y-168833333D02*
X85235771Y-168928571D01*
X85235771Y-168928571D02*
X85235771Y-169119047D01*
X85235771Y-169119047D02*
X85283390Y-169214285D01*
X85283390Y-169214285D02*
X85331009Y-169261904D01*
X85331009Y-169261904D02*
X85426247Y-169309523D01*
X53833333Y-174854819D02*
X53500000Y-174378628D01*
X53261905Y-174854819D02*
X53261905Y-173854819D01*
X53261905Y-173854819D02*
X53642857Y-173854819D01*
X53642857Y-173854819D02*
X53738095Y-173902438D01*
X53738095Y-173902438D02*
X53785714Y-173950057D01*
X53785714Y-173950057D02*
X53833333Y-174045295D01*
X53833333Y-174045295D02*
X53833333Y-174188152D01*
X53833333Y-174188152D02*
X53785714Y-174283390D01*
X53785714Y-174283390D02*
X53738095Y-174331009D01*
X53738095Y-174331009D02*
X53642857Y-174378628D01*
X53642857Y-174378628D02*
X53261905Y-174378628D01*
X54166667Y-173854819D02*
X54833333Y-173854819D01*
X54833333Y-173854819D02*
X54404762Y-174854819D01*
X88699580Y-172042857D02*
X88747200Y-172090476D01*
X88747200Y-172090476D02*
X88794819Y-172233333D01*
X88794819Y-172233333D02*
X88794819Y-172328571D01*
X88794819Y-172328571D02*
X88747200Y-172471428D01*
X88747200Y-172471428D02*
X88651961Y-172566666D01*
X88651961Y-172566666D02*
X88556723Y-172614285D01*
X88556723Y-172614285D02*
X88366247Y-172661904D01*
X88366247Y-172661904D02*
X88223390Y-172661904D01*
X88223390Y-172661904D02*
X88032914Y-172614285D01*
X88032914Y-172614285D02*
X87937676Y-172566666D01*
X87937676Y-172566666D02*
X87842438Y-172471428D01*
X87842438Y-172471428D02*
X87794819Y-172328571D01*
X87794819Y-172328571D02*
X87794819Y-172233333D01*
X87794819Y-172233333D02*
X87842438Y-172090476D01*
X87842438Y-172090476D02*
X87890057Y-172042857D01*
X87890057Y-171661904D02*
X87842438Y-171614285D01*
X87842438Y-171614285D02*
X87794819Y-171519047D01*
X87794819Y-171519047D02*
X87794819Y-171280952D01*
X87794819Y-171280952D02*
X87842438Y-171185714D01*
X87842438Y-171185714D02*
X87890057Y-171138095D01*
X87890057Y-171138095D02*
X87985295Y-171090476D01*
X87985295Y-171090476D02*
X88080533Y-171090476D01*
X88080533Y-171090476D02*
X88223390Y-171138095D01*
X88223390Y-171138095D02*
X88794819Y-171709523D01*
X88794819Y-171709523D02*
X88794819Y-171090476D01*
X87794819Y-170185714D02*
X87794819Y-170661904D01*
X87794819Y-170661904D02*
X88271009Y-170709523D01*
X88271009Y-170709523D02*
X88223390Y-170661904D01*
X88223390Y-170661904D02*
X88175771Y-170566666D01*
X88175771Y-170566666D02*
X88175771Y-170328571D01*
X88175771Y-170328571D02*
X88223390Y-170233333D01*
X88223390Y-170233333D02*
X88271009Y-170185714D01*
X88271009Y-170185714D02*
X88366247Y-170138095D01*
X88366247Y-170138095D02*
X88604342Y-170138095D01*
X88604342Y-170138095D02*
X88699580Y-170185714D01*
X88699580Y-170185714D02*
X88747200Y-170233333D01*
X88747200Y-170233333D02*
X88794819Y-170328571D01*
X88794819Y-170328571D02*
X88794819Y-170566666D01*
X88794819Y-170566666D02*
X88747200Y-170661904D01*
X88747200Y-170661904D02*
X88699580Y-170709523D01*
X71233333Y-175154819D02*
X70900000Y-174678628D01*
X70661905Y-175154819D02*
X70661905Y-174154819D01*
X70661905Y-174154819D02*
X71042857Y-174154819D01*
X71042857Y-174154819D02*
X71138095Y-174202438D01*
X71138095Y-174202438D02*
X71185714Y-174250057D01*
X71185714Y-174250057D02*
X71233333Y-174345295D01*
X71233333Y-174345295D02*
X71233333Y-174488152D01*
X71233333Y-174488152D02*
X71185714Y-174583390D01*
X71185714Y-174583390D02*
X71138095Y-174631009D01*
X71138095Y-174631009D02*
X71042857Y-174678628D01*
X71042857Y-174678628D02*
X70661905Y-174678628D01*
X71566667Y-174154819D02*
X72185714Y-174154819D01*
X72185714Y-174154819D02*
X71852381Y-174535771D01*
X71852381Y-174535771D02*
X71995238Y-174535771D01*
X71995238Y-174535771D02*
X72090476Y-174583390D01*
X72090476Y-174583390D02*
X72138095Y-174631009D01*
X72138095Y-174631009D02*
X72185714Y-174726247D01*
X72185714Y-174726247D02*
X72185714Y-174964342D01*
X72185714Y-174964342D02*
X72138095Y-175059580D01*
X72138095Y-175059580D02*
X72090476Y-175107200D01*
X72090476Y-175107200D02*
X71995238Y-175154819D01*
X71995238Y-175154819D02*
X71709524Y-175154819D01*
X71709524Y-175154819D02*
X71614286Y-175107200D01*
X71614286Y-175107200D02*
X71566667Y-175059580D01*
X99454819Y-183190476D02*
X98978628Y-183523809D01*
X99454819Y-183761904D02*
X98454819Y-183761904D01*
X98454819Y-183761904D02*
X98454819Y-183380952D01*
X98454819Y-183380952D02*
X98502438Y-183285714D01*
X98502438Y-183285714D02*
X98550057Y-183238095D01*
X98550057Y-183238095D02*
X98645295Y-183190476D01*
X98645295Y-183190476D02*
X98788152Y-183190476D01*
X98788152Y-183190476D02*
X98883390Y-183238095D01*
X98883390Y-183238095D02*
X98931009Y-183285714D01*
X98931009Y-183285714D02*
X98978628Y-183380952D01*
X98978628Y-183380952D02*
X98978628Y-183761904D01*
X99454819Y-182761904D02*
X98454819Y-182761904D01*
X98454819Y-182761904D02*
X99454819Y-182190476D01*
X99454819Y-182190476D02*
X98454819Y-182190476D01*
X99454819Y-181190476D02*
X99454819Y-181761904D01*
X99454819Y-181476190D02*
X98454819Y-181476190D01*
X98454819Y-181476190D02*
X98597676Y-181571428D01*
X98597676Y-181571428D02*
X98692914Y-181666666D01*
X98692914Y-181666666D02*
X98740533Y-181761904D01*
X76004819Y-168666666D02*
X76004819Y-169142856D01*
X76004819Y-169142856D02*
X75004819Y-169142856D01*
X75004819Y-168428570D02*
X75004819Y-167809523D01*
X75004819Y-167809523D02*
X75385771Y-168142856D01*
X75385771Y-168142856D02*
X75385771Y-167999999D01*
X75385771Y-167999999D02*
X75433390Y-167904761D01*
X75433390Y-167904761D02*
X75481009Y-167857142D01*
X75481009Y-167857142D02*
X75576247Y-167809523D01*
X75576247Y-167809523D02*
X75814342Y-167809523D01*
X75814342Y-167809523D02*
X75909580Y-167857142D01*
X75909580Y-167857142D02*
X75957200Y-167904761D01*
X75957200Y-167904761D02*
X76004819Y-167999999D01*
X76004819Y-167999999D02*
X76004819Y-168285713D01*
X76004819Y-168285713D02*
X75957200Y-168380951D01*
X75957200Y-168380951D02*
X75909580Y-168428570D01*
X41454819Y-183366666D02*
X40978628Y-183699999D01*
X41454819Y-183938094D02*
X40454819Y-183938094D01*
X40454819Y-183938094D02*
X40454819Y-183557142D01*
X40454819Y-183557142D02*
X40502438Y-183461904D01*
X40502438Y-183461904D02*
X40550057Y-183414285D01*
X40550057Y-183414285D02*
X40645295Y-183366666D01*
X40645295Y-183366666D02*
X40788152Y-183366666D01*
X40788152Y-183366666D02*
X40883390Y-183414285D01*
X40883390Y-183414285D02*
X40931009Y-183461904D01*
X40931009Y-183461904D02*
X40978628Y-183557142D01*
X40978628Y-183557142D02*
X40978628Y-183938094D01*
X41454819Y-182414285D02*
X41454819Y-182985713D01*
X41454819Y-182699999D02*
X40454819Y-182699999D01*
X40454819Y-182699999D02*
X40597676Y-182795237D01*
X40597676Y-182795237D02*
X40692914Y-182890475D01*
X40692914Y-182890475D02*
X40740533Y-182985713D01*
X82657142Y-169059580D02*
X82609523Y-169107200D01*
X82609523Y-169107200D02*
X82466666Y-169154819D01*
X82466666Y-169154819D02*
X82371428Y-169154819D01*
X82371428Y-169154819D02*
X82228571Y-169107200D01*
X82228571Y-169107200D02*
X82133333Y-169011961D01*
X82133333Y-169011961D02*
X82085714Y-168916723D01*
X82085714Y-168916723D02*
X82038095Y-168726247D01*
X82038095Y-168726247D02*
X82038095Y-168583390D01*
X82038095Y-168583390D02*
X82085714Y-168392914D01*
X82085714Y-168392914D02*
X82133333Y-168297676D01*
X82133333Y-168297676D02*
X82228571Y-168202438D01*
X82228571Y-168202438D02*
X82371428Y-168154819D01*
X82371428Y-168154819D02*
X82466666Y-168154819D01*
X82466666Y-168154819D02*
X82609523Y-168202438D01*
X82609523Y-168202438D02*
X82657142Y-168250057D01*
X83609523Y-169154819D02*
X83038095Y-169154819D01*
X83323809Y-169154819D02*
X83323809Y-168154819D01*
X83323809Y-168154819D02*
X83228571Y-168297676D01*
X83228571Y-168297676D02*
X83133333Y-168392914D01*
X83133333Y-168392914D02*
X83038095Y-168440533D01*
X84180952Y-168583390D02*
X84085714Y-168535771D01*
X84085714Y-168535771D02*
X84038095Y-168488152D01*
X84038095Y-168488152D02*
X83990476Y-168392914D01*
X83990476Y-168392914D02*
X83990476Y-168345295D01*
X83990476Y-168345295D02*
X84038095Y-168250057D01*
X84038095Y-168250057D02*
X84085714Y-168202438D01*
X84085714Y-168202438D02*
X84180952Y-168154819D01*
X84180952Y-168154819D02*
X84371428Y-168154819D01*
X84371428Y-168154819D02*
X84466666Y-168202438D01*
X84466666Y-168202438D02*
X84514285Y-168250057D01*
X84514285Y-168250057D02*
X84561904Y-168345295D01*
X84561904Y-168345295D02*
X84561904Y-168392914D01*
X84561904Y-168392914D02*
X84514285Y-168488152D01*
X84514285Y-168488152D02*
X84466666Y-168535771D01*
X84466666Y-168535771D02*
X84371428Y-168583390D01*
X84371428Y-168583390D02*
X84180952Y-168583390D01*
X84180952Y-168583390D02*
X84085714Y-168631009D01*
X84085714Y-168631009D02*
X84038095Y-168678628D01*
X84038095Y-168678628D02*
X83990476Y-168773866D01*
X83990476Y-168773866D02*
X83990476Y-168964342D01*
X83990476Y-168964342D02*
X84038095Y-169059580D01*
X84038095Y-169059580D02*
X84085714Y-169107200D01*
X84085714Y-169107200D02*
X84180952Y-169154819D01*
X84180952Y-169154819D02*
X84371428Y-169154819D01*
X84371428Y-169154819D02*
X84466666Y-169107200D01*
X84466666Y-169107200D02*
X84514285Y-169059580D01*
X84514285Y-169059580D02*
X84561904Y-168964342D01*
X84561904Y-168964342D02*
X84561904Y-168773866D01*
X84561904Y-168773866D02*
X84514285Y-168678628D01*
X84514285Y-168678628D02*
X84466666Y-168631009D01*
X84466666Y-168631009D02*
X84371428Y-168583390D01*
X74459580Y-174142857D02*
X74507200Y-174190476D01*
X74507200Y-174190476D02*
X74554819Y-174333333D01*
X74554819Y-174333333D02*
X74554819Y-174428571D01*
X74554819Y-174428571D02*
X74507200Y-174571428D01*
X74507200Y-174571428D02*
X74411961Y-174666666D01*
X74411961Y-174666666D02*
X74316723Y-174714285D01*
X74316723Y-174714285D02*
X74126247Y-174761904D01*
X74126247Y-174761904D02*
X73983390Y-174761904D01*
X73983390Y-174761904D02*
X73792914Y-174714285D01*
X73792914Y-174714285D02*
X73697676Y-174666666D01*
X73697676Y-174666666D02*
X73602438Y-174571428D01*
X73602438Y-174571428D02*
X73554819Y-174428571D01*
X73554819Y-174428571D02*
X73554819Y-174333333D01*
X73554819Y-174333333D02*
X73602438Y-174190476D01*
X73602438Y-174190476D02*
X73650057Y-174142857D01*
X74554819Y-173190476D02*
X74554819Y-173761904D01*
X74554819Y-173476190D02*
X73554819Y-173476190D01*
X73554819Y-173476190D02*
X73697676Y-173571428D01*
X73697676Y-173571428D02*
X73792914Y-173666666D01*
X73792914Y-173666666D02*
X73840533Y-173761904D01*
X73554819Y-172285714D02*
X73554819Y-172761904D01*
X73554819Y-172761904D02*
X74031009Y-172809523D01*
X74031009Y-172809523D02*
X73983390Y-172761904D01*
X73983390Y-172761904D02*
X73935771Y-172666666D01*
X73935771Y-172666666D02*
X73935771Y-172428571D01*
X73935771Y-172428571D02*
X73983390Y-172333333D01*
X73983390Y-172333333D02*
X74031009Y-172285714D01*
X74031009Y-172285714D02*
X74126247Y-172238095D01*
X74126247Y-172238095D02*
X74364342Y-172238095D01*
X74364342Y-172238095D02*
X74459580Y-172285714D01*
X74459580Y-172285714D02*
X74507200Y-172333333D01*
X74507200Y-172333333D02*
X74554819Y-172428571D01*
X74554819Y-172428571D02*
X74554819Y-172666666D01*
X74554819Y-172666666D02*
X74507200Y-172761904D01*
X74507200Y-172761904D02*
X74459580Y-172809523D01*
X78127142Y-181769580D02*
X78079523Y-181817200D01*
X78079523Y-181817200D02*
X77936666Y-181864819D01*
X77936666Y-181864819D02*
X77841428Y-181864819D01*
X77841428Y-181864819D02*
X77698571Y-181817200D01*
X77698571Y-181817200D02*
X77603333Y-181721961D01*
X77603333Y-181721961D02*
X77555714Y-181626723D01*
X77555714Y-181626723D02*
X77508095Y-181436247D01*
X77508095Y-181436247D02*
X77508095Y-181293390D01*
X77508095Y-181293390D02*
X77555714Y-181102914D01*
X77555714Y-181102914D02*
X77603333Y-181007676D01*
X77603333Y-181007676D02*
X77698571Y-180912438D01*
X77698571Y-180912438D02*
X77841428Y-180864819D01*
X77841428Y-180864819D02*
X77936666Y-180864819D01*
X77936666Y-180864819D02*
X78079523Y-180912438D01*
X78079523Y-180912438D02*
X78127142Y-180960057D01*
X78508095Y-180960057D02*
X78555714Y-180912438D01*
X78555714Y-180912438D02*
X78650952Y-180864819D01*
X78650952Y-180864819D02*
X78889047Y-180864819D01*
X78889047Y-180864819D02*
X78984285Y-180912438D01*
X78984285Y-180912438D02*
X79031904Y-180960057D01*
X79031904Y-180960057D02*
X79079523Y-181055295D01*
X79079523Y-181055295D02*
X79079523Y-181150533D01*
X79079523Y-181150533D02*
X79031904Y-181293390D01*
X79031904Y-181293390D02*
X78460476Y-181864819D01*
X78460476Y-181864819D02*
X79079523Y-181864819D01*
X79460476Y-180960057D02*
X79508095Y-180912438D01*
X79508095Y-180912438D02*
X79603333Y-180864819D01*
X79603333Y-180864819D02*
X79841428Y-180864819D01*
X79841428Y-180864819D02*
X79936666Y-180912438D01*
X79936666Y-180912438D02*
X79984285Y-180960057D01*
X79984285Y-180960057D02*
X80031904Y-181055295D01*
X80031904Y-181055295D02*
X80031904Y-181150533D01*
X80031904Y-181150533D02*
X79984285Y-181293390D01*
X79984285Y-181293390D02*
X79412857Y-181864819D01*
X79412857Y-181864819D02*
X80031904Y-181864819D01*
X73757142Y-171854819D02*
X73423809Y-171378628D01*
X73185714Y-171854819D02*
X73185714Y-170854819D01*
X73185714Y-170854819D02*
X73566666Y-170854819D01*
X73566666Y-170854819D02*
X73661904Y-170902438D01*
X73661904Y-170902438D02*
X73709523Y-170950057D01*
X73709523Y-170950057D02*
X73757142Y-171045295D01*
X73757142Y-171045295D02*
X73757142Y-171188152D01*
X73757142Y-171188152D02*
X73709523Y-171283390D01*
X73709523Y-171283390D02*
X73661904Y-171331009D01*
X73661904Y-171331009D02*
X73566666Y-171378628D01*
X73566666Y-171378628D02*
X73185714Y-171378628D01*
X74709523Y-171854819D02*
X74138095Y-171854819D01*
X74423809Y-171854819D02*
X74423809Y-170854819D01*
X74423809Y-170854819D02*
X74328571Y-170997676D01*
X74328571Y-170997676D02*
X74233333Y-171092914D01*
X74233333Y-171092914D02*
X74138095Y-171140533D01*
X75185714Y-171854819D02*
X75376190Y-171854819D01*
X75376190Y-171854819D02*
X75471428Y-171807200D01*
X75471428Y-171807200D02*
X75519047Y-171759580D01*
X75519047Y-171759580D02*
X75614285Y-171616723D01*
X75614285Y-171616723D02*
X75661904Y-171426247D01*
X75661904Y-171426247D02*
X75661904Y-171045295D01*
X75661904Y-171045295D02*
X75614285Y-170950057D01*
X75614285Y-170950057D02*
X75566666Y-170902438D01*
X75566666Y-170902438D02*
X75471428Y-170854819D01*
X75471428Y-170854819D02*
X75280952Y-170854819D01*
X75280952Y-170854819D02*
X75185714Y-170902438D01*
X75185714Y-170902438D02*
X75138095Y-170950057D01*
X75138095Y-170950057D02*
X75090476Y-171045295D01*
X75090476Y-171045295D02*
X75090476Y-171283390D01*
X75090476Y-171283390D02*
X75138095Y-171378628D01*
X75138095Y-171378628D02*
X75185714Y-171426247D01*
X75185714Y-171426247D02*
X75280952Y-171473866D01*
X75280952Y-171473866D02*
X75471428Y-171473866D01*
X75471428Y-171473866D02*
X75566666Y-171426247D01*
X75566666Y-171426247D02*
X75614285Y-171378628D01*
X75614285Y-171378628D02*
X75661904Y-171283390D01*
X65159580Y-169892857D02*
X65207200Y-169940476D01*
X65207200Y-169940476D02*
X65254819Y-170083333D01*
X65254819Y-170083333D02*
X65254819Y-170178571D01*
X65254819Y-170178571D02*
X65207200Y-170321428D01*
X65207200Y-170321428D02*
X65111961Y-170416666D01*
X65111961Y-170416666D02*
X65016723Y-170464285D01*
X65016723Y-170464285D02*
X64826247Y-170511904D01*
X64826247Y-170511904D02*
X64683390Y-170511904D01*
X64683390Y-170511904D02*
X64492914Y-170464285D01*
X64492914Y-170464285D02*
X64397676Y-170416666D01*
X64397676Y-170416666D02*
X64302438Y-170321428D01*
X64302438Y-170321428D02*
X64254819Y-170178571D01*
X64254819Y-170178571D02*
X64254819Y-170083333D01*
X64254819Y-170083333D02*
X64302438Y-169940476D01*
X64302438Y-169940476D02*
X64350057Y-169892857D01*
X65254819Y-168940476D02*
X65254819Y-169511904D01*
X65254819Y-169226190D02*
X64254819Y-169226190D01*
X64254819Y-169226190D02*
X64397676Y-169321428D01*
X64397676Y-169321428D02*
X64492914Y-169416666D01*
X64492914Y-169416666D02*
X64540533Y-169511904D01*
X64254819Y-168321428D02*
X64254819Y-168226190D01*
X64254819Y-168226190D02*
X64302438Y-168130952D01*
X64302438Y-168130952D02*
X64350057Y-168083333D01*
X64350057Y-168083333D02*
X64445295Y-168035714D01*
X64445295Y-168035714D02*
X64635771Y-167988095D01*
X64635771Y-167988095D02*
X64873866Y-167988095D01*
X64873866Y-167988095D02*
X65064342Y-168035714D01*
X65064342Y-168035714D02*
X65159580Y-168083333D01*
X65159580Y-168083333D02*
X65207200Y-168130952D01*
X65207200Y-168130952D02*
X65254819Y-168226190D01*
X65254819Y-168226190D02*
X65254819Y-168321428D01*
X65254819Y-168321428D02*
X65207200Y-168416666D01*
X65207200Y-168416666D02*
X65159580Y-168464285D01*
X65159580Y-168464285D02*
X65064342Y-168511904D01*
X65064342Y-168511904D02*
X64873866Y-168559523D01*
X64873866Y-168559523D02*
X64635771Y-168559523D01*
X64635771Y-168559523D02*
X64445295Y-168511904D01*
X64445295Y-168511904D02*
X64350057Y-168464285D01*
X64350057Y-168464285D02*
X64302438Y-168416666D01*
X64302438Y-168416666D02*
X64254819Y-168321428D01*
X56333333Y-183659580D02*
X56285714Y-183707200D01*
X56285714Y-183707200D02*
X56142857Y-183754819D01*
X56142857Y-183754819D02*
X56047619Y-183754819D01*
X56047619Y-183754819D02*
X55904762Y-183707200D01*
X55904762Y-183707200D02*
X55809524Y-183611961D01*
X55809524Y-183611961D02*
X55761905Y-183516723D01*
X55761905Y-183516723D02*
X55714286Y-183326247D01*
X55714286Y-183326247D02*
X55714286Y-183183390D01*
X55714286Y-183183390D02*
X55761905Y-182992914D01*
X55761905Y-182992914D02*
X55809524Y-182897676D01*
X55809524Y-182897676D02*
X55904762Y-182802438D01*
X55904762Y-182802438D02*
X56047619Y-182754819D01*
X56047619Y-182754819D02*
X56142857Y-182754819D01*
X56142857Y-182754819D02*
X56285714Y-182802438D01*
X56285714Y-182802438D02*
X56333333Y-182850057D01*
X57190476Y-183088152D02*
X57190476Y-183754819D01*
X56952381Y-182707200D02*
X56714286Y-183421485D01*
X56714286Y-183421485D02*
X57333333Y-183421485D01*
X41454819Y-181566666D02*
X40978628Y-181899999D01*
X41454819Y-182138094D02*
X40454819Y-182138094D01*
X40454819Y-182138094D02*
X40454819Y-181757142D01*
X40454819Y-181757142D02*
X40502438Y-181661904D01*
X40502438Y-181661904D02*
X40550057Y-181614285D01*
X40550057Y-181614285D02*
X40645295Y-181566666D01*
X40645295Y-181566666D02*
X40788152Y-181566666D01*
X40788152Y-181566666D02*
X40883390Y-181614285D01*
X40883390Y-181614285D02*
X40931009Y-181661904D01*
X40931009Y-181661904D02*
X40978628Y-181757142D01*
X40978628Y-181757142D02*
X40978628Y-182138094D01*
X40550057Y-181185713D02*
X40502438Y-181138094D01*
X40502438Y-181138094D02*
X40454819Y-181042856D01*
X40454819Y-181042856D02*
X40454819Y-180804761D01*
X40454819Y-180804761D02*
X40502438Y-180709523D01*
X40502438Y-180709523D02*
X40550057Y-180661904D01*
X40550057Y-180661904D02*
X40645295Y-180614285D01*
X40645295Y-180614285D02*
X40740533Y-180614285D01*
X40740533Y-180614285D02*
X40883390Y-180661904D01*
X40883390Y-180661904D02*
X41454819Y-181233332D01*
X41454819Y-181233332D02*
X41454819Y-180614285D01*
X71233333Y-176454819D02*
X70900000Y-175978628D01*
X70661905Y-176454819D02*
X70661905Y-175454819D01*
X70661905Y-175454819D02*
X71042857Y-175454819D01*
X71042857Y-175454819D02*
X71138095Y-175502438D01*
X71138095Y-175502438D02*
X71185714Y-175550057D01*
X71185714Y-175550057D02*
X71233333Y-175645295D01*
X71233333Y-175645295D02*
X71233333Y-175788152D01*
X71233333Y-175788152D02*
X71185714Y-175883390D01*
X71185714Y-175883390D02*
X71138095Y-175931009D01*
X71138095Y-175931009D02*
X71042857Y-175978628D01*
X71042857Y-175978628D02*
X70661905Y-175978628D01*
X72090476Y-175788152D02*
X72090476Y-176454819D01*
X71852381Y-175407200D02*
X71614286Y-176121485D01*
X71614286Y-176121485D02*
X72233333Y-176121485D01*
X87554819Y-184138094D02*
X86554819Y-184138094D01*
X86554819Y-184138094D02*
X86554819Y-183899999D01*
X86554819Y-183899999D02*
X86602438Y-183757142D01*
X86602438Y-183757142D02*
X86697676Y-183661904D01*
X86697676Y-183661904D02*
X86792914Y-183614285D01*
X86792914Y-183614285D02*
X86983390Y-183566666D01*
X86983390Y-183566666D02*
X87126247Y-183566666D01*
X87126247Y-183566666D02*
X87316723Y-183614285D01*
X87316723Y-183614285D02*
X87411961Y-183661904D01*
X87411961Y-183661904D02*
X87507200Y-183757142D01*
X87507200Y-183757142D02*
X87554819Y-183899999D01*
X87554819Y-183899999D02*
X87554819Y-184138094D01*
X86650057Y-183185713D02*
X86602438Y-183138094D01*
X86602438Y-183138094D02*
X86554819Y-183042856D01*
X86554819Y-183042856D02*
X86554819Y-182804761D01*
X86554819Y-182804761D02*
X86602438Y-182709523D01*
X86602438Y-182709523D02*
X86650057Y-182661904D01*
X86650057Y-182661904D02*
X86745295Y-182614285D01*
X86745295Y-182614285D02*
X86840533Y-182614285D01*
X86840533Y-182614285D02*
X86983390Y-182661904D01*
X86983390Y-182661904D02*
X87554819Y-183233332D01*
X87554819Y-183233332D02*
X87554819Y-182614285D01*
X77657142Y-160054819D02*
X77323809Y-159578628D01*
X77085714Y-160054819D02*
X77085714Y-159054819D01*
X77085714Y-159054819D02*
X77466666Y-159054819D01*
X77466666Y-159054819D02*
X77561904Y-159102438D01*
X77561904Y-159102438D02*
X77609523Y-159150057D01*
X77609523Y-159150057D02*
X77657142Y-159245295D01*
X77657142Y-159245295D02*
X77657142Y-159388152D01*
X77657142Y-159388152D02*
X77609523Y-159483390D01*
X77609523Y-159483390D02*
X77561904Y-159531009D01*
X77561904Y-159531009D02*
X77466666Y-159578628D01*
X77466666Y-159578628D02*
X77085714Y-159578628D01*
X78609523Y-160054819D02*
X78038095Y-160054819D01*
X78323809Y-160054819D02*
X78323809Y-159054819D01*
X78323809Y-159054819D02*
X78228571Y-159197676D01*
X78228571Y-159197676D02*
X78133333Y-159292914D01*
X78133333Y-159292914D02*
X78038095Y-159340533D01*
X78942857Y-159054819D02*
X79561904Y-159054819D01*
X79561904Y-159054819D02*
X79228571Y-159435771D01*
X79228571Y-159435771D02*
X79371428Y-159435771D01*
X79371428Y-159435771D02*
X79466666Y-159483390D01*
X79466666Y-159483390D02*
X79514285Y-159531009D01*
X79514285Y-159531009D02*
X79561904Y-159626247D01*
X79561904Y-159626247D02*
X79561904Y-159864342D01*
X79561904Y-159864342D02*
X79514285Y-159959580D01*
X79514285Y-159959580D02*
X79466666Y-160007200D01*
X79466666Y-160007200D02*
X79371428Y-160054819D01*
X79371428Y-160054819D02*
X79085714Y-160054819D01*
X79085714Y-160054819D02*
X78990476Y-160007200D01*
X78990476Y-160007200D02*
X78942857Y-159959580D01*
X90457142Y-174154819D02*
X90123809Y-173678628D01*
X89885714Y-174154819D02*
X89885714Y-173154819D01*
X89885714Y-173154819D02*
X90266666Y-173154819D01*
X90266666Y-173154819D02*
X90361904Y-173202438D01*
X90361904Y-173202438D02*
X90409523Y-173250057D01*
X90409523Y-173250057D02*
X90457142Y-173345295D01*
X90457142Y-173345295D02*
X90457142Y-173488152D01*
X90457142Y-173488152D02*
X90409523Y-173583390D01*
X90409523Y-173583390D02*
X90361904Y-173631009D01*
X90361904Y-173631009D02*
X90266666Y-173678628D01*
X90266666Y-173678628D02*
X89885714Y-173678628D01*
X91409523Y-174154819D02*
X90838095Y-174154819D01*
X91123809Y-174154819D02*
X91123809Y-173154819D01*
X91123809Y-173154819D02*
X91028571Y-173297676D01*
X91028571Y-173297676D02*
X90933333Y-173392914D01*
X90933333Y-173392914D02*
X90838095Y-173440533D01*
X91980952Y-173583390D02*
X91885714Y-173535771D01*
X91885714Y-173535771D02*
X91838095Y-173488152D01*
X91838095Y-173488152D02*
X91790476Y-173392914D01*
X91790476Y-173392914D02*
X91790476Y-173345295D01*
X91790476Y-173345295D02*
X91838095Y-173250057D01*
X91838095Y-173250057D02*
X91885714Y-173202438D01*
X91885714Y-173202438D02*
X91980952Y-173154819D01*
X91980952Y-173154819D02*
X92171428Y-173154819D01*
X92171428Y-173154819D02*
X92266666Y-173202438D01*
X92266666Y-173202438D02*
X92314285Y-173250057D01*
X92314285Y-173250057D02*
X92361904Y-173345295D01*
X92361904Y-173345295D02*
X92361904Y-173392914D01*
X92361904Y-173392914D02*
X92314285Y-173488152D01*
X92314285Y-173488152D02*
X92266666Y-173535771D01*
X92266666Y-173535771D02*
X92171428Y-173583390D01*
X92171428Y-173583390D02*
X91980952Y-173583390D01*
X91980952Y-173583390D02*
X91885714Y-173631009D01*
X91885714Y-173631009D02*
X91838095Y-173678628D01*
X91838095Y-173678628D02*
X91790476Y-173773866D01*
X91790476Y-173773866D02*
X91790476Y-173964342D01*
X91790476Y-173964342D02*
X91838095Y-174059580D01*
X91838095Y-174059580D02*
X91885714Y-174107200D01*
X91885714Y-174107200D02*
X91980952Y-174154819D01*
X91980952Y-174154819D02*
X92171428Y-174154819D01*
X92171428Y-174154819D02*
X92266666Y-174107200D01*
X92266666Y-174107200D02*
X92314285Y-174059580D01*
X92314285Y-174059580D02*
X92361904Y-173964342D01*
X92361904Y-173964342D02*
X92361904Y-173773866D01*
X92361904Y-173773866D02*
X92314285Y-173678628D01*
X92314285Y-173678628D02*
X92266666Y-173631009D01*
X92266666Y-173631009D02*
X92171428Y-173583390D01*
X98874819Y-163205357D02*
X98398628Y-163538690D01*
X98874819Y-163776785D02*
X97874819Y-163776785D01*
X97874819Y-163776785D02*
X97874819Y-163395833D01*
X97874819Y-163395833D02*
X97922438Y-163300595D01*
X97922438Y-163300595D02*
X97970057Y-163252976D01*
X97970057Y-163252976D02*
X98065295Y-163205357D01*
X98065295Y-163205357D02*
X98208152Y-163205357D01*
X98208152Y-163205357D02*
X98303390Y-163252976D01*
X98303390Y-163252976D02*
X98351009Y-163300595D01*
X98351009Y-163300595D02*
X98398628Y-163395833D01*
X98398628Y-163395833D02*
X98398628Y-163776785D01*
X97970057Y-162824404D02*
X97922438Y-162776785D01*
X97922438Y-162776785D02*
X97874819Y-162681547D01*
X97874819Y-162681547D02*
X97874819Y-162443452D01*
X97874819Y-162443452D02*
X97922438Y-162348214D01*
X97922438Y-162348214D02*
X97970057Y-162300595D01*
X97970057Y-162300595D02*
X98065295Y-162252976D01*
X98065295Y-162252976D02*
X98160533Y-162252976D01*
X98160533Y-162252976D02*
X98303390Y-162300595D01*
X98303390Y-162300595D02*
X98874819Y-162872023D01*
X98874819Y-162872023D02*
X98874819Y-162252976D01*
X97874819Y-161348214D02*
X97874819Y-161824404D01*
X97874819Y-161824404D02*
X98351009Y-161872023D01*
X98351009Y-161872023D02*
X98303390Y-161824404D01*
X98303390Y-161824404D02*
X98255771Y-161729166D01*
X98255771Y-161729166D02*
X98255771Y-161491071D01*
X98255771Y-161491071D02*
X98303390Y-161395833D01*
X98303390Y-161395833D02*
X98351009Y-161348214D01*
X98351009Y-161348214D02*
X98446247Y-161300595D01*
X98446247Y-161300595D02*
X98684342Y-161300595D01*
X98684342Y-161300595D02*
X98779580Y-161348214D01*
X98779580Y-161348214D02*
X98827200Y-161395833D01*
X98827200Y-161395833D02*
X98874819Y-161491071D01*
X98874819Y-161491071D02*
X98874819Y-161729166D01*
X98874819Y-161729166D02*
X98827200Y-161824404D01*
X98827200Y-161824404D02*
X98779580Y-161872023D01*
X61433333Y-152154819D02*
X60957143Y-152154819D01*
X60957143Y-152154819D02*
X60957143Y-151154819D01*
X61719048Y-151250057D02*
X61766667Y-151202438D01*
X61766667Y-151202438D02*
X61861905Y-151154819D01*
X61861905Y-151154819D02*
X62100000Y-151154819D01*
X62100000Y-151154819D02*
X62195238Y-151202438D01*
X62195238Y-151202438D02*
X62242857Y-151250057D01*
X62242857Y-151250057D02*
X62290476Y-151345295D01*
X62290476Y-151345295D02*
X62290476Y-151440533D01*
X62290476Y-151440533D02*
X62242857Y-151583390D01*
X62242857Y-151583390D02*
X61671429Y-152154819D01*
X61671429Y-152154819D02*
X62290476Y-152154819D01*
X95790476Y-170404819D02*
X96457142Y-171404819D01*
X96457142Y-170404819D02*
X95790476Y-171404819D01*
X97361904Y-171404819D02*
X96790476Y-171404819D01*
X97076190Y-171404819D02*
X97076190Y-170404819D01*
X97076190Y-170404819D02*
X96980952Y-170547676D01*
X96980952Y-170547676D02*
X96885714Y-170642914D01*
X96885714Y-170642914D02*
X96790476Y-170690533D01*
X79199580Y-163142857D02*
X79247200Y-163190476D01*
X79247200Y-163190476D02*
X79294819Y-163333333D01*
X79294819Y-163333333D02*
X79294819Y-163428571D01*
X79294819Y-163428571D02*
X79247200Y-163571428D01*
X79247200Y-163571428D02*
X79151961Y-163666666D01*
X79151961Y-163666666D02*
X79056723Y-163714285D01*
X79056723Y-163714285D02*
X78866247Y-163761904D01*
X78866247Y-163761904D02*
X78723390Y-163761904D01*
X78723390Y-163761904D02*
X78532914Y-163714285D01*
X78532914Y-163714285D02*
X78437676Y-163666666D01*
X78437676Y-163666666D02*
X78342438Y-163571428D01*
X78342438Y-163571428D02*
X78294819Y-163428571D01*
X78294819Y-163428571D02*
X78294819Y-163333333D01*
X78294819Y-163333333D02*
X78342438Y-163190476D01*
X78342438Y-163190476D02*
X78390057Y-163142857D01*
X78390057Y-162761904D02*
X78342438Y-162714285D01*
X78342438Y-162714285D02*
X78294819Y-162619047D01*
X78294819Y-162619047D02*
X78294819Y-162380952D01*
X78294819Y-162380952D02*
X78342438Y-162285714D01*
X78342438Y-162285714D02*
X78390057Y-162238095D01*
X78390057Y-162238095D02*
X78485295Y-162190476D01*
X78485295Y-162190476D02*
X78580533Y-162190476D01*
X78580533Y-162190476D02*
X78723390Y-162238095D01*
X78723390Y-162238095D02*
X79294819Y-162809523D01*
X79294819Y-162809523D02*
X79294819Y-162190476D01*
X78723390Y-161619047D02*
X78675771Y-161714285D01*
X78675771Y-161714285D02*
X78628152Y-161761904D01*
X78628152Y-161761904D02*
X78532914Y-161809523D01*
X78532914Y-161809523D02*
X78485295Y-161809523D01*
X78485295Y-161809523D02*
X78390057Y-161761904D01*
X78390057Y-161761904D02*
X78342438Y-161714285D01*
X78342438Y-161714285D02*
X78294819Y-161619047D01*
X78294819Y-161619047D02*
X78294819Y-161428571D01*
X78294819Y-161428571D02*
X78342438Y-161333333D01*
X78342438Y-161333333D02*
X78390057Y-161285714D01*
X78390057Y-161285714D02*
X78485295Y-161238095D01*
X78485295Y-161238095D02*
X78532914Y-161238095D01*
X78532914Y-161238095D02*
X78628152Y-161285714D01*
X78628152Y-161285714D02*
X78675771Y-161333333D01*
X78675771Y-161333333D02*
X78723390Y-161428571D01*
X78723390Y-161428571D02*
X78723390Y-161619047D01*
X78723390Y-161619047D02*
X78771009Y-161714285D01*
X78771009Y-161714285D02*
X78818628Y-161761904D01*
X78818628Y-161761904D02*
X78913866Y-161809523D01*
X78913866Y-161809523D02*
X79104342Y-161809523D01*
X79104342Y-161809523D02*
X79199580Y-161761904D01*
X79199580Y-161761904D02*
X79247200Y-161714285D01*
X79247200Y-161714285D02*
X79294819Y-161619047D01*
X79294819Y-161619047D02*
X79294819Y-161428571D01*
X79294819Y-161428571D02*
X79247200Y-161333333D01*
X79247200Y-161333333D02*
X79199580Y-161285714D01*
X79199580Y-161285714D02*
X79104342Y-161238095D01*
X79104342Y-161238095D02*
X78913866Y-161238095D01*
X78913866Y-161238095D02*
X78818628Y-161285714D01*
X78818628Y-161285714D02*
X78771009Y-161333333D01*
X78771009Y-161333333D02*
X78723390Y-161428571D01*
X71608333Y-162439580D02*
X71560714Y-162487200D01*
X71560714Y-162487200D02*
X71417857Y-162534819D01*
X71417857Y-162534819D02*
X71322619Y-162534819D01*
X71322619Y-162534819D02*
X71179762Y-162487200D01*
X71179762Y-162487200D02*
X71084524Y-162391961D01*
X71084524Y-162391961D02*
X71036905Y-162296723D01*
X71036905Y-162296723D02*
X70989286Y-162106247D01*
X70989286Y-162106247D02*
X70989286Y-161963390D01*
X70989286Y-161963390D02*
X71036905Y-161772914D01*
X71036905Y-161772914D02*
X71084524Y-161677676D01*
X71084524Y-161677676D02*
X71179762Y-161582438D01*
X71179762Y-161582438D02*
X71322619Y-161534819D01*
X71322619Y-161534819D02*
X71417857Y-161534819D01*
X71417857Y-161534819D02*
X71560714Y-161582438D01*
X71560714Y-161582438D02*
X71608333Y-161630057D01*
X71941667Y-161534819D02*
X72608333Y-161534819D01*
X72608333Y-161534819D02*
X72179762Y-162534819D01*
X89957142Y-180184819D02*
X89623809Y-179708628D01*
X89385714Y-180184819D02*
X89385714Y-179184819D01*
X89385714Y-179184819D02*
X89766666Y-179184819D01*
X89766666Y-179184819D02*
X89861904Y-179232438D01*
X89861904Y-179232438D02*
X89909523Y-179280057D01*
X89909523Y-179280057D02*
X89957142Y-179375295D01*
X89957142Y-179375295D02*
X89957142Y-179518152D01*
X89957142Y-179518152D02*
X89909523Y-179613390D01*
X89909523Y-179613390D02*
X89861904Y-179661009D01*
X89861904Y-179661009D02*
X89766666Y-179708628D01*
X89766666Y-179708628D02*
X89385714Y-179708628D01*
X90338095Y-179280057D02*
X90385714Y-179232438D01*
X90385714Y-179232438D02*
X90480952Y-179184819D01*
X90480952Y-179184819D02*
X90719047Y-179184819D01*
X90719047Y-179184819D02*
X90814285Y-179232438D01*
X90814285Y-179232438D02*
X90861904Y-179280057D01*
X90861904Y-179280057D02*
X90909523Y-179375295D01*
X90909523Y-179375295D02*
X90909523Y-179470533D01*
X90909523Y-179470533D02*
X90861904Y-179613390D01*
X90861904Y-179613390D02*
X90290476Y-180184819D01*
X90290476Y-180184819D02*
X90909523Y-180184819D01*
X91290476Y-179280057D02*
X91338095Y-179232438D01*
X91338095Y-179232438D02*
X91433333Y-179184819D01*
X91433333Y-179184819D02*
X91671428Y-179184819D01*
X91671428Y-179184819D02*
X91766666Y-179232438D01*
X91766666Y-179232438D02*
X91814285Y-179280057D01*
X91814285Y-179280057D02*
X91861904Y-179375295D01*
X91861904Y-179375295D02*
X91861904Y-179470533D01*
X91861904Y-179470533D02*
X91814285Y-179613390D01*
X91814285Y-179613390D02*
X91242857Y-180184819D01*
X91242857Y-180184819D02*
X91861904Y-180184819D01*
X79657142Y-168859580D02*
X79609523Y-168907200D01*
X79609523Y-168907200D02*
X79466666Y-168954819D01*
X79466666Y-168954819D02*
X79371428Y-168954819D01*
X79371428Y-168954819D02*
X79228571Y-168907200D01*
X79228571Y-168907200D02*
X79133333Y-168811961D01*
X79133333Y-168811961D02*
X79085714Y-168716723D01*
X79085714Y-168716723D02*
X79038095Y-168526247D01*
X79038095Y-168526247D02*
X79038095Y-168383390D01*
X79038095Y-168383390D02*
X79085714Y-168192914D01*
X79085714Y-168192914D02*
X79133333Y-168097676D01*
X79133333Y-168097676D02*
X79228571Y-168002438D01*
X79228571Y-168002438D02*
X79371428Y-167954819D01*
X79371428Y-167954819D02*
X79466666Y-167954819D01*
X79466666Y-167954819D02*
X79609523Y-168002438D01*
X79609523Y-168002438D02*
X79657142Y-168050057D01*
X80038095Y-168050057D02*
X80085714Y-168002438D01*
X80085714Y-168002438D02*
X80180952Y-167954819D01*
X80180952Y-167954819D02*
X80419047Y-167954819D01*
X80419047Y-167954819D02*
X80514285Y-168002438D01*
X80514285Y-168002438D02*
X80561904Y-168050057D01*
X80561904Y-168050057D02*
X80609523Y-168145295D01*
X80609523Y-168145295D02*
X80609523Y-168240533D01*
X80609523Y-168240533D02*
X80561904Y-168383390D01*
X80561904Y-168383390D02*
X79990476Y-168954819D01*
X79990476Y-168954819D02*
X80609523Y-168954819D01*
X80942857Y-167954819D02*
X81609523Y-167954819D01*
X81609523Y-167954819D02*
X81180952Y-168954819D01*
X68459580Y-153166666D02*
X68507200Y-153214285D01*
X68507200Y-153214285D02*
X68554819Y-153357142D01*
X68554819Y-153357142D02*
X68554819Y-153452380D01*
X68554819Y-153452380D02*
X68507200Y-153595237D01*
X68507200Y-153595237D02*
X68411961Y-153690475D01*
X68411961Y-153690475D02*
X68316723Y-153738094D01*
X68316723Y-153738094D02*
X68126247Y-153785713D01*
X68126247Y-153785713D02*
X67983390Y-153785713D01*
X67983390Y-153785713D02*
X67792914Y-153738094D01*
X67792914Y-153738094D02*
X67697676Y-153690475D01*
X67697676Y-153690475D02*
X67602438Y-153595237D01*
X67602438Y-153595237D02*
X67554819Y-153452380D01*
X67554819Y-153452380D02*
X67554819Y-153357142D01*
X67554819Y-153357142D02*
X67602438Y-153214285D01*
X67602438Y-153214285D02*
X67650057Y-153166666D01*
X67983390Y-152595237D02*
X67935771Y-152690475D01*
X67935771Y-152690475D02*
X67888152Y-152738094D01*
X67888152Y-152738094D02*
X67792914Y-152785713D01*
X67792914Y-152785713D02*
X67745295Y-152785713D01*
X67745295Y-152785713D02*
X67650057Y-152738094D01*
X67650057Y-152738094D02*
X67602438Y-152690475D01*
X67602438Y-152690475D02*
X67554819Y-152595237D01*
X67554819Y-152595237D02*
X67554819Y-152404761D01*
X67554819Y-152404761D02*
X67602438Y-152309523D01*
X67602438Y-152309523D02*
X67650057Y-152261904D01*
X67650057Y-152261904D02*
X67745295Y-152214285D01*
X67745295Y-152214285D02*
X67792914Y-152214285D01*
X67792914Y-152214285D02*
X67888152Y-152261904D01*
X67888152Y-152261904D02*
X67935771Y-152309523D01*
X67935771Y-152309523D02*
X67983390Y-152404761D01*
X67983390Y-152404761D02*
X67983390Y-152595237D01*
X67983390Y-152595237D02*
X68031009Y-152690475D01*
X68031009Y-152690475D02*
X68078628Y-152738094D01*
X68078628Y-152738094D02*
X68173866Y-152785713D01*
X68173866Y-152785713D02*
X68364342Y-152785713D01*
X68364342Y-152785713D02*
X68459580Y-152738094D01*
X68459580Y-152738094D02*
X68507200Y-152690475D01*
X68507200Y-152690475D02*
X68554819Y-152595237D01*
X68554819Y-152595237D02*
X68554819Y-152404761D01*
X68554819Y-152404761D02*
X68507200Y-152309523D01*
X68507200Y-152309523D02*
X68459580Y-152261904D01*
X68459580Y-152261904D02*
X68364342Y-152214285D01*
X68364342Y-152214285D02*
X68173866Y-152214285D01*
X68173866Y-152214285D02*
X68078628Y-152261904D01*
X68078628Y-152261904D02*
X68031009Y-152309523D01*
X68031009Y-152309523D02*
X67983390Y-152404761D01*
X64757142Y-184654819D02*
X64423809Y-184178628D01*
X64185714Y-184654819D02*
X64185714Y-183654819D01*
X64185714Y-183654819D02*
X64566666Y-183654819D01*
X64566666Y-183654819D02*
X64661904Y-183702438D01*
X64661904Y-183702438D02*
X64709523Y-183750057D01*
X64709523Y-183750057D02*
X64757142Y-183845295D01*
X64757142Y-183845295D02*
X64757142Y-183988152D01*
X64757142Y-183988152D02*
X64709523Y-184083390D01*
X64709523Y-184083390D02*
X64661904Y-184131009D01*
X64661904Y-184131009D02*
X64566666Y-184178628D01*
X64566666Y-184178628D02*
X64185714Y-184178628D01*
X65709523Y-184654819D02*
X65138095Y-184654819D01*
X65423809Y-184654819D02*
X65423809Y-183654819D01*
X65423809Y-183654819D02*
X65328571Y-183797676D01*
X65328571Y-183797676D02*
X65233333Y-183892914D01*
X65233333Y-183892914D02*
X65138095Y-183940533D01*
X66614285Y-183654819D02*
X66138095Y-183654819D01*
X66138095Y-183654819D02*
X66090476Y-184131009D01*
X66090476Y-184131009D02*
X66138095Y-184083390D01*
X66138095Y-184083390D02*
X66233333Y-184035771D01*
X66233333Y-184035771D02*
X66471428Y-184035771D01*
X66471428Y-184035771D02*
X66566666Y-184083390D01*
X66566666Y-184083390D02*
X66614285Y-184131009D01*
X66614285Y-184131009D02*
X66661904Y-184226247D01*
X66661904Y-184226247D02*
X66661904Y-184464342D01*
X66661904Y-184464342D02*
X66614285Y-184559580D01*
X66614285Y-184559580D02*
X66566666Y-184607200D01*
X66566666Y-184607200D02*
X66471428Y-184654819D01*
X66471428Y-184654819D02*
X66233333Y-184654819D01*
X66233333Y-184654819D02*
X66138095Y-184607200D01*
X66138095Y-184607200D02*
X66090476Y-184559580D01*
X80654819Y-157142857D02*
X80178628Y-157476190D01*
X80654819Y-157714285D02*
X79654819Y-157714285D01*
X79654819Y-157714285D02*
X79654819Y-157333333D01*
X79654819Y-157333333D02*
X79702438Y-157238095D01*
X79702438Y-157238095D02*
X79750057Y-157190476D01*
X79750057Y-157190476D02*
X79845295Y-157142857D01*
X79845295Y-157142857D02*
X79988152Y-157142857D01*
X79988152Y-157142857D02*
X80083390Y-157190476D01*
X80083390Y-157190476D02*
X80131009Y-157238095D01*
X80131009Y-157238095D02*
X80178628Y-157333333D01*
X80178628Y-157333333D02*
X80178628Y-157714285D01*
X80654819Y-156190476D02*
X80654819Y-156761904D01*
X80654819Y-156476190D02*
X79654819Y-156476190D01*
X79654819Y-156476190D02*
X79797676Y-156571428D01*
X79797676Y-156571428D02*
X79892914Y-156666666D01*
X79892914Y-156666666D02*
X79940533Y-156761904D01*
X79654819Y-155571428D02*
X79654819Y-155476190D01*
X79654819Y-155476190D02*
X79702438Y-155380952D01*
X79702438Y-155380952D02*
X79750057Y-155333333D01*
X79750057Y-155333333D02*
X79845295Y-155285714D01*
X79845295Y-155285714D02*
X80035771Y-155238095D01*
X80035771Y-155238095D02*
X80273866Y-155238095D01*
X80273866Y-155238095D02*
X80464342Y-155285714D01*
X80464342Y-155285714D02*
X80559580Y-155333333D01*
X80559580Y-155333333D02*
X80607200Y-155380952D01*
X80607200Y-155380952D02*
X80654819Y-155476190D01*
X80654819Y-155476190D02*
X80654819Y-155571428D01*
X80654819Y-155571428D02*
X80607200Y-155666666D01*
X80607200Y-155666666D02*
X80559580Y-155714285D01*
X80559580Y-155714285D02*
X80464342Y-155761904D01*
X80464342Y-155761904D02*
X80273866Y-155809523D01*
X80273866Y-155809523D02*
X80035771Y-155809523D01*
X80035771Y-155809523D02*
X79845295Y-155761904D01*
X79845295Y-155761904D02*
X79750057Y-155714285D01*
X79750057Y-155714285D02*
X79702438Y-155666666D01*
X79702438Y-155666666D02*
X79654819Y-155571428D01*
X64757142Y-185759580D02*
X64709523Y-185807200D01*
X64709523Y-185807200D02*
X64566666Y-185854819D01*
X64566666Y-185854819D02*
X64471428Y-185854819D01*
X64471428Y-185854819D02*
X64328571Y-185807200D01*
X64328571Y-185807200D02*
X64233333Y-185711961D01*
X64233333Y-185711961D02*
X64185714Y-185616723D01*
X64185714Y-185616723D02*
X64138095Y-185426247D01*
X64138095Y-185426247D02*
X64138095Y-185283390D01*
X64138095Y-185283390D02*
X64185714Y-185092914D01*
X64185714Y-185092914D02*
X64233333Y-184997676D01*
X64233333Y-184997676D02*
X64328571Y-184902438D01*
X64328571Y-184902438D02*
X64471428Y-184854819D01*
X64471428Y-184854819D02*
X64566666Y-184854819D01*
X64566666Y-184854819D02*
X64709523Y-184902438D01*
X64709523Y-184902438D02*
X64757142Y-184950057D01*
X65090476Y-184854819D02*
X65709523Y-184854819D01*
X65709523Y-184854819D02*
X65376190Y-185235771D01*
X65376190Y-185235771D02*
X65519047Y-185235771D01*
X65519047Y-185235771D02*
X65614285Y-185283390D01*
X65614285Y-185283390D02*
X65661904Y-185331009D01*
X65661904Y-185331009D02*
X65709523Y-185426247D01*
X65709523Y-185426247D02*
X65709523Y-185664342D01*
X65709523Y-185664342D02*
X65661904Y-185759580D01*
X65661904Y-185759580D02*
X65614285Y-185807200D01*
X65614285Y-185807200D02*
X65519047Y-185854819D01*
X65519047Y-185854819D02*
X65233333Y-185854819D01*
X65233333Y-185854819D02*
X65138095Y-185807200D01*
X65138095Y-185807200D02*
X65090476Y-185759580D01*
X66661904Y-185854819D02*
X66090476Y-185854819D01*
X66376190Y-185854819D02*
X66376190Y-184854819D01*
X66376190Y-184854819D02*
X66280952Y-184997676D01*
X66280952Y-184997676D02*
X66185714Y-185092914D01*
X66185714Y-185092914D02*
X66090476Y-185140533D01*
X72358333Y-151679580D02*
X72310714Y-151727200D01*
X72310714Y-151727200D02*
X72167857Y-151774819D01*
X72167857Y-151774819D02*
X72072619Y-151774819D01*
X72072619Y-151774819D02*
X71929762Y-151727200D01*
X71929762Y-151727200D02*
X71834524Y-151631961D01*
X71834524Y-151631961D02*
X71786905Y-151536723D01*
X71786905Y-151536723D02*
X71739286Y-151346247D01*
X71739286Y-151346247D02*
X71739286Y-151203390D01*
X71739286Y-151203390D02*
X71786905Y-151012914D01*
X71786905Y-151012914D02*
X71834524Y-150917676D01*
X71834524Y-150917676D02*
X71929762Y-150822438D01*
X71929762Y-150822438D02*
X72072619Y-150774819D01*
X72072619Y-150774819D02*
X72167857Y-150774819D01*
X72167857Y-150774819D02*
X72310714Y-150822438D01*
X72310714Y-150822438D02*
X72358333Y-150870057D01*
X72834524Y-151774819D02*
X73025000Y-151774819D01*
X73025000Y-151774819D02*
X73120238Y-151727200D01*
X73120238Y-151727200D02*
X73167857Y-151679580D01*
X73167857Y-151679580D02*
X73263095Y-151536723D01*
X73263095Y-151536723D02*
X73310714Y-151346247D01*
X73310714Y-151346247D02*
X73310714Y-150965295D01*
X73310714Y-150965295D02*
X73263095Y-150870057D01*
X73263095Y-150870057D02*
X73215476Y-150822438D01*
X73215476Y-150822438D02*
X73120238Y-150774819D01*
X73120238Y-150774819D02*
X72929762Y-150774819D01*
X72929762Y-150774819D02*
X72834524Y-150822438D01*
X72834524Y-150822438D02*
X72786905Y-150870057D01*
X72786905Y-150870057D02*
X72739286Y-150965295D01*
X72739286Y-150965295D02*
X72739286Y-151203390D01*
X72739286Y-151203390D02*
X72786905Y-151298628D01*
X72786905Y-151298628D02*
X72834524Y-151346247D01*
X72834524Y-151346247D02*
X72929762Y-151393866D01*
X72929762Y-151393866D02*
X73120238Y-151393866D01*
X73120238Y-151393866D02*
X73215476Y-151346247D01*
X73215476Y-151346247D02*
X73263095Y-151298628D01*
X73263095Y-151298628D02*
X73310714Y-151203390D01*
X68657142Y-165554819D02*
X68323809Y-165078628D01*
X68085714Y-165554819D02*
X68085714Y-164554819D01*
X68085714Y-164554819D02*
X68466666Y-164554819D01*
X68466666Y-164554819D02*
X68561904Y-164602438D01*
X68561904Y-164602438D02*
X68609523Y-164650057D01*
X68609523Y-164650057D02*
X68657142Y-164745295D01*
X68657142Y-164745295D02*
X68657142Y-164888152D01*
X68657142Y-164888152D02*
X68609523Y-164983390D01*
X68609523Y-164983390D02*
X68561904Y-165031009D01*
X68561904Y-165031009D02*
X68466666Y-165078628D01*
X68466666Y-165078628D02*
X68085714Y-165078628D01*
X69609523Y-165554819D02*
X69038095Y-165554819D01*
X69323809Y-165554819D02*
X69323809Y-164554819D01*
X69323809Y-164554819D02*
X69228571Y-164697676D01*
X69228571Y-164697676D02*
X69133333Y-164792914D01*
X69133333Y-164792914D02*
X69038095Y-164840533D01*
X70466666Y-164888152D02*
X70466666Y-165554819D01*
X70228571Y-164507200D02*
X69990476Y-165221485D01*
X69990476Y-165221485D02*
X70609523Y-165221485D01*
X56333333Y-185159580D02*
X56285714Y-185207200D01*
X56285714Y-185207200D02*
X56142857Y-185254819D01*
X56142857Y-185254819D02*
X56047619Y-185254819D01*
X56047619Y-185254819D02*
X55904762Y-185207200D01*
X55904762Y-185207200D02*
X55809524Y-185111961D01*
X55809524Y-185111961D02*
X55761905Y-185016723D01*
X55761905Y-185016723D02*
X55714286Y-184826247D01*
X55714286Y-184826247D02*
X55714286Y-184683390D01*
X55714286Y-184683390D02*
X55761905Y-184492914D01*
X55761905Y-184492914D02*
X55809524Y-184397676D01*
X55809524Y-184397676D02*
X55904762Y-184302438D01*
X55904762Y-184302438D02*
X56047619Y-184254819D01*
X56047619Y-184254819D02*
X56142857Y-184254819D01*
X56142857Y-184254819D02*
X56285714Y-184302438D01*
X56285714Y-184302438D02*
X56333333Y-184350057D01*
X57285714Y-185254819D02*
X56714286Y-185254819D01*
X57000000Y-185254819D02*
X57000000Y-184254819D01*
X57000000Y-184254819D02*
X56904762Y-184397676D01*
X56904762Y-184397676D02*
X56809524Y-184492914D01*
X56809524Y-184492914D02*
X56714286Y-184540533D01*
X44957142Y-168554819D02*
X44623809Y-168078628D01*
X44385714Y-168554819D02*
X44385714Y-167554819D01*
X44385714Y-167554819D02*
X44766666Y-167554819D01*
X44766666Y-167554819D02*
X44861904Y-167602438D01*
X44861904Y-167602438D02*
X44909523Y-167650057D01*
X44909523Y-167650057D02*
X44957142Y-167745295D01*
X44957142Y-167745295D02*
X44957142Y-167888152D01*
X44957142Y-167888152D02*
X44909523Y-167983390D01*
X44909523Y-167983390D02*
X44861904Y-168031009D01*
X44861904Y-168031009D02*
X44766666Y-168078628D01*
X44766666Y-168078628D02*
X44385714Y-168078628D01*
X45338095Y-167650057D02*
X45385714Y-167602438D01*
X45385714Y-167602438D02*
X45480952Y-167554819D01*
X45480952Y-167554819D02*
X45719047Y-167554819D01*
X45719047Y-167554819D02*
X45814285Y-167602438D01*
X45814285Y-167602438D02*
X45861904Y-167650057D01*
X45861904Y-167650057D02*
X45909523Y-167745295D01*
X45909523Y-167745295D02*
X45909523Y-167840533D01*
X45909523Y-167840533D02*
X45861904Y-167983390D01*
X45861904Y-167983390D02*
X45290476Y-168554819D01*
X45290476Y-168554819D02*
X45909523Y-168554819D01*
X46766666Y-167888152D02*
X46766666Y-168554819D01*
X46528571Y-167507200D02*
X46290476Y-168221485D01*
X46290476Y-168221485D02*
X46909523Y-168221485D01*
X76504761Y-151650057D02*
X76409523Y-151602438D01*
X76409523Y-151602438D02*
X76314285Y-151507200D01*
X76314285Y-151507200D02*
X76171428Y-151364342D01*
X76171428Y-151364342D02*
X76076190Y-151316723D01*
X76076190Y-151316723D02*
X75980952Y-151316723D01*
X76028571Y-151554819D02*
X75933333Y-151507200D01*
X75933333Y-151507200D02*
X75838095Y-151411961D01*
X75838095Y-151411961D02*
X75790476Y-151221485D01*
X75790476Y-151221485D02*
X75790476Y-150888152D01*
X75790476Y-150888152D02*
X75838095Y-150697676D01*
X75838095Y-150697676D02*
X75933333Y-150602438D01*
X75933333Y-150602438D02*
X76028571Y-150554819D01*
X76028571Y-150554819D02*
X76219047Y-150554819D01*
X76219047Y-150554819D02*
X76314285Y-150602438D01*
X76314285Y-150602438D02*
X76409523Y-150697676D01*
X76409523Y-150697676D02*
X76457142Y-150888152D01*
X76457142Y-150888152D02*
X76457142Y-151221485D01*
X76457142Y-151221485D02*
X76409523Y-151411961D01*
X76409523Y-151411961D02*
X76314285Y-151507200D01*
X76314285Y-151507200D02*
X76219047Y-151554819D01*
X76219047Y-151554819D02*
X76028571Y-151554819D01*
X77409523Y-151554819D02*
X76838095Y-151554819D01*
X77123809Y-151554819D02*
X77123809Y-150554819D01*
X77123809Y-150554819D02*
X77028571Y-150697676D01*
X77028571Y-150697676D02*
X76933333Y-150792914D01*
X76933333Y-150792914D02*
X76838095Y-150840533D01*
X52461905Y-167054819D02*
X52461905Y-166054819D01*
X52461905Y-166054819D02*
X52700000Y-166054819D01*
X52700000Y-166054819D02*
X52842857Y-166102438D01*
X52842857Y-166102438D02*
X52938095Y-166197676D01*
X52938095Y-166197676D02*
X52985714Y-166292914D01*
X52985714Y-166292914D02*
X53033333Y-166483390D01*
X53033333Y-166483390D02*
X53033333Y-166626247D01*
X53033333Y-166626247D02*
X52985714Y-166816723D01*
X52985714Y-166816723D02*
X52938095Y-166911961D01*
X52938095Y-166911961D02*
X52842857Y-167007200D01*
X52842857Y-167007200D02*
X52700000Y-167054819D01*
X52700000Y-167054819D02*
X52461905Y-167054819D01*
X53366667Y-166054819D02*
X53985714Y-166054819D01*
X53985714Y-166054819D02*
X53652381Y-166435771D01*
X53652381Y-166435771D02*
X53795238Y-166435771D01*
X53795238Y-166435771D02*
X53890476Y-166483390D01*
X53890476Y-166483390D02*
X53938095Y-166531009D01*
X53938095Y-166531009D02*
X53985714Y-166626247D01*
X53985714Y-166626247D02*
X53985714Y-166864342D01*
X53985714Y-166864342D02*
X53938095Y-166959580D01*
X53938095Y-166959580D02*
X53890476Y-167007200D01*
X53890476Y-167007200D02*
X53795238Y-167054819D01*
X53795238Y-167054819D02*
X53509524Y-167054819D01*
X53509524Y-167054819D02*
X53414286Y-167007200D01*
X53414286Y-167007200D02*
X53366667Y-166959580D01*
X83957142Y-183559580D02*
X83909523Y-183607200D01*
X83909523Y-183607200D02*
X83766666Y-183654819D01*
X83766666Y-183654819D02*
X83671428Y-183654819D01*
X83671428Y-183654819D02*
X83528571Y-183607200D01*
X83528571Y-183607200D02*
X83433333Y-183511961D01*
X83433333Y-183511961D02*
X83385714Y-183416723D01*
X83385714Y-183416723D02*
X83338095Y-183226247D01*
X83338095Y-183226247D02*
X83338095Y-183083390D01*
X83338095Y-183083390D02*
X83385714Y-182892914D01*
X83385714Y-182892914D02*
X83433333Y-182797676D01*
X83433333Y-182797676D02*
X83528571Y-182702438D01*
X83528571Y-182702438D02*
X83671428Y-182654819D01*
X83671428Y-182654819D02*
X83766666Y-182654819D01*
X83766666Y-182654819D02*
X83909523Y-182702438D01*
X83909523Y-182702438D02*
X83957142Y-182750057D01*
X84338095Y-182750057D02*
X84385714Y-182702438D01*
X84385714Y-182702438D02*
X84480952Y-182654819D01*
X84480952Y-182654819D02*
X84719047Y-182654819D01*
X84719047Y-182654819D02*
X84814285Y-182702438D01*
X84814285Y-182702438D02*
X84861904Y-182750057D01*
X84861904Y-182750057D02*
X84909523Y-182845295D01*
X84909523Y-182845295D02*
X84909523Y-182940533D01*
X84909523Y-182940533D02*
X84861904Y-183083390D01*
X84861904Y-183083390D02*
X84290476Y-183654819D01*
X84290476Y-183654819D02*
X84909523Y-183654819D01*
X85242857Y-182654819D02*
X85861904Y-182654819D01*
X85861904Y-182654819D02*
X85528571Y-183035771D01*
X85528571Y-183035771D02*
X85671428Y-183035771D01*
X85671428Y-183035771D02*
X85766666Y-183083390D01*
X85766666Y-183083390D02*
X85814285Y-183131009D01*
X85814285Y-183131009D02*
X85861904Y-183226247D01*
X85861904Y-183226247D02*
X85861904Y-183464342D01*
X85861904Y-183464342D02*
X85814285Y-183559580D01*
X85814285Y-183559580D02*
X85766666Y-183607200D01*
X85766666Y-183607200D02*
X85671428Y-183654819D01*
X85671428Y-183654819D02*
X85385714Y-183654819D01*
X85385714Y-183654819D02*
X85290476Y-183607200D01*
X85290476Y-183607200D02*
X85242857Y-183559580D01*
X80957142Y-182159580D02*
X80909523Y-182207200D01*
X80909523Y-182207200D02*
X80766666Y-182254819D01*
X80766666Y-182254819D02*
X80671428Y-182254819D01*
X80671428Y-182254819D02*
X80528571Y-182207200D01*
X80528571Y-182207200D02*
X80433333Y-182111961D01*
X80433333Y-182111961D02*
X80385714Y-182016723D01*
X80385714Y-182016723D02*
X80338095Y-181826247D01*
X80338095Y-181826247D02*
X80338095Y-181683390D01*
X80338095Y-181683390D02*
X80385714Y-181492914D01*
X80385714Y-181492914D02*
X80433333Y-181397676D01*
X80433333Y-181397676D02*
X80528571Y-181302438D01*
X80528571Y-181302438D02*
X80671428Y-181254819D01*
X80671428Y-181254819D02*
X80766666Y-181254819D01*
X80766666Y-181254819D02*
X80909523Y-181302438D01*
X80909523Y-181302438D02*
X80957142Y-181350057D01*
X81338095Y-181350057D02*
X81385714Y-181302438D01*
X81385714Y-181302438D02*
X81480952Y-181254819D01*
X81480952Y-181254819D02*
X81719047Y-181254819D01*
X81719047Y-181254819D02*
X81814285Y-181302438D01*
X81814285Y-181302438D02*
X81861904Y-181350057D01*
X81861904Y-181350057D02*
X81909523Y-181445295D01*
X81909523Y-181445295D02*
X81909523Y-181540533D01*
X81909523Y-181540533D02*
X81861904Y-181683390D01*
X81861904Y-181683390D02*
X81290476Y-182254819D01*
X81290476Y-182254819D02*
X81909523Y-182254819D01*
X82528571Y-181254819D02*
X82623809Y-181254819D01*
X82623809Y-181254819D02*
X82719047Y-181302438D01*
X82719047Y-181302438D02*
X82766666Y-181350057D01*
X82766666Y-181350057D02*
X82814285Y-181445295D01*
X82814285Y-181445295D02*
X82861904Y-181635771D01*
X82861904Y-181635771D02*
X82861904Y-181873866D01*
X82861904Y-181873866D02*
X82814285Y-182064342D01*
X82814285Y-182064342D02*
X82766666Y-182159580D01*
X82766666Y-182159580D02*
X82719047Y-182207200D01*
X82719047Y-182207200D02*
X82623809Y-182254819D01*
X82623809Y-182254819D02*
X82528571Y-182254819D01*
X82528571Y-182254819D02*
X82433333Y-182207200D01*
X82433333Y-182207200D02*
X82385714Y-182159580D01*
X82385714Y-182159580D02*
X82338095Y-182064342D01*
X82338095Y-182064342D02*
X82290476Y-181873866D01*
X82290476Y-181873866D02*
X82290476Y-181635771D01*
X82290476Y-181635771D02*
X82338095Y-181445295D01*
X82338095Y-181445295D02*
X82385714Y-181350057D01*
X82385714Y-181350057D02*
X82433333Y-181302438D01*
X82433333Y-181302438D02*
X82528571Y-181254819D01*
X55933333Y-166854819D02*
X55600000Y-166378628D01*
X55361905Y-166854819D02*
X55361905Y-165854819D01*
X55361905Y-165854819D02*
X55742857Y-165854819D01*
X55742857Y-165854819D02*
X55838095Y-165902438D01*
X55838095Y-165902438D02*
X55885714Y-165950057D01*
X55885714Y-165950057D02*
X55933333Y-166045295D01*
X55933333Y-166045295D02*
X55933333Y-166188152D01*
X55933333Y-166188152D02*
X55885714Y-166283390D01*
X55885714Y-166283390D02*
X55838095Y-166331009D01*
X55838095Y-166331009D02*
X55742857Y-166378628D01*
X55742857Y-166378628D02*
X55361905Y-166378628D01*
X56409524Y-166854819D02*
X56600000Y-166854819D01*
X56600000Y-166854819D02*
X56695238Y-166807200D01*
X56695238Y-166807200D02*
X56742857Y-166759580D01*
X56742857Y-166759580D02*
X56838095Y-166616723D01*
X56838095Y-166616723D02*
X56885714Y-166426247D01*
X56885714Y-166426247D02*
X56885714Y-166045295D01*
X56885714Y-166045295D02*
X56838095Y-165950057D01*
X56838095Y-165950057D02*
X56790476Y-165902438D01*
X56790476Y-165902438D02*
X56695238Y-165854819D01*
X56695238Y-165854819D02*
X56504762Y-165854819D01*
X56504762Y-165854819D02*
X56409524Y-165902438D01*
X56409524Y-165902438D02*
X56361905Y-165950057D01*
X56361905Y-165950057D02*
X56314286Y-166045295D01*
X56314286Y-166045295D02*
X56314286Y-166283390D01*
X56314286Y-166283390D02*
X56361905Y-166378628D01*
X56361905Y-166378628D02*
X56409524Y-166426247D01*
X56409524Y-166426247D02*
X56504762Y-166473866D01*
X56504762Y-166473866D02*
X56695238Y-166473866D01*
X56695238Y-166473866D02*
X56790476Y-166426247D01*
X56790476Y-166426247D02*
X56838095Y-166378628D01*
X56838095Y-166378628D02*
X56885714Y-166283390D01*
D13*
%TO.C,U3*%
X69702500Y-155515000D02*
X69702500Y-155055000D01*
X69702500Y-159035000D02*
X69702500Y-158335000D01*
X70402500Y-154815000D02*
X70002500Y-154815000D01*
X70402500Y-159035000D02*
X69702500Y-159035000D01*
X73222500Y-154815000D02*
X73922500Y-154815000D01*
X73222500Y-159035000D02*
X73922500Y-159035000D01*
X73922500Y-154815000D02*
X73922500Y-155515000D01*
X73922500Y-159035000D02*
X73922500Y-158335000D01*
X69702500Y-154815000D02*
X69462500Y-154485000D01*
X69942500Y-154485000D01*
X69702500Y-154815000D01*
G36*
X69702500Y-154815000D02*
G01*
X69462500Y-154485000D01*
X69942500Y-154485000D01*
X69702500Y-154815000D01*
G37*
%TO.C,U1*%
X80375000Y-171975000D02*
X81200000Y-171975000D01*
X80375000Y-172800000D02*
X80375000Y-171975000D01*
X88425000Y-171975000D02*
X87600000Y-171975000D01*
X88425000Y-172800000D02*
X88425000Y-171975000D01*
X88425000Y-179200000D02*
X88425000Y-180025000D01*
X88425000Y-180025000D02*
X87600000Y-180025000D01*
D14*
X80701776Y-179922752D02*
G75*
G02*
X80173424Y-179922752I-264176J0D01*
G01*
X80173424Y-179922752D02*
G75*
G02*
X80701776Y-179922752I264176J0D01*
G01*
D13*
%TO.C,TX1P1*%
X109450000Y-173000000D02*
G75*
G02*
X107550000Y-173000000I-950000J0D01*
G01*
X107550000Y-173000000D02*
G75*
G02*
X109450000Y-173000000I950000J0D01*
G01*
%TO.C,R8*%
X55971359Y-169432500D02*
X56278641Y-169432500D01*
X55971359Y-170192500D02*
X56278641Y-170192500D01*
D15*
%TO.C,J4*%
X39990000Y-151250000D02*
X39990000Y-165750000D01*
X39990000Y-165750000D02*
X48740000Y-165750000D01*
X48740000Y-151250000D02*
X39990000Y-151250000D01*
X54090000Y-151250000D02*
X51940000Y-151250000D01*
X54090000Y-151250000D02*
X54090000Y-165750000D01*
X54090000Y-165750000D02*
X51940000Y-165750000D01*
D12*
X53100000Y-149990000D02*
G75*
G02*
X52900000Y-149990000I-100000J0D01*
G01*
X52900000Y-149990000D02*
G75*
G02*
X53100000Y-149990000I100000J0D01*
G01*
D13*
%TO.C,D1*%
X52325000Y-170547500D02*
X54610000Y-170547500D01*
X54610000Y-169077500D02*
X52325000Y-169077500D01*
X54610000Y-170547500D02*
X54610000Y-169077500D01*
%TO.C,R12*%
X78645000Y-154053641D02*
X78645000Y-153746359D01*
X79405000Y-154053641D02*
X79405000Y-153746359D01*
%TO.C,R21*%
X89753641Y-181620000D02*
X89446359Y-181620000D01*
X89753641Y-182380000D02*
X89446359Y-182380000D01*
%TO.C,C24*%
X91392164Y-176840000D02*
X91607836Y-176840000D01*
X91392164Y-177560000D02*
X91607836Y-177560000D01*
%TO.C,U2*%
X56015000Y-171015000D02*
X56015000Y-171740000D01*
X56015000Y-175235000D02*
X56015000Y-174510000D01*
X56740000Y-171015000D02*
X56015000Y-171015000D01*
X56740000Y-175235000D02*
X56015000Y-175235000D01*
X59510000Y-171015000D02*
X60235000Y-171015000D01*
X59510000Y-175235000D02*
X59935000Y-175235000D01*
X60235000Y-171015000D02*
X60235000Y-171740000D01*
X60235000Y-174510000D02*
X60235000Y-174995000D01*
X60475000Y-175565000D02*
X59995000Y-175565000D01*
X60235000Y-175235000D01*
X60475000Y-175565000D01*
G36*
X60475000Y-175565000D02*
G01*
X59995000Y-175565000D01*
X60235000Y-175235000D01*
X60475000Y-175565000D01*
G37*
%TO.C,C17*%
X78729664Y-170890000D02*
X78945336Y-170890000D01*
X78729664Y-171610000D02*
X78945336Y-171610000D01*
D15*
%TO.C,J3*%
X81350000Y-156430000D02*
X81350000Y-152620000D01*
X81350000Y-163680000D02*
X81350000Y-158070000D01*
X92140000Y-166750000D02*
X92140000Y-165600000D01*
X93780000Y-166750000D02*
X92140000Y-166750000D01*
X95650000Y-152620000D02*
X95650000Y-165230000D01*
D12*
X91500000Y-167750000D02*
G75*
G02*
X91300000Y-167750000I-100000J0D01*
G01*
X91300000Y-167750000D02*
G75*
G02*
X91500000Y-167750000I100000J0D01*
G01*
D13*
%TO.C,U5*%
X64740000Y-177990000D02*
X64740000Y-178260000D01*
X64740000Y-183510000D02*
X64740000Y-183240000D01*
X67500000Y-177990000D02*
X64740000Y-177990000D01*
X67500000Y-177990000D02*
X70260000Y-177990000D01*
X67500000Y-183510000D02*
X64740000Y-183510000D01*
X67500000Y-183510000D02*
X70260000Y-183510000D01*
X70260000Y-177990000D02*
X70260000Y-178260000D01*
X70260000Y-183510000D02*
X70260000Y-183240000D01*
X71265000Y-183570000D02*
X70785000Y-183570000D01*
X71025000Y-183240000D01*
X71265000Y-183570000D01*
G36*
X71265000Y-183570000D02*
G01*
X70785000Y-183570000D01*
X71025000Y-183240000D01*
X71265000Y-183570000D01*
G37*
%TO.C,R20*%
X100153641Y-185620000D02*
X99846359Y-185620000D01*
X100153641Y-186380000D02*
X99846359Y-186380000D01*
%TO.C,R16*%
X96903641Y-176870000D02*
X96596359Y-176870000D01*
X96903641Y-177630000D02*
X96596359Y-177630000D01*
%TO.C,5V1*%
X109450000Y-165500000D02*
G75*
G02*
X107550000Y-165500000I-950000J0D01*
G01*
X107550000Y-165500000D02*
G75*
G02*
X109450000Y-165500000I950000J0D01*
G01*
%TO.C,C14*%
X96512164Y-175590000D02*
X96727836Y-175590000D01*
X96512164Y-176310000D02*
X96727836Y-176310000D01*
%TO.C,RN2*%
X101400000Y-165780000D02*
X100600000Y-165780000D01*
X101400000Y-169220000D02*
X100600000Y-169220000D01*
%TO.C,C5*%
X61734420Y-174802500D02*
X62015580Y-174802500D01*
X61734420Y-175822500D02*
X62015580Y-175822500D01*
D12*
%TO.C,U4*%
X71700000Y-169500000D02*
G75*
G02*
X71500000Y-169500000I-100000J0D01*
G01*
X71500000Y-169500000D02*
G75*
G02*
X71700000Y-169500000I100000J0D01*
G01*
D13*
%TO.C,TXCP1*%
X109450000Y-183000000D02*
G75*
G02*
X107550000Y-183000000I-950000J0D01*
G01*
X107550000Y-183000000D02*
G75*
G02*
X109450000Y-183000000I950000J0D01*
G01*
%TO.C,C16*%
X78977500Y-173907836D02*
X78977500Y-173692164D01*
X79697500Y-173907836D02*
X79697500Y-173692164D01*
%TO.C,R5*%
X60495000Y-170408859D02*
X60495000Y-170716141D01*
X61255000Y-170408859D02*
X61255000Y-170716141D01*
%TO.C,C19*%
X92492164Y-175240000D02*
X92707836Y-175240000D01*
X92492164Y-175960000D02*
X92707836Y-175960000D01*
%TO.C,Q2*%
X76462500Y-155390000D02*
X75812500Y-155390000D01*
X76462500Y-155390000D02*
X77112500Y-155390000D01*
X76462500Y-158510000D02*
X75812500Y-158510000D01*
X76462500Y-158510000D02*
X77112500Y-158510000D01*
X75300000Y-155440000D02*
X75060000Y-155110000D01*
X75540000Y-155110000D01*
X75300000Y-155440000D01*
G36*
X75300000Y-155440000D02*
G01*
X75060000Y-155110000D01*
X75540000Y-155110000D01*
X75300000Y-155440000D01*
G37*
%TO.C,L1*%
X76240000Y-173899622D02*
X76240000Y-173100378D01*
X77360000Y-173899622D02*
X77360000Y-173100378D01*
D16*
X75754057Y-175100000D02*
G75*
G02*
X75545943Y-175100000I-104057J0D01*
G01*
X75545943Y-175100000D02*
G75*
G02*
X75754057Y-175100000I104057J0D01*
G01*
D13*
%TO.C,TX2G1*%
X106950000Y-169500000D02*
G75*
G02*
X105050000Y-169500000I-950000J0D01*
G01*
X105050000Y-169500000D02*
G75*
G02*
X106950000Y-169500000I950000J0D01*
G01*
D17*
%TO.C,J5*%
X43528400Y-170226599D02*
X43528400Y-176373399D01*
X43528400Y-176373399D02*
X51377000Y-176373399D01*
X51377000Y-170226599D02*
X43528400Y-170226599D01*
X51377000Y-176373399D02*
X51377000Y-170226599D01*
D13*
%TO.C,C6*%
X54615000Y-175921920D02*
X54615000Y-176203080D01*
X55635000Y-175921920D02*
X55635000Y-176203080D01*
%TO.C,C3*%
X56240580Y-151090000D02*
X55959420Y-151090000D01*
X56240580Y-152110000D02*
X55959420Y-152110000D01*
%TO.C,R11*%
X79645000Y-154053641D02*
X79645000Y-153746359D01*
X80405000Y-154053641D02*
X80405000Y-153746359D01*
%TO.C,TXCM1*%
X109450000Y-185500000D02*
G75*
G02*
X107550000Y-185500000I-950000J0D01*
G01*
X107550000Y-185500000D02*
G75*
G02*
X109450000Y-185500000I950000J0D01*
G01*
%TO.C,C29*%
X96740000Y-165421920D02*
X96740000Y-165703080D01*
X97760000Y-165421920D02*
X97760000Y-165703080D01*
%TO.C,Q3*%
X92700000Y-180540000D02*
X91900000Y-180540000D01*
X92700000Y-180540000D02*
X93500000Y-180540000D01*
X92700000Y-183660000D02*
X91900000Y-183660000D01*
X92700000Y-183660000D02*
X93500000Y-183660000D01*
X94240000Y-183940000D02*
X93760000Y-183940000D01*
X94000000Y-183610000D01*
X94240000Y-183940000D01*
G36*
X94240000Y-183940000D02*
G01*
X93760000Y-183940000D01*
X94000000Y-183610000D01*
X94240000Y-183940000D01*
G37*
%TO.C,C11*%
X71334420Y-170740000D02*
X71615580Y-170740000D01*
X71334420Y-171760000D02*
X71615580Y-171760000D01*
D17*
%TO.C,SW2*%
X96159200Y-186878400D02*
X96159200Y-189621600D01*
X96159200Y-189621600D02*
X106420800Y-189621600D01*
X106420800Y-186878400D02*
X96159200Y-186878400D01*
X106420800Y-189621600D02*
X106420800Y-186878400D01*
D13*
%TO.C,C13*%
X93242164Y-172090000D02*
X93457836Y-172090000D01*
X93242164Y-172810000D02*
X93457836Y-172810000D01*
%TO.C,C12*%
X61327500Y-181735580D02*
X61327500Y-181454420D01*
X62347500Y-181735580D02*
X62347500Y-181454420D01*
%TO.C,J2*%
X42330000Y-186500000D02*
X42330000Y-184800000D01*
X51670000Y-186500000D02*
X51670000Y-184800000D01*
%TO.C,TX2M1*%
X109450000Y-170500000D02*
G75*
G02*
X107550000Y-170500000I-950000J0D01*
G01*
X107550000Y-170500000D02*
G75*
G02*
X109450000Y-170500000I950000J0D01*
G01*
%TO.C,TX2P1*%
X109450000Y-168000000D02*
G75*
G02*
X107550000Y-168000000I-950000J0D01*
G01*
X107550000Y-168000000D02*
G75*
G02*
X109450000Y-168000000I950000J0D01*
G01*
%TO.C,C21*%
X78207836Y-176140000D02*
X77992164Y-176140000D01*
X78207836Y-176860000D02*
X77992164Y-176860000D01*
%TO.C,TX0P1*%
X109450000Y-178000000D02*
G75*
G02*
X107550000Y-178000000I-950000J0D01*
G01*
X107550000Y-178000000D02*
G75*
G02*
X109450000Y-178000000I950000J0D01*
G01*
%TO.C,GND1*%
X109450000Y-188000000D02*
G75*
G02*
X107550000Y-188000000I-950000J0D01*
G01*
X107550000Y-188000000D02*
G75*
G02*
X109450000Y-188000000I950000J0D01*
G01*
%TO.C,R23*%
X51920000Y-172753641D02*
X51920000Y-172446359D01*
X52680000Y-172753641D02*
X52680000Y-172446359D01*
%TO.C,GND2*%
X106300000Y-160300000D02*
X109700000Y-160300000D01*
X106300000Y-163700000D02*
X106300000Y-160300000D01*
X109700000Y-160300000D02*
X109700000Y-163700000D01*
X109700000Y-163700000D02*
X106300000Y-163700000D01*
%TO.C,R6*%
X53721359Y-171682500D02*
X54028641Y-171682500D01*
X53721359Y-172442500D02*
X54028641Y-172442500D01*
%TO.C,C26*%
X83890000Y-170357836D02*
X83890000Y-170142164D01*
X84610000Y-170357836D02*
X84610000Y-170142164D01*
%TO.C,R7*%
X53721359Y-172682500D02*
X54028641Y-172682500D01*
X53721359Y-173442500D02*
X54028641Y-173442500D01*
%TO.C,C25*%
X89140000Y-171507836D02*
X89140000Y-171292164D01*
X89860000Y-171507836D02*
X89860000Y-171292164D01*
%TO.C,TXCG1*%
X106950000Y-184500000D02*
G75*
G02*
X105050000Y-184500000I-950000J0D01*
G01*
X105050000Y-184500000D02*
G75*
G02*
X106950000Y-184500000I950000J0D01*
G01*
%TO.C,R3*%
X73336359Y-174370000D02*
X73643641Y-174370000D01*
X73336359Y-175130000D02*
X73643641Y-175130000D01*
%TO.C,RN1*%
X101900000Y-180780000D02*
X101100000Y-180780000D01*
X101900000Y-184220000D02*
X101100000Y-184220000D01*
%TO.C,L3*%
X71325000Y-167025000D02*
X71325000Y-169975000D01*
X74775000Y-167025000D02*
X74775000Y-169975000D01*
D17*
%TO.C,SW1*%
X40744200Y-176835999D02*
X40744200Y-179579199D01*
X40744200Y-179579199D02*
X51005800Y-179579199D01*
X51005800Y-176835999D02*
X40744200Y-176835999D01*
X51005800Y-179579199D02*
X51005800Y-176835999D01*
D13*
%TO.C,TX1G1*%
X106950000Y-174500000D02*
G75*
G02*
X105050000Y-174500000I-950000J0D01*
G01*
X105050000Y-174500000D02*
G75*
G02*
X106950000Y-174500000I950000J0D01*
G01*
%TO.C,R1*%
X40620000Y-187356359D02*
X40620000Y-187663641D01*
X41380000Y-187356359D02*
X41380000Y-187663641D01*
%TO.C,C18*%
X82890000Y-170357836D02*
X82890000Y-170142164D01*
X83610000Y-170357836D02*
X83610000Y-170142164D01*
%TO.C,C15*%
X77977500Y-173907836D02*
X77977500Y-173692164D01*
X78697500Y-173907836D02*
X78697500Y-173692164D01*
%TO.C,C22*%
X78877836Y-179890000D02*
X78662164Y-179890000D01*
X78877836Y-180610000D02*
X78662164Y-180610000D01*
%TO.C,R19*%
X76991141Y-170870000D02*
X76683859Y-170870000D01*
X76991141Y-171630000D02*
X76683859Y-171630000D01*
D15*
%TO.C,LS1*%
X88350000Y-188300000D02*
X88350000Y-186100000D01*
X89350000Y-189300000D02*
X88350000Y-188300000D01*
X90267000Y-184300000D02*
X91500000Y-184300000D01*
X91500000Y-189300000D02*
X89350000Y-189300000D01*
X93350000Y-187383000D02*
X93350000Y-186177000D01*
D13*
%TO.C,C10*%
X65740000Y-169109420D02*
X65740000Y-169390580D01*
X66760000Y-169109420D02*
X66760000Y-169390580D01*
%TO.C,C4*%
X53884420Y-182740000D02*
X54165580Y-182740000D01*
X53884420Y-183760000D02*
X54165580Y-183760000D01*
%TO.C,R2*%
X40620000Y-185096359D02*
X40620000Y-185403641D01*
X41380000Y-185096359D02*
X41380000Y-185403641D01*
%TO.C,R4*%
X73336359Y-175370000D02*
X73643641Y-175370000D01*
X73336359Y-176130000D02*
X73643641Y-176130000D01*
%TO.C,D2*%
X88600000Y-182600000D02*
X90560000Y-182600000D01*
X88600000Y-183800000D02*
X90560000Y-183800000D01*
X90560000Y-183800000D02*
X90560000Y-182600000D01*
%TO.C,TX0M1*%
X109450000Y-180500000D02*
G75*
G02*
X107550000Y-180500000I-950000J0D01*
G01*
X107550000Y-180500000D02*
G75*
G02*
X109450000Y-180500000I950000J0D01*
G01*
%TO.C,R13*%
X78678641Y-157770000D02*
X78371359Y-157770000D01*
X78678641Y-158530000D02*
X78371359Y-158530000D01*
%TO.C,R18*%
X93196359Y-174070000D02*
X93503641Y-174070000D01*
X93196359Y-174830000D02*
X93503641Y-174830000D01*
%TO.C,R25*%
X96870000Y-162408859D02*
X96870000Y-162716141D01*
X97630000Y-162408859D02*
X97630000Y-162716141D01*
%TO.C,TX1M1*%
X109450000Y-175500000D02*
G75*
G02*
X107550000Y-175500000I-950000J0D01*
G01*
X107550000Y-175500000D02*
G75*
G02*
X109450000Y-175500000I950000J0D01*
G01*
%TO.C,L2*%
X56000000Y-152600000D02*
X66600000Y-152600000D01*
X56000000Y-155800000D02*
X56000000Y-152600000D01*
X56000000Y-163200000D02*
X56000000Y-160000000D01*
X66600000Y-152600000D02*
X66600000Y-155800000D01*
X66600000Y-160000000D02*
X66600000Y-163200000D01*
X66600000Y-163200000D02*
X56000000Y-163200000D01*
%TO.C,X1*%
X98600000Y-171800000D02*
X94600000Y-171800000D01*
X98600000Y-175100000D02*
X98600000Y-171800000D01*
%TO.C,C28*%
X79640000Y-162607836D02*
X79640000Y-162392164D01*
X80360000Y-162607836D02*
X80360000Y-162392164D01*
%TO.C,C7*%
X71915580Y-160140000D02*
X71634420Y-160140000D01*
X71915580Y-161160000D02*
X71634420Y-161160000D01*
%TO.C,R22*%
X90446359Y-180520000D02*
X90753641Y-180520000D01*
X90446359Y-181280000D02*
X90753641Y-181280000D01*
%TO.C,C27*%
X81140000Y-170357836D02*
X81140000Y-170142164D01*
X81860000Y-170357836D02*
X81860000Y-170142164D01*
%TO.C,C8*%
X67515000Y-155284420D02*
X67515000Y-155565580D01*
X68535000Y-155284420D02*
X68535000Y-155565580D01*
%TO.C,R15*%
X66820000Y-184646359D02*
X66820000Y-184953641D01*
X67580000Y-184646359D02*
X67580000Y-184953641D01*
%TO.C,R10*%
X78645000Y-156813641D02*
X78645000Y-156506359D01*
X79405000Y-156813641D02*
X79405000Y-156506359D01*
%TO.C,SW4*%
X99250000Y-174550000D02*
X99250000Y-178950000D01*
X100850000Y-174550000D02*
X100750000Y-174550000D01*
X100850000Y-178950000D02*
X100750000Y-178950000D01*
X102350000Y-178950000D02*
X102350000Y-174550000D01*
%TO.C,C31*%
X66490000Y-187359420D02*
X66490000Y-187640580D01*
X67510000Y-187359420D02*
X67510000Y-187640580D01*
%TO.C,C9*%
X70805000Y-152095000D02*
X70805000Y-153705000D01*
X70805000Y-153705000D02*
X73525000Y-153705000D01*
X73525000Y-152095000D02*
X70805000Y-152095000D01*
%TO.C,J1*%
X68270000Y-184105000D02*
X83730000Y-184105000D01*
X68270000Y-186755000D02*
X68270000Y-184105000D01*
X68270000Y-189405000D02*
X68270000Y-188025000D01*
X69650000Y-189405000D02*
X68270000Y-189405000D01*
X70920000Y-186755000D02*
X68270000Y-186755000D01*
X70920000Y-189405000D02*
X70920000Y-186755000D01*
X70920000Y-189405000D02*
X83730000Y-189405000D01*
X83730000Y-189405000D02*
X83730000Y-184105000D01*
%TO.C,TX0G1*%
X106950000Y-179500000D02*
G75*
G02*
X105050000Y-179500000I-950000J0D01*
G01*
X105050000Y-179500000D02*
G75*
G02*
X106950000Y-179500000I950000J0D01*
G01*
%TO.C,R14*%
X69403641Y-165870000D02*
X69096359Y-165870000D01*
X69403641Y-166630000D02*
X69096359Y-166630000D01*
%TO.C,C1*%
X53884420Y-184240000D02*
X54165580Y-184240000D01*
X53884420Y-185260000D02*
X54165580Y-185260000D01*
%TO.C,R24*%
X47846359Y-167820000D02*
X48153641Y-167820000D01*
X47846359Y-168580000D02*
X48153641Y-168580000D01*
%TO.C,Q1*%
X76525000Y-151840000D02*
X75875000Y-151840000D01*
X76525000Y-151840000D02*
X77175000Y-151840000D01*
X76525000Y-154960000D02*
X75875000Y-154960000D01*
X76525000Y-154960000D02*
X77175000Y-154960000D01*
X77927500Y-155240000D02*
X77447500Y-155240000D01*
X77687500Y-154910000D01*
X77927500Y-155240000D01*
G36*
X77927500Y-155240000D02*
G01*
X77447500Y-155240000D01*
X77687500Y-154910000D01*
X77927500Y-155240000D01*
G37*
%TO.C,D3*%
X52325000Y-168797500D02*
X54610000Y-168797500D01*
X54610000Y-167327500D02*
X52325000Y-167327500D01*
X54610000Y-168797500D02*
X54610000Y-167327500D01*
%TO.C,C23*%
X85140000Y-181392164D02*
X85140000Y-181607836D01*
X85860000Y-181392164D02*
X85860000Y-181607836D01*
%TO.C,C20*%
X83140000Y-181392164D02*
X83140000Y-181607836D01*
X83860000Y-181392164D02*
X83860000Y-181607836D01*
%TO.C,R9*%
X55971359Y-168432500D02*
X56278641Y-168432500D01*
X55971359Y-169192500D02*
X56278641Y-169192500D01*
%TD*%
M02*
