%TF.GenerationSoftware,KiCad,Pcbnew,9.0.3*%
%TF.CreationDate,2026-01-22T07:10:48-05:00*%
%TF.ProjectId,PicoTop Board,5069636f-546f-4702-9042-6f6172642e6b,rev?*%
%TF.SameCoordinates,Original*%
%TF.FileFunction,Copper,L2,Bot*%
%TF.FilePolarity,Positive*%
%FSLAX46Y46*%
G04 Gerber Fmt 4.6, Leading zero omitted, Abs format (unit mm)*
G04 Created by KiCad (PCBNEW 9.0.3) date 2026-01-22 07:10:48*
%MOMM*%
%LPD*%
G01*
G04 APERTURE LIST*
%TA.AperFunction,HeatsinkPad*%
%ADD10C,0.500000*%
%TD*%
%TA.AperFunction,HeatsinkPad*%
%ADD11R,2.700000X2.700000*%
%TD*%
%TA.AperFunction,HeatsinkPad*%
%ADD12C,0.400000*%
%TD*%
%TA.AperFunction,ComponentPad*%
%ADD13C,1.500000*%
%TD*%
%TA.AperFunction,ComponentPad*%
%ADD14R,1.508000X1.508000*%
%TD*%
%TA.AperFunction,ComponentPad*%
%ADD15C,1.508000*%
%TD*%
%TA.AperFunction,ComponentPad*%
%ADD16C,1.320800*%
%TD*%
%TA.AperFunction,ComponentPad*%
%ADD17C,1.371600*%
%TD*%
%TA.AperFunction,HeatsinkPad*%
%ADD18O,1.100000X1.700000*%
%TD*%
%TA.AperFunction,ComponentPad*%
%ADD19R,1.700000X1.700000*%
%TD*%
%TA.AperFunction,ComponentPad*%
%ADD20C,1.700000*%
%TD*%
%TA.AperFunction,ViaPad*%
%ADD21C,0.600000*%
%TD*%
%TA.AperFunction,Conductor*%
%ADD22C,0.200000*%
%TD*%
%TA.AperFunction,Conductor*%
%ADD23C,0.500000*%
%TD*%
%TA.AperFunction,Conductor*%
%ADD24C,0.160000*%
%TD*%
G04 APERTURE END LIST*
D10*
%TO.P,U3,17,PAD*%
%TO.N,GND*%
X72912500Y-156925000D03*
X70712500Y-155825000D03*
X70712500Y-156925000D03*
X70712500Y-158025000D03*
X71812500Y-155825000D03*
X71812500Y-156925000D03*
D11*
X71812500Y-156925000D03*
D10*
X71812500Y-158025000D03*
X72912500Y-155825000D03*
X72912500Y-158025000D03*
%TD*%
D12*
%TO.P,U1,61,GND*%
%TO.N,unconnected-(U1-GND-Pad61)*%
X83550000Y-176850000D03*
X84400000Y-176850000D03*
X85250000Y-176850000D03*
X83550000Y-176000000D03*
X84400000Y-176000000D03*
X85250000Y-176000000D03*
X83550000Y-175150000D03*
X84400000Y-175150000D03*
X85250000Y-175150000D03*
%TD*%
D13*
%TO.P,TX1P1,1,1*%
%TO.N,/TX1+*%
X108500000Y-173000000D03*
%TD*%
D14*
%TO.P,J4,1,VBUS*%
%TO.N,+5V*%
X53000000Y-155000000D03*
D15*
%TO.P,J4,2,D-*%
%TO.N,Net-(J4-D-)*%
X53000000Y-157500000D03*
%TO.P,J4,3,D+*%
%TO.N,Net-(J4-D+)*%
X53000000Y-159500000D03*
%TO.P,J4,4,GND*%
%TO.N,GND*%
X53000000Y-162000000D03*
%TD*%
D13*
%TO.P,5V1,1,1*%
%TO.N,+5V*%
X108500000Y-165500000D03*
%TD*%
%TO.P,TXCP1,1,1*%
%TO.N,/TXC+*%
X108500000Y-183000000D03*
%TD*%
%TO.P,TX2G1,1,1*%
%TO.N,GND*%
X106000000Y-169500000D03*
%TD*%
D16*
%TO.P,J5,1,1*%
%TO.N,Net-(J5-Pad1)*%
X49900000Y-172299999D03*
%TO.P,J5,2,2*%
%TO.N,GND*%
X49900000Y-174300000D03*
%TD*%
D13*
%TO.P,TXCM1,1,1*%
%TO.N,/TXC-*%
X108500000Y-185500000D03*
%TD*%
D17*
%TO.P,SW2,1,1*%
%TO.N,Net-(U1-GPIO11)*%
X101290000Y-188250000D03*
%TO.P,SW2,2,2*%
%TO.N,Net-(R20-Pad1)*%
X98750000Y-188250000D03*
%TO.P,SW2,3,3*%
%TO.N,GND*%
X103830000Y-188250000D03*
%TD*%
D18*
%TO.P,J2,S1,SHIELD*%
%TO.N,GND*%
X42680000Y-183750000D03*
X42680000Y-187550000D03*
X51320000Y-183750000D03*
X51320000Y-187550000D03*
%TD*%
D13*
%TO.P,TX2M1,1,1*%
%TO.N,/TX2-*%
X108500000Y-170500000D03*
%TD*%
%TO.P,TX2P1,1,1*%
%TO.N,/TX2+*%
X108500000Y-168000000D03*
%TD*%
%TO.P,TX0P1,1,1*%
%TO.N,/TX0+*%
X108500000Y-178000000D03*
%TD*%
%TO.P,GND1,1,1*%
%TO.N,GND*%
X108500000Y-188000000D03*
%TD*%
%TO.P,TXCG1,1,1*%
%TO.N,GND*%
X106000000Y-184500000D03*
%TD*%
D17*
%TO.P,SW1,1,1*%
%TO.N,Net-(J5-Pad1)*%
X45875000Y-178207599D03*
%TO.P,SW1,2,2*%
%TO.N,unconnected-(SW1-Pad2)*%
X43335000Y-178207599D03*
%TO.P,SW1,3,3*%
%TO.N,/BAT_ADC*%
X48415000Y-178207599D03*
%TD*%
D13*
%TO.P,TX1G1,1,1*%
%TO.N,GND*%
X106000000Y-174500000D03*
%TD*%
%TO.P,TX0M1,1,1*%
%TO.N,/TX0-*%
X108500000Y-180500000D03*
%TD*%
%TO.P,TX1M1,1,1*%
%TO.N,/TX1-*%
X108500000Y-175500000D03*
%TD*%
D19*
%TO.P,J1,1,Pin_1*%
%TO.N,/SWDIO*%
X69650000Y-188025000D03*
D20*
%TO.P,J1,2,Pin_2*%
%TO.N,/SWCLK*%
X69650000Y-185485000D03*
%TO.P,J1,3,Pin_3*%
%TO.N,GND*%
X72190000Y-188025000D03*
%TO.P,J1,4,Pin_4*%
%TO.N,+3.3V*%
X72190000Y-185485000D03*
%TO.P,J1,5,Pin_5*%
%TO.N,/DBG_RX*%
X74730000Y-188025000D03*
%TO.P,J1,6,Pin_6*%
%TO.N,/DBG_TX*%
X74730000Y-185485000D03*
%TO.P,J1,7,Pin_7*%
%TO.N,/SCL1*%
X77270000Y-188025000D03*
%TO.P,J1,8,Pin_8*%
%TO.N,/SDA1*%
X77270000Y-185485000D03*
%TO.P,J1,9,Pin_9*%
%TO.N,GND*%
X79810000Y-188025000D03*
%TO.P,J1,10,Pin_10*%
%TO.N,+3.3V*%
X79810000Y-185485000D03*
%TO.P,J1,11,Pin_11*%
%TO.N,/GPIO9*%
X82350000Y-188025000D03*
%TO.P,J1,12,Pin_12*%
%TO.N,/GPIO8*%
X82350000Y-185485000D03*
%TD*%
D13*
%TO.P,TX0G1,1,1*%
%TO.N,GND*%
X106000000Y-179500000D03*
%TD*%
D21*
%TO.N,/SD_CIPO*%
X87300000Y-171000000D03*
X86061091Y-168461091D03*
%TO.N,/SD_SCK*%
X87500000Y-167650000D03*
X87500000Y-168800000D03*
%TO.N,Net-(R20-Pad1)*%
X100500000Y-186200000D03*
%TO.N,Net-(U1-GPIO11)*%
X87870409Y-181029591D03*
X87400000Y-182200000D03*
%TO.N,GND*%
X55200000Y-177000000D03*
X48500000Y-168200000D03*
X84200000Y-183900000D03*
X68000000Y-156300000D03*
X71000000Y-160650000D03*
X101600000Y-174700000D03*
X54900000Y-183300000D03*
X80100000Y-162000000D03*
X78161091Y-172538909D03*
X95400000Y-151500000D03*
X78300000Y-180300000D03*
X89500000Y-170900000D03*
X81800000Y-151500000D03*
X93700000Y-181100000D03*
X57600000Y-173800000D03*
X108800000Y-162700000D03*
X97700000Y-174200000D03*
X93800000Y-172400000D03*
X83400000Y-182000000D03*
X83300000Y-169800000D03*
X65800000Y-171300000D03*
X91100000Y-180900000D03*
X53300000Y-173100000D03*
X69300000Y-169100000D03*
X95500000Y-172700000D03*
X81600000Y-157300000D03*
X108700000Y-161200000D03*
X107300000Y-162800000D03*
X58600000Y-172700000D03*
X77600000Y-176500000D03*
X92000000Y-177211000D03*
X57000000Y-151600000D03*
X107200000Y-161300000D03*
X79300000Y-171300000D03*
X94600000Y-166300000D03*
X86000000Y-167000000D03*
X82400000Y-166400000D03*
X71400000Y-177900000D03*
X81800000Y-182800000D03*
X62500000Y-169300000D03*
X96300000Y-178300000D03*
X62600000Y-175300000D03*
X77700000Y-153400000D03*
X61800000Y-180800000D03*
X97100000Y-176000000D03*
X72400000Y-171200000D03*
X79500000Y-168500000D03*
X65600000Y-187300000D03*
X78000000Y-158200000D03*
X54800000Y-184750000D03*
X101700000Y-178800000D03*
X93100000Y-175600000D03*
X69300000Y-168100000D03*
%TO.N,VUSB*%
X60000000Y-176100000D03*
X61100000Y-173800000D03*
%TO.N,+5V*%
X83300000Y-153300000D03*
X72200000Y-151200000D03*
%TO.N,VBUS*%
X58100000Y-169400000D03*
X57700000Y-176100000D03*
X62000000Y-172300000D03*
%TO.N,+3.3V*%
X92800000Y-185200000D03*
X70700000Y-172300000D03*
X66900000Y-182100000D03*
X80000000Y-169700000D03*
X86900000Y-164200000D03*
X81800000Y-186800000D03*
X85500000Y-181020000D03*
X67400000Y-178800000D03*
X64400000Y-166600000D03*
%TO.N,+1V1*%
X86900000Y-176100000D03*
X83851384Y-173539000D03*
X82482695Y-178466840D03*
X81816653Y-174930000D03*
X82530000Y-173539000D03*
X84500000Y-178500000D03*
X86900000Y-173800000D03*
X81939000Y-176100000D03*
%TO.N,Net-(J4-D-)*%
X71600000Y-174700000D03*
X59300000Y-163300000D03*
%TO.N,Net-(J4-D+)*%
X58700000Y-164000000D03*
X71500000Y-175600000D03*
%TO.N,/{slash}LBO_CHG*%
X77900000Y-183000000D03*
X64761091Y-174538909D03*
X59600000Y-168800000D03*
X68100000Y-178100000D03*
%TO.N,/{slash}CHG_DONE*%
X78500000Y-182400000D03*
X60100000Y-169400000D03*
X68800000Y-177800000D03*
X64100000Y-173100000D03*
%TO.N,Net-(U1-RUN)*%
X91900000Y-173600000D03*
X94500000Y-176500000D03*
%TO.N,/SWCLK*%
X91100000Y-175348000D03*
X95300000Y-187450000D03*
%TO.N,/QSPI_SCLK*%
X72750000Y-178889000D03*
X69500000Y-180089000D03*
%TO.N,/SWDIO*%
X91400000Y-174600000D03*
%TO.N,/SD3*%
X75500000Y-178250000D03*
X74000000Y-180750000D03*
%TD*%
D22*
%TO.N,/SD_CIPO*%
X87300000Y-169700000D02*
X86061091Y-168461091D01*
X87300000Y-171000000D02*
X87300000Y-169700000D01*
%TO.N,/SD_SCK*%
X87500000Y-168800000D02*
X87500000Y-167650000D01*
%TO.N,Net-(R20-Pad1)*%
X100500000Y-186500000D02*
X98750000Y-188250000D01*
X100500000Y-186200000D02*
X100500000Y-186500000D01*
%TO.N,Net-(U1-GPIO11)*%
X87400000Y-181500000D02*
X87870409Y-181029591D01*
X87400000Y-182200000D02*
X87400000Y-181500000D01*
%TO.N,GND*%
X72190000Y-188025000D02*
X70751000Y-186586000D01*
X93100000Y-175900000D02*
X95500000Y-178300000D01*
X73515000Y-186700000D02*
X78485000Y-186700000D01*
X78485000Y-186700000D02*
X79810000Y-188025000D01*
X72190000Y-188025000D02*
X73515000Y-186700000D01*
X70751000Y-186586000D02*
X66314000Y-186586000D01*
X66314000Y-186586000D02*
X65600000Y-187300000D01*
X95500000Y-178300000D02*
X96300000Y-178300000D01*
X93100000Y-175600000D02*
X93100000Y-175900000D01*
X79810000Y-188025000D02*
X81249000Y-186586000D01*
X81249000Y-183351000D02*
X81800000Y-182800000D01*
X81249000Y-186586000D02*
X81249000Y-183351000D01*
%TO.N,VUSB*%
X61100000Y-175000000D02*
X60000000Y-176100000D01*
X61100000Y-173800000D02*
X61100000Y-175000000D01*
%TO.N,+5V*%
X80700000Y-152600000D02*
X81400000Y-153300000D01*
X72200000Y-151200000D02*
X79300000Y-151200000D01*
X81400000Y-153300000D02*
X83300000Y-153300000D01*
X79300000Y-151200000D02*
X80700000Y-152600000D01*
%TO.N,VBUS*%
X61500000Y-172300000D02*
X62000000Y-172300000D01*
X57700000Y-176100000D02*
X61500000Y-172300000D01*
X62000000Y-172300000D02*
X59100000Y-169400000D01*
X59100000Y-169400000D02*
X58100000Y-169400000D01*
D23*
%TO.N,+3.3V*%
X81864000Y-186736000D02*
X85000000Y-186736000D01*
X72190000Y-184290000D02*
X71600000Y-183700000D01*
X91264000Y-186736000D02*
X92800000Y-185200000D01*
X66900000Y-182100000D02*
X68500000Y-183700000D01*
X66900000Y-179300000D02*
X66900000Y-182100000D01*
X81800000Y-186800000D02*
X81864000Y-186736000D01*
X85000000Y-186736000D02*
X91264000Y-186736000D01*
X80000000Y-169700000D02*
X81400000Y-169700000D01*
X71600000Y-183700000D02*
X79400000Y-183700000D01*
X67400000Y-178800000D02*
X66900000Y-179300000D01*
D22*
X65000000Y-166600000D02*
X64400000Y-166600000D01*
X70700000Y-172300000D02*
X65000000Y-166600000D01*
D23*
X79400000Y-183700000D02*
X79810000Y-184110000D01*
D22*
X85500000Y-181020000D02*
X85500000Y-185700000D01*
D23*
X68500000Y-183700000D02*
X71600000Y-183700000D01*
D22*
X85500000Y-185700000D02*
X85500000Y-186236000D01*
D23*
X72190000Y-185485000D02*
X72190000Y-184290000D01*
D22*
X85500000Y-186236000D02*
X85000000Y-186736000D01*
D23*
X79810000Y-184110000D02*
X79810000Y-185485000D01*
X81400000Y-169700000D02*
X86900000Y-164200000D01*
D24*
%TO.N,+1V1*%
X81939000Y-176100000D02*
X82482695Y-176643695D01*
X82530000Y-173539000D02*
X82530000Y-174216653D01*
X84112384Y-173800000D02*
X83851384Y-173539000D01*
X82530000Y-174216653D02*
X81816653Y-174930000D01*
X84439000Y-178500000D02*
X84500000Y-178500000D01*
X84500000Y-178500000D02*
X86900000Y-176100000D01*
X82482695Y-176643695D02*
X82482695Y-178466840D01*
X86900000Y-173800000D02*
X84112384Y-173800000D01*
D22*
%TO.N,Net-(J4-D-)*%
X71600000Y-174700000D02*
X60200000Y-163300000D01*
X60200000Y-163300000D02*
X59300000Y-163300000D01*
%TO.N,Net-(J4-D+)*%
X59900000Y-164000000D02*
X58700000Y-164000000D01*
X71500000Y-175600000D02*
X59900000Y-164000000D01*
%TO.N,/{slash}LBO_CHG*%
X77900000Y-183000000D02*
X68900000Y-183000000D01*
X68000000Y-179300000D02*
X68100000Y-179200000D01*
X68900000Y-183000000D02*
X67700000Y-181800000D01*
X60600000Y-168800000D02*
X60800000Y-169000000D01*
X60800000Y-169000000D02*
X64761091Y-172961091D01*
X67700000Y-179600000D02*
X68000000Y-179300000D01*
X64761091Y-172961091D02*
X64761091Y-174538909D01*
X59600000Y-168800000D02*
X60600000Y-168800000D01*
X67700000Y-181800000D02*
X67700000Y-179600000D01*
X68100000Y-179200000D02*
X68100000Y-178100000D01*
%TO.N,/{slash}CHG_DONE*%
X68200000Y-180000000D02*
X68800000Y-179400000D01*
X60400000Y-169400000D02*
X60100000Y-169400000D01*
X68800000Y-179400000D02*
X68800000Y-177800000D01*
X69100000Y-182400000D02*
X68300000Y-181600000D01*
X64100000Y-173100000D02*
X60400000Y-169400000D01*
X68200000Y-181500000D02*
X68200000Y-180000000D01*
X78500000Y-182400000D02*
X69100000Y-182400000D01*
X68300000Y-181600000D02*
X68200000Y-181500000D01*
%TO.N,Net-(U1-RUN)*%
X94500000Y-176200000D02*
X94500000Y-176500000D01*
X91900000Y-173600000D02*
X94500000Y-176200000D01*
%TO.N,/SWCLK*%
X96000000Y-179600000D02*
X96000000Y-182800000D01*
X96000000Y-184000000D02*
X96000000Y-186750000D01*
X91748000Y-175348000D02*
X94800000Y-178400000D01*
X94800000Y-178400000D02*
X96000000Y-179600000D01*
X91100000Y-175348000D02*
X91748000Y-175348000D01*
X96000000Y-182800000D02*
X96000000Y-184000000D01*
X96000000Y-186750000D02*
X95300000Y-187450000D01*
%TO.N,/QSPI_SCLK*%
X70700000Y-178889000D02*
X69500000Y-180089000D01*
X72750000Y-178889000D02*
X70700000Y-178889000D01*
%TO.N,/SWDIO*%
X70300000Y-189400000D02*
X69650000Y-188750000D01*
X90700000Y-174600000D02*
X90500000Y-174800000D01*
X90100000Y-189400000D02*
X70300000Y-189400000D01*
X91000000Y-176100000D02*
X92003612Y-176100000D01*
X92003612Y-176100000D02*
X95259406Y-179355794D01*
X90500000Y-174800000D02*
X90500000Y-175600000D01*
X95259406Y-184240594D02*
X90100000Y-189400000D01*
X95259406Y-179355794D02*
X95259406Y-184240594D01*
X91400000Y-174600000D02*
X90700000Y-174600000D01*
X69650000Y-188750000D02*
X69650000Y-188025000D01*
X90500000Y-175600000D02*
X91000000Y-176100000D01*
%TO.N,/SD3*%
X74750000Y-180000000D02*
X74000000Y-180750000D01*
X75500000Y-178250000D02*
X74750000Y-179000000D01*
X74750000Y-179000000D02*
X74750000Y-180000000D01*
%TD*%
%TA.AperFunction,Conductor*%
%TO.N,GND*%
G36*
X49492219Y-150520185D02*
G01*
X49537974Y-150572989D01*
X49547918Y-150642147D01*
X49518893Y-150705703D01*
X49498065Y-150724818D01*
X49351583Y-150831242D01*
X49351578Y-150831246D01*
X49191246Y-150991578D01*
X49191242Y-150991583D01*
X49057976Y-151175009D01*
X48955038Y-151377037D01*
X48884969Y-151592685D01*
X48849500Y-151816630D01*
X48849500Y-152043369D01*
X48884969Y-152267314D01*
X48955038Y-152482962D01*
X49057976Y-152684990D01*
X49191242Y-152868416D01*
X49191246Y-152868421D01*
X49351578Y-153028753D01*
X49351583Y-153028757D01*
X49535009Y-153162023D01*
X49535011Y-153162024D01*
X49535014Y-153162026D01*
X49737040Y-153264963D01*
X49952682Y-153335030D01*
X50176630Y-153370500D01*
X50176631Y-153370500D01*
X50403369Y-153370500D01*
X50403370Y-153370500D01*
X50627318Y-153335030D01*
X50842960Y-153264963D01*
X51044986Y-153162026D01*
X51228423Y-153028752D01*
X51388752Y-152868423D01*
X51522026Y-152684986D01*
X51624963Y-152482960D01*
X51695030Y-152267318D01*
X51730500Y-152043370D01*
X51730500Y-151816630D01*
X51695030Y-151592682D01*
X51624963Y-151377040D01*
X51522026Y-151175014D01*
X51522024Y-151175011D01*
X51522023Y-151175009D01*
X51388757Y-150991583D01*
X51388753Y-150991578D01*
X51228421Y-150831246D01*
X51228416Y-150831242D01*
X51081935Y-150724818D01*
X51039269Y-150669489D01*
X51033290Y-150599875D01*
X51065895Y-150538080D01*
X51126734Y-150503723D01*
X51154820Y-150500500D01*
X71472650Y-150500500D01*
X71539689Y-150520185D01*
X71585444Y-150572989D01*
X71595388Y-150642147D01*
X71575752Y-150693391D01*
X71490609Y-150820814D01*
X71490602Y-150820827D01*
X71430264Y-150966498D01*
X71430261Y-150966510D01*
X71399500Y-151121153D01*
X71399500Y-151278846D01*
X71430261Y-151433489D01*
X71430264Y-151433501D01*
X71490602Y-151579172D01*
X71490609Y-151579185D01*
X71578210Y-151710288D01*
X71578213Y-151710292D01*
X71689707Y-151821786D01*
X71689711Y-151821789D01*
X71820814Y-151909390D01*
X71820827Y-151909397D01*
X71966498Y-151969735D01*
X71966503Y-151969737D01*
X72121153Y-152000499D01*
X72121156Y-152000500D01*
X72121158Y-152000500D01*
X72278844Y-152000500D01*
X72278845Y-152000499D01*
X72433497Y-151969737D01*
X72579179Y-151909394D01*
X72579185Y-151909390D01*
X72710875Y-151821398D01*
X72777553Y-151800520D01*
X72779766Y-151800500D01*
X78999903Y-151800500D01*
X79066942Y-151820185D01*
X79087584Y-151836819D01*
X80915139Y-153664374D01*
X80915149Y-153664385D01*
X80919479Y-153668715D01*
X80919480Y-153668716D01*
X81031284Y-153780520D01*
X81031286Y-153780521D01*
X81031290Y-153780524D01*
X81168209Y-153859573D01*
X81168216Y-153859577D01*
X81275987Y-153888454D01*
X81320942Y-153900500D01*
X81320943Y-153900500D01*
X82720234Y-153900500D01*
X82787273Y-153920185D01*
X82789125Y-153921398D01*
X82920814Y-154009390D01*
X82920827Y-154009397D01*
X83066498Y-154069735D01*
X83066503Y-154069737D01*
X83221153Y-154100499D01*
X83221156Y-154100500D01*
X83221158Y-154100500D01*
X83378844Y-154100500D01*
X83378845Y-154100499D01*
X83533497Y-154069737D01*
X83679179Y-154009394D01*
X83810289Y-153921789D01*
X83921789Y-153810289D01*
X84009394Y-153679179D01*
X84069737Y-153533497D01*
X84100500Y-153378842D01*
X84100500Y-153221158D01*
X84100500Y-153221155D01*
X84100499Y-153221153D01*
X84069738Y-153066510D01*
X84069737Y-153066503D01*
X84029233Y-152968716D01*
X84009397Y-152920827D01*
X84009390Y-152920814D01*
X83921789Y-152789711D01*
X83921786Y-152789707D01*
X83810292Y-152678213D01*
X83810288Y-152678210D01*
X83679185Y-152590609D01*
X83679172Y-152590602D01*
X83533501Y-152530264D01*
X83533489Y-152530261D01*
X83378845Y-152499500D01*
X83378842Y-152499500D01*
X83221158Y-152499500D01*
X83221155Y-152499500D01*
X83066510Y-152530261D01*
X83066498Y-152530264D01*
X82920827Y-152590602D01*
X82920814Y-152590609D01*
X82789125Y-152678602D01*
X82722447Y-152699480D01*
X82720234Y-152699500D01*
X81700097Y-152699500D01*
X81633058Y-152679815D01*
X81612416Y-152663181D01*
X79787753Y-150838518D01*
X79780521Y-150831286D01*
X79780520Y-150831284D01*
X79668716Y-150719480D01*
X79667661Y-150718871D01*
X79661110Y-150712344D01*
X79648003Y-150688446D01*
X79631933Y-150666431D01*
X79631447Y-150658260D01*
X79627511Y-150651083D01*
X79629404Y-150623892D01*
X79627788Y-150596684D01*
X79631797Y-150589547D01*
X79632366Y-150581382D01*
X79648658Y-150559534D01*
X79662009Y-150535769D01*
X79669241Y-150531932D01*
X79674134Y-150525371D01*
X79699649Y-150515800D01*
X79723731Y-150503025D01*
X79737406Y-150501638D01*
X79739553Y-150500833D01*
X79741405Y-150501232D01*
X79748628Y-150500500D01*
X108934108Y-150500500D01*
X108993038Y-150500500D01*
X109006922Y-150501280D01*
X109017141Y-150502431D01*
X109097266Y-150511459D01*
X109124331Y-150517636D01*
X109203540Y-150545352D01*
X109228553Y-150557398D01*
X109299606Y-150602043D01*
X109321313Y-150619355D01*
X109380644Y-150678686D01*
X109397957Y-150700395D01*
X109442600Y-150771444D01*
X109454648Y-150796462D01*
X109482362Y-150875666D01*
X109488540Y-150902735D01*
X109498720Y-150993076D01*
X109499500Y-151006961D01*
X109499500Y-164437112D01*
X109479815Y-164504151D01*
X109427011Y-164549906D01*
X109357853Y-164559850D01*
X109302614Y-164537430D01*
X109155405Y-164430476D01*
X108980029Y-164341117D01*
X108792826Y-164280290D01*
X108598422Y-164249500D01*
X108598417Y-164249500D01*
X108401583Y-164249500D01*
X108401578Y-164249500D01*
X108207173Y-164280290D01*
X108019970Y-164341117D01*
X107844594Y-164430476D01*
X107753741Y-164496485D01*
X107685354Y-164546172D01*
X107685352Y-164546174D01*
X107685351Y-164546174D01*
X107546174Y-164685351D01*
X107546174Y-164685352D01*
X107546172Y-164685354D01*
X107511786Y-164732682D01*
X107430476Y-164844594D01*
X107341117Y-165019970D01*
X107280290Y-165207173D01*
X107249500Y-165401577D01*
X107249500Y-165598422D01*
X107280290Y-165792826D01*
X107341117Y-165980029D01*
X107386634Y-166069360D01*
X107430476Y-166155405D01*
X107546172Y-166314646D01*
X107685354Y-166453828D01*
X107844595Y-166569524D01*
X107913613Y-166604690D01*
X107981960Y-166639515D01*
X108032756Y-166687490D01*
X108049551Y-166755311D01*
X108027014Y-166821446D01*
X107981960Y-166860485D01*
X107844594Y-166930476D01*
X107753741Y-166996485D01*
X107685354Y-167046172D01*
X107685352Y-167046174D01*
X107685351Y-167046174D01*
X107546174Y-167185351D01*
X107546174Y-167185352D01*
X107546172Y-167185354D01*
X107500501Y-167248215D01*
X107430476Y-167344594D01*
X107341117Y-167519970D01*
X107280290Y-167707173D01*
X107249500Y-167901577D01*
X107249500Y-168098422D01*
X107280290Y-168292826D01*
X107341117Y-168480029D01*
X107417666Y-168630264D01*
X107430476Y-168655405D01*
X107546172Y-168814646D01*
X107685354Y-168953828D01*
X107844595Y-169069524D01*
X107870808Y-169082880D01*
X107981960Y-169139515D01*
X108032756Y-169187490D01*
X108049551Y-169255311D01*
X108027014Y-169321446D01*
X107981960Y-169360485D01*
X107844594Y-169430476D01*
X107786936Y-169472368D01*
X107685354Y-169546172D01*
X107685352Y-169546174D01*
X107685351Y-169546174D01*
X107546173Y-169685352D01*
X107453410Y-169813029D01*
X107398079Y-169855694D01*
X107328466Y-169861673D01*
X107266671Y-169829067D01*
X107232314Y-169768228D01*
X107230619Y-169720744D01*
X107250000Y-169598381D01*
X107250000Y-169401617D01*
X107219221Y-169207294D01*
X107158418Y-169020164D01*
X107069096Y-168844858D01*
X107043678Y-168809873D01*
X107043677Y-168809873D01*
X106353553Y-169499999D01*
X106353553Y-169500000D01*
X107043677Y-170190125D01*
X107046113Y-170186774D01*
X107101443Y-170144108D01*
X107171056Y-170138129D01*
X107232852Y-170170734D01*
X107267209Y-170231573D01*
X107268905Y-170279057D01*
X107249500Y-170401577D01*
X107249500Y-170598422D01*
X107280290Y-170792826D01*
X107341117Y-170980029D01*
X107391465Y-171078842D01*
X107430476Y-171155405D01*
X107546172Y-171314646D01*
X107685354Y-171453828D01*
X107844595Y-171569524D01*
X107885971Y-171590606D01*
X107981960Y-171639515D01*
X108032756Y-171687490D01*
X108049551Y-171755311D01*
X108027014Y-171821446D01*
X107981960Y-171860485D01*
X107844594Y-171930476D01*
X107800768Y-171962318D01*
X107685354Y-172046172D01*
X107685352Y-172046174D01*
X107685351Y-172046174D01*
X107546174Y-172185351D01*
X107546174Y-172185352D01*
X107546172Y-172185354D01*
X107520161Y-172221155D01*
X107430476Y-172344594D01*
X107341117Y-172519970D01*
X107280290Y-172707173D01*
X107249500Y-172901577D01*
X107249500Y-173098422D01*
X107280290Y-173292826D01*
X107341117Y-173480029D01*
X107407488Y-173610288D01*
X107430476Y-173655405D01*
X107546172Y-173814646D01*
X107685354Y-173953828D01*
X107844595Y-174069524D01*
X107885916Y-174090578D01*
X107981960Y-174139515D01*
X108032756Y-174187490D01*
X108049551Y-174255311D01*
X108027014Y-174321446D01*
X107981960Y-174360485D01*
X107844594Y-174430476D01*
X107753741Y-174496485D01*
X107685354Y-174546172D01*
X107685352Y-174546174D01*
X107685351Y-174546174D01*
X107546173Y-174685352D01*
X107453410Y-174813029D01*
X107398079Y-174855694D01*
X107328466Y-174861673D01*
X107266671Y-174829067D01*
X107232314Y-174768228D01*
X107230619Y-174720744D01*
X107250000Y-174598381D01*
X107250000Y-174401617D01*
X107219221Y-174207294D01*
X107158418Y-174020164D01*
X107069096Y-173844858D01*
X107043678Y-173809873D01*
X107043677Y-173809873D01*
X106353553Y-174499999D01*
X106353553Y-174500000D01*
X107043677Y-175190125D01*
X107046113Y-175186774D01*
X107101443Y-175144108D01*
X107171056Y-175138129D01*
X107232852Y-175170734D01*
X107267209Y-175231573D01*
X107268905Y-175279057D01*
X107249500Y-175401577D01*
X107249500Y-175598422D01*
X107280290Y-175792826D01*
X107341117Y-175980029D01*
X107412858Y-176120827D01*
X107430476Y-176155405D01*
X107546172Y-176314646D01*
X107685354Y-176453828D01*
X107844595Y-176569524D01*
X107913613Y-176604690D01*
X107981960Y-176639515D01*
X108032756Y-176687490D01*
X108049551Y-176755311D01*
X108027014Y-176821446D01*
X107981960Y-176860485D01*
X107844594Y-176930476D01*
X107773530Y-176982108D01*
X107685354Y-177046172D01*
X107685352Y-177046174D01*
X107685351Y-177046174D01*
X107546174Y-177185351D01*
X107546174Y-177185352D01*
X107546172Y-177185354D01*
X107535244Y-177200395D01*
X107430476Y-177344594D01*
X107341117Y-177519970D01*
X107280290Y-177707173D01*
X107249500Y-177901577D01*
X107249500Y-178098422D01*
X107280290Y-178292826D01*
X107341117Y-178480029D01*
X107387884Y-178571813D01*
X107430476Y-178655405D01*
X107546172Y-178814646D01*
X107685354Y-178953828D01*
X107844595Y-179069524D01*
X107882935Y-179089059D01*
X107981960Y-179139515D01*
X108032756Y-179187490D01*
X108049551Y-179255311D01*
X108027014Y-179321446D01*
X107981960Y-179360485D01*
X107844594Y-179430476D01*
X107763356Y-179489500D01*
X107685354Y-179546172D01*
X107685352Y-179546174D01*
X107685351Y-179546174D01*
X107546173Y-179685352D01*
X107453410Y-179813029D01*
X107398079Y-179855694D01*
X107328466Y-179861673D01*
X107266671Y-179829067D01*
X107232314Y-179768228D01*
X107230619Y-179720744D01*
X107250000Y-179598381D01*
X107250000Y-179401617D01*
X107219221Y-179207294D01*
X107158418Y-179020164D01*
X107069096Y-178844858D01*
X107043678Y-178809873D01*
X107043677Y-178809873D01*
X106353553Y-179499999D01*
X106353553Y-179500000D01*
X107043677Y-180190125D01*
X107046113Y-180186774D01*
X107101443Y-180144108D01*
X107171056Y-180138129D01*
X107232852Y-180170734D01*
X107267209Y-180231573D01*
X107268905Y-180279057D01*
X107249500Y-180401577D01*
X107249500Y-180598422D01*
X107280290Y-180792826D01*
X107341117Y-180980029D01*
X107417110Y-181129172D01*
X107430476Y-181155405D01*
X107546172Y-181314646D01*
X107685354Y-181453828D01*
X107844595Y-181569524D01*
X107903427Y-181599500D01*
X107981960Y-181639515D01*
X108032756Y-181687490D01*
X108049551Y-181755311D01*
X108027014Y-181821446D01*
X107981960Y-181860485D01*
X107844594Y-181930476D01*
X107753741Y-181996485D01*
X107685354Y-182046172D01*
X107685352Y-182046174D01*
X107685351Y-182046174D01*
X107546174Y-182185351D01*
X107546174Y-182185352D01*
X107546172Y-182185354D01*
X107500501Y-182248215D01*
X107430476Y-182344594D01*
X107341117Y-182519970D01*
X107280290Y-182707173D01*
X107249500Y-182901577D01*
X107249500Y-183098422D01*
X107280290Y-183292826D01*
X107341117Y-183480029D01*
X107365076Y-183527050D01*
X107430476Y-183655405D01*
X107546172Y-183814646D01*
X107685354Y-183953828D01*
X107844595Y-184069524D01*
X107883793Y-184089496D01*
X107981960Y-184139515D01*
X108032756Y-184187490D01*
X108049551Y-184255311D01*
X108027014Y-184321446D01*
X107981960Y-184360485D01*
X107844594Y-184430476D01*
X107785287Y-184473566D01*
X107685354Y-184546172D01*
X107685352Y-184546174D01*
X107685351Y-184546174D01*
X107546173Y-184685352D01*
X107453410Y-184813029D01*
X107398079Y-184855694D01*
X107328466Y-184861673D01*
X107266671Y-184829067D01*
X107232314Y-184768228D01*
X107230619Y-184720744D01*
X107250000Y-184598381D01*
X107250000Y-184401617D01*
X107219221Y-184207294D01*
X107158418Y-184020164D01*
X107069096Y-183844858D01*
X107043678Y-183809873D01*
X107043677Y-183809873D01*
X106353553Y-184499999D01*
X106353553Y-184500000D01*
X107043677Y-185190125D01*
X107046113Y-185186774D01*
X107101443Y-185144108D01*
X107171056Y-185138129D01*
X107232852Y-185170734D01*
X107267209Y-185231573D01*
X107268905Y-185279057D01*
X107249500Y-185401577D01*
X107249500Y-185598422D01*
X107280290Y-185792826D01*
X107341117Y-185980029D01*
X107410634Y-186116463D01*
X107430476Y-186155405D01*
X107546172Y-186314646D01*
X107685354Y-186453828D01*
X107800635Y-186537585D01*
X107844596Y-186569525D01*
X107982510Y-186639795D01*
X108033307Y-186687769D01*
X108050102Y-186755590D01*
X108027565Y-186821725D01*
X107982511Y-186860765D01*
X107844859Y-186930902D01*
X107809873Y-186956320D01*
X107809872Y-186956320D01*
X108500000Y-187646446D01*
X108500001Y-187646446D01*
X109190125Y-186956320D01*
X109190125Y-186956319D01*
X109155145Y-186930905D01*
X109017487Y-186860765D01*
X108966691Y-186812790D01*
X108949896Y-186744969D01*
X108972434Y-186678834D01*
X109017485Y-186639796D01*
X109155405Y-186569524D01*
X109302616Y-186462568D01*
X109368420Y-186439089D01*
X109436474Y-186454914D01*
X109485169Y-186505020D01*
X109499500Y-186562887D01*
X109499500Y-187302691D01*
X109479815Y-187369730D01*
X109463181Y-187390372D01*
X108850000Y-188003553D01*
X108850000Y-187953922D01*
X108826148Y-187864905D01*
X108780070Y-187785095D01*
X108714905Y-187719930D01*
X108635095Y-187673852D01*
X108546078Y-187650000D01*
X108453922Y-187650000D01*
X108364905Y-187673852D01*
X108285095Y-187719930D01*
X108219930Y-187785095D01*
X108173852Y-187864905D01*
X108150000Y-187953922D01*
X108150000Y-188046078D01*
X108173852Y-188135095D01*
X108219930Y-188214905D01*
X108285095Y-188280070D01*
X108364905Y-188326148D01*
X108453922Y-188350000D01*
X108503553Y-188350000D01*
X107809873Y-189043677D01*
X107809873Y-189043678D01*
X107844858Y-189069096D01*
X108020164Y-189158418D01*
X108207294Y-189219221D01*
X108401618Y-189250000D01*
X108598382Y-189250000D01*
X108792705Y-189219221D01*
X108979835Y-189158418D01*
X109155147Y-189069093D01*
X109294117Y-188968124D01*
X109312422Y-188961592D01*
X109328444Y-188950589D01*
X109344649Y-188950092D01*
X109359923Y-188944643D01*
X109378856Y-188949045D01*
X109398280Y-188948451D01*
X109412181Y-188956795D01*
X109427977Y-188960468D01*
X109441522Y-188974405D01*
X109458187Y-188984408D01*
X109465371Y-188998945D01*
X109476672Y-189010573D01*
X109480531Y-189029622D01*
X109489143Y-189047046D01*
X109490047Y-189076579D01*
X109490548Y-189079051D01*
X109490223Y-189082324D01*
X109488540Y-189097262D01*
X109482362Y-189124333D01*
X109454648Y-189203537D01*
X109442600Y-189228555D01*
X109397957Y-189299604D01*
X109380644Y-189321313D01*
X109321313Y-189380644D01*
X109299604Y-189397957D01*
X109228555Y-189442600D01*
X109203537Y-189454648D01*
X109124333Y-189482362D01*
X109097264Y-189488540D01*
X109025151Y-189496666D01*
X109006921Y-189498720D01*
X108993038Y-189499500D01*
X104506165Y-189499500D01*
X104439126Y-189479815D01*
X104393371Y-189427011D01*
X104383427Y-189357853D01*
X104412452Y-189294297D01*
X104447447Y-189266910D01*
X104447339Y-189266734D01*
X104448877Y-189265791D01*
X104449868Y-189265016D01*
X104451495Y-189264186D01*
X104474162Y-189247717D01*
X104474162Y-189247716D01*
X103903724Y-188677277D01*
X103996669Y-188652374D01*
X104095131Y-188595526D01*
X104175526Y-188515131D01*
X104232374Y-188416669D01*
X104257278Y-188323724D01*
X104827716Y-188894162D01*
X104827717Y-188894162D01*
X104844186Y-188871496D01*
X104928922Y-188705191D01*
X104986602Y-188527672D01*
X105015800Y-188343330D01*
X105015800Y-188156669D01*
X104986602Y-187972327D01*
X104986602Y-187972326D01*
X104974497Y-187935069D01*
X104963628Y-187901617D01*
X107250000Y-187901617D01*
X107250000Y-188098382D01*
X107280778Y-188292705D01*
X107341581Y-188479835D01*
X107430905Y-188655145D01*
X107456319Y-188690125D01*
X107456320Y-188690125D01*
X108146446Y-188000000D01*
X108146446Y-187999999D01*
X107456320Y-187309872D01*
X107456320Y-187309873D01*
X107430902Y-187344859D01*
X107430899Y-187344863D01*
X107341582Y-187520161D01*
X107280778Y-187707294D01*
X107250000Y-187901617D01*
X104963628Y-187901617D01*
X104928922Y-187794806D01*
X104844186Y-187628504D01*
X104827716Y-187605836D01*
X104827716Y-187605835D01*
X104257277Y-188176274D01*
X104232374Y-188083331D01*
X104175526Y-187984869D01*
X104095131Y-187904474D01*
X103996669Y-187847626D01*
X103903724Y-187822722D01*
X104474162Y-187252282D01*
X104451491Y-187235811D01*
X104285191Y-187151077D01*
X104107672Y-187093397D01*
X103923330Y-187064200D01*
X103736670Y-187064200D01*
X103552327Y-187093397D01*
X103374808Y-187151077D01*
X103208502Y-187235814D01*
X103185836Y-187252282D01*
X103185835Y-187252282D01*
X103756275Y-187822721D01*
X103663331Y-187847626D01*
X103564869Y-187904474D01*
X103484474Y-187984869D01*
X103427626Y-188083331D01*
X103402722Y-188176275D01*
X102832282Y-187605835D01*
X102832282Y-187605836D01*
X102815814Y-187628502D01*
X102731077Y-187794806D01*
X102678193Y-187957567D01*
X102638755Y-188015242D01*
X102574396Y-188042440D01*
X102505550Y-188030525D01*
X102454074Y-187983281D01*
X102442333Y-187957572D01*
X102389387Y-187794619D01*
X102304615Y-187628243D01*
X102194859Y-187477178D01*
X102062822Y-187345141D01*
X101911757Y-187235385D01*
X101745381Y-187150613D01*
X101567793Y-187092911D01*
X101567791Y-187092910D01*
X101567789Y-187092910D01*
X101438350Y-187072409D01*
X101383364Y-187063700D01*
X101196636Y-187063700D01*
X101098026Y-187079318D01*
X101085104Y-187081365D01*
X101015811Y-187072409D01*
X100962359Y-187027412D01*
X100941720Y-186960661D01*
X100960445Y-186893347D01*
X100963451Y-186888751D01*
X100969928Y-186879307D01*
X100980520Y-186868716D01*
X100998204Y-186838084D01*
X101000925Y-186834118D01*
X101003906Y-186831687D01*
X101015497Y-186816580D01*
X101121789Y-186710289D01*
X101209394Y-186579179D01*
X101269737Y-186433497D01*
X101300500Y-186278842D01*
X101300500Y-186121158D01*
X101300500Y-186121155D01*
X101300499Y-186121153D01*
X101277079Y-186003414D01*
X101269737Y-185966503D01*
X101226244Y-185861500D01*
X101209397Y-185820827D01*
X101209390Y-185820814D01*
X101121789Y-185689711D01*
X101121786Y-185689707D01*
X101010292Y-185578213D01*
X101010288Y-185578210D01*
X100958606Y-185543677D01*
X105309873Y-185543677D01*
X105309873Y-185543678D01*
X105344858Y-185569096D01*
X105520164Y-185658418D01*
X105707294Y-185719221D01*
X105901618Y-185750000D01*
X106098382Y-185750000D01*
X106292705Y-185719221D01*
X106479835Y-185658418D01*
X106655143Y-185569095D01*
X106690125Y-185543678D01*
X106690126Y-185543678D01*
X106000001Y-184853553D01*
X106000000Y-184853553D01*
X105309873Y-185543677D01*
X100958606Y-185543677D01*
X100879185Y-185490609D01*
X100879172Y-185490602D01*
X100733501Y-185430264D01*
X100733489Y-185430261D01*
X100578845Y-185399500D01*
X100578842Y-185399500D01*
X100421158Y-185399500D01*
X100421155Y-185399500D01*
X100266510Y-185430261D01*
X100266498Y-185430264D01*
X100120827Y-185490602D01*
X100120814Y-185490609D01*
X99989711Y-185578210D01*
X99989707Y-185578213D01*
X99878213Y-185689707D01*
X99878210Y-185689711D01*
X99790609Y-185820814D01*
X99790602Y-185820827D01*
X99730264Y-185966498D01*
X99730261Y-185966510D01*
X99699500Y-186121153D01*
X99699500Y-186121158D01*
X99699500Y-186278842D01*
X99699501Y-186278846D01*
X99715176Y-186357652D01*
X99708947Y-186427243D01*
X99681239Y-186469523D01*
X99098417Y-187052345D01*
X99037094Y-187085830D01*
X98991338Y-187087137D01*
X98843364Y-187063700D01*
X98656636Y-187063700D01*
X98632543Y-187067516D01*
X98472210Y-187092910D01*
X98472207Y-187092911D01*
X98311239Y-187145213D01*
X98294616Y-187150614D01*
X98128242Y-187235385D01*
X97977176Y-187345142D01*
X97845142Y-187477176D01*
X97735385Y-187628242D01*
X97650614Y-187794616D01*
X97592910Y-187972210D01*
X97563700Y-188156636D01*
X97563700Y-188343363D01*
X97592891Y-188527672D01*
X97592911Y-188527793D01*
X97650613Y-188705381D01*
X97735385Y-188871757D01*
X97845141Y-189022822D01*
X97977178Y-189154859D01*
X98128243Y-189264615D01*
X98128245Y-189264616D01*
X98129031Y-189265017D01*
X98129276Y-189265249D01*
X98132395Y-189267160D01*
X98131993Y-189267815D01*
X98179825Y-189312992D01*
X98196619Y-189380814D01*
X98174080Y-189446948D01*
X98119364Y-189490398D01*
X98072733Y-189499500D01*
X91149097Y-189499500D01*
X91082058Y-189479815D01*
X91036303Y-189427011D01*
X91026359Y-189357853D01*
X91055384Y-189294297D01*
X91061416Y-189287819D01*
X95187819Y-185161416D01*
X95249142Y-185127931D01*
X95318834Y-185132915D01*
X95374767Y-185174787D01*
X95399184Y-185240251D01*
X95399500Y-185249097D01*
X95399500Y-186449903D01*
X95390855Y-186479340D01*
X95384332Y-186509331D01*
X95380576Y-186514347D01*
X95379815Y-186516942D01*
X95363185Y-186537579D01*
X95321593Y-186579172D01*
X95285339Y-186615426D01*
X95224015Y-186648910D01*
X95221850Y-186649361D01*
X95066508Y-186680261D01*
X95066498Y-186680264D01*
X94920827Y-186740602D01*
X94920814Y-186740609D01*
X94789711Y-186828210D01*
X94789707Y-186828213D01*
X94678213Y-186939707D01*
X94678210Y-186939711D01*
X94590609Y-187070814D01*
X94590602Y-187070827D01*
X94530264Y-187216498D01*
X94530261Y-187216510D01*
X94499500Y-187371153D01*
X94499500Y-187528846D01*
X94530261Y-187683489D01*
X94530264Y-187683501D01*
X94590602Y-187829172D01*
X94590609Y-187829185D01*
X94678210Y-187960288D01*
X94678213Y-187960292D01*
X94789707Y-188071786D01*
X94789711Y-188071789D01*
X94920814Y-188159390D01*
X94920827Y-188159397D01*
X95066498Y-188219735D01*
X95066503Y-188219737D01*
X95218639Y-188249999D01*
X95221153Y-188250499D01*
X95221156Y-188250500D01*
X95221158Y-188250500D01*
X95378844Y-188250500D01*
X95378845Y-188250499D01*
X95533497Y-188219737D01*
X95679179Y-188159394D01*
X95810289Y-188071789D01*
X95921789Y-187960289D01*
X96009394Y-187829179D01*
X96069737Y-187683497D01*
X96089113Y-187586085D01*
X96100638Y-187528150D01*
X96133023Y-187466239D01*
X96134525Y-187464709D01*
X96358506Y-187240727D01*
X96358511Y-187240724D01*
X96368714Y-187230520D01*
X96368716Y-187230520D01*
X96480520Y-187118716D01*
X96559577Y-186981784D01*
X96591119Y-186864069D01*
X96600500Y-186829058D01*
X96600500Y-186670943D01*
X96600500Y-184401617D01*
X104750000Y-184401617D01*
X104750000Y-184598382D01*
X104780778Y-184792705D01*
X104841581Y-184979835D01*
X104930905Y-185155145D01*
X104956319Y-185190125D01*
X104956320Y-185190125D01*
X105646446Y-184500000D01*
X105646446Y-184499999D01*
X105600369Y-184453922D01*
X105650000Y-184453922D01*
X105650000Y-184546078D01*
X105673852Y-184635095D01*
X105719930Y-184714905D01*
X105785095Y-184780070D01*
X105864905Y-184826148D01*
X105953922Y-184850000D01*
X106046078Y-184850000D01*
X106135095Y-184826148D01*
X106214905Y-184780070D01*
X106280070Y-184714905D01*
X106326148Y-184635095D01*
X106350000Y-184546078D01*
X106350000Y-184453922D01*
X106326148Y-184364905D01*
X106280070Y-184285095D01*
X106214905Y-184219930D01*
X106135095Y-184173852D01*
X106046078Y-184150000D01*
X105953922Y-184150000D01*
X105864905Y-184173852D01*
X105785095Y-184219930D01*
X105719930Y-184285095D01*
X105673852Y-184364905D01*
X105650000Y-184453922D01*
X105600369Y-184453922D01*
X104956320Y-183809872D01*
X104956320Y-183809873D01*
X104930902Y-183844859D01*
X104930899Y-183844863D01*
X104841582Y-184020161D01*
X104780778Y-184207294D01*
X104750000Y-184401617D01*
X96600500Y-184401617D01*
X96600500Y-183920943D01*
X96600500Y-183456320D01*
X105309872Y-183456320D01*
X106000000Y-184146446D01*
X106000001Y-184146446D01*
X106690125Y-183456320D01*
X106690125Y-183456319D01*
X106655145Y-183430905D01*
X106479835Y-183341581D01*
X106292705Y-183280778D01*
X106098382Y-183250000D01*
X105901618Y-183250000D01*
X105707294Y-183280778D01*
X105520161Y-183341582D01*
X105344863Y-183430899D01*
X105344859Y-183430902D01*
X105309873Y-183456320D01*
X105309872Y-183456320D01*
X96600500Y-183456320D01*
X96600500Y-182720943D01*
X96600500Y-180543677D01*
X105309873Y-180543677D01*
X105309873Y-180543678D01*
X105344858Y-180569096D01*
X105520164Y-180658418D01*
X105707294Y-180719221D01*
X105901618Y-180750000D01*
X106098382Y-180750000D01*
X106292705Y-180719221D01*
X106479835Y-180658418D01*
X106655143Y-180569095D01*
X106690125Y-180543678D01*
X106690126Y-180543678D01*
X106000001Y-179853553D01*
X106000000Y-179853553D01*
X105309873Y-180543677D01*
X96600500Y-180543677D01*
X96600500Y-179520943D01*
X96600109Y-179519481D01*
X96568527Y-179401617D01*
X104750000Y-179401617D01*
X104750000Y-179598382D01*
X104780778Y-179792705D01*
X104841581Y-179979835D01*
X104930905Y-180155145D01*
X104956319Y-180190125D01*
X104956320Y-180190125D01*
X105646446Y-179500000D01*
X105646446Y-179499999D01*
X105600369Y-179453922D01*
X105650000Y-179453922D01*
X105650000Y-179546078D01*
X105673852Y-179635095D01*
X105719930Y-179714905D01*
X105785095Y-179780070D01*
X105864905Y-179826148D01*
X105953922Y-179850000D01*
X106046078Y-179850000D01*
X106135095Y-179826148D01*
X106214905Y-179780070D01*
X106280070Y-179714905D01*
X106326148Y-179635095D01*
X106350000Y-179546078D01*
X106350000Y-179453922D01*
X106326148Y-179364905D01*
X106280070Y-179285095D01*
X106214905Y-179219930D01*
X106135095Y-179173852D01*
X106046078Y-179150000D01*
X105953922Y-179150000D01*
X105864905Y-179173852D01*
X105785095Y-179219930D01*
X105719930Y-179285095D01*
X105673852Y-179364905D01*
X105650000Y-179453922D01*
X105600369Y-179453922D01*
X104956320Y-178809872D01*
X104956320Y-178809873D01*
X104930902Y-178844859D01*
X104930899Y-178844863D01*
X104841582Y-179020161D01*
X104780778Y-179207294D01*
X104750000Y-179401617D01*
X96568527Y-179401617D01*
X96559577Y-179368215D01*
X96522311Y-179303669D01*
X96485940Y-179240671D01*
X96480522Y-179231287D01*
X96480521Y-179231286D01*
X96480520Y-179231284D01*
X96368716Y-179119480D01*
X96368715Y-179119479D01*
X96364385Y-179115149D01*
X96364374Y-179115139D01*
X95705555Y-178456320D01*
X105309872Y-178456320D01*
X106000000Y-179146446D01*
X106000001Y-179146446D01*
X106690125Y-178456320D01*
X106690125Y-178456319D01*
X106655145Y-178430905D01*
X106479835Y-178341581D01*
X106292705Y-178280778D01*
X106098382Y-178250000D01*
X105901618Y-178250000D01*
X105707294Y-178280778D01*
X105520161Y-178341582D01*
X105344863Y-178430899D01*
X105344859Y-178430902D01*
X105309873Y-178456320D01*
X105309872Y-178456320D01*
X95705555Y-178456320D01*
X95287590Y-178038355D01*
X95287588Y-178038352D01*
X94713029Y-177463793D01*
X94679544Y-177402470D01*
X94684528Y-177332778D01*
X94726400Y-177276845D01*
X94753250Y-177261555D01*
X94879179Y-177209394D01*
X95010289Y-177121789D01*
X95121789Y-177010289D01*
X95209394Y-176879179D01*
X95213489Y-176869294D01*
X95233308Y-176821446D01*
X95269737Y-176733497D01*
X95300500Y-176578842D01*
X95300500Y-176421158D01*
X95300500Y-176421155D01*
X95300499Y-176421153D01*
X95283061Y-176333489D01*
X95269737Y-176266503D01*
X95251215Y-176221786D01*
X95209397Y-176120827D01*
X95209390Y-176120814D01*
X95121789Y-175989711D01*
X95121786Y-175989707D01*
X95015500Y-175883421D01*
X95010923Y-175878592D01*
X95002269Y-175868956D01*
X94980520Y-175831284D01*
X94868716Y-175719480D01*
X94868713Y-175719478D01*
X94692912Y-175543677D01*
X105309873Y-175543677D01*
X105309873Y-175543678D01*
X105344858Y-175569096D01*
X105520164Y-175658418D01*
X105707294Y-175719221D01*
X105901618Y-175750000D01*
X106098382Y-175750000D01*
X106292705Y-175719221D01*
X106479835Y-175658418D01*
X106655143Y-175569095D01*
X106690125Y-175543678D01*
X106690126Y-175543678D01*
X106000001Y-174853553D01*
X106000000Y-174853553D01*
X105309873Y-175543677D01*
X94692912Y-175543677D01*
X93550852Y-174401617D01*
X104750000Y-174401617D01*
X104750000Y-174598382D01*
X104780778Y-174792705D01*
X104841581Y-174979835D01*
X104930905Y-175155145D01*
X104956319Y-175190125D01*
X104956320Y-175190125D01*
X105646446Y-174500000D01*
X105646446Y-174499999D01*
X105600369Y-174453922D01*
X105650000Y-174453922D01*
X105650000Y-174546078D01*
X105673852Y-174635095D01*
X105719930Y-174714905D01*
X105785095Y-174780070D01*
X105864905Y-174826148D01*
X105953922Y-174850000D01*
X106046078Y-174850000D01*
X106135095Y-174826148D01*
X106214905Y-174780070D01*
X106280070Y-174714905D01*
X106326148Y-174635095D01*
X106350000Y-174546078D01*
X106350000Y-174453922D01*
X106326148Y-174364905D01*
X106280070Y-174285095D01*
X106214905Y-174219930D01*
X106135095Y-174173852D01*
X106046078Y-174150000D01*
X105953922Y-174150000D01*
X105864905Y-174173852D01*
X105785095Y-174219930D01*
X105719930Y-174285095D01*
X105673852Y-174364905D01*
X105650000Y-174453922D01*
X105600369Y-174453922D01*
X104956320Y-173809872D01*
X104956320Y-173809873D01*
X104930902Y-173844859D01*
X104930899Y-173844863D01*
X104841582Y-174020161D01*
X104780778Y-174207294D01*
X104750000Y-174401617D01*
X93550852Y-174401617D01*
X92734574Y-173585339D01*
X92701089Y-173524016D01*
X92700638Y-173521849D01*
X92687603Y-173456320D01*
X105309872Y-173456320D01*
X106000000Y-174146446D01*
X106000001Y-174146446D01*
X106690125Y-173456320D01*
X106690125Y-173456319D01*
X106655145Y-173430905D01*
X106479835Y-173341581D01*
X106292705Y-173280778D01*
X106098382Y-173250000D01*
X105901618Y-173250000D01*
X105707294Y-173280778D01*
X105520161Y-173341582D01*
X105344863Y-173430899D01*
X105344859Y-173430902D01*
X105309873Y-173456320D01*
X105309872Y-173456320D01*
X92687603Y-173456320D01*
X92680540Y-173420814D01*
X92669737Y-173366503D01*
X92669735Y-173366498D01*
X92609397Y-173220827D01*
X92609390Y-173220814D01*
X92521789Y-173089711D01*
X92521786Y-173089707D01*
X92410292Y-172978213D01*
X92410288Y-172978210D01*
X92279185Y-172890609D01*
X92279172Y-172890602D01*
X92133501Y-172830264D01*
X92133489Y-172830261D01*
X91978845Y-172799500D01*
X91978842Y-172799500D01*
X91821158Y-172799500D01*
X91821155Y-172799500D01*
X91666510Y-172830261D01*
X91666498Y-172830264D01*
X91520827Y-172890602D01*
X91520814Y-172890609D01*
X91389711Y-172978210D01*
X91389707Y-172978213D01*
X91278213Y-173089707D01*
X91278210Y-173089711D01*
X91190609Y-173220814D01*
X91190602Y-173220827D01*
X91130264Y-173366498D01*
X91130261Y-173366510D01*
X91099500Y-173521153D01*
X91099500Y-173678846D01*
X91112573Y-173744568D01*
X91106346Y-173814159D01*
X91063483Y-173869337D01*
X91056693Y-173873900D01*
X91047938Y-173879373D01*
X91020821Y-173890606D01*
X90889711Y-173978211D01*
X90889466Y-173978455D01*
X90885971Y-173980641D01*
X90854066Y-173989579D01*
X90822447Y-173999480D01*
X90820234Y-173999500D01*
X90786670Y-173999500D01*
X90786654Y-173999499D01*
X90779058Y-173999499D01*
X90620943Y-173999499D01*
X90544579Y-174019961D01*
X90468214Y-174040423D01*
X90468209Y-174040426D01*
X90331290Y-174119475D01*
X90331282Y-174119481D01*
X90019479Y-174431284D01*
X90008963Y-174449500D01*
X89993421Y-174476420D01*
X89974382Y-174509397D01*
X89945253Y-174559850D01*
X89940423Y-174568215D01*
X89899499Y-174720943D01*
X89899499Y-174720945D01*
X89899499Y-174889046D01*
X89899500Y-174889059D01*
X89899500Y-175513330D01*
X89899499Y-175513348D01*
X89899499Y-175679054D01*
X89899498Y-175679054D01*
X89899499Y-175679057D01*
X89940423Y-175831785D01*
X89960468Y-175866503D01*
X90019480Y-175968716D01*
X90131284Y-176080520D01*
X90131285Y-176080521D01*
X90631284Y-176580520D01*
X90631286Y-176580521D01*
X90631290Y-176580524D01*
X90733467Y-176639515D01*
X90768216Y-176659577D01*
X90920943Y-176700501D01*
X90920945Y-176700501D01*
X91086654Y-176700501D01*
X91086670Y-176700500D01*
X91703515Y-176700500D01*
X91770554Y-176720185D01*
X91791196Y-176736819D01*
X94622587Y-179568210D01*
X94656072Y-179629533D01*
X94658906Y-179655891D01*
X94658906Y-183940496D01*
X94639221Y-184007535D01*
X94622587Y-184028177D01*
X93734504Y-184916259D01*
X93673181Y-184949744D01*
X93603489Y-184944760D01*
X93547556Y-184902888D01*
X93532263Y-184876033D01*
X93509394Y-184820821D01*
X93509392Y-184820818D01*
X93509390Y-184820814D01*
X93421789Y-184689711D01*
X93421786Y-184689707D01*
X93310292Y-184578213D01*
X93310288Y-184578210D01*
X93179185Y-184490609D01*
X93179172Y-184490602D01*
X93033501Y-184430264D01*
X93033489Y-184430261D01*
X92878845Y-184399500D01*
X92878842Y-184399500D01*
X92721158Y-184399500D01*
X92721155Y-184399500D01*
X92566510Y-184430261D01*
X92566498Y-184430264D01*
X92420827Y-184490602D01*
X92420814Y-184490609D01*
X92289711Y-184578210D01*
X92289707Y-184578213D01*
X92178213Y-184689707D01*
X92178207Y-184689715D01*
X92090607Y-184820818D01*
X92090606Y-184820819D01*
X92080805Y-184844480D01*
X92053927Y-184884703D01*
X90989451Y-185949181D01*
X90928128Y-185982666D01*
X90901770Y-185985500D01*
X86224500Y-185985500D01*
X86157461Y-185965815D01*
X86111706Y-185913011D01*
X86100500Y-185861500D01*
X86100500Y-182121153D01*
X86599500Y-182121153D01*
X86599500Y-182278846D01*
X86630261Y-182433489D01*
X86630264Y-182433501D01*
X86690602Y-182579172D01*
X86690609Y-182579185D01*
X86778210Y-182710288D01*
X86778213Y-182710292D01*
X86889707Y-182821786D01*
X86889711Y-182821789D01*
X87020814Y-182909390D01*
X87020827Y-182909397D01*
X87117646Y-182949500D01*
X87166503Y-182969737D01*
X87321153Y-183000499D01*
X87321156Y-183000500D01*
X87321158Y-183000500D01*
X87478844Y-183000500D01*
X87478845Y-183000499D01*
X87633497Y-182969737D01*
X87779179Y-182909394D01*
X87910289Y-182821789D01*
X88021789Y-182710289D01*
X88109394Y-182579179D01*
X88169737Y-182433497D01*
X88200500Y-182278842D01*
X88200500Y-182121158D01*
X88200500Y-182121155D01*
X88200499Y-182121153D01*
X88186327Y-182049906D01*
X88169737Y-181966503D01*
X88148444Y-181915096D01*
X88140975Y-181845627D01*
X88172250Y-181783148D01*
X88215553Y-181753083D01*
X88249582Y-181738988D01*
X88249585Y-181738986D01*
X88249588Y-181738985D01*
X88380698Y-181651380D01*
X88492198Y-181539880D01*
X88579803Y-181408770D01*
X88640146Y-181263088D01*
X88670909Y-181108433D01*
X88670909Y-180950749D01*
X88670909Y-180950746D01*
X88670908Y-180950744D01*
X88658726Y-180889500D01*
X88640146Y-180796094D01*
X88627126Y-180764660D01*
X88579806Y-180650418D01*
X88579799Y-180650405D01*
X88492198Y-180519302D01*
X88492195Y-180519298D01*
X88380701Y-180407804D01*
X88380697Y-180407801D01*
X88249594Y-180320200D01*
X88249581Y-180320193D01*
X88103910Y-180259855D01*
X88103898Y-180259852D01*
X87949254Y-180229091D01*
X87949251Y-180229091D01*
X87791567Y-180229091D01*
X87791564Y-180229091D01*
X87636919Y-180259852D01*
X87636907Y-180259855D01*
X87491236Y-180320193D01*
X87491223Y-180320200D01*
X87360120Y-180407801D01*
X87360116Y-180407804D01*
X87248622Y-180519298D01*
X87248619Y-180519302D01*
X87161018Y-180650405D01*
X87161011Y-180650418D01*
X87100673Y-180796089D01*
X87100670Y-180796099D01*
X87069771Y-180951438D01*
X87061007Y-180968191D01*
X87056989Y-180986668D01*
X87038243Y-181011709D01*
X87037386Y-181013349D01*
X87035839Y-181014923D01*
X87024224Y-181026538D01*
X87024212Y-181026552D01*
X86919478Y-181131286D01*
X86874183Y-181209742D01*
X86874182Y-181209743D01*
X86848918Y-181253501D01*
X86840423Y-181268215D01*
X86799499Y-181420943D01*
X86799499Y-181420945D01*
X86799499Y-181589046D01*
X86799500Y-181589059D01*
X86799500Y-181620234D01*
X86779815Y-181687273D01*
X86778602Y-181689125D01*
X86690609Y-181820814D01*
X86690602Y-181820827D01*
X86630264Y-181966498D01*
X86630261Y-181966510D01*
X86599500Y-182121153D01*
X86100500Y-182121153D01*
X86100500Y-181599765D01*
X86120185Y-181532726D01*
X86121398Y-181530874D01*
X86209390Y-181399185D01*
X86209390Y-181399184D01*
X86209394Y-181399179D01*
X86269737Y-181253497D01*
X86300500Y-181098842D01*
X86300500Y-180941158D01*
X86300500Y-180941155D01*
X86300499Y-180941153D01*
X86269737Y-180786503D01*
X86269735Y-180786498D01*
X86209397Y-180640827D01*
X86209390Y-180640814D01*
X86121789Y-180509711D01*
X86121786Y-180509707D01*
X86010292Y-180398213D01*
X86010288Y-180398210D01*
X85879185Y-180310609D01*
X85879172Y-180310602D01*
X85733501Y-180250264D01*
X85733489Y-180250261D01*
X85578845Y-180219500D01*
X85578842Y-180219500D01*
X85421158Y-180219500D01*
X85421155Y-180219500D01*
X85266510Y-180250261D01*
X85266498Y-180250264D01*
X85120827Y-180310602D01*
X85120814Y-180310609D01*
X84989711Y-180398210D01*
X84989707Y-180398213D01*
X84878213Y-180509707D01*
X84878210Y-180509711D01*
X84790609Y-180640814D01*
X84790602Y-180640827D01*
X84730264Y-180786498D01*
X84730261Y-180786510D01*
X84699500Y-180941153D01*
X84699500Y-181098846D01*
X84730261Y-181253489D01*
X84730264Y-181253501D01*
X84790602Y-181399172D01*
X84790609Y-181399185D01*
X84878602Y-181530874D01*
X84899480Y-181597551D01*
X84899500Y-181599765D01*
X84899500Y-185861500D01*
X84879815Y-185928539D01*
X84827011Y-185974294D01*
X84775500Y-185985500D01*
X83778048Y-185985500D01*
X83711009Y-185965815D01*
X83665254Y-185913011D01*
X83655310Y-185843853D01*
X83660114Y-185823190D01*
X83667246Y-185801243D01*
X83700500Y-185591287D01*
X83700500Y-185378713D01*
X83667246Y-185168757D01*
X83601557Y-184966588D01*
X83505051Y-184777184D01*
X83505049Y-184777181D01*
X83505048Y-184777179D01*
X83380109Y-184605213D01*
X83229786Y-184454890D01*
X83057820Y-184329951D01*
X82868414Y-184233444D01*
X82868413Y-184233443D01*
X82868412Y-184233443D01*
X82666243Y-184167754D01*
X82666241Y-184167753D01*
X82666240Y-184167753D01*
X82487950Y-184139515D01*
X82456287Y-184134500D01*
X82243713Y-184134500D01*
X82212050Y-184139515D01*
X82033760Y-184167753D01*
X81831585Y-184233444D01*
X81642179Y-184329951D01*
X81470213Y-184454890D01*
X81319890Y-184605213D01*
X81194949Y-184777182D01*
X81190484Y-184785946D01*
X81142509Y-184836742D01*
X81074688Y-184853536D01*
X81008553Y-184830998D01*
X80969516Y-184785946D01*
X80965050Y-184777182D01*
X80840109Y-184605213D01*
X80689794Y-184454898D01*
X80689788Y-184454893D01*
X80611615Y-184398097D01*
X80568949Y-184342767D01*
X80560500Y-184297779D01*
X80560500Y-184036081D01*
X80554763Y-184007242D01*
X80554763Y-184007240D01*
X80531660Y-183891095D01*
X80531659Y-183891088D01*
X80483125Y-183773918D01*
X80475084Y-183754505D01*
X80392951Y-183631584D01*
X80288416Y-183527049D01*
X80192266Y-183430899D01*
X79878421Y-183117052D01*
X79878414Y-183117046D01*
X79778818Y-183050499D01*
X79778817Y-183050499D01*
X79755495Y-183034916D01*
X79755488Y-183034912D01*
X79618917Y-182978343D01*
X79618907Y-182978340D01*
X79473920Y-182949500D01*
X79473918Y-182949500D01*
X79324424Y-182949500D01*
X79257385Y-182929815D01*
X79211630Y-182877011D01*
X79201686Y-182807853D01*
X79209863Y-182778048D01*
X79246151Y-182690437D01*
X79269737Y-182633497D01*
X79300500Y-182478842D01*
X79300500Y-182321158D01*
X79300500Y-182321155D01*
X79300499Y-182321153D01*
X79269737Y-182166503D01*
X79250955Y-182121158D01*
X79209397Y-182020827D01*
X79209390Y-182020814D01*
X79121789Y-181889711D01*
X79121786Y-181889707D01*
X79010292Y-181778213D01*
X79010288Y-181778210D01*
X78879185Y-181690609D01*
X78879172Y-181690602D01*
X78733501Y-181630264D01*
X78733489Y-181630261D01*
X78578845Y-181599500D01*
X78578842Y-181599500D01*
X78421158Y-181599500D01*
X78421155Y-181599500D01*
X78266510Y-181630261D01*
X78266498Y-181630264D01*
X78120827Y-181690602D01*
X78120814Y-181690609D01*
X77989125Y-181778602D01*
X77922447Y-181799480D01*
X77920234Y-181799500D01*
X69400097Y-181799500D01*
X69333058Y-181779815D01*
X69312416Y-181763181D01*
X68836819Y-181287584D01*
X68803334Y-181226261D01*
X68800500Y-181199903D01*
X68800500Y-180816350D01*
X68820185Y-180749311D01*
X68872989Y-180703556D01*
X68942147Y-180693612D01*
X68993391Y-180713248D01*
X69120814Y-180798390D01*
X69120827Y-180798397D01*
X69266498Y-180858735D01*
X69266503Y-180858737D01*
X69421153Y-180889499D01*
X69421156Y-180889500D01*
X69421158Y-180889500D01*
X69578844Y-180889500D01*
X69578845Y-180889499D01*
X69733497Y-180858737D01*
X69879179Y-180798394D01*
X70010289Y-180710789D01*
X70049925Y-180671153D01*
X73199500Y-180671153D01*
X73199500Y-180828846D01*
X73230261Y-180983489D01*
X73230264Y-180983501D01*
X73290602Y-181129172D01*
X73290609Y-181129185D01*
X73378210Y-181260288D01*
X73378213Y-181260292D01*
X73489707Y-181371786D01*
X73489711Y-181371789D01*
X73620814Y-181459390D01*
X73620827Y-181459397D01*
X73766498Y-181519735D01*
X73766503Y-181519737D01*
X73921153Y-181550499D01*
X73921156Y-181550500D01*
X73921158Y-181550500D01*
X74078844Y-181550500D01*
X74078845Y-181550499D01*
X74233497Y-181519737D01*
X74379179Y-181459394D01*
X74510289Y-181371789D01*
X74621789Y-181260289D01*
X74709394Y-181129179D01*
X74769737Y-180983497D01*
X74794553Y-180858738D01*
X74800638Y-180828150D01*
X74833023Y-180766239D01*
X74834524Y-180764710D01*
X75108506Y-180490727D01*
X75108511Y-180490724D01*
X75118714Y-180480520D01*
X75118716Y-180480520D01*
X75230520Y-180368716D01*
X75297953Y-180251918D01*
X75309577Y-180231785D01*
X75350500Y-180079057D01*
X75350500Y-179920943D01*
X75350500Y-179300097D01*
X75359145Y-179270653D01*
X75365668Y-179240671D01*
X75369422Y-179235655D01*
X75370185Y-179233058D01*
X75386813Y-179212421D01*
X75514663Y-179084571D01*
X75575982Y-179051089D01*
X75578150Y-179050638D01*
X75636085Y-179039113D01*
X75733497Y-179019737D01*
X75879179Y-178959394D01*
X76010289Y-178871789D01*
X76121789Y-178760289D01*
X76209394Y-178629179D01*
X76269737Y-178483497D01*
X76300500Y-178328842D01*
X76300500Y-178171158D01*
X76300500Y-178171155D01*
X76300499Y-178171153D01*
X76290486Y-178120814D01*
X76269737Y-178016503D01*
X76269735Y-178016498D01*
X76209397Y-177870827D01*
X76209390Y-177870814D01*
X76121789Y-177739711D01*
X76121786Y-177739707D01*
X76010292Y-177628213D01*
X76010288Y-177628210D01*
X75879185Y-177540609D01*
X75879172Y-177540602D01*
X75733501Y-177480264D01*
X75733489Y-177480261D01*
X75578845Y-177449500D01*
X75578842Y-177449500D01*
X75421158Y-177449500D01*
X75421155Y-177449500D01*
X75266510Y-177480261D01*
X75266498Y-177480264D01*
X75120827Y-177540602D01*
X75120814Y-177540609D01*
X74989711Y-177628210D01*
X74989707Y-177628213D01*
X74878213Y-177739707D01*
X74878210Y-177739711D01*
X74790609Y-177870814D01*
X74790602Y-177870827D01*
X74730264Y-178016498D01*
X74730261Y-178016508D01*
X74699361Y-178171850D01*
X74666976Y-178233761D01*
X74665425Y-178235339D01*
X74269481Y-178631282D01*
X74269480Y-178631284D01*
X74235058Y-178690905D01*
X74190423Y-178768215D01*
X74149499Y-178920943D01*
X74149499Y-178920945D01*
X74149499Y-179089046D01*
X74149500Y-179089059D01*
X74149500Y-179699903D01*
X74140855Y-179729343D01*
X74134332Y-179759330D01*
X74130577Y-179764345D01*
X74129815Y-179766942D01*
X74113185Y-179787579D01*
X74047212Y-179853553D01*
X73985339Y-179915426D01*
X73924016Y-179948910D01*
X73921850Y-179949361D01*
X73766508Y-179980261D01*
X73766498Y-179980264D01*
X73620827Y-180040602D01*
X73620814Y-180040609D01*
X73489711Y-180128210D01*
X73489707Y-180128213D01*
X73378213Y-180239707D01*
X73378210Y-180239711D01*
X73290609Y-180370814D01*
X73290602Y-180370827D01*
X73230264Y-180516498D01*
X73230261Y-180516510D01*
X73199500Y-180671153D01*
X70049925Y-180671153D01*
X70121789Y-180599289D01*
X70122372Y-180598417D01*
X70123870Y-180596176D01*
X70123870Y-180596175D01*
X70209390Y-180468185D01*
X70209390Y-180468184D01*
X70209394Y-180468179D01*
X70269737Y-180322497D01*
X70300500Y-180167842D01*
X70300638Y-180167150D01*
X70333023Y-180105239D01*
X70334518Y-180103716D01*
X70912416Y-179525819D01*
X70973739Y-179492334D01*
X71000097Y-179489500D01*
X72170234Y-179489500D01*
X72237273Y-179509185D01*
X72239125Y-179510398D01*
X72370814Y-179598390D01*
X72370827Y-179598397D01*
X72509632Y-179655891D01*
X72516503Y-179658737D01*
X72650305Y-179685352D01*
X72671153Y-179689499D01*
X72671156Y-179689500D01*
X72671158Y-179689500D01*
X72828844Y-179689500D01*
X72828845Y-179689499D01*
X72983497Y-179658737D01*
X73129179Y-179598394D01*
X73260289Y-179510789D01*
X73371789Y-179399289D01*
X73459394Y-179268179D01*
X73519737Y-179122497D01*
X73550500Y-178967842D01*
X73550500Y-178810158D01*
X73550500Y-178810155D01*
X73550499Y-178810153D01*
X73542157Y-178768215D01*
X73519737Y-178655503D01*
X73509705Y-178631284D01*
X73459397Y-178509827D01*
X73459390Y-178509814D01*
X73371789Y-178378711D01*
X73371786Y-178378707D01*
X73260292Y-178267213D01*
X73260288Y-178267210D01*
X73129185Y-178179609D01*
X73129172Y-178179602D01*
X72983501Y-178119264D01*
X72983489Y-178119261D01*
X72828845Y-178088500D01*
X72828842Y-178088500D01*
X72671158Y-178088500D01*
X72671155Y-178088500D01*
X72516510Y-178119261D01*
X72516498Y-178119264D01*
X72370827Y-178179602D01*
X72370814Y-178179609D01*
X72239125Y-178267602D01*
X72172447Y-178288480D01*
X72170234Y-178288500D01*
X70779057Y-178288500D01*
X70620942Y-178288500D01*
X70468215Y-178329423D01*
X70468214Y-178329423D01*
X70468212Y-178329424D01*
X70468209Y-178329425D01*
X70418096Y-178358359D01*
X70418095Y-178358360D01*
X70382853Y-178378707D01*
X70331285Y-178408479D01*
X70331282Y-178408481D01*
X69612181Y-179127583D01*
X69550858Y-179161068D01*
X69481166Y-179156084D01*
X69425233Y-179114212D01*
X69400816Y-179048748D01*
X69400500Y-179039902D01*
X69400500Y-178379765D01*
X69420185Y-178312726D01*
X69421398Y-178310874D01*
X69450312Y-178267602D01*
X69509394Y-178179179D01*
X69512719Y-178171153D01*
X69542846Y-178098417D01*
X69569737Y-178033497D01*
X69600500Y-177878842D01*
X69600500Y-177721158D01*
X69600500Y-177721155D01*
X69600499Y-177721153D01*
X69582012Y-177628213D01*
X69569737Y-177566503D01*
X69567482Y-177561059D01*
X69509397Y-177420827D01*
X69509390Y-177420814D01*
X69421789Y-177289711D01*
X69421786Y-177289707D01*
X69310292Y-177178213D01*
X69310288Y-177178210D01*
X69179185Y-177090609D01*
X69179172Y-177090602D01*
X69033501Y-177030264D01*
X69033489Y-177030261D01*
X68878845Y-176999500D01*
X68878842Y-176999500D01*
X68721158Y-176999500D01*
X68721155Y-176999500D01*
X68566510Y-177030261D01*
X68566498Y-177030264D01*
X68420827Y-177090602D01*
X68420814Y-177090609D01*
X68289712Y-177178209D01*
X68267527Y-177200395D01*
X68204739Y-177263182D01*
X68143419Y-177296666D01*
X68117060Y-177299500D01*
X68021155Y-177299500D01*
X67866510Y-177330261D01*
X67866498Y-177330264D01*
X67720827Y-177390602D01*
X67720814Y-177390609D01*
X67589711Y-177478210D01*
X67589707Y-177478213D01*
X67478213Y-177589707D01*
X67478210Y-177589711D01*
X67390609Y-177720814D01*
X67390602Y-177720827D01*
X67330264Y-177866498D01*
X67330262Y-177866505D01*
X67319256Y-177921833D01*
X67286870Y-177983743D01*
X67226153Y-178018316D01*
X67221833Y-178019256D01*
X67166505Y-178030262D01*
X67166498Y-178030264D01*
X67020827Y-178090602D01*
X67020814Y-178090609D01*
X66889711Y-178178210D01*
X66889707Y-178178213D01*
X66778213Y-178289707D01*
X66778207Y-178289715D01*
X66690607Y-178420818D01*
X66690606Y-178420819D01*
X66680805Y-178444480D01*
X66653927Y-178484703D01*
X66317050Y-178821581D01*
X66317047Y-178821584D01*
X66278564Y-178879178D01*
X66278565Y-178879179D01*
X66234914Y-178944508D01*
X66178343Y-179081082D01*
X66178340Y-179081092D01*
X66149500Y-179226079D01*
X66149500Y-181795396D01*
X66140062Y-181842844D01*
X66138910Y-181845627D01*
X66130262Y-181866506D01*
X66130260Y-181866511D01*
X66099500Y-182021153D01*
X66099500Y-182178846D01*
X66130261Y-182333489D01*
X66130264Y-182333501D01*
X66190602Y-182479172D01*
X66190609Y-182479185D01*
X66278210Y-182610288D01*
X66278213Y-182610292D01*
X66389710Y-182721789D01*
X66518515Y-182807853D01*
X66520821Y-182809394D01*
X66544475Y-182819191D01*
X66584703Y-182846071D01*
X68021578Y-184282947D01*
X68021585Y-184282953D01*
X68085422Y-184325607D01*
X68085427Y-184325610D01*
X68090371Y-184328913D01*
X68144505Y-184365084D01*
X68201080Y-184388518D01*
X68281088Y-184421659D01*
X68397241Y-184444763D01*
X68426082Y-184450500D01*
X68426083Y-184450500D01*
X68493279Y-184450500D01*
X68497602Y-184450803D01*
X68526456Y-184461517D01*
X68555973Y-184470185D01*
X68558903Y-184473566D01*
X68563102Y-184475126D01*
X68581582Y-184499739D01*
X68601728Y-184522989D01*
X68602365Y-184527420D01*
X68605053Y-184531000D01*
X68607292Y-184561687D01*
X68611672Y-184592147D01*
X68609843Y-184596651D01*
X68610138Y-184600684D01*
X68602540Y-184614646D01*
X68589252Y-184647385D01*
X68494951Y-184777180D01*
X68398444Y-184966585D01*
X68332753Y-185168760D01*
X68321430Y-185240251D01*
X68299500Y-185378713D01*
X68299500Y-185591287D01*
X68332754Y-185801243D01*
X68391702Y-185982666D01*
X68398444Y-186003414D01*
X68494951Y-186192820D01*
X68619890Y-186364786D01*
X68733430Y-186478326D01*
X68766915Y-186539649D01*
X68761931Y-186609341D01*
X68720059Y-186665274D01*
X68689083Y-186682189D01*
X68557669Y-186731203D01*
X68557664Y-186731206D01*
X68442455Y-186817452D01*
X68442452Y-186817455D01*
X68356206Y-186932664D01*
X68356202Y-186932671D01*
X68305908Y-187067517D01*
X68303126Y-187093397D01*
X68299501Y-187127123D01*
X68299500Y-187127135D01*
X68299500Y-188922870D01*
X68299501Y-188922876D01*
X68305908Y-188982483D01*
X68356202Y-189117328D01*
X68356206Y-189117335D01*
X68420738Y-189203537D01*
X68442454Y-189232546D01*
X68500813Y-189276234D01*
X68542684Y-189332167D01*
X68547668Y-189401859D01*
X68514183Y-189463182D01*
X68452859Y-189496666D01*
X68426502Y-189499500D01*
X41006962Y-189499500D01*
X40993078Y-189498720D01*
X40974849Y-189496666D01*
X40902735Y-189488540D01*
X40875666Y-189482362D01*
X40796462Y-189454648D01*
X40771444Y-189442600D01*
X40700395Y-189397957D01*
X40678686Y-189380644D01*
X40619355Y-189321313D01*
X40602042Y-189299604D01*
X40598707Y-189294297D01*
X40557398Y-189228553D01*
X40545351Y-189203537D01*
X40528318Y-189154859D01*
X40517636Y-189124331D01*
X40511459Y-189097263D01*
X40509128Y-189076579D01*
X40501280Y-189006922D01*
X40500500Y-188993038D01*
X40500500Y-187146579D01*
X41630000Y-187146579D01*
X41630000Y-187300000D01*
X42380000Y-187300000D01*
X42380000Y-187800000D01*
X41630000Y-187800000D01*
X41630000Y-187953420D01*
X41670348Y-188156266D01*
X41670350Y-188156274D01*
X41749500Y-188347358D01*
X41749505Y-188347368D01*
X41864410Y-188519335D01*
X41864413Y-188519339D01*
X42010660Y-188665586D01*
X42010664Y-188665589D01*
X42182631Y-188780494D01*
X42182641Y-188780499D01*
X42373723Y-188859648D01*
X42373725Y-188859649D01*
X42430000Y-188870842D01*
X42430000Y-188016988D01*
X42439940Y-188034205D01*
X42495795Y-188090060D01*
X42564204Y-188129556D01*
X42640504Y-188150000D01*
X42719496Y-188150000D01*
X42795796Y-188129556D01*
X42864205Y-188090060D01*
X42920060Y-188034205D01*
X42930000Y-188016988D01*
X42930000Y-188870842D01*
X42986274Y-188859649D01*
X42986276Y-188859648D01*
X43177358Y-188780499D01*
X43177368Y-188780494D01*
X43349335Y-188665589D01*
X43349339Y-188665586D01*
X43495586Y-188519339D01*
X43495589Y-188519335D01*
X43610494Y-188347368D01*
X43610499Y-188347358D01*
X43689649Y-188156274D01*
X43689651Y-188156266D01*
X43729999Y-187953420D01*
X43730000Y-187953417D01*
X43730000Y-187800000D01*
X42980000Y-187800000D01*
X42980000Y-187300000D01*
X43730000Y-187300000D01*
X43730000Y-187146583D01*
X43729999Y-187146579D01*
X50270000Y-187146579D01*
X50270000Y-187300000D01*
X51020000Y-187300000D01*
X51020000Y-187800000D01*
X50270000Y-187800000D01*
X50270000Y-187953420D01*
X50310348Y-188156266D01*
X50310350Y-188156274D01*
X50389500Y-188347358D01*
X50389505Y-188347368D01*
X50504410Y-188519335D01*
X50504413Y-188519339D01*
X50650660Y-188665586D01*
X50650664Y-188665589D01*
X50822631Y-188780494D01*
X50822641Y-188780499D01*
X51013723Y-188859648D01*
X51013725Y-188859649D01*
X51070000Y-188870842D01*
X51070000Y-188016988D01*
X51079940Y-188034205D01*
X51135795Y-188090060D01*
X51204204Y-188129556D01*
X51280504Y-188150000D01*
X51359496Y-188150000D01*
X51435796Y-188129556D01*
X51504205Y-188090060D01*
X51560060Y-188034205D01*
X51570000Y-188016988D01*
X51570000Y-188870842D01*
X51626274Y-188859649D01*
X51626276Y-188859648D01*
X51817358Y-188780499D01*
X51817368Y-188780494D01*
X51989335Y-188665589D01*
X51989339Y-188665586D01*
X52135586Y-188519339D01*
X52135589Y-188519335D01*
X52250494Y-188347368D01*
X52250499Y-188347358D01*
X52329649Y-188156274D01*
X52329651Y-188156266D01*
X52369999Y-187953420D01*
X52370000Y-187953417D01*
X52370000Y-187800000D01*
X51620000Y-187800000D01*
X51620000Y-187300000D01*
X52370000Y-187300000D01*
X52370000Y-187146583D01*
X52369999Y-187146579D01*
X52329651Y-186943733D01*
X52329649Y-186943725D01*
X52250499Y-186752641D01*
X52250494Y-186752631D01*
X52135589Y-186580664D01*
X52135586Y-186580660D01*
X51989339Y-186434413D01*
X51989335Y-186434410D01*
X51817368Y-186319505D01*
X51817358Y-186319500D01*
X51626272Y-186240349D01*
X51626267Y-186240347D01*
X51570000Y-186229155D01*
X51570000Y-187083011D01*
X51560060Y-187065795D01*
X51504205Y-187009940D01*
X51435796Y-186970444D01*
X51359496Y-186950000D01*
X51280504Y-186950000D01*
X51204204Y-186970444D01*
X51135795Y-187009940D01*
X51079940Y-187065795D01*
X51070000Y-187083011D01*
X51070000Y-186229156D01*
X51069999Y-186229155D01*
X51013732Y-186240347D01*
X51013727Y-186240349D01*
X50822641Y-186319500D01*
X50822631Y-186319505D01*
X50650664Y-186434410D01*
X50650660Y-186434413D01*
X50504413Y-186580660D01*
X50504410Y-186580664D01*
X50389505Y-186752631D01*
X50389500Y-186752641D01*
X50310350Y-186943725D01*
X50310348Y-186943733D01*
X50270000Y-187146579D01*
X43729999Y-187146579D01*
X43689651Y-186943733D01*
X43689649Y-186943725D01*
X43610499Y-186752641D01*
X43610494Y-186752631D01*
X43495589Y-186580664D01*
X43495586Y-186580660D01*
X43349339Y-186434413D01*
X43349335Y-186434410D01*
X43177368Y-186319505D01*
X43177358Y-186319500D01*
X42986272Y-186240349D01*
X42986267Y-186240347D01*
X42930000Y-186229155D01*
X42930000Y-187083011D01*
X42920060Y-187065795D01*
X42864205Y-187009940D01*
X42795796Y-186970444D01*
X42719496Y-186950000D01*
X42640504Y-186950000D01*
X42564204Y-186970444D01*
X42495795Y-187009940D01*
X42439940Y-187065795D01*
X42430000Y-187083011D01*
X42430000Y-186229156D01*
X42429999Y-186229155D01*
X42373732Y-186240347D01*
X42373727Y-186240349D01*
X42182641Y-186319500D01*
X42182631Y-186319505D01*
X42010664Y-186434410D01*
X42010660Y-186434413D01*
X41864413Y-186580660D01*
X41864410Y-186580664D01*
X41749505Y-186752631D01*
X41749500Y-186752641D01*
X41670350Y-186943725D01*
X41670348Y-186943733D01*
X41630000Y-187146579D01*
X40500500Y-187146579D01*
X40500500Y-183346579D01*
X41630000Y-183346579D01*
X41630000Y-183500000D01*
X42380000Y-183500000D01*
X42380000Y-184000000D01*
X41630000Y-184000000D01*
X41630000Y-184153420D01*
X41670348Y-184356266D01*
X41670350Y-184356274D01*
X41749500Y-184547358D01*
X41749505Y-184547368D01*
X41864410Y-184719335D01*
X41864413Y-184719339D01*
X42010660Y-184865586D01*
X42010664Y-184865589D01*
X42182631Y-184980494D01*
X42182641Y-184980499D01*
X42373723Y-185059648D01*
X42373725Y-185059649D01*
X42430000Y-185070842D01*
X42430000Y-184216988D01*
X42439940Y-184234205D01*
X42495795Y-184290060D01*
X42564204Y-184329556D01*
X42640504Y-184350000D01*
X42719496Y-184350000D01*
X42795796Y-184329556D01*
X42864205Y-184290060D01*
X42920060Y-184234205D01*
X42930000Y-184216988D01*
X42930000Y-185070842D01*
X42986274Y-185059649D01*
X42986276Y-185059648D01*
X43177358Y-184980499D01*
X43177368Y-184980494D01*
X43349335Y-184865589D01*
X43349339Y-184865586D01*
X43495586Y-184719339D01*
X43495589Y-184719335D01*
X43610494Y-184547368D01*
X43610499Y-184547358D01*
X43689649Y-184356274D01*
X43689651Y-184356266D01*
X43729999Y-184153420D01*
X43730000Y-184153417D01*
X43730000Y-184000000D01*
X42980000Y-184000000D01*
X42980000Y-183500000D01*
X43730000Y-183500000D01*
X43730000Y-183346583D01*
X43729999Y-183346579D01*
X50270000Y-183346579D01*
X50270000Y-183500000D01*
X51020000Y-183500000D01*
X51020000Y-184000000D01*
X50270000Y-184000000D01*
X50270000Y-184153420D01*
X50310348Y-184356266D01*
X50310350Y-184356274D01*
X50389500Y-184547358D01*
X50389505Y-184547368D01*
X50504410Y-184719335D01*
X50504413Y-184719339D01*
X50650660Y-184865586D01*
X50650664Y-184865589D01*
X50822631Y-184980494D01*
X50822641Y-184980499D01*
X51013723Y-185059648D01*
X51013725Y-185059649D01*
X51070000Y-185070842D01*
X51070000Y-184216988D01*
X51079940Y-184234205D01*
X51135795Y-184290060D01*
X51204204Y-184329556D01*
X51280504Y-184350000D01*
X51359496Y-184350000D01*
X51435796Y-184329556D01*
X51504205Y-184290060D01*
X51560060Y-184234205D01*
X51570000Y-184216988D01*
X51570000Y-185070842D01*
X51626274Y-185059649D01*
X51626276Y-185059648D01*
X51817358Y-184980499D01*
X51817368Y-184980494D01*
X51989335Y-184865589D01*
X51989339Y-184865586D01*
X52135586Y-184719339D01*
X52135589Y-184719335D01*
X52250494Y-184547368D01*
X52250499Y-184547358D01*
X52329649Y-184356274D01*
X52329651Y-184356266D01*
X52369999Y-184153420D01*
X52370000Y-184153417D01*
X52370000Y-184000000D01*
X51620000Y-184000000D01*
X51620000Y-183500000D01*
X52370000Y-183500000D01*
X52370000Y-183346583D01*
X52369999Y-183346579D01*
X52329651Y-183143733D01*
X52329649Y-183143725D01*
X52250499Y-182952641D01*
X52250494Y-182952631D01*
X52135589Y-182780664D01*
X52135586Y-182780660D01*
X51989339Y-182634413D01*
X51989335Y-182634410D01*
X51817368Y-182519505D01*
X51817358Y-182519500D01*
X51626272Y-182440349D01*
X51626267Y-182440347D01*
X51570000Y-182429155D01*
X51570000Y-183283011D01*
X51560060Y-183265795D01*
X51504205Y-183209940D01*
X51435796Y-183170444D01*
X51359496Y-183150000D01*
X51280504Y-183150000D01*
X51204204Y-183170444D01*
X51135795Y-183209940D01*
X51079940Y-183265795D01*
X51070000Y-183283011D01*
X51070000Y-182429156D01*
X51069999Y-182429155D01*
X51013732Y-182440347D01*
X51013727Y-182440349D01*
X50822641Y-182519500D01*
X50822631Y-182519505D01*
X50650664Y-182634410D01*
X50650660Y-182634413D01*
X50504413Y-182780660D01*
X50504410Y-182780664D01*
X50389505Y-182952631D01*
X50389500Y-182952641D01*
X50310350Y-183143725D01*
X50310348Y-183143733D01*
X50270000Y-183346579D01*
X43729999Y-183346579D01*
X43689651Y-183143733D01*
X43689649Y-183143725D01*
X43610499Y-182952641D01*
X43610494Y-182952631D01*
X43495589Y-182780664D01*
X43495586Y-182780660D01*
X43349339Y-182634413D01*
X43349335Y-182634410D01*
X43177368Y-182519505D01*
X43177358Y-182519500D01*
X42986272Y-182440349D01*
X42986267Y-182440347D01*
X42930000Y-182429155D01*
X42930000Y-183283011D01*
X42920060Y-183265795D01*
X42864205Y-183209940D01*
X42795796Y-183170444D01*
X42719496Y-183150000D01*
X42640504Y-183150000D01*
X42564204Y-183170444D01*
X42495795Y-183209940D01*
X42439940Y-183265795D01*
X42430000Y-183283011D01*
X42430000Y-182429156D01*
X42429999Y-182429155D01*
X42373732Y-182440347D01*
X42373727Y-182440349D01*
X42182641Y-182519500D01*
X42182631Y-182519505D01*
X42010664Y-182634410D01*
X42010660Y-182634413D01*
X41864413Y-182780660D01*
X41864410Y-182780664D01*
X41749505Y-182952631D01*
X41749500Y-182952641D01*
X41670350Y-183143725D01*
X41670348Y-183143733D01*
X41630000Y-183346579D01*
X40500500Y-183346579D01*
X40500500Y-177506961D01*
X40501280Y-177493077D01*
X40506190Y-177449500D01*
X40511459Y-177402731D01*
X40517635Y-177375670D01*
X40545353Y-177296456D01*
X40557396Y-177271450D01*
X40602046Y-177200389D01*
X40619351Y-177178690D01*
X40678690Y-177119351D01*
X40700389Y-177102046D01*
X40771450Y-177057396D01*
X40796456Y-177045353D01*
X40875670Y-177017635D01*
X40902733Y-177011459D01*
X40967598Y-177004151D01*
X40993079Y-177001280D01*
X41006962Y-177000500D01*
X42596542Y-177000500D01*
X42663581Y-177020185D01*
X42709336Y-177072989D01*
X42719280Y-177142147D01*
X42690255Y-177205703D01*
X42669428Y-177224818D01*
X42562176Y-177302741D01*
X42430142Y-177434775D01*
X42320385Y-177585841D01*
X42235614Y-177752215D01*
X42177910Y-177929809D01*
X42152442Y-178090609D01*
X42148700Y-178114235D01*
X42148700Y-178300963D01*
X42157514Y-178356617D01*
X42177610Y-178483497D01*
X42177911Y-178485392D01*
X42225314Y-178631284D01*
X42235614Y-178662982D01*
X42310458Y-178809873D01*
X42320385Y-178829356D01*
X42430141Y-178980421D01*
X42562178Y-179112458D01*
X42713243Y-179222214D01*
X42879619Y-179306986D01*
X43057207Y-179364688D01*
X43241636Y-179393899D01*
X43241637Y-179393899D01*
X43428363Y-179393899D01*
X43428364Y-179393899D01*
X43612793Y-179364688D01*
X43790381Y-179306986D01*
X43956757Y-179222214D01*
X44107822Y-179112458D01*
X44239859Y-178980421D01*
X44349615Y-178829356D01*
X44434387Y-178662980D01*
X44487070Y-178500838D01*
X44526506Y-178443165D01*
X44590865Y-178415966D01*
X44659711Y-178427881D01*
X44711187Y-178475125D01*
X44722928Y-178500835D01*
X44765315Y-178631285D01*
X44775614Y-178662982D01*
X44850458Y-178809873D01*
X44860385Y-178829356D01*
X44970141Y-178980421D01*
X45102178Y-179112458D01*
X45253243Y-179222214D01*
X45419619Y-179306986D01*
X45597207Y-179364688D01*
X45781636Y-179393899D01*
X45781637Y-179393899D01*
X45968363Y-179393899D01*
X45968364Y-179393899D01*
X46152793Y-179364688D01*
X46330381Y-179306986D01*
X46496757Y-179222214D01*
X46647822Y-179112458D01*
X46779859Y-178980421D01*
X46889615Y-178829356D01*
X46974387Y-178662980D01*
X47027070Y-178500838D01*
X47066506Y-178443165D01*
X47130865Y-178415966D01*
X47199711Y-178427881D01*
X47251187Y-178475125D01*
X47262928Y-178500835D01*
X47305315Y-178631285D01*
X47315614Y-178662982D01*
X47390458Y-178809873D01*
X47400385Y-178829356D01*
X47510141Y-178980421D01*
X47642178Y-179112458D01*
X47793243Y-179222214D01*
X47959619Y-179306986D01*
X48137207Y-179364688D01*
X48321636Y-179393899D01*
X48321637Y-179393899D01*
X48508363Y-179393899D01*
X48508364Y-179393899D01*
X48692793Y-179364688D01*
X48870381Y-179306986D01*
X49036757Y-179222214D01*
X49187822Y-179112458D01*
X49319859Y-178980421D01*
X49429615Y-178829356D01*
X49514387Y-178662980D01*
X49572089Y-178485392D01*
X49601300Y-178300963D01*
X49601300Y-178114235D01*
X49572089Y-177929806D01*
X49514387Y-177752218D01*
X49429615Y-177585842D01*
X49319859Y-177434777D01*
X49187822Y-177302740D01*
X49036757Y-177192984D01*
X48870381Y-177108212D01*
X48692793Y-177050510D01*
X48692791Y-177050509D01*
X48692789Y-177050509D01*
X48564018Y-177030113D01*
X48508364Y-177021299D01*
X48321636Y-177021299D01*
X48278883Y-177028070D01*
X48137210Y-177050509D01*
X47959616Y-177108213D01*
X47793242Y-177192984D01*
X47642176Y-177302741D01*
X47510142Y-177434775D01*
X47400385Y-177585841D01*
X47315614Y-177752215D01*
X47315613Y-177752217D01*
X47315613Y-177752218D01*
X47267082Y-177901583D01*
X47262931Y-177914357D01*
X47223493Y-177972033D01*
X47159135Y-177999231D01*
X47090288Y-177987316D01*
X47038813Y-177940072D01*
X47027069Y-177914357D01*
X46974387Y-177752218D01*
X46889615Y-177585842D01*
X46779859Y-177434777D01*
X46647822Y-177302740D01*
X46496757Y-177192984D01*
X46330381Y-177108212D01*
X46152793Y-177050510D01*
X46152791Y-177050509D01*
X46152789Y-177050509D01*
X46024018Y-177030113D01*
X45968364Y-177021299D01*
X45781636Y-177021299D01*
X45738883Y-177028070D01*
X45597210Y-177050509D01*
X45419616Y-177108213D01*
X45253242Y-177192984D01*
X45102176Y-177302741D01*
X44970142Y-177434775D01*
X44860385Y-177585841D01*
X44775614Y-177752215D01*
X44775613Y-177752217D01*
X44775613Y-177752218D01*
X44727082Y-177901583D01*
X44722931Y-177914357D01*
X44683493Y-177972033D01*
X44619135Y-177999231D01*
X44550288Y-177987316D01*
X44498813Y-177940072D01*
X44487069Y-177914357D01*
X44434387Y-177752218D01*
X44349615Y-177585842D01*
X44239859Y-177434777D01*
X44107822Y-177302740D01*
X43956757Y-177192984D01*
X43931728Y-177180231D01*
X43790385Y-177108213D01*
X43687880Y-177074907D01*
X43630205Y-177035469D01*
X43603007Y-176971110D01*
X43614922Y-176902264D01*
X43638512Y-176869301D01*
X43700500Y-176807314D01*
X43766392Y-176693186D01*
X43800500Y-176565892D01*
X43800500Y-176021153D01*
X56899500Y-176021153D01*
X56899500Y-176178846D01*
X56930261Y-176333489D01*
X56930264Y-176333501D01*
X56990602Y-176479172D01*
X56990609Y-176479185D01*
X57078210Y-176610288D01*
X57078213Y-176610292D01*
X57189707Y-176721786D01*
X57189711Y-176721789D01*
X57320814Y-176809390D01*
X57320827Y-176809397D01*
X57465433Y-176869294D01*
X57466503Y-176869737D01*
X57621153Y-176900499D01*
X57621156Y-176900500D01*
X57621158Y-176900500D01*
X57778844Y-176900500D01*
X57778845Y-176900499D01*
X57933497Y-176869737D01*
X58079179Y-176809394D01*
X58210289Y-176721789D01*
X58321789Y-176610289D01*
X58409394Y-176479179D01*
X58469737Y-176333497D01*
X58491958Y-176221786D01*
X58500638Y-176178150D01*
X58533023Y-176116239D01*
X58534518Y-176114716D01*
X59129700Y-175519534D01*
X59191021Y-175486051D01*
X59260713Y-175491035D01*
X59316646Y-175532907D01*
X59341063Y-175598371D01*
X59326211Y-175666644D01*
X59320482Y-175676107D01*
X59290608Y-175720816D01*
X59290602Y-175720827D01*
X59230264Y-175866498D01*
X59230261Y-175866510D01*
X59199500Y-176021153D01*
X59199500Y-176178846D01*
X59230261Y-176333489D01*
X59230264Y-176333501D01*
X59290602Y-176479172D01*
X59290609Y-176479185D01*
X59378210Y-176610288D01*
X59378213Y-176610292D01*
X59489707Y-176721786D01*
X59489711Y-176721789D01*
X59620814Y-176809390D01*
X59620827Y-176809397D01*
X59765433Y-176869294D01*
X59766503Y-176869737D01*
X59921153Y-176900499D01*
X59921156Y-176900500D01*
X59921158Y-176900500D01*
X60078844Y-176900500D01*
X60078845Y-176900499D01*
X60233497Y-176869737D01*
X60379179Y-176809394D01*
X60510289Y-176721789D01*
X60621789Y-176610289D01*
X60709394Y-176479179D01*
X60769737Y-176333497D01*
X60791958Y-176221786D01*
X60800638Y-176178150D01*
X60833023Y-176116239D01*
X60834521Y-176114713D01*
X61458506Y-175490727D01*
X61458511Y-175490724D01*
X61468714Y-175480520D01*
X61468716Y-175480520D01*
X61580520Y-175368716D01*
X61637999Y-175269158D01*
X61659577Y-175231785D01*
X61700501Y-175079057D01*
X61700501Y-174920943D01*
X61700501Y-174913348D01*
X61700500Y-174913330D01*
X61700500Y-174379765D01*
X61720185Y-174312726D01*
X61721398Y-174310874D01*
X61728665Y-174299999D01*
X61809394Y-174179179D01*
X61809653Y-174178555D01*
X61830147Y-174129077D01*
X61869737Y-174033497D01*
X61900500Y-173878842D01*
X61900500Y-173721158D01*
X61900500Y-173721155D01*
X61900499Y-173721153D01*
X61894662Y-173691808D01*
X61869737Y-173566503D01*
X61863425Y-173551265D01*
X61809397Y-173420827D01*
X61809390Y-173420814D01*
X61721789Y-173289711D01*
X61717924Y-173285001D01*
X61719867Y-173283406D01*
X61691654Y-173231737D01*
X61696638Y-173162045D01*
X61738510Y-173106112D01*
X61803974Y-173081695D01*
X61837010Y-173083761D01*
X61852953Y-173086933D01*
X61921156Y-173100500D01*
X61921158Y-173100500D01*
X62078844Y-173100500D01*
X62078845Y-173100499D01*
X62233497Y-173069737D01*
X62379179Y-173009394D01*
X62510289Y-172921789D01*
X62621789Y-172810289D01*
X62673737Y-172732543D01*
X62727347Y-172687740D01*
X62796672Y-172679032D01*
X62859700Y-172709186D01*
X62864519Y-172713754D01*
X63265425Y-173114660D01*
X63298910Y-173175983D01*
X63299361Y-173178149D01*
X63330261Y-173333491D01*
X63330264Y-173333501D01*
X63390602Y-173479172D01*
X63390609Y-173479185D01*
X63478210Y-173610288D01*
X63478213Y-173610292D01*
X63589707Y-173721786D01*
X63589711Y-173721789D01*
X63720814Y-173809390D01*
X63720827Y-173809397D01*
X63865537Y-173869337D01*
X63866503Y-173869737D01*
X63971418Y-173890606D01*
X64018991Y-173900069D01*
X64080902Y-173932454D01*
X64115476Y-173993169D01*
X64111737Y-174062939D01*
X64097903Y-174090576D01*
X64051699Y-174159725D01*
X64051693Y-174159736D01*
X63991355Y-174305407D01*
X63991352Y-174305419D01*
X63960591Y-174460062D01*
X63960591Y-174617755D01*
X63991352Y-174772398D01*
X63991355Y-174772410D01*
X64051693Y-174918081D01*
X64051700Y-174918094D01*
X64139301Y-175049197D01*
X64139304Y-175049201D01*
X64250798Y-175160695D01*
X64250802Y-175160698D01*
X64381905Y-175248299D01*
X64381918Y-175248306D01*
X64488522Y-175292462D01*
X64527594Y-175308646D01*
X64682244Y-175339408D01*
X64682247Y-175339409D01*
X64682249Y-175339409D01*
X64839935Y-175339409D01*
X64839936Y-175339408D01*
X64994588Y-175308646D01*
X65140270Y-175248303D01*
X65271380Y-175160698D01*
X65382880Y-175049198D01*
X65470485Y-174918088D01*
X65482515Y-174889046D01*
X65498688Y-174850000D01*
X65530828Y-174772406D01*
X65561591Y-174617751D01*
X65561591Y-174460067D01*
X65561591Y-174460064D01*
X65561590Y-174460062D01*
X65549964Y-174401617D01*
X65530828Y-174305412D01*
X65525719Y-174293078D01*
X65470488Y-174159736D01*
X65470481Y-174159723D01*
X65382489Y-174028034D01*
X65361611Y-173961356D01*
X65361591Y-173959143D01*
X65361591Y-173050151D01*
X65361592Y-173050138D01*
X65361592Y-172882035D01*
X65347720Y-172830264D01*
X65320668Y-172729307D01*
X65296670Y-172687740D01*
X65241615Y-172592381D01*
X65241609Y-172592373D01*
X61287590Y-168638355D01*
X61287588Y-168638352D01*
X61200264Y-168551028D01*
X61097960Y-168448725D01*
X61097959Y-168448723D01*
X60968717Y-168319481D01*
X60968716Y-168319480D01*
X60881904Y-168269360D01*
X60881904Y-168269359D01*
X60881900Y-168269358D01*
X60831785Y-168240423D01*
X60679057Y-168199499D01*
X60520943Y-168199499D01*
X60513347Y-168199499D01*
X60513331Y-168199500D01*
X60179766Y-168199500D01*
X60112727Y-168179815D01*
X60110875Y-168178602D01*
X59979185Y-168090609D01*
X59979172Y-168090602D01*
X59833501Y-168030264D01*
X59833489Y-168030261D01*
X59678845Y-167999500D01*
X59678842Y-167999500D01*
X59521158Y-167999500D01*
X59521155Y-167999500D01*
X59366510Y-168030261D01*
X59366498Y-168030264D01*
X59220827Y-168090602D01*
X59220814Y-168090609D01*
X59089711Y-168178210D01*
X59089707Y-168178213D01*
X58978213Y-168289707D01*
X58978210Y-168289711D01*
X58890609Y-168420814D01*
X58890602Y-168420827D01*
X58830264Y-168566498D01*
X58830261Y-168566508D01*
X58803769Y-168699692D01*
X58789054Y-168727822D01*
X58775865Y-168756703D01*
X58772975Y-168758559D01*
X58771384Y-168761603D01*
X58743791Y-168777315D01*
X58717087Y-168794477D01*
X58712493Y-168795137D01*
X58710668Y-168796177D01*
X58682152Y-168799500D01*
X58679766Y-168799500D01*
X58612727Y-168779815D01*
X58610875Y-168778602D01*
X58479185Y-168690609D01*
X58479172Y-168690602D01*
X58333501Y-168630264D01*
X58333489Y-168630261D01*
X58178845Y-168599500D01*
X58178842Y-168599500D01*
X58021158Y-168599500D01*
X58021155Y-168599500D01*
X57866510Y-168630261D01*
X57866498Y-168630264D01*
X57720827Y-168690602D01*
X57720814Y-168690609D01*
X57589711Y-168778210D01*
X57589707Y-168778213D01*
X57478213Y-168889707D01*
X57478210Y-168889711D01*
X57390609Y-169020814D01*
X57390602Y-169020827D01*
X57330264Y-169166498D01*
X57330261Y-169166510D01*
X57299500Y-169321153D01*
X57299500Y-169478846D01*
X57330261Y-169633489D01*
X57330264Y-169633501D01*
X57390602Y-169779172D01*
X57390609Y-169779185D01*
X57478210Y-169910288D01*
X57478213Y-169910292D01*
X57589707Y-170021786D01*
X57589711Y-170021789D01*
X57720814Y-170109390D01*
X57720827Y-170109397D01*
X57866498Y-170169735D01*
X57866503Y-170169737D01*
X57969000Y-170190125D01*
X58021153Y-170200499D01*
X58021156Y-170200500D01*
X58021158Y-170200500D01*
X58178844Y-170200500D01*
X58178845Y-170200499D01*
X58333497Y-170169737D01*
X58479179Y-170109394D01*
X58524399Y-170079179D01*
X58610875Y-170021398D01*
X58628921Y-170015747D01*
X58644831Y-170005523D01*
X58675792Y-170001071D01*
X58677553Y-170000520D01*
X58679766Y-170000500D01*
X58799903Y-170000500D01*
X58866942Y-170020185D01*
X58887584Y-170036819D01*
X60813083Y-171962318D01*
X60846568Y-172023641D01*
X60841584Y-172093333D01*
X60813083Y-172137680D01*
X57685339Y-175265425D01*
X57624016Y-175298910D01*
X57621850Y-175299361D01*
X57466508Y-175330261D01*
X57466498Y-175330264D01*
X57320827Y-175390602D01*
X57320814Y-175390609D01*
X57189711Y-175478210D01*
X57189707Y-175478213D01*
X57078213Y-175589707D01*
X57078210Y-175589711D01*
X56990609Y-175720814D01*
X56990602Y-175720827D01*
X56930264Y-175866498D01*
X56930261Y-175866510D01*
X56899500Y-176021153D01*
X43800500Y-176021153D01*
X43800500Y-172208628D01*
X48739100Y-172208628D01*
X48739100Y-172391369D01*
X48761610Y-172533489D01*
X48767685Y-172571844D01*
X48824152Y-172745630D01*
X48907109Y-172908443D01*
X49014515Y-173056275D01*
X49143724Y-173185484D01*
X49192370Y-173220827D01*
X49220840Y-173241512D01*
X49263505Y-173296842D01*
X49265772Y-173312220D01*
X49847154Y-173893600D01*
X49846496Y-173893600D01*
X49743135Y-173921295D01*
X49650464Y-173974799D01*
X49574799Y-174050464D01*
X49521295Y-174143135D01*
X49493600Y-174246496D01*
X49493600Y-174247152D01*
X48920468Y-173674020D01*
X48920465Y-173674020D01*
X48907543Y-173691808D01*
X48907539Y-173691813D01*
X48824616Y-173854556D01*
X48768172Y-174028271D01*
X48739600Y-174208669D01*
X48739600Y-174391330D01*
X48768172Y-174571728D01*
X48824616Y-174745443D01*
X48907535Y-174908178D01*
X48920467Y-174925978D01*
X49493600Y-174352845D01*
X49493600Y-174353504D01*
X49521295Y-174456865D01*
X49574799Y-174549536D01*
X49650464Y-174625201D01*
X49743135Y-174678705D01*
X49846496Y-174706400D01*
X49847153Y-174706400D01*
X49274019Y-175279531D01*
X49291817Y-175292462D01*
X49454556Y-175375383D01*
X49628271Y-175431827D01*
X49808670Y-175460400D01*
X49991330Y-175460400D01*
X50171728Y-175431827D01*
X50345443Y-175375383D01*
X50508178Y-175292465D01*
X50525979Y-175279531D01*
X49952848Y-174706400D01*
X49953504Y-174706400D01*
X50056865Y-174678705D01*
X50149536Y-174625201D01*
X50225201Y-174549536D01*
X50278705Y-174456865D01*
X50306400Y-174353504D01*
X50306400Y-174352847D01*
X50879531Y-174925978D01*
X50892465Y-174908178D01*
X50975383Y-174745443D01*
X51031827Y-174571728D01*
X51060400Y-174391330D01*
X51060400Y-174208669D01*
X51031827Y-174028271D01*
X50975383Y-173854556D01*
X50892462Y-173691817D01*
X50879531Y-173674020D01*
X50879531Y-173674019D01*
X50306400Y-174247151D01*
X50306400Y-174246496D01*
X50278705Y-174143135D01*
X50225201Y-174050464D01*
X50149536Y-173974799D01*
X50056865Y-173921295D01*
X49953504Y-173893600D01*
X49952847Y-173893600D01*
X50537343Y-173309102D01*
X50542787Y-173283186D01*
X50579155Y-173241515D01*
X50656276Y-173185484D01*
X50785485Y-173056275D01*
X50892891Y-172908443D01*
X50975848Y-172745630D01*
X51032315Y-172571844D01*
X51045019Y-172491630D01*
X51060900Y-172391369D01*
X51060900Y-172208628D01*
X51035169Y-172046174D01*
X51032315Y-172028154D01*
X50975848Y-171854368D01*
X50892891Y-171691555D01*
X50785485Y-171543723D01*
X50656276Y-171414514D01*
X50508444Y-171307108D01*
X50399864Y-171251784D01*
X50345633Y-171224152D01*
X50345632Y-171224151D01*
X50345631Y-171224151D01*
X50171845Y-171167684D01*
X50171843Y-171167683D01*
X50171841Y-171167683D01*
X49991370Y-171139099D01*
X49991365Y-171139099D01*
X49808635Y-171139099D01*
X49808630Y-171139099D01*
X49628158Y-171167683D01*
X49454366Y-171224152D01*
X49291555Y-171307108D01*
X49143721Y-171414516D01*
X49014517Y-171543720D01*
X48907109Y-171691554D01*
X48824153Y-171854365D01*
X48767684Y-172028157D01*
X48739100Y-172208628D01*
X43800500Y-172208628D01*
X43800500Y-169934108D01*
X43766392Y-169806814D01*
X43700500Y-169692686D01*
X43607314Y-169599500D01*
X43550250Y-169566554D01*
X43493187Y-169533608D01*
X43429539Y-169516554D01*
X43365892Y-169499500D01*
X43365891Y-169499500D01*
X41006962Y-169499500D01*
X40993078Y-169498720D01*
X40980553Y-169497308D01*
X40902735Y-169488540D01*
X40875666Y-169482362D01*
X40796462Y-169454648D01*
X40771444Y-169442600D01*
X40700395Y-169397957D01*
X40678686Y-169380644D01*
X40619355Y-169321313D01*
X40602042Y-169299604D01*
X40598592Y-169294114D01*
X40557398Y-169228553D01*
X40545351Y-169203537D01*
X40540513Y-169189711D01*
X40517636Y-169124331D01*
X40511459Y-169097263D01*
X40509838Y-169082880D01*
X40501280Y-169006922D01*
X40500500Y-168993038D01*
X40500500Y-164956630D01*
X48849500Y-164956630D01*
X48849500Y-165183369D01*
X48884061Y-165401583D01*
X48884970Y-165407318D01*
X48947062Y-165598417D01*
X48955038Y-165622962D01*
X49057976Y-165824990D01*
X49191242Y-166008416D01*
X49191246Y-166008421D01*
X49351578Y-166168753D01*
X49351583Y-166168757D01*
X49535009Y-166302023D01*
X49535011Y-166302024D01*
X49535014Y-166302026D01*
X49737040Y-166404963D01*
X49952682Y-166475030D01*
X50176630Y-166510500D01*
X50176631Y-166510500D01*
X50403369Y-166510500D01*
X50403370Y-166510500D01*
X50627318Y-166475030D01*
X50842960Y-166404963D01*
X51044986Y-166302026D01*
X51228423Y-166168752D01*
X51388752Y-166008423D01*
X51522026Y-165824986D01*
X51624963Y-165622960D01*
X51695030Y-165407318D01*
X51730500Y-165183370D01*
X51730500Y-164956630D01*
X51695030Y-164732682D01*
X51624963Y-164517040D01*
X51522026Y-164315014D01*
X51522024Y-164315011D01*
X51522023Y-164315009D01*
X51388757Y-164131583D01*
X51388753Y-164131578D01*
X51228421Y-163971246D01*
X51228416Y-163971242D01*
X51159474Y-163921153D01*
X57899500Y-163921153D01*
X57899500Y-164078846D01*
X57930261Y-164233489D01*
X57930264Y-164233501D01*
X57990602Y-164379172D01*
X57990609Y-164379185D01*
X58078210Y-164510288D01*
X58078213Y-164510292D01*
X58189707Y-164621786D01*
X58189711Y-164621789D01*
X58320814Y-164709390D01*
X58320827Y-164709397D01*
X58466498Y-164769735D01*
X58466503Y-164769737D01*
X58621153Y-164800499D01*
X58621156Y-164800500D01*
X58621158Y-164800500D01*
X58778844Y-164800500D01*
X58778845Y-164800499D01*
X58933497Y-164769737D01*
X59079179Y-164709394D01*
X59079185Y-164709390D01*
X59210875Y-164621398D01*
X59277553Y-164600520D01*
X59279766Y-164600500D01*
X59599903Y-164600500D01*
X59666942Y-164620185D01*
X59687584Y-164636819D01*
X70665425Y-175614660D01*
X70698910Y-175675983D01*
X70699361Y-175678149D01*
X70730261Y-175833491D01*
X70730264Y-175833501D01*
X70790602Y-175979172D01*
X70790609Y-175979185D01*
X70878210Y-176110288D01*
X70878213Y-176110292D01*
X70989707Y-176221786D01*
X70989711Y-176221789D01*
X71120814Y-176309390D01*
X71120827Y-176309397D01*
X71266498Y-176369735D01*
X71266503Y-176369737D01*
X71421153Y-176400499D01*
X71421156Y-176400500D01*
X71421158Y-176400500D01*
X71578844Y-176400500D01*
X71578845Y-176400499D01*
X71733497Y-176369737D01*
X71866497Y-176314647D01*
X71879172Y-176309397D01*
X71879172Y-176309396D01*
X71879179Y-176309394D01*
X72010289Y-176221789D01*
X72121789Y-176110289D01*
X72209394Y-175979179D01*
X72269737Y-175833497D01*
X72300500Y-175678842D01*
X72300500Y-175521158D01*
X72300500Y-175521155D01*
X72300499Y-175521153D01*
X72298943Y-175513330D01*
X72269737Y-175366503D01*
X72236807Y-175287005D01*
X72229339Y-175217536D01*
X72248267Y-175170662D01*
X72309390Y-175079185D01*
X72309390Y-175079184D01*
X72309394Y-175079179D01*
X72369737Y-174933497D01*
X72377391Y-174895018D01*
X72386117Y-174851153D01*
X81016153Y-174851153D01*
X81016153Y-175008846D01*
X81046914Y-175163489D01*
X81046917Y-175163501D01*
X81107255Y-175309172D01*
X81107262Y-175309185D01*
X81194863Y-175440288D01*
X81194866Y-175440292D01*
X81256097Y-175501523D01*
X81289582Y-175562846D01*
X81284598Y-175632538D01*
X81271518Y-175658095D01*
X81229609Y-175720815D01*
X81229602Y-175720827D01*
X81169264Y-175866498D01*
X81169261Y-175866510D01*
X81138500Y-176021153D01*
X81138500Y-176178846D01*
X81169261Y-176333489D01*
X81169264Y-176333501D01*
X81229602Y-176479172D01*
X81229609Y-176479185D01*
X81317210Y-176610288D01*
X81317213Y-176610292D01*
X81428707Y-176721786D01*
X81428711Y-176721789D01*
X81559814Y-176809390D01*
X81559827Y-176809397D01*
X81704433Y-176869294D01*
X81705503Y-176869737D01*
X81802388Y-176889008D01*
X81864297Y-176921392D01*
X81898871Y-176982108D01*
X81902195Y-177010625D01*
X81902195Y-177863899D01*
X81882510Y-177930938D01*
X81865876Y-177951580D01*
X81860908Y-177956547D01*
X81860905Y-177956551D01*
X81773304Y-178087654D01*
X81773297Y-178087667D01*
X81712959Y-178233338D01*
X81712956Y-178233350D01*
X81682195Y-178387993D01*
X81682195Y-178545686D01*
X81712956Y-178700329D01*
X81712959Y-178700341D01*
X81773297Y-178846012D01*
X81773304Y-178846025D01*
X81860905Y-178977128D01*
X81860908Y-178977132D01*
X81972402Y-179088626D01*
X81972406Y-179088629D01*
X82103509Y-179176230D01*
X82103522Y-179176237D01*
X82240702Y-179233058D01*
X82249198Y-179236577D01*
X82343380Y-179255311D01*
X82403848Y-179267339D01*
X82403851Y-179267340D01*
X82403853Y-179267340D01*
X82561539Y-179267340D01*
X82561540Y-179267339D01*
X82716192Y-179236577D01*
X82861874Y-179176234D01*
X82992984Y-179088629D01*
X83104484Y-178977129D01*
X83192089Y-178846019D01*
X83192570Y-178844859D01*
X83252430Y-178700341D01*
X83252432Y-178700337D01*
X83283195Y-178545682D01*
X83283195Y-178387998D01*
X83283195Y-178387995D01*
X83283194Y-178387993D01*
X83271544Y-178329424D01*
X83252432Y-178233343D01*
X83229596Y-178178211D01*
X83192092Y-178087667D01*
X83192085Y-178087654D01*
X83104484Y-177956551D01*
X83104481Y-177956547D01*
X83099514Y-177951580D01*
X83066029Y-177890257D01*
X83063195Y-177863899D01*
X83063195Y-177592153D01*
X83082880Y-177525114D01*
X83135684Y-177479359D01*
X83204842Y-177469415D01*
X83234644Y-177477590D01*
X83345672Y-177523580D01*
X83345676Y-177523580D01*
X83345677Y-177523581D01*
X83481004Y-177550500D01*
X83481007Y-177550500D01*
X83618995Y-177550500D01*
X83728176Y-177528782D01*
X83754328Y-177523580D01*
X83881811Y-177470775D01*
X83906109Y-177454538D01*
X83972786Y-177433661D01*
X84026858Y-177445005D01*
X84035746Y-177449097D01*
X84068189Y-177470775D01*
X84195672Y-177523580D01*
X84198933Y-177524228D01*
X84208823Y-177528782D01*
X84229007Y-177546380D01*
X84251403Y-177561059D01*
X84254939Y-177568991D01*
X84261486Y-177574699D01*
X84268951Y-177600415D01*
X84279856Y-177624873D01*
X84278542Y-177633458D01*
X84280964Y-177641799D01*
X84273341Y-177667466D01*
X84269293Y-177693940D01*
X84263546Y-177700453D01*
X84261074Y-177708778D01*
X84240783Y-177726250D01*
X84223066Y-177746331D01*
X84209036Y-177753589D01*
X84208130Y-177754370D01*
X84207303Y-177754486D01*
X84204418Y-177755979D01*
X84120823Y-177790604D01*
X84120814Y-177790609D01*
X83989711Y-177878210D01*
X83989707Y-177878213D01*
X83878213Y-177989707D01*
X83878210Y-177989711D01*
X83790609Y-178120814D01*
X83790602Y-178120827D01*
X83730264Y-178266498D01*
X83730261Y-178266510D01*
X83699500Y-178421153D01*
X83699500Y-178578846D01*
X83730261Y-178733489D01*
X83730264Y-178733501D01*
X83790602Y-178879172D01*
X83790609Y-178879185D01*
X83878210Y-179010288D01*
X83878213Y-179010292D01*
X83989707Y-179121786D01*
X83989711Y-179121789D01*
X84120814Y-179209390D01*
X84120827Y-179209397D01*
X84262756Y-179268185D01*
X84266503Y-179269737D01*
X84381488Y-179292609D01*
X84421153Y-179300499D01*
X84421156Y-179300500D01*
X84421158Y-179300500D01*
X84578844Y-179300500D01*
X84578845Y-179300499D01*
X84733497Y-179269737D01*
X84879179Y-179209394D01*
X85010289Y-179121789D01*
X85121789Y-179010289D01*
X85209394Y-178879179D01*
X85269737Y-178733497D01*
X85300500Y-178578842D01*
X85300500Y-178571813D01*
X85320185Y-178504774D01*
X85336819Y-178484132D01*
X86884132Y-176936819D01*
X86945455Y-176903334D01*
X86971813Y-176900500D01*
X86978844Y-176900500D01*
X86978845Y-176900499D01*
X87133497Y-176869737D01*
X87279179Y-176809394D01*
X87410289Y-176721789D01*
X87521789Y-176610289D01*
X87609394Y-176479179D01*
X87669737Y-176333497D01*
X87700500Y-176178842D01*
X87700500Y-176021158D01*
X87700500Y-176021155D01*
X87700499Y-176021153D01*
X87692148Y-175979172D01*
X87669737Y-175866503D01*
X87669146Y-175865075D01*
X87609397Y-175720827D01*
X87609390Y-175720814D01*
X87521789Y-175589711D01*
X87521786Y-175589707D01*
X87410292Y-175478213D01*
X87410288Y-175478210D01*
X87279185Y-175390609D01*
X87279172Y-175390602D01*
X87133501Y-175330264D01*
X87133489Y-175330261D01*
X86978845Y-175299500D01*
X86978842Y-175299500D01*
X86821158Y-175299500D01*
X86821155Y-175299500D01*
X86666510Y-175330261D01*
X86666498Y-175330264D01*
X86520827Y-175390602D01*
X86520814Y-175390609D01*
X86389711Y-175478210D01*
X86389707Y-175478213D01*
X86278213Y-175589707D01*
X86278210Y-175589711D01*
X86190609Y-175720814D01*
X86190604Y-175720823D01*
X86155979Y-175804418D01*
X86143552Y-175819838D01*
X86135380Y-175837880D01*
X86122077Y-175846486D01*
X86112138Y-175858821D01*
X86093346Y-175865075D01*
X86076718Y-175875834D01*
X86060876Y-175875882D01*
X86045844Y-175880886D01*
X86026653Y-175875988D01*
X86006849Y-175876049D01*
X85993495Y-175867524D01*
X85978145Y-175863607D01*
X85964648Y-175849111D01*
X85947955Y-175838455D01*
X85938009Y-175820498D01*
X85930534Y-175812470D01*
X85928782Y-175808823D01*
X85924228Y-175798933D01*
X85923580Y-175795672D01*
X85870775Y-175668189D01*
X85849097Y-175635746D01*
X85845005Y-175626858D01*
X85841292Y-175601586D01*
X85833661Y-175577214D01*
X85836299Y-175567596D01*
X85834850Y-175557730D01*
X85845387Y-175534465D01*
X85852145Y-175509834D01*
X85854539Y-175506109D01*
X85870775Y-175481811D01*
X85923580Y-175354328D01*
X85938458Y-175279531D01*
X85950500Y-175218995D01*
X85950500Y-175081004D01*
X85923581Y-174945677D01*
X85923580Y-174945676D01*
X85923580Y-174945672D01*
X85918537Y-174933497D01*
X85870778Y-174818195D01*
X85870771Y-174818182D01*
X85794114Y-174703458D01*
X85794111Y-174703454D01*
X85696545Y-174605888D01*
X85691834Y-174602022D01*
X85693127Y-174600445D01*
X85654303Y-174553983D01*
X85645600Y-174484657D01*
X85675759Y-174421632D01*
X85735204Y-174384916D01*
X85768002Y-174380500D01*
X86297059Y-174380500D01*
X86364098Y-174400185D01*
X86384740Y-174416819D01*
X86389707Y-174421786D01*
X86389711Y-174421789D01*
X86520814Y-174509390D01*
X86520827Y-174509397D01*
X86666498Y-174569735D01*
X86666503Y-174569737D01*
X86821153Y-174600499D01*
X86821156Y-174600500D01*
X86821158Y-174600500D01*
X86978844Y-174600500D01*
X86978845Y-174600499D01*
X87133497Y-174569737D01*
X87279179Y-174509394D01*
X87410289Y-174421789D01*
X87521789Y-174310289D01*
X87609394Y-174179179D01*
X87609653Y-174178555D01*
X87630147Y-174129077D01*
X87669737Y-174033497D01*
X87700500Y-173878842D01*
X87700500Y-173721158D01*
X87700500Y-173721155D01*
X87700499Y-173721153D01*
X87694662Y-173691808D01*
X87669737Y-173566503D01*
X87663425Y-173551265D01*
X87609397Y-173420827D01*
X87609390Y-173420814D01*
X87521789Y-173289711D01*
X87521786Y-173289707D01*
X87410292Y-173178213D01*
X87410288Y-173178210D01*
X87279185Y-173090609D01*
X87279172Y-173090602D01*
X87133501Y-173030264D01*
X87133489Y-173030261D01*
X86978845Y-172999500D01*
X86978842Y-172999500D01*
X86821158Y-172999500D01*
X86821155Y-172999500D01*
X86666510Y-173030261D01*
X86666498Y-173030264D01*
X86520827Y-173090602D01*
X86520814Y-173090609D01*
X86389711Y-173178210D01*
X86389707Y-173178213D01*
X86384740Y-173183181D01*
X86323417Y-173216666D01*
X86297059Y-173219500D01*
X84666934Y-173219500D01*
X84599895Y-173199815D01*
X84563832Y-173164391D01*
X84473173Y-173028711D01*
X84473170Y-173028707D01*
X84361676Y-172917213D01*
X84361672Y-172917210D01*
X84230569Y-172829609D01*
X84230556Y-172829602D01*
X84084885Y-172769264D01*
X84084873Y-172769261D01*
X83930229Y-172738500D01*
X83930226Y-172738500D01*
X83772542Y-172738500D01*
X83772539Y-172738500D01*
X83617894Y-172769261D01*
X83617882Y-172769264D01*
X83472211Y-172829602D01*
X83472198Y-172829609D01*
X83341095Y-172917210D01*
X83341091Y-172917213D01*
X83278373Y-172979932D01*
X83217050Y-173013417D01*
X83147358Y-173008433D01*
X83103011Y-172979932D01*
X83040292Y-172917213D01*
X83040288Y-172917210D01*
X82909185Y-172829609D01*
X82909172Y-172829602D01*
X82763501Y-172769264D01*
X82763489Y-172769261D01*
X82608845Y-172738500D01*
X82608842Y-172738500D01*
X82451158Y-172738500D01*
X82451155Y-172738500D01*
X82296510Y-172769261D01*
X82296498Y-172769264D01*
X82150827Y-172829602D01*
X82150814Y-172829609D01*
X82019711Y-172917210D01*
X82019707Y-172917213D01*
X81908213Y-173028707D01*
X81908210Y-173028711D01*
X81820609Y-173159814D01*
X81820602Y-173159827D01*
X81760264Y-173305498D01*
X81760261Y-173305510D01*
X81729500Y-173460153D01*
X81729500Y-173617846D01*
X81760261Y-173772489D01*
X81760264Y-173772501D01*
X81820602Y-173918172D01*
X81820609Y-173918184D01*
X81833037Y-173936784D01*
X81853915Y-174003461D01*
X81835431Y-174070841D01*
X81783452Y-174117532D01*
X81742095Y-174129077D01*
X81737812Y-174129498D01*
X81583163Y-174160261D01*
X81583151Y-174160264D01*
X81437480Y-174220602D01*
X81437467Y-174220609D01*
X81306364Y-174308210D01*
X81306360Y-174308213D01*
X81194866Y-174419707D01*
X81194863Y-174419711D01*
X81107262Y-174550814D01*
X81107255Y-174550827D01*
X81046917Y-174696498D01*
X81046914Y-174696510D01*
X81016153Y-174851153D01*
X72386117Y-174851153D01*
X72392140Y-174820874D01*
X72392140Y-174820873D01*
X72400499Y-174778846D01*
X72400500Y-174778844D01*
X72400500Y-174621155D01*
X72400499Y-174621153D01*
X72396380Y-174600445D01*
X72369737Y-174466503D01*
X72350354Y-174419707D01*
X72309397Y-174320827D01*
X72309390Y-174320814D01*
X72221789Y-174189711D01*
X72221786Y-174189707D01*
X72110292Y-174078213D01*
X72110288Y-174078210D01*
X71979185Y-173990609D01*
X71979172Y-173990602D01*
X71833501Y-173930264D01*
X71833491Y-173930261D01*
X71678151Y-173899362D01*
X71616241Y-173866977D01*
X71614662Y-173865426D01*
X70983740Y-173234504D01*
X70950255Y-173173181D01*
X70955239Y-173103489D01*
X70997111Y-173047556D01*
X71023962Y-173032265D01*
X71079179Y-173009394D01*
X71210289Y-172921789D01*
X71321789Y-172810289D01*
X71409394Y-172679179D01*
X71469737Y-172533497D01*
X71500500Y-172378842D01*
X71500500Y-172221158D01*
X71500500Y-172221155D01*
X71500499Y-172221153D01*
X71469738Y-172066510D01*
X71469737Y-172066503D01*
X71453854Y-172028157D01*
X71409397Y-171920827D01*
X71409390Y-171920814D01*
X71321789Y-171789711D01*
X71321786Y-171789707D01*
X71210292Y-171678213D01*
X71210288Y-171678210D01*
X71079185Y-171590609D01*
X71079172Y-171590602D01*
X70933501Y-171530264D01*
X70933491Y-171530261D01*
X70778149Y-171499361D01*
X70716238Y-171466976D01*
X70714660Y-171465425D01*
X68870388Y-169621153D01*
X79199500Y-169621153D01*
X79199500Y-169778846D01*
X79230261Y-169933489D01*
X79230264Y-169933501D01*
X79290602Y-170079172D01*
X79290609Y-170079185D01*
X79378210Y-170210288D01*
X79378213Y-170210292D01*
X79489707Y-170321786D01*
X79489711Y-170321789D01*
X79620814Y-170409390D01*
X79620827Y-170409397D01*
X79720060Y-170450500D01*
X79766503Y-170469737D01*
X79921153Y-170500499D01*
X79921156Y-170500500D01*
X79921158Y-170500500D01*
X80078844Y-170500500D01*
X80078845Y-170500499D01*
X80155152Y-170485320D01*
X80233488Y-170469739D01*
X80233489Y-170469738D01*
X80233497Y-170469737D01*
X80257155Y-170459937D01*
X80304604Y-170450500D01*
X81473920Y-170450500D01*
X81571462Y-170431096D01*
X81618913Y-170421658D01*
X81755495Y-170365084D01*
X81822488Y-170320321D01*
X81822491Y-170320318D01*
X81822493Y-170320318D01*
X81850638Y-170301511D01*
X81878416Y-170282952D01*
X83214702Y-168946666D01*
X83779124Y-168382244D01*
X85260591Y-168382244D01*
X85260591Y-168539937D01*
X85291352Y-168694580D01*
X85291355Y-168694592D01*
X85351693Y-168840263D01*
X85351700Y-168840276D01*
X85439301Y-168971379D01*
X85439304Y-168971383D01*
X85550798Y-169082877D01*
X85550802Y-169082880D01*
X85681905Y-169170481D01*
X85681918Y-169170488D01*
X85822106Y-169228555D01*
X85827594Y-169230828D01*
X85892238Y-169243686D01*
X85982940Y-169261729D01*
X86044851Y-169294114D01*
X86046430Y-169295665D01*
X86663181Y-169912416D01*
X86696666Y-169973739D01*
X86699500Y-170000097D01*
X86699500Y-170420234D01*
X86679815Y-170487273D01*
X86678602Y-170489125D01*
X86590609Y-170620814D01*
X86590602Y-170620827D01*
X86530264Y-170766498D01*
X86530261Y-170766510D01*
X86499500Y-170921153D01*
X86499500Y-171078846D01*
X86530261Y-171233489D01*
X86530264Y-171233501D01*
X86590602Y-171379172D01*
X86590609Y-171379185D01*
X86678210Y-171510288D01*
X86678213Y-171510292D01*
X86789707Y-171621786D01*
X86789711Y-171621789D01*
X86920814Y-171709390D01*
X86920827Y-171709397D01*
X87018853Y-171750000D01*
X87066503Y-171769737D01*
X87221153Y-171800499D01*
X87221156Y-171800500D01*
X87221158Y-171800500D01*
X87378844Y-171800500D01*
X87378845Y-171800499D01*
X87533497Y-171769737D01*
X87679179Y-171709394D01*
X87810289Y-171621789D01*
X87921789Y-171510289D01*
X88009394Y-171379179D01*
X88069737Y-171233497D01*
X88100500Y-171078842D01*
X88100500Y-170921158D01*
X88100500Y-170921155D01*
X88100499Y-170921153D01*
X88069738Y-170766510D01*
X88069737Y-170766503D01*
X88062901Y-170750000D01*
X88009397Y-170620827D01*
X88009390Y-170620814D01*
X87972303Y-170565310D01*
X87957848Y-170543677D01*
X105309873Y-170543677D01*
X105309873Y-170543678D01*
X105344858Y-170569096D01*
X105520164Y-170658418D01*
X105707294Y-170719221D01*
X105901618Y-170750000D01*
X106098382Y-170750000D01*
X106292705Y-170719221D01*
X106479835Y-170658418D01*
X106655143Y-170569095D01*
X106690125Y-170543678D01*
X106690126Y-170543678D01*
X106000001Y-169853553D01*
X106000000Y-169853553D01*
X105309873Y-170543677D01*
X87957848Y-170543677D01*
X87921398Y-170489125D01*
X87900520Y-170422447D01*
X87900500Y-170420234D01*
X87900500Y-169789059D01*
X87900501Y-169789046D01*
X87900501Y-169620945D01*
X87900501Y-169620943D01*
X87894910Y-169600077D01*
X87896571Y-169530232D01*
X87935732Y-169472368D01*
X87945777Y-169464894D01*
X88010289Y-169421789D01*
X88030461Y-169401617D01*
X104750000Y-169401617D01*
X104750000Y-169598382D01*
X104780778Y-169792705D01*
X104841581Y-169979835D01*
X104930905Y-170155145D01*
X104956319Y-170190125D01*
X104956320Y-170190125D01*
X105646446Y-169500000D01*
X105646446Y-169499999D01*
X105600369Y-169453922D01*
X105650000Y-169453922D01*
X105650000Y-169546078D01*
X105673852Y-169635095D01*
X105719930Y-169714905D01*
X105785095Y-169780070D01*
X105864905Y-169826148D01*
X105953922Y-169850000D01*
X106046078Y-169850000D01*
X106135095Y-169826148D01*
X106214905Y-169780070D01*
X106280070Y-169714905D01*
X106326148Y-169635095D01*
X106350000Y-169546078D01*
X106350000Y-169453922D01*
X106326148Y-169364905D01*
X106280070Y-169285095D01*
X106214905Y-169219930D01*
X106135095Y-169173852D01*
X106046078Y-169150000D01*
X105953922Y-169150000D01*
X105864905Y-169173852D01*
X105785095Y-169219930D01*
X105719930Y-169285095D01*
X105673852Y-169364905D01*
X105650000Y-169453922D01*
X105600369Y-169453922D01*
X104956320Y-168809872D01*
X104956320Y-168809873D01*
X104930902Y-168844859D01*
X104930899Y-168844863D01*
X104841582Y-169020161D01*
X104780778Y-169207294D01*
X104750000Y-169401617D01*
X88030461Y-169401617D01*
X88121789Y-169310289D01*
X88209394Y-169179179D01*
X88209653Y-169178555D01*
X88237573Y-169111149D01*
X88269737Y-169033497D01*
X88300500Y-168878842D01*
X88300500Y-168721158D01*
X88300500Y-168721155D01*
X88300499Y-168721153D01*
X88282419Y-168630261D01*
X88269737Y-168566503D01*
X88224098Y-168456320D01*
X105309872Y-168456320D01*
X106000000Y-169146446D01*
X106000001Y-169146446D01*
X106690125Y-168456320D01*
X106690125Y-168456319D01*
X106655145Y-168430905D01*
X106479835Y-168341581D01*
X106292705Y-168280778D01*
X106098382Y-168250000D01*
X105901618Y-168250000D01*
X105707294Y-168280778D01*
X105520161Y-168341582D01*
X105344863Y-168430899D01*
X105344859Y-168430902D01*
X105309873Y-168456320D01*
X105309872Y-168456320D01*
X88224098Y-168456320D01*
X88220953Y-168448726D01*
X88209397Y-168420827D01*
X88209390Y-168420814D01*
X88124582Y-168293891D01*
X88103704Y-168227214D01*
X88122188Y-168159834D01*
X88124582Y-168156109D01*
X88209390Y-168029185D01*
X88209390Y-168029184D01*
X88209394Y-168029179D01*
X88269737Y-167883497D01*
X88300500Y-167728842D01*
X88300500Y-167571158D01*
X88300500Y-167571155D01*
X88300499Y-167571153D01*
X88269738Y-167416510D01*
X88269737Y-167416503D01*
X88239952Y-167344594D01*
X88209397Y-167270827D01*
X88209390Y-167270814D01*
X88121789Y-167139711D01*
X88121786Y-167139707D01*
X88010292Y-167028213D01*
X88010288Y-167028210D01*
X87879185Y-166940609D01*
X87879172Y-166940602D01*
X87733501Y-166880264D01*
X87733489Y-166880261D01*
X87578845Y-166849500D01*
X87578842Y-166849500D01*
X87421158Y-166849500D01*
X87421155Y-166849500D01*
X87266510Y-166880261D01*
X87266498Y-166880264D01*
X87120827Y-166940602D01*
X87120814Y-166940609D01*
X86989711Y-167028210D01*
X86989707Y-167028213D01*
X86878213Y-167139707D01*
X86878210Y-167139711D01*
X86790609Y-167270814D01*
X86790602Y-167270827D01*
X86730264Y-167416498D01*
X86730261Y-167416510D01*
X86699500Y-167571153D01*
X86699500Y-167692920D01*
X86679815Y-167759959D01*
X86627011Y-167805714D01*
X86557853Y-167815658D01*
X86506610Y-167796023D01*
X86440274Y-167751699D01*
X86440263Y-167751693D01*
X86294592Y-167691355D01*
X86294580Y-167691352D01*
X86139936Y-167660591D01*
X86139933Y-167660591D01*
X85982249Y-167660591D01*
X85982246Y-167660591D01*
X85827601Y-167691352D01*
X85827589Y-167691355D01*
X85681918Y-167751693D01*
X85681905Y-167751700D01*
X85550802Y-167839301D01*
X85550798Y-167839304D01*
X85439304Y-167950798D01*
X85439301Y-167950802D01*
X85351700Y-168081905D01*
X85351693Y-168081918D01*
X85291355Y-168227589D01*
X85291352Y-168227601D01*
X85260591Y-168382244D01*
X83779124Y-168382244D01*
X83872892Y-168288476D01*
X85521852Y-166639515D01*
X87215295Y-164946070D01*
X87255519Y-164919193D01*
X87279179Y-164909394D01*
X87410289Y-164821789D01*
X87521789Y-164710289D01*
X87609394Y-164579179D01*
X87669737Y-164433497D01*
X87700500Y-164278842D01*
X87700500Y-164121158D01*
X87700500Y-164121155D01*
X87700499Y-164121153D01*
X87669737Y-163966503D01*
X87635855Y-163884704D01*
X87609397Y-163820827D01*
X87609390Y-163820814D01*
X87521789Y-163689711D01*
X87521786Y-163689707D01*
X87410292Y-163578213D01*
X87410288Y-163578210D01*
X87279185Y-163490609D01*
X87279172Y-163490602D01*
X87133501Y-163430264D01*
X87133489Y-163430261D01*
X86978845Y-163399500D01*
X86978842Y-163399500D01*
X86821158Y-163399500D01*
X86821155Y-163399500D01*
X86666510Y-163430261D01*
X86666498Y-163430264D01*
X86520827Y-163490602D01*
X86520814Y-163490609D01*
X86389711Y-163578210D01*
X86389707Y-163578213D01*
X86278213Y-163689707D01*
X86278207Y-163689715D01*
X86190607Y-163820818D01*
X86190605Y-163820822D01*
X86180805Y-163844480D01*
X86153927Y-163884704D01*
X81125451Y-168913181D01*
X81064128Y-168946666D01*
X81037770Y-168949500D01*
X80304604Y-168949500D01*
X80257155Y-168940062D01*
X80233497Y-168930263D01*
X80233493Y-168930262D01*
X80233488Y-168930260D01*
X80078845Y-168899500D01*
X80078842Y-168899500D01*
X79921158Y-168899500D01*
X79921155Y-168899500D01*
X79766510Y-168930261D01*
X79766498Y-168930264D01*
X79620827Y-168990602D01*
X79620814Y-168990609D01*
X79489711Y-169078210D01*
X79489707Y-169078213D01*
X79378213Y-169189707D01*
X79378210Y-169189711D01*
X79290609Y-169320814D01*
X79290602Y-169320827D01*
X79230264Y-169466498D01*
X79230261Y-169466510D01*
X79199500Y-169621153D01*
X68870388Y-169621153D01*
X65487590Y-166238355D01*
X65487588Y-166238352D01*
X65368717Y-166119481D01*
X65368716Y-166119480D01*
X65281904Y-166069360D01*
X65281904Y-166069359D01*
X65281900Y-166069358D01*
X65231785Y-166040423D01*
X65079057Y-165999499D01*
X65079054Y-165999499D01*
X64979764Y-165999499D01*
X64912725Y-165979814D01*
X64910873Y-165978601D01*
X64779185Y-165890609D01*
X64779172Y-165890602D01*
X64633501Y-165830264D01*
X64633489Y-165830261D01*
X64478845Y-165799500D01*
X64478842Y-165799500D01*
X64321158Y-165799500D01*
X64321155Y-165799500D01*
X64166510Y-165830261D01*
X64166498Y-165830264D01*
X64020827Y-165890602D01*
X64020814Y-165890609D01*
X63889715Y-165978207D01*
X63887467Y-165980053D01*
X63886058Y-165980651D01*
X63884646Y-165981595D01*
X63884467Y-165981327D01*
X63823158Y-166007368D01*
X63754290Y-165995579D01*
X63721118Y-165971883D01*
X60687590Y-162938355D01*
X60687588Y-162938352D01*
X60568717Y-162819481D01*
X60568716Y-162819480D01*
X60481904Y-162769360D01*
X60481904Y-162769359D01*
X60481900Y-162769358D01*
X60431785Y-162740423D01*
X60279057Y-162699499D01*
X60120943Y-162699499D01*
X60113347Y-162699499D01*
X60113331Y-162699500D01*
X59879766Y-162699500D01*
X59812727Y-162679815D01*
X59810875Y-162678602D01*
X59679185Y-162590609D01*
X59679172Y-162590602D01*
X59533501Y-162530264D01*
X59533489Y-162530261D01*
X59378845Y-162499500D01*
X59378842Y-162499500D01*
X59221158Y-162499500D01*
X59221155Y-162499500D01*
X59066510Y-162530261D01*
X59066498Y-162530264D01*
X58920827Y-162590602D01*
X58920814Y-162590609D01*
X58789711Y-162678210D01*
X58789707Y-162678213D01*
X58678213Y-162789707D01*
X58678210Y-162789711D01*
X58590609Y-162920814D01*
X58590602Y-162920827D01*
X58530264Y-163066498D01*
X58530261Y-163066508D01*
X58513419Y-163151180D01*
X58481034Y-163213091D01*
X58439255Y-163241549D01*
X58320823Y-163290604D01*
X58320814Y-163290609D01*
X58189711Y-163378210D01*
X58189707Y-163378213D01*
X58078213Y-163489707D01*
X58078210Y-163489711D01*
X57990609Y-163620814D01*
X57990602Y-163620827D01*
X57930264Y-163766498D01*
X57930261Y-163766510D01*
X57899500Y-163921153D01*
X51159474Y-163921153D01*
X51044990Y-163837976D01*
X50842962Y-163735038D01*
X50842961Y-163735037D01*
X50842960Y-163735037D01*
X50627318Y-163664970D01*
X50627316Y-163664969D01*
X50627315Y-163664969D01*
X50455283Y-163637722D01*
X50403370Y-163629500D01*
X50176630Y-163629500D01*
X50124716Y-163637722D01*
X49952685Y-163664969D01*
X49737037Y-163735038D01*
X49535009Y-163837976D01*
X49351583Y-163971242D01*
X49351578Y-163971246D01*
X49191246Y-164131578D01*
X49191242Y-164131583D01*
X49057976Y-164315009D01*
X48955038Y-164517037D01*
X48884969Y-164732685D01*
X48849500Y-164956630D01*
X40500500Y-164956630D01*
X40500500Y-154198135D01*
X51745500Y-154198135D01*
X51745500Y-155801870D01*
X51745501Y-155801876D01*
X51751908Y-155861483D01*
X51802202Y-155996328D01*
X51802206Y-155996335D01*
X51888452Y-156111544D01*
X51888455Y-156111547D01*
X52003664Y-156197793D01*
X52003671Y-156197797D01*
X52023528Y-156205203D01*
X52138517Y-156248091D01*
X52198127Y-156254500D01*
X52198336Y-156254499D01*
X52198381Y-156254513D01*
X52201453Y-156254678D01*
X52201414Y-156255402D01*
X52265378Y-156274165D01*
X52311148Y-156326956D01*
X52321111Y-156396112D01*
X52292104Y-156459675D01*
X52271254Y-156478817D01*
X52182749Y-156543119D01*
X52043115Y-156682753D01*
X51927058Y-156842495D01*
X51927056Y-156842499D01*
X51847379Y-156998873D01*
X51837408Y-157018441D01*
X51776389Y-157206236D01*
X51745500Y-157401263D01*
X51745500Y-157598736D01*
X51776389Y-157793763D01*
X51823915Y-157940032D01*
X51837409Y-157981561D01*
X51924337Y-158152164D01*
X51927058Y-158157504D01*
X52043115Y-158317246D01*
X52138188Y-158412319D01*
X52171673Y-158473642D01*
X52166689Y-158543334D01*
X52138188Y-158587681D01*
X52043119Y-158682749D01*
X52043115Y-158682753D01*
X51927058Y-158842495D01*
X51837408Y-159018441D01*
X51776389Y-159206236D01*
X51745500Y-159401263D01*
X51745500Y-159598736D01*
X51776389Y-159793763D01*
X51837408Y-159981558D01*
X51837409Y-159981561D01*
X51927056Y-160157501D01*
X51927058Y-160157504D01*
X52043115Y-160317246D01*
X52182753Y-160456884D01*
X52332234Y-160565486D01*
X52342499Y-160572944D01*
X52473702Y-160639796D01*
X52524497Y-160687770D01*
X52541292Y-160755591D01*
X52518754Y-160821726D01*
X52473701Y-160860765D01*
X52342762Y-160927482D01*
X52342760Y-160927483D01*
X52307010Y-160953456D01*
X52307010Y-160953457D01*
X52870591Y-161517037D01*
X52807007Y-161534075D01*
X52692993Y-161599901D01*
X52599901Y-161692993D01*
X52534075Y-161807007D01*
X52517037Y-161870590D01*
X51953457Y-161307010D01*
X51953456Y-161307010D01*
X51927483Y-161342760D01*
X51927482Y-161342762D01*
X51837873Y-161518626D01*
X51776876Y-161706353D01*
X51746000Y-161901302D01*
X51746000Y-162098697D01*
X51776876Y-162293646D01*
X51837873Y-162481373D01*
X51927483Y-162657239D01*
X51953457Y-162692988D01*
X51953457Y-162692989D01*
X52517037Y-162129408D01*
X52534075Y-162192993D01*
X52599901Y-162307007D01*
X52692993Y-162400099D01*
X52807007Y-162465925D01*
X52870590Y-162482962D01*
X52307009Y-163046541D01*
X52307010Y-163046542D01*
X52342755Y-163072512D01*
X52342768Y-163072520D01*
X52518626Y-163162126D01*
X52706353Y-163223123D01*
X52901303Y-163254000D01*
X53098697Y-163254000D01*
X53293646Y-163223123D01*
X53481373Y-163162126D01*
X53657241Y-163072516D01*
X53692988Y-163046543D01*
X53692988Y-163046541D01*
X53129410Y-162482962D01*
X53192993Y-162465925D01*
X53307007Y-162400099D01*
X53400099Y-162307007D01*
X53465925Y-162192993D01*
X53482962Y-162129409D01*
X54046541Y-162692988D01*
X54046543Y-162692988D01*
X54072516Y-162657241D01*
X54162126Y-162481373D01*
X54223123Y-162293646D01*
X54254000Y-162098697D01*
X54254000Y-161901302D01*
X54223123Y-161706353D01*
X54162126Y-161518626D01*
X54072520Y-161342768D01*
X54072512Y-161342755D01*
X54046542Y-161307010D01*
X54046541Y-161307009D01*
X53482962Y-161870589D01*
X53465925Y-161807007D01*
X53400099Y-161692993D01*
X53307007Y-161599901D01*
X53192993Y-161534075D01*
X53129409Y-161517037D01*
X53692989Y-160953457D01*
X53657239Y-160927483D01*
X53526298Y-160860765D01*
X53475502Y-160812790D01*
X53458707Y-160744969D01*
X53481245Y-160678834D01*
X53526294Y-160639797D01*
X53657501Y-160572944D01*
X53677912Y-160558114D01*
X53817246Y-160456884D01*
X53817248Y-160456881D01*
X53817252Y-160456879D01*
X53956879Y-160317252D01*
X53956881Y-160317248D01*
X53956884Y-160317246D01*
X54007779Y-160247192D01*
X54072944Y-160157501D01*
X54162591Y-159981561D01*
X54223610Y-159793763D01*
X54254500Y-159598736D01*
X54254500Y-159401263D01*
X54223610Y-159206236D01*
X54203270Y-159143637D01*
X54162591Y-159018439D01*
X54072944Y-158842499D01*
X54067577Y-158835113D01*
X53998380Y-158739868D01*
X53998373Y-158739860D01*
X53971286Y-158702577D01*
X70388475Y-158702577D01*
X70493736Y-158746178D01*
X70493740Y-158746179D01*
X70638626Y-158774999D01*
X70638629Y-158775000D01*
X70786371Y-158775000D01*
X70786373Y-158774999D01*
X70931260Y-158746179D01*
X70931275Y-158746175D01*
X71036524Y-158702578D01*
X71036524Y-158702577D01*
X71488475Y-158702577D01*
X71593736Y-158746178D01*
X71593740Y-158746179D01*
X71738626Y-158774999D01*
X71738629Y-158775000D01*
X71886371Y-158775000D01*
X71886373Y-158774999D01*
X72031260Y-158746179D01*
X72031275Y-158746175D01*
X72136524Y-158702578D01*
X72136524Y-158702577D01*
X72588475Y-158702577D01*
X72693736Y-158746178D01*
X72693740Y-158746179D01*
X72838626Y-158774999D01*
X72838629Y-158775000D01*
X72986371Y-158775000D01*
X72986373Y-158774999D01*
X73131260Y-158746179D01*
X73131275Y-158746175D01*
X73236524Y-158702578D01*
X73236524Y-158702577D01*
X72912501Y-158378554D01*
X72912500Y-158378554D01*
X72588475Y-158702577D01*
X72136524Y-158702577D01*
X71812501Y-158378554D01*
X71812500Y-158378554D01*
X71488475Y-158702577D01*
X71036524Y-158702577D01*
X70712501Y-158378554D01*
X70712500Y-158378554D01*
X70388475Y-158702577D01*
X53971286Y-158702577D01*
X53956879Y-158682748D01*
X53859471Y-158585340D01*
X53857275Y-158582897D01*
X53843549Y-158554236D01*
X53828327Y-158526358D01*
X53828570Y-158522956D01*
X53827097Y-158519880D01*
X53831044Y-158488357D01*
X53833311Y-158456666D01*
X53835425Y-158453376D01*
X53835779Y-158450552D01*
X53842121Y-158442956D01*
X53861812Y-158412319D01*
X53895577Y-158378554D01*
X53956879Y-158317252D01*
X53956881Y-158317248D01*
X53956884Y-158317246D01*
X54010274Y-158243759D01*
X54072944Y-158157501D01*
X54162591Y-157981561D01*
X54172480Y-157951126D01*
X69962500Y-157951126D01*
X69962500Y-158098873D01*
X69991320Y-158243759D01*
X69991322Y-158243767D01*
X70034921Y-158349024D01*
X70358946Y-158025000D01*
X70358946Y-158024999D01*
X70329110Y-157995163D01*
X70562500Y-157995163D01*
X70562500Y-158054837D01*
X70585336Y-158109968D01*
X70627532Y-158152164D01*
X70682663Y-158175000D01*
X70742337Y-158175000D01*
X70797468Y-158152164D01*
X70839664Y-158109968D01*
X70862500Y-158054837D01*
X70862500Y-158025000D01*
X71066054Y-158025000D01*
X71262500Y-158221446D01*
X71458946Y-158025000D01*
X71429109Y-157995163D01*
X71662500Y-157995163D01*
X71662500Y-158054837D01*
X71685336Y-158109968D01*
X71727532Y-158152164D01*
X71782663Y-158175000D01*
X71842337Y-158175000D01*
X71897468Y-158152164D01*
X71939664Y-158109968D01*
X71962500Y-158054837D01*
X71962500Y-158025000D01*
X72166054Y-158025000D01*
X72362500Y-158221446D01*
X72558946Y-158025000D01*
X72529109Y-157995163D01*
X72762500Y-157995163D01*
X72762500Y-158054837D01*
X72785336Y-158109968D01*
X72827532Y-158152164D01*
X72882663Y-158175000D01*
X72942337Y-158175000D01*
X72997468Y-158152164D01*
X73039664Y-158109968D01*
X73062500Y-158054837D01*
X73062500Y-158024999D01*
X73266054Y-158024999D01*
X73266054Y-158025001D01*
X73590077Y-158349024D01*
X73590078Y-158349024D01*
X73633675Y-158243775D01*
X73633679Y-158243760D01*
X73662499Y-158098873D01*
X73662500Y-158098871D01*
X73662500Y-157951128D01*
X73662499Y-157951126D01*
X73633679Y-157806240D01*
X73633678Y-157806236D01*
X73590077Y-157700975D01*
X73266054Y-158024999D01*
X73062500Y-158024999D01*
X73062500Y-157995163D01*
X73039664Y-157940032D01*
X72997468Y-157897836D01*
X72942337Y-157875000D01*
X72882663Y-157875000D01*
X72827532Y-157897836D01*
X72785336Y-157940032D01*
X72762500Y-157995163D01*
X72529109Y-157995163D01*
X72362500Y-157828554D01*
X72166054Y-158025000D01*
X71962500Y-158025000D01*
X71962500Y-157995163D01*
X71939664Y-157940032D01*
X71897468Y-157897836D01*
X71842337Y-157875000D01*
X71782663Y-157875000D01*
X71727532Y-157897836D01*
X71685336Y-157940032D01*
X71662500Y-157995163D01*
X71429109Y-157995163D01*
X71262500Y-157828554D01*
X71066054Y-158025000D01*
X70862500Y-158025000D01*
X70862500Y-157995163D01*
X70839664Y-157940032D01*
X70797468Y-157897836D01*
X70742337Y-157875000D01*
X70682663Y-157875000D01*
X70627532Y-157897836D01*
X70585336Y-157940032D01*
X70562500Y-157995163D01*
X70329110Y-157995163D01*
X70034921Y-157700974D01*
X70034920Y-157700974D01*
X69991323Y-157806228D01*
X69991320Y-157806240D01*
X69962500Y-157951126D01*
X54172480Y-157951126D01*
X54223610Y-157793763D01*
X54254500Y-157598736D01*
X54254500Y-157475000D01*
X70516054Y-157475000D01*
X70712500Y-157671446D01*
X70908946Y-157475000D01*
X71616054Y-157475000D01*
X71812500Y-157671446D01*
X72008946Y-157475000D01*
X72716054Y-157475000D01*
X72912500Y-157671446D01*
X73108946Y-157475000D01*
X72912500Y-157278554D01*
X72716054Y-157475000D01*
X72008946Y-157475000D01*
X71812500Y-157278554D01*
X71616054Y-157475000D01*
X70908946Y-157475000D01*
X70712500Y-157278554D01*
X70516054Y-157475000D01*
X54254500Y-157475000D01*
X54254500Y-157401263D01*
X54223610Y-157206236D01*
X54196060Y-157121446D01*
X54162591Y-157018439D01*
X54077340Y-156851126D01*
X69962500Y-156851126D01*
X69962500Y-156998873D01*
X69991320Y-157143759D01*
X69991322Y-157143767D01*
X70034921Y-157249024D01*
X70358946Y-156925000D01*
X70358946Y-156924999D01*
X70329110Y-156895163D01*
X70562500Y-156895163D01*
X70562500Y-156954837D01*
X70585336Y-157009968D01*
X70627532Y-157052164D01*
X70682663Y-157075000D01*
X70742337Y-157075000D01*
X70797468Y-157052164D01*
X70839664Y-157009968D01*
X70862500Y-156954837D01*
X70862500Y-156925000D01*
X71066054Y-156925000D01*
X71262500Y-157121446D01*
X71458946Y-156925000D01*
X71429109Y-156895163D01*
X71662500Y-156895163D01*
X71662500Y-156954837D01*
X71685336Y-157009968D01*
X71727532Y-157052164D01*
X71782663Y-157075000D01*
X71842337Y-157075000D01*
X71897468Y-157052164D01*
X71939664Y-157009968D01*
X71962500Y-156954837D01*
X71962500Y-156925000D01*
X72166054Y-156925000D01*
X72362500Y-157121446D01*
X72558946Y-156925000D01*
X72529109Y-156895163D01*
X72762500Y-156895163D01*
X72762500Y-156954837D01*
X72785336Y-157009968D01*
X72827532Y-157052164D01*
X72882663Y-157075000D01*
X72942337Y-157075000D01*
X72997468Y-157052164D01*
X73039664Y-157009968D01*
X73062500Y-156954837D01*
X73062500Y-156924999D01*
X73266054Y-156924999D01*
X73266054Y-156925001D01*
X73590077Y-157249024D01*
X73590078Y-157249024D01*
X73633675Y-157143775D01*
X73633679Y-157143760D01*
X73662499Y-156998873D01*
X73662500Y-156998871D01*
X73662500Y-156851128D01*
X73662499Y-156851126D01*
X73633679Y-156706240D01*
X73633678Y-156706236D01*
X73590077Y-156600975D01*
X73266054Y-156924999D01*
X73062500Y-156924999D01*
X73062500Y-156895163D01*
X73039664Y-156840032D01*
X72997468Y-156797836D01*
X72942337Y-156775000D01*
X72882663Y-156775000D01*
X72827532Y-156797836D01*
X72785336Y-156840032D01*
X72762500Y-156895163D01*
X72529109Y-156895163D01*
X72362500Y-156728554D01*
X72166054Y-156925000D01*
X71962500Y-156925000D01*
X71962500Y-156895163D01*
X71939664Y-156840032D01*
X71897468Y-156797836D01*
X71842337Y-156775000D01*
X71782663Y-156775000D01*
X71727532Y-156797836D01*
X71685336Y-156840032D01*
X71662500Y-156895163D01*
X71429109Y-156895163D01*
X71262500Y-156728554D01*
X71066054Y-156925000D01*
X70862500Y-156925000D01*
X70862500Y-156895163D01*
X70839664Y-156840032D01*
X70797468Y-156797836D01*
X70742337Y-156775000D01*
X70682663Y-156775000D01*
X70627532Y-156797836D01*
X70585336Y-156840032D01*
X70562500Y-156895163D01*
X70329110Y-156895163D01*
X70034921Y-156600974D01*
X70034920Y-156600974D01*
X69991323Y-156706228D01*
X69991320Y-156706240D01*
X69962500Y-156851126D01*
X54077340Y-156851126D01*
X54072944Y-156842499D01*
X54040495Y-156797836D01*
X53956884Y-156682753D01*
X53817250Y-156543119D01*
X53817245Y-156543115D01*
X53728746Y-156478817D01*
X53686080Y-156423487D01*
X53681915Y-156375000D01*
X70516054Y-156375000D01*
X70712500Y-156571446D01*
X70908946Y-156375000D01*
X71616054Y-156375000D01*
X71812500Y-156571446D01*
X72008946Y-156375000D01*
X72716054Y-156375000D01*
X72912500Y-156571446D01*
X73108946Y-156375000D01*
X72912500Y-156178554D01*
X72716054Y-156375000D01*
X72008946Y-156375000D01*
X71812500Y-156178554D01*
X71616054Y-156375000D01*
X70908946Y-156375000D01*
X70712500Y-156178554D01*
X70516054Y-156375000D01*
X53681915Y-156375000D01*
X53680101Y-156353874D01*
X53712706Y-156292079D01*
X53770584Y-156258449D01*
X53785858Y-156254499D01*
X53801872Y-156254499D01*
X53861483Y-156248091D01*
X53996331Y-156197796D01*
X54111546Y-156111546D01*
X54197796Y-155996331D01*
X54248091Y-155861483D01*
X54254500Y-155801873D01*
X54254500Y-155751126D01*
X69962500Y-155751126D01*
X69962500Y-155898873D01*
X69991320Y-156043759D01*
X69991322Y-156043767D01*
X70034921Y-156149024D01*
X70358946Y-155825000D01*
X70358946Y-155824999D01*
X70329110Y-155795163D01*
X70562500Y-155795163D01*
X70562500Y-155854837D01*
X70585336Y-155909968D01*
X70627532Y-155952164D01*
X70682663Y-155975000D01*
X70742337Y-155975000D01*
X70797468Y-155952164D01*
X70839664Y-155909968D01*
X70862500Y-155854837D01*
X70862500Y-155825000D01*
X71066054Y-155825000D01*
X71262500Y-156021446D01*
X71458946Y-155825000D01*
X71429109Y-155795163D01*
X71662500Y-155795163D01*
X71662500Y-155854837D01*
X71685336Y-155909968D01*
X71727532Y-155952164D01*
X71782663Y-155975000D01*
X71842337Y-155975000D01*
X71897468Y-155952164D01*
X71939664Y-155909968D01*
X71962500Y-155854837D01*
X71962500Y-155825000D01*
X72166054Y-155825000D01*
X72362500Y-156021446D01*
X72558946Y-155825000D01*
X72529109Y-155795163D01*
X72762500Y-155795163D01*
X72762500Y-155854837D01*
X72785336Y-155909968D01*
X72827532Y-155952164D01*
X72882663Y-155975000D01*
X72942337Y-155975000D01*
X72997468Y-155952164D01*
X73039664Y-155909968D01*
X73062500Y-155854837D01*
X73062500Y-155824999D01*
X73266054Y-155824999D01*
X73266054Y-155825001D01*
X73590077Y-156149024D01*
X73590078Y-156149024D01*
X73633675Y-156043775D01*
X73633679Y-156043760D01*
X73662499Y-155898873D01*
X73662500Y-155898871D01*
X73662500Y-155751128D01*
X73662499Y-155751126D01*
X73633679Y-155606240D01*
X73633678Y-155606236D01*
X73590077Y-155500975D01*
X73266054Y-155824999D01*
X73062500Y-155824999D01*
X73062500Y-155795163D01*
X73039664Y-155740032D01*
X72997468Y-155697836D01*
X72942337Y-155675000D01*
X72882663Y-155675000D01*
X72827532Y-155697836D01*
X72785336Y-155740032D01*
X72762500Y-155795163D01*
X72529109Y-155795163D01*
X72362500Y-155628554D01*
X72166054Y-155825000D01*
X71962500Y-155825000D01*
X71962500Y-155795163D01*
X71939664Y-155740032D01*
X71897468Y-155697836D01*
X71842337Y-155675000D01*
X71782663Y-155675000D01*
X71727532Y-155697836D01*
X71685336Y-155740032D01*
X71662500Y-155795163D01*
X71429109Y-155795163D01*
X71262500Y-155628554D01*
X71066054Y-155825000D01*
X70862500Y-155825000D01*
X70862500Y-155795163D01*
X70839664Y-155740032D01*
X70797468Y-155697836D01*
X70742337Y-155675000D01*
X70682663Y-155675000D01*
X70627532Y-155697836D01*
X70585336Y-155740032D01*
X70562500Y-155795163D01*
X70329110Y-155795163D01*
X70034921Y-155500974D01*
X70034920Y-155500974D01*
X69991323Y-155606228D01*
X69991320Y-155606240D01*
X69962500Y-155751126D01*
X54254500Y-155751126D01*
X54254500Y-155147420D01*
X70388474Y-155147420D01*
X70388474Y-155147421D01*
X70712500Y-155471446D01*
X70712501Y-155471446D01*
X71036524Y-155147421D01*
X71036522Y-155147420D01*
X71488474Y-155147420D01*
X71488474Y-155147421D01*
X71812500Y-155471446D01*
X71812501Y-155471446D01*
X72136524Y-155147421D01*
X72136522Y-155147420D01*
X72588474Y-155147420D01*
X72588474Y-155147421D01*
X72912500Y-155471446D01*
X72912501Y-155471446D01*
X73236524Y-155147421D01*
X73131267Y-155103822D01*
X73131259Y-155103820D01*
X72986372Y-155075000D01*
X72838628Y-155075000D01*
X72693740Y-155103820D01*
X72693728Y-155103823D01*
X72588474Y-155147420D01*
X72136522Y-155147420D01*
X72031267Y-155103822D01*
X72031259Y-155103820D01*
X71886372Y-155075000D01*
X71738628Y-155075000D01*
X71593740Y-155103820D01*
X71593728Y-155103823D01*
X71488474Y-155147420D01*
X71036522Y-155147420D01*
X70931267Y-155103822D01*
X70931259Y-155103820D01*
X70786372Y-155075000D01*
X70638628Y-155075000D01*
X70493740Y-155103820D01*
X70493728Y-155103823D01*
X70388474Y-155147420D01*
X54254500Y-155147420D01*
X54254499Y-154198128D01*
X54248091Y-154138517D01*
X54233911Y-154100499D01*
X54197797Y-154003671D01*
X54197793Y-154003664D01*
X54111546Y-153888454D01*
X54111544Y-153888452D01*
X53996335Y-153802206D01*
X53996328Y-153802202D01*
X53861482Y-153751908D01*
X53861483Y-153751908D01*
X53801883Y-153745501D01*
X53801881Y-153745500D01*
X53801873Y-153745500D01*
X53801864Y-153745500D01*
X52198129Y-153745500D01*
X52198123Y-153745501D01*
X52138516Y-153751908D01*
X52003671Y-153802202D01*
X52003664Y-153802206D01*
X51888455Y-153888452D01*
X51888454Y-153888454D01*
X51802206Y-154003664D01*
X51802202Y-154003671D01*
X51751908Y-154138517D01*
X51745501Y-154198116D01*
X51745501Y-154198123D01*
X51745500Y-154198135D01*
X40500500Y-154198135D01*
X40500500Y-151006961D01*
X40501280Y-150993077D01*
X40501449Y-150991577D01*
X40511460Y-150902729D01*
X40517635Y-150875670D01*
X40545353Y-150796456D01*
X40557396Y-150771450D01*
X40602046Y-150700389D01*
X40619351Y-150678690D01*
X40678690Y-150619351D01*
X40700389Y-150602046D01*
X40771450Y-150557396D01*
X40796456Y-150545353D01*
X40875670Y-150517635D01*
X40902733Y-150511459D01*
X40965419Y-150504396D01*
X40993079Y-150501280D01*
X41006962Y-150500500D01*
X41065892Y-150500500D01*
X49425180Y-150500500D01*
X49492219Y-150520185D01*
G37*
%TD.AperFunction*%
%TA.AperFunction,Conductor*%
G36*
X103427626Y-188416669D02*
G01*
X103484474Y-188515131D01*
X103564869Y-188595526D01*
X103663331Y-188652374D01*
X103756275Y-188677278D01*
X103185835Y-189247716D01*
X103208505Y-189264186D01*
X103210132Y-189265016D01*
X103210640Y-189265496D01*
X103212657Y-189266732D01*
X103212397Y-189267155D01*
X103260927Y-189312992D01*
X103277721Y-189380813D01*
X103255182Y-189446948D01*
X103200466Y-189490398D01*
X103153835Y-189499500D01*
X101967267Y-189499500D01*
X101900228Y-189479815D01*
X101854473Y-189427011D01*
X101844529Y-189357853D01*
X101873554Y-189294297D01*
X101907807Y-189267490D01*
X101907605Y-189267160D01*
X101910488Y-189265393D01*
X101910969Y-189265017D01*
X101911349Y-189264822D01*
X101911757Y-189264615D01*
X102062822Y-189154859D01*
X102194859Y-189022822D01*
X102304615Y-188871757D01*
X102389387Y-188705381D01*
X102442333Y-188542429D01*
X102481768Y-188484758D01*
X102546127Y-188457559D01*
X102614973Y-188469473D01*
X102666449Y-188516717D01*
X102678193Y-188542432D01*
X102731077Y-188705193D01*
X102815811Y-188871491D01*
X102832282Y-188894162D01*
X103402721Y-188323723D01*
X103427626Y-188416669D01*
G37*
%TD.AperFunction*%
%TA.AperFunction,Conductor*%
G36*
X70991444Y-186138999D02*
G01*
X71030486Y-186184056D01*
X71034951Y-186192820D01*
X71159890Y-186364786D01*
X71310213Y-186515109D01*
X71482179Y-186640048D01*
X71482181Y-186640049D01*
X71482184Y-186640051D01*
X71491493Y-186644794D01*
X71542290Y-186692766D01*
X71559087Y-186760587D01*
X71536552Y-186826722D01*
X71491505Y-186865760D01*
X71482446Y-186870376D01*
X71482440Y-186870380D01*
X71428282Y-186909727D01*
X71428282Y-186909728D01*
X72060591Y-187542037D01*
X71997007Y-187559075D01*
X71882993Y-187624901D01*
X71789901Y-187717993D01*
X71724075Y-187832007D01*
X71707037Y-187895591D01*
X71036818Y-187225372D01*
X71003333Y-187164049D01*
X71000499Y-187137691D01*
X71000499Y-187127129D01*
X71000498Y-187127123D01*
X71000497Y-187127116D01*
X70994091Y-187067517D01*
X70992667Y-187063700D01*
X70943797Y-186932671D01*
X70943793Y-186932664D01*
X70857547Y-186817455D01*
X70857544Y-186817452D01*
X70742335Y-186731206D01*
X70742328Y-186731202D01*
X70610917Y-186682189D01*
X70554983Y-186640318D01*
X70530566Y-186574853D01*
X70545418Y-186506580D01*
X70566563Y-186478332D01*
X70680104Y-186364792D01*
X70685292Y-186357652D01*
X70805048Y-186192820D01*
X70805047Y-186192820D01*
X70805051Y-186192816D01*
X70809514Y-186184054D01*
X70857488Y-186133259D01*
X70925308Y-186116463D01*
X70991444Y-186138999D01*
G37*
%TD.AperFunction*%
%TA.AperFunction,Conductor*%
G36*
X78611444Y-186138999D02*
G01*
X78650486Y-186184056D01*
X78654951Y-186192820D01*
X78779890Y-186364786D01*
X78930213Y-186515109D01*
X79102179Y-186640048D01*
X79102181Y-186640049D01*
X79102184Y-186640051D01*
X79111493Y-186644794D01*
X79162290Y-186692766D01*
X79179087Y-186760587D01*
X79156552Y-186826722D01*
X79111505Y-186865760D01*
X79102446Y-186870376D01*
X79102440Y-186870380D01*
X79048282Y-186909727D01*
X79048282Y-186909728D01*
X79680591Y-187542037D01*
X79617007Y-187559075D01*
X79502993Y-187624901D01*
X79409901Y-187717993D01*
X79344075Y-187832007D01*
X79327037Y-187895591D01*
X78694728Y-187263282D01*
X78694727Y-187263282D01*
X78655380Y-187317440D01*
X78655376Y-187317446D01*
X78650760Y-187326505D01*
X78602781Y-187377297D01*
X78534959Y-187394087D01*
X78468826Y-187371543D01*
X78429794Y-187326493D01*
X78425051Y-187317184D01*
X78425049Y-187317181D01*
X78425048Y-187317179D01*
X78300109Y-187145213D01*
X78149786Y-186994890D01*
X77977820Y-186869951D01*
X77969600Y-186865763D01*
X77969054Y-186865485D01*
X77918259Y-186817512D01*
X77901463Y-186749692D01*
X77923999Y-186683556D01*
X77969054Y-186644515D01*
X77977816Y-186640051D01*
X78059556Y-186580664D01*
X78149786Y-186515109D01*
X78149788Y-186515106D01*
X78149792Y-186515104D01*
X78300104Y-186364792D01*
X78300106Y-186364788D01*
X78300109Y-186364786D01*
X78425048Y-186192820D01*
X78425047Y-186192820D01*
X78425051Y-186192816D01*
X78429514Y-186184054D01*
X78477488Y-186133259D01*
X78545308Y-186116463D01*
X78611444Y-186138999D01*
G37*
%TD.AperFunction*%
%TA.AperFunction,Conductor*%
G36*
X73531444Y-186138999D02*
G01*
X73570486Y-186184056D01*
X73574951Y-186192820D01*
X73699890Y-186364786D01*
X73850213Y-186515109D01*
X74022182Y-186640050D01*
X74030946Y-186644516D01*
X74081742Y-186692491D01*
X74098536Y-186760312D01*
X74075998Y-186826447D01*
X74030946Y-186865484D01*
X74022182Y-186869949D01*
X73850213Y-186994890D01*
X73699890Y-187145213D01*
X73574949Y-187317182D01*
X73570202Y-187326499D01*
X73522227Y-187377293D01*
X73454405Y-187394087D01*
X73388271Y-187371548D01*
X73349234Y-187326495D01*
X73344626Y-187317452D01*
X73305270Y-187263282D01*
X73305269Y-187263282D01*
X72672962Y-187895589D01*
X72655925Y-187832007D01*
X72590099Y-187717993D01*
X72497007Y-187624901D01*
X72382993Y-187559075D01*
X72319409Y-187542037D01*
X72951716Y-186909728D01*
X72897547Y-186870373D01*
X72897547Y-186870372D01*
X72888500Y-186865763D01*
X72837706Y-186817788D01*
X72820912Y-186749966D01*
X72843451Y-186683832D01*
X72888508Y-186644793D01*
X72897816Y-186640051D01*
X72987554Y-186574853D01*
X73069786Y-186515109D01*
X73069788Y-186515106D01*
X73069792Y-186515104D01*
X73220104Y-186364792D01*
X73220106Y-186364788D01*
X73220109Y-186364786D01*
X73345048Y-186192820D01*
X73345047Y-186192820D01*
X73345051Y-186192816D01*
X73349514Y-186184054D01*
X73397488Y-186133259D01*
X73465308Y-186116463D01*
X73531444Y-186138999D01*
G37*
%TD.AperFunction*%
%TA.AperFunction,Conductor*%
G36*
X81047740Y-186319983D02*
G01*
X81082099Y-186380821D01*
X81078112Y-186450577D01*
X81075884Y-186456361D01*
X81030263Y-186566503D01*
X81030261Y-186566510D01*
X80999500Y-186721153D01*
X80999500Y-186878846D01*
X81030261Y-187033489D01*
X81030263Y-187033497D01*
X81054753Y-187092621D01*
X81062221Y-187162091D01*
X81030945Y-187224570D01*
X80970856Y-187260222D01*
X80930461Y-187263691D01*
X80925269Y-187263282D01*
X80292962Y-187895589D01*
X80275925Y-187832007D01*
X80210099Y-187717993D01*
X80117007Y-187624901D01*
X80002993Y-187559075D01*
X79939409Y-187542037D01*
X80571716Y-186909728D01*
X80517547Y-186870373D01*
X80517547Y-186870372D01*
X80508500Y-186865763D01*
X80457706Y-186817788D01*
X80440912Y-186749966D01*
X80463451Y-186683832D01*
X80508508Y-186644793D01*
X80517816Y-186640051D01*
X80607554Y-186574853D01*
X80689786Y-186515109D01*
X80689788Y-186515106D01*
X80689792Y-186515104D01*
X80840104Y-186364792D01*
X80861002Y-186336027D01*
X80916330Y-186293360D01*
X80985944Y-186287379D01*
X81047740Y-186319983D01*
G37*
%TD.AperFunction*%
%TA.AperFunction,Conductor*%
G36*
X76071444Y-186138999D02*
G01*
X76110486Y-186184056D01*
X76114951Y-186192820D01*
X76239890Y-186364786D01*
X76390213Y-186515109D01*
X76562182Y-186640050D01*
X76570946Y-186644516D01*
X76621742Y-186692491D01*
X76638536Y-186760312D01*
X76615998Y-186826447D01*
X76570946Y-186865484D01*
X76562182Y-186869949D01*
X76390213Y-186994890D01*
X76239890Y-187145213D01*
X76114949Y-187317182D01*
X76110484Y-187325946D01*
X76062509Y-187376742D01*
X75994688Y-187393536D01*
X75928553Y-187370998D01*
X75889516Y-187325946D01*
X75885050Y-187317182D01*
X75760109Y-187145213D01*
X75609786Y-186994890D01*
X75437820Y-186869951D01*
X75429600Y-186865763D01*
X75429054Y-186865485D01*
X75378259Y-186817512D01*
X75361463Y-186749692D01*
X75383999Y-186683556D01*
X75429054Y-186644515D01*
X75437816Y-186640051D01*
X75519556Y-186580664D01*
X75609786Y-186515109D01*
X75609788Y-186515106D01*
X75609792Y-186515104D01*
X75760104Y-186364792D01*
X75760106Y-186364788D01*
X75760109Y-186364786D01*
X75885048Y-186192820D01*
X75885047Y-186192820D01*
X75885051Y-186192816D01*
X75889514Y-186184054D01*
X75937488Y-186133259D01*
X76005308Y-186116463D01*
X76071444Y-186138999D01*
G37*
%TD.AperFunction*%
%TD*%
M02*
