M48
METRIC
T1C0.300
T2C0.300
T3C0.600
T4C0.700
T5C0.813
T6C0.864
T7C1.000
T8C2.380
%
G90
G05
T1
X48.5Y-168.2
X53.3Y-173.1
X54.8Y-184.75
X54.9Y-183.3
X55.2Y-177.0
X57.0Y-151.6
X57.6Y-173.8
X57.7Y-176.1
X58.1Y-169.4
X58.6Y-172.7
X58.7Y-164.0
X59.3Y-163.3
X59.6Y-168.8
X60.0Y-176.1
X60.1Y-169.4
X61.1Y-173.8
X61.8Y-180.8
X62.0Y-172.3
X62.5Y-169.3
X62.6Y-175.3
X64.1Y-173.1
X64.4Y-166.6
X64.761Y-174.539
X65.6Y-187.3
X65.8Y-171.3
X66.9Y-182.1
X67.4Y-178.8
X68.0Y-156.3
X68.1Y-178.1
X68.8Y-177.8
X69.3Y-168.1
X69.3Y-169.1
X69.5Y-180.089
X70.7Y-172.3
X71.0Y-160.65
X71.4Y-177.9
X71.5Y-175.6
X71.6Y-174.7
X72.2Y-151.2
X72.4Y-171.2
X72.75Y-178.889
X74.0Y-180.75
X75.5Y-178.25
X77.6Y-176.5
X77.7Y-153.4
X77.9Y-183.0
X78.0Y-158.2
X78.161Y-172.539
X78.3Y-180.3
X78.5Y-182.4
X79.3Y-171.3
X79.5Y-168.5
X80.0Y-169.7
X80.1Y-162.0
X81.6Y-157.3
X81.8Y-151.5
X81.8Y-182.8
X81.8Y-186.8
X81.817Y-174.93
X81.939Y-176.1
X82.4Y-166.4
X82.483Y-178.467
X82.53Y-173.539
X83.3Y-153.3
X83.3Y-169.8
X83.4Y-182.0
X83.851Y-173.539
X84.2Y-183.9
X84.5Y-178.5
X85.5Y-181.02
X86.0Y-167.0
X86.061Y-168.461
X86.9Y-164.2
X86.9Y-173.8
X86.9Y-176.1
X87.3Y-171.0
X87.4Y-182.2
X87.5Y-167.65
X87.5Y-168.8
X87.87Y-181.03
X89.5Y-170.9
X91.1Y-175.348
X91.1Y-180.9
X91.4Y-174.6
X91.9Y-173.6
X92.0Y-177.211
X92.8Y-185.2
X93.1Y-175.6
X93.7Y-181.1
X93.8Y-172.4
X94.5Y-176.5
X94.6Y-166.3
X95.3Y-187.45
X95.4Y-151.5
X95.5Y-172.7
X96.3Y-178.3
X97.1Y-176.0
X97.7Y-174.2
X100.5Y-186.2
X101.6Y-174.7
X101.7Y-178.8
X107.2Y-161.3
X107.3Y-162.8
X108.7Y-161.2
X108.8Y-162.7
T2
X70.712Y-155.825
X70.712Y-156.925
X70.712Y-158.025
X71.812Y-155.825
X71.812Y-156.925
X71.812Y-158.025
X72.912Y-155.825
X72.912Y-156.925
X72.912Y-158.025
X83.55Y-175.15
X83.55Y-176.0
X83.55Y-176.85
X84.4Y-175.15
X84.4Y-176.0
X84.4Y-176.85
X85.25Y-175.15
X85.25Y-176.0
X85.25Y-176.85
T4
X106.0Y-169.5
X106.0Y-174.5
X106.0Y-179.5
X106.0Y-184.5
X108.5Y-165.5
X108.5Y-168.0
X108.5Y-170.5
X108.5Y-173.0
X108.5Y-175.5
X108.5Y-178.0
X108.5Y-180.5
X108.5Y-183.0
X108.5Y-185.5
X108.5Y-188.0
T5
X49.9Y-172.3
X49.9Y-174.3
T6
X43.335Y-178.208
X45.875Y-178.208
X48.415Y-178.208
X98.75Y-188.25
X101.29Y-188.25
X103.83Y-188.25
T7
X53.0Y-155.0
X53.0Y-157.5
X53.0Y-159.5
X53.0Y-162.0
X69.65Y-185.485
X69.65Y-188.025
X72.19Y-185.485
X72.19Y-188.025
X74.73Y-185.485
X74.73Y-188.025
X77.27Y-185.485
X77.27Y-188.025
X79.81Y-185.485
X79.81Y-188.025
X82.35Y-185.485
X82.35Y-188.025
T8
X50.29Y-151.93
X50.29Y-165.07
T3
G00X42.68Y-183.45
M15
G01X42.68Y-184.05
M16
G05
G00X42.68Y-187.25
M15
G01X42.68Y-187.85
M16
G05
G00X51.32Y-183.45
M15
G01X51.32Y-184.05
M16
G05
G00X51.32Y-187.25
M15
G01X51.32Y-187.85
M16
G05
M30
